<svg xmlns="http://www.w3.org/2000/svg" viewBox="0 0 800 420" width="800" height="420">
  <defs>
    <linearGradient id="bg" x1="0%" y1="0%" x2="100%" y2="100%">
      <stop offset="0%" style="stop-color:#060d1a"/>
      <stop offset="100%" style="stop-color:#0f1e30"/>
    </linearGradient>
    <linearGradient id="accentGrad" x1="0%" y1="0%" x2="100%" y2="0%">
      <stop offset="0%" style="stop-color:#c43e14"/>
      <stop offset="100%" style="stop-color:#e8521a"/>
    </linearGradient>
    <linearGradient id="goldGrad" x1="0%" y1="0%" x2="100%" y2="100%">
      <stop offset="0%" style="stop-color:#d4a842"/>
      <stop offset="100%" style="stop-color:#b8922e"/>
    </linearGradient>
    <linearGradient id="drumGrad" x1="0%" y1="0%" x2="0%" y2="100%">
      <stop offset="0%" style="stop-color:#1e2a3d"/>
      <stop offset="100%" style="stop-color:#0d1a2d"/>
    </linearGradient>
  </defs>

  <!-- Background -->
  <rect width="800" height="420" fill="url(#bg)"/>

  <!-- Subtle grid -->
  <line x1="0" y1="140" x2="800" y2="140" stroke="rgba(255,255,255,0.03)" stroke-width="1"/>
  <line x1="0" y1="280" x2="800" y2="280" stroke="rgba(255,255,255,0.03)" stroke-width="1"/>
  <line x1="200" y1="0" x2="200" y2="420" stroke="rgba(255,255,255,0.03)" stroke-width="1"/>
  <line x1="400" y1="0" x2="400" y2="420" stroke="rgba(255,255,255,0.03)" stroke-width="1"/>
  <line x1="600" y1="0" x2="600" y2="420" stroke="rgba(255,255,255,0.03)" stroke-width="1"/>

  <!-- Roasting drum (center) -->
  <ellipse cx="360" cy="210" rx="90" ry="78" fill="url(#drumGrad)" stroke="rgba(255,255,255,0.15)" stroke-width="2"/>
  <ellipse cx="360" cy="210" rx="70" ry="58" fill="none" stroke="rgba(255,255,255,0.07)" stroke-width="1.5"/>
  <ellipse cx="360" cy="210" rx="50" ry="40" fill="none" stroke="rgba(255,255,255,0.05)" stroke-width="1"/>
  <circle cx="360" cy="210" r="12" fill="rgba(212,168,66,0.18)" stroke="rgba(212,168,66,0.4)" stroke-width="1.5"/>
  <circle cx="360" cy="210" r="5" fill="rgba(212,168,66,0.4)"/>
  <!-- Drum spokes -->
  <line x1="360" y1="132" x2="360" y2="147" stroke="rgba(255,255,255,0.12)" stroke-width="2" stroke-linecap="round"/>
  <line x1="360" y1="273" x2="360" y2="288" stroke="rgba(255,255,255,0.12)" stroke-width="2" stroke-linecap="round"/>
  <line x1="270" y1="210" x2="285" y2="210" stroke="rgba(255,255,255,0.12)" stroke-width="2" stroke-linecap="round"/>
  <line x1="435" y1="210" x2="450" y2="210" stroke="rgba(255,255,255,0.12)" stroke-width="2" stroke-linecap="round"/>
  <line x1="296" y1="149" x2="307" y2="160" stroke="rgba(255,255,255,0.09)" stroke-width="2" stroke-linecap="round"/>
  <line x1="424" y1="149" x2="413" y2="160" stroke="rgba(255,255,255,0.09)" stroke-width="2" stroke-linecap="round"/>
  <line x1="296" y1="271" x2="307" y2="260" stroke="rgba(255,255,255,0.09)" stroke-width="2" stroke-linecap="round"/>
  <line x1="424" y1="271" x2="413" y2="260" stroke="rgba(255,255,255,0.09)" stroke-width="2" stroke-linecap="round"/>
  <!-- Drum label -->
  <text x="360" y="205" font-family="Arial, sans-serif" font-size="7" font-weight="700" fill="rgba(212,168,66,0.55)" text-anchor="middle" letter-spacing="2.5">SPECIALTY</text>
  <text x="360" y="220" font-family="Arial, sans-serif" font-size="7" font-weight="700" fill="rgba(212,168,66,0.55)" text-anchor="middle" letter-spacing="2.5">ROASTER</text>
  <!-- Orange accent band -->
  <rect x="270" y="204" width="180" height="3" fill="url(#accentGrad)" opacity="0.55"/>

  <!-- Flames under drum -->
  <path d="M308 292 Q318 272 328 288 Q338 268 348 286 Q358 266 368 284 Q378 268 388 286 Q398 272 408 292Z" fill="url(#accentGrad)" opacity="0.65"/>
  <path d="M322 292 Q330 278 338 290 Q346 273 354 288 Q362 276 370 290 Q378 279 386 292Z" fill="#e8521a" opacity="0.45"/>

  <!-- Steam wisps above drum -->
  <path d="M328 130 Q323 112 330 94 Q337 76 333 58" fill="none" stroke="rgba(255,255,255,0.11)" stroke-width="2" stroke-linecap="round"/>
  <path d="M360 128 Q355 108 362 89 Q369 70 365 52" fill="none" stroke="rgba(255,255,255,0.09)" stroke-width="2" stroke-linecap="round"/>
  <path d="M392 130 Q397 112 390 94 Q383 76 387 58" fill="none" stroke="rgba(255,255,255,0.11)" stroke-width="2" stroke-linecap="round"/>

  <!-- Roaster stand -->
  <rect x="312" y="288" width="96" height="11" rx="2" fill="rgba(255,255,255,0.08)" stroke="rgba(255,255,255,0.1)" stroke-width="1"/>
  <rect x="330" y="299" width="11" height="26" rx="1" fill="rgba(255,255,255,0.06)"/>
  <rect x="379" y="299" width="11" height="26" rx="1" fill="rgba(255,255,255,0.06)"/>
  <rect x="320" y="325" width="80" height="5" rx="1" fill="rgba(255,255,255,0.07)"/>

  <!-- Left panel: top 10 list -->
  <rect x="55" y="108" width="185" height="238" rx="4" fill="rgba(255,255,255,0.03)" stroke="rgba(255,255,255,0.09)" stroke-width="1"/>
  <rect x="55" y="108" width="185" height="30" rx="4" fill="rgba(212,168,66,0.10)"/>
  <rect x="55" y="126" width="185" height="12" fill="rgba(212,168,66,0.10)"/>
  <text x="147" y="128" font-family="Arial, sans-serif" font-size="7.5" font-weight="700" fill="rgba(212,168,66,0.8)" text-anchor="middle" letter-spacing="2">TOP 10 ROASTERS · 2026</text>

  <line x1="67" y1="157" x2="228" y2="157" stroke="rgba(255,255,255,0.05)" stroke-width="1"/>
  <text x="67" y="153" font-family="Arial, sans-serif" font-size="6.5" fill="rgba(212,168,66,0.70)" font-weight="700">01</text>
  <text x="85" y="153" font-family="Arial, sans-serif" font-size="7" fill="rgba(255,255,255,0.65)">Café Pista</text>

  <line x1="67" y1="175" x2="228" y2="175" stroke="rgba(255,255,255,0.05)" stroke-width="1"/>
  <text x="67" y="171" font-family="Arial, sans-serif" font-size="6.5" fill="rgba(212,168,66,0.60)" font-weight="700">02</text>
  <text x="85" y="171" font-family="Arial, sans-serif" font-size="7" fill="rgba(255,255,255,0.60)">Café Saint-Henri</text>

  <line x1="67" y1="193" x2="228" y2="193" stroke="rgba(255,255,255,0.05)" stroke-width="1"/>
  <text x="67" y="189" font-family="Arial, sans-serif" font-size="6.5" fill="rgba(212,168,66,0.52)" font-weight="700">03</text>
  <text x="85" y="189" font-family="Arial, sans-serif" font-size="7" fill="rgba(255,255,255,0.55)">Micro Espresso Bar</text>

  <line x1="67" y1="211" x2="228" y2="211" stroke="rgba(255,255,255,0.05)" stroke-width="1"/>
  <text x="67" y="207" font-family="Arial, sans-serif" font-size="6.5" fill="rgba(212,168,66,0.45)" font-weight="700">04</text>
  <text x="85" y="207" font-family="Arial, sans-serif" font-size="7" fill="rgba(255,255,255,0.50)">Dispatch Coffee</text>

  <line x1="67" y1="229" x2="228" y2="229" stroke="rgba(255,255,255,0.05)" stroke-width="1"/>
  <text x="67" y="225" font-family="Arial, sans-serif" font-size="6.5" fill="rgba(212,168,66,0.38)" font-weight="700">05</text>
  <text x="85" y="225" font-family="Arial, sans-serif" font-size="7" fill="rgba(255,255,255,0.47)">Brûlerie Saint-Denis</text>

  <line x1="67" y1="247" x2="228" y2="247" stroke="rgba(255,255,255,0.05)" stroke-width="1"/>
  <text x="67" y="243" font-family="Arial, sans-serif" font-size="6.5" fill="rgba(212,168,66,0.33)" font-weight="700">06</text>
  <text x="85" y="243" font-family="Arial, sans-serif" font-size="7" fill="rgba(255,255,255,0.44)">Tamp and Pull</text>

  <line x1="67" y1="265" x2="228" y2="265" stroke="rgba(255,255,255,0.05)" stroke-width="1"/>
  <text x="67" y="261" font-family="Arial, sans-serif" font-size="6.5" fill="rgba(212,168,66,0.28)" font-weight="700">07</text>
  <text x="85" y="261" font-family="Arial, sans-serif" font-size="7" fill="rgba(255,255,255,0.40)">Ambros Coffee Roasters</text>

  <line x1="67" y1="283" x2="228" y2="283" stroke="rgba(255,255,255,0.05)" stroke-width="1"/>
  <text x="67" y="279" font-family="Arial, sans-serif" font-size="6.5" fill="rgba(212,168,66,0.24)" font-weight="700">08</text>
  <text x="85" y="279" font-family="Arial, sans-serif" font-size="7" fill="rgba(255,255,255,0.37)">Café Falco</text>

  <line x1="67" y1="301" x2="228" y2="301" stroke="rgba(255,255,255,0.05)" stroke-width="1"/>
  <text x="67" y="297" font-family="Arial, sans-serif" font-size="6.5" fill="rgba(212,168,66,0.20)" font-weight="700">09</text>
  <text x="85" y="297" font-family="Arial, sans-serif" font-size="7" fill="rgba(255,255,255,0.33)">September Café</text>

  <line x1="67" y1="319" x2="228" y2="319" stroke="rgba(255,255,255,0.05)" stroke-width="1"/>
  <text x="67" y="315" font-family="Arial, sans-serif" font-size="6.5" fill="rgba(212,168,66,0.17)" font-weight="700">10</text>
  <text x="85" y="315" font-family="Arial, sans-serif" font-size="7" fill="rgba(255,255,255,0.30)">Pikolo Espresso Bar</text>

  <!-- Right panel: neighbourhoods -->
  <rect x="528" y="108" width="208" height="238" rx="4" fill="rgba(255,255,255,0.03)" stroke="rgba(255,255,255,0.09)" stroke-width="1"/>
  <rect x="528" y="108" width="208" height="30" rx="4" fill="rgba(196,62,20,0.11)"/>
  <rect x="528" y="126" width="208" height="12" fill="rgba(196,62,20,0.11)"/>
  <text x="632" y="128" font-family="Arial, sans-serif" font-size="7.5" font-weight="700" fill="rgba(232,82,26,0.85)" text-anchor="middle" letter-spacing="2">MONTRÉAL ROASTERS</text>

  <text x="545" y="162" font-family="Arial, sans-serif" font-size="6.5" fill="rgba(255,255,255,0.32)" letter-spacing="1">Rosemont · Saint-Laurent</text>
  <text x="545" y="178" font-family="Arial, sans-serif" font-size="7.5" fill="rgba(255,255,255,0.62)">Café Pista · Dispatch</text>
  <line x1="538" y1="184" x2="724" y2="184" stroke="rgba(255,255,255,0.05)" stroke-width="1"/>

  <text x="545" y="198" font-family="Arial, sans-serif" font-size="6.5" fill="rgba(255,255,255,0.32)" letter-spacing="1">Saint-Henri · Notre-Dame</text>
  <text x="545" y="214" font-family="Arial, sans-serif" font-size="7.5" fill="rgba(255,255,255,0.62)">Café Saint-Henri · Tamp &amp; Pull</text>
  <line x1="538" y1="220" x2="724" y2="220" stroke="rgba(255,255,255,0.05)" stroke-width="1"/>

  <text x="545" y="234" font-family="Arial, sans-serif" font-size="6.5" fill="rgba(255,255,255,0.32)" letter-spacing="1">Plateau · Milton-Parc</text>
  <text x="545" y="250" font-family="Arial, sans-serif" font-size="7.5" fill="rgba(255,255,255,0.62)">Micro · Pikolo · September</text>
  <line x1="538" y1="256" x2="724" y2="256" stroke="rgba(255,255,255,0.05)" stroke-width="1"/>

  <text x="545" y="270" font-family="Arial, sans-serif" font-size="6.5" fill="rgba(255,255,255,0.32)" letter-spacing="1">Mile End · Old Montreal</text>
  <text x="545" y="286" font-family="Arial, sans-serif" font-size="7.5" fill="rgba(255,255,255,0.62)">Falco · Ambros · Brûlerie</text>
  <line x1="538" y1="292" x2="724" y2="292" stroke="rgba(255,255,255,0.05)" stroke-width="1"/>

  <text x="632" y="325" font-family="Arial, sans-serif" font-size="6.5" fill="rgba(255,255,255,0.18)" text-anchor="middle" letter-spacing="0.8">10 ROASTERS ACROSS MONTRÉAL</text>

  <!-- Footer -->
  <text x="400" y="400" font-family="Arial, sans-serif" font-size="8.5" fill="rgba(255,255,255,0.18)" text-anchor="middle" letter-spacing="3">MONTREAL COFFEE GUIDE · 10 BEST ROASTERS · 2026</text>
</svg>
