<?xml version="1.0" encoding="UTF-8"?>
<svg id="Layer_2" data-name="Layer 2" xmlns="http://www.w3.org/2000/svg" viewBox="0 0 14.12 17.27">
  <g id="Layer_4" data-name="Layer 4">
    <g id="_5iAdFn" data-name="5iAdFn">
      <g>
        <path d="M2.33,3.58v.62s-.07,0-.1,0h-.58c-.12,0-.17.04-.21.16,0,.03-.01.06-.01.09-.06.84-.12,1.69-.18,2.53-.05.7-.1,1.39-.15,2.09-.06.8-.12,1.59-.17,2.39-.05.69-.1,1.38-.15,2.07-.05.68-.1,1.36-.15,2.04,0,.06,0,.12.02.18.02.08.08.13.17.13.53.04,1.07.08,1.6.13.58.05,1.15.09,1.73.14.4.03.79.06,1.19.09.49.04.99.08,1.48.12.39.03.79.06,1.18.09.5.04,1,.08,1.5.12.15.01.3.02.47.03-.17-4.14-.34-8.27-.51-12.41h-1.18v-.63h2.54s.01-.05.01-.07c-.04-.98-.37-1.82-1.1-2.49-.23-.21-.49-.35-.8-.42-.36-.08-.7,0-1.01.19-.15.09-.29.21-.44.32-.12-.14-.24-.29-.37-.44.02-.02.04-.04.06-.06.31-.26.65-.47,1.04-.56.52-.12,1.02-.03,1.49.23.39.22.71.51.97.87.45.61.71,1.3.78,2.05.01.12.02.24.03.36.03,0,.06,0,.09,0h.61c.44,0,.78.3.84.74.04.33.07.66.1.99.04.41.08.82.12,1.23.04.39.08.78.12,1.18.05.47.09.94.14,1.41.04.39.08.78.12,1.18.05.47.09.95.14,1.42.04.39.08.78.12,1.18.05.48.09.96.14,1.43.04.37.08.75.11,1.12.03.41-.2.76-.59.89-.86.28-1.72.57-2.58.84-.25.08-.5.1-.76.08-.4-.04-.79-.06-1.19-.09-.49-.04-.98-.08-1.47-.12-.4-.03-.79-.06-1.19-.09-.5-.04-1-.08-1.5-.12-.4-.03-.79-.06-1.19-.09-.5-.04-.99-.08-1.49-.12-.4-.03-.79-.06-1.19-.09-.09,0-.18-.01-.27-.02-.23-.03-.41-.15-.54-.34-.11-.17-.17-.36-.16-.56.02-.28.04-.56.06-.84.02-.34.05-.69.08-1.03.04-.57.08-1.14.12-1.72.03-.44.06-.89.09-1.33.03-.45.07-.89.1-1.34.02-.33.05-.66.07-1,.03-.46.07-.92.1-1.38.02-.33.05-.66.07-1,.03-.46.07-.92.1-1.38,0-.11.01-.22.03-.33.06-.34.31-.6.63-.67.02,0,.04,0,.06,0,.26,0,.53,0,.81,0Z"/>
        <path d="M8.11,4.02c0,.24,0,.47,0,.71,0,.07.01.13.07.18.15.17.17.42.06.61-.11.19-.33.31-.54.28-.24-.03-.42-.19-.47-.41-.05-.22,0-.41.18-.55.06-.05.07-.09.07-.16,0-.43.01-.86,0-1.29-.04-.82-.33-1.55-.89-2.16-.18-.2-.39-.36-.63-.48-.45-.23-.9-.22-1.35.03-.31.17-.56.41-.77.69-.47.64-.72,1.35-.72,2.15,0,.35,0,.7,0,1.05,0,.08.02.13.08.18.18.15.24.4.16.61-.08.21-.3.35-.52.35-.24,0-.44-.16-.51-.38-.06-.19-.03-.37.11-.52.04-.05.06-.1.06-.16,0-.45-.01-.9,0-1.34.06-1.04.45-1.94,1.19-2.68.2-.2.43-.37.69-.49.61-.3,1.23-.3,1.84,0,.42.2.75.5,1.03.86.47.6.74,1.29.82,2.05.03.29.03.59.04.89,0,0,0,0,0,0Z"/>
        <path d="M7.32,3.57v.62H3.28v-.61c.12-.01.24,0,.36,0,.12,0,.24,0,.37,0h1.83c.02-.8.24-1.52.67-2.2.03.03.05.04.06.06.1.14.19.28.29.41.03.05.03.09,0,.14-.19.38-.32.78-.37,1.21-.01.12-.02.24-.03.38.29,0,.57,0,.86,0Z"/>
      </g>
    </g>
  </g>
</svg>