<?xml version="1.0" encoding="UTF-8"?>
<svg id="Layer_2" data-name="Layer 2" xmlns="http://www.w3.org/2000/svg" viewBox="0 0 13.77 13.26">
  <defs>
    <style>
      .cls-1 {
        opacity: .3;
      }
    </style>
  </defs>
  <g id="Layer_4" data-name="Layer 4">
    <g id="_7uEFsy" data-name="7uEFsy" class="cls-1">
      <path d="M13.5,1.76c-.14.17-.82.6-.86.75-.03.1.15.32.15.58-.01.64-.63.8-1.12.48.11.53.45.98.62,1.51,2.13,6.95-7.22,11.31-11.17,5.44C-2.49,5.17,3.33-1.49,9.09,1.34c.15.07.96.63,1.01.59-.3-.78.53-1.26,1.14-.75.13-.02.58-.74.76-.89,1.03-.9,2.34.48,1.5,1.46ZM10.49,1.43c-.14.19-.06.3.06.46.1.14,1.26,1.32,1.37,1.38.22.13.47.06.49-.19s-.35-.35-.17-.76,1.87-1.09.88-1.81c-.9-.65-1.24,1.17-2.01,1.04-.22-.04-.36-.35-.62-.13ZM6.08,1.11c-1.58.03-3.27.79-4.23,2.05l1.97,1.59c.66-.54,1.37-1.02,2.26-1.04V1.11ZM6.46,1.11v2.49s1.66.55,1.66.55l1.76-1.81c-.92-.81-2.2-1.23-3.42-1.24ZM10.45,2.38l-3.32,3.31c-.33.44-.1.57-.2.83-.09.24-.6.48-.53.71l.14.17c.19.09.53-.46.67-.52.25-.11.68.03.93-.26l3.24-3.31-.92-.93ZM3.02,7.5c-.04-.86.07-1.71.6-2.41l-2.04-1.6C.54,4.76.24,6.51.5,8.11l2.52-.61ZM9.51,7.51l2.57.53c.3-1.41-.04-2.85-.71-4.1l-1.97,1.93c.11.54.29,1.09.11,1.64ZM7.25,7.41c-.32.24-.75.67-1.13.18-.47-.62.24-.9.37-1.19.11-.24.03-.51.23-.81.14-.22.97-.89,1-1.01.05-.24-1.02-.47-1.22-.48-2.78-.18-4.2,3.32-2.05,5.1,2.14,1.78,5.28-.2,4.66-2.87-.1-.13-.11-.02-.19.04-.32.25-.61.75-1.02.84s-.28-.07-.64.21ZM3.18,7.88l-2.5.59c-.14.19.35,1.16.48,1.39.55.97,1.42,1.75,2.36,2.33l1.14-2.33c-.66-.52-1.3-1.11-1.48-1.98ZM8.99,12.2c1.18-.59,2.17-1.63,2.69-2.85.08-.18.39-.79.21-.91l-2.45-.55c-.24.81-.8,1.51-1.54,1.93l1.09,2.38ZM8.61,12.42c.16-.18-.95-1.94-1-2.3-.11-.15-.99.15-1.27.16s-1.2-.26-1.3-.2l-1.11,2.24c1.43.78,3.18.64,4.68.11Z"/>
    </g>
  </g>
</svg>