<?xml version="1.0" encoding="UTF-8"?>
<svg id="Layer_2" data-name="Layer 2" xmlns="http://www.w3.org/2000/svg" viewBox="0 0 1517.82 1226.61">
  <g id="Layer_4" data-name="Layer 4">
    <g>
      <path d="M97.06,778.32c-60.32-5.54-99.63-48.36-96.93-109.13,3.18-71.55,20.63-154.62,29.52-226.98,12.19-99.18,21.42-198.98,35.33-297.96C75.69,68.01,88.32,10.95,177.26.02l1232.21-.02c44.94,2.49,82.79,22.42,100.58,65.2,17,40.89,1.59,95.45-3.6,138.37-17.31,143.37-32.95,287.51-52.74,430.6-7.66,55.36-6.63,77.12-52.31,113.46-59.24,47.13-129.75,89.62-191.67,134.65-101.41,73.75-199.76,151.96-293.35,235.39-34.43,30.7-68.15,66.8-102.92,96.02-9.88,8.3-17.83,15.04-31.54,12.29-12.93-2.59-19.68-11.77-20.8-24.54-3.94-44.69,31.5-146.58,47.05-191.96,27.04-78.89,59.97-156.15,101.23-228.57.18-.55-4.09-2.6-4.35-2.6H97.06ZM848.34,1094.13c2.68.51,4.05-.27,6.18-1.65,11.03-7.15,32.8-32.37,44.39-42.86,146.51-132.56,309.8-244.97,472.82-356.07l11.03-13.4c22.21-183.42,48.84-365.95,67.84-549.87.54-5.21,2.82-10.62,3.25-15.94,2.64-32.56-18.7-48.92-49.62-49.79-412.12,1.87-824.81-3.34-1236.58,2.62-9.57,2.57-17.51,6.88-22.94,15.45-14.49,22.85-15.21,79.55-19.08,108.3-21.65,160.55-41.71,321.24-62.48,482.08.52,19.93,14.57,39.42,35.58,40.81l844.79-.15c14.76,5.04,40.31-4.47,49.66,9.67,14.36,21.71-13.22,53.75-23.01,72.99-34.93,68.65-68.5,141.87-94.43,214.43-9.81,27.47-17.85,55.82-27.41,83.37Z"/>
      <path d="M397.22,528.79c1.24.34,6.1,5.67,6.11,7.87-5.1,18.39-5.33,38.74-9.2,57.09-1.39,6.57-4.37,19.13-11.63,21.53l-198.25.83c-25.25.84-14.69-30.79-12.8-47.84,2.47-22.37,7.2-44.52,10.03-66.75,12.3-96.73,20.81-194.57,35.37-290.93,3.11-20.59.97-30.87,24.98-32.6,63.73-4.6,132.95,3.59,197.27.08,5.9.67,12.06,2.35,14.04,8.63,1.89,5.99-3.38,35.79-4.96,44.07-.93,4.88-6.82,32.88-8.59,34.18l-139,2.33-8.96,81.78h103.83c16.73,0,7.05,32.26,6.13,41.03-1.27,12.05.62,44.22-14.77,46.31-29.48,3.99-68.67-2.47-99.63-.16-3.2.24-6.41.47-9.23,2.13l-9.02,90.43h128.27Z"/>
      <path d="M830.52,178.58c104.03-4.94,223.88-14,209.76,127.73-9.15,91.9-58.93,155.03-154.45,161.4-7.06.47-41.54-1.6-43.73,1.65l-18.64,134.92c-2.16,6.74-7.25,10.98-14.36,11.81-10.7,1.25-56.63,1.64-65.97-.42-15.71-3.47-4.65-35.69-3.2-46.06,11.93-85.37,22.92-170.91,35.35-256.05,5.36-36.68,9.67-81.4,17.65-116.71.71-3.16,4.35-14.88,6.51-16.18,10.28-.62,20.83-1.59,31.08-2.07ZM875.6,260.3c-2.97,1.03-3.54,6.69-4.11,9.85-6.43,35.25-8.82,72.23-15.74,107.51,1.46,3,4.07,5.62,7.46,6.27,6.47,1.24,32.8.79,39.68-.37,23.55-3.95,35.59-21.42,40.61-43.15,4.49-19.45,10.19-57.88-5.43-73.21-11.36-11.15-47.01-5.98-62.47-6.89Z"/>
      <path d="M496.69,265.31c-1.72-.48-3.93-4.11-4.32-6.15-1.77-9.28,7.83-71.4,13.09-77.56,1.44-1.69,3.45-2.62,5.56-3.16l231.44,2.98c4.13,2.6,3.01,15.19,2.68,19.99-1.08,15.59-8.71,56.93-15.82,69.67l-177.63,253.39c-.54,3.81.44,2.1,2.63,2.52,3.93.75,9.9,1.63,13.85,1.88,39.63,2.53,81.49-2.79,121.32.84,1.84,1.4,4.25,3.3,4.9,5.56,2.24,7.78-3.46,48.11-5.35,58.47-2.92,16.03-3.64,20.86-21.27,22.36-70.31,5.96-148.84-4.65-220.03.02-8.26.06-12.12-3.23-13.04-11.39-.78-6.92,5.5-59.51,7.96-65.39,52.62-86.01,121.78-166.21,174.28-251.5,1.79-2.91,12.02-18.71,9.75-20.78-3.75,1.72-9.44-1.75-11.34-1.75h-118.67Z"/>
      <path d="M1072.58,267.06c-8.13-1.72-8.25-9.84-7.83-16.55.85-13.62,7.52-52.26,12.22-64.56,2.67-6.98,7.79-7.31,14.73-7.96,59.78-5.53,127.93,4.33,188.61,0,4.53.12,12.96,1.61,14.43,6.51,2.07,6.86-.56,31.13-1.42,39.79-3.76,37.85-15.16,50.14-34.16,81.01-43.1,70.04-95.05,139.12-135.83,209.67-1.64,2.84-4.1,6.21-4.51,9.48-.44,3.58,8.53,4.06,11.37,4.31,30.65,2.71,65.53-2.83,96.04-.06,6.22.56,11.01,1.38,12.63,8.3,2.02,8.68-4.79,54.43-7.41,65.13-2.14,8.73-3.3,14.19-13.94,13.98-65.67-4.19-137.68,5.3-202.58-.01-21.54-1.76-12.1-16.46-10-31.08,1.96-13.67,4.08-27.3,6.17-40.95,47.82-86.97,110.5-165.56,160.82-251,4.7-7.98,11.55-16.62,11.49-26.03h-110.82Z"/>
      <path d="M1312.13,534.37c8.11-.99,26,5.31,31.9,10.92,19.68,18.7,2.86,64.04-24.06,68.59-32.44,5.49-50.78-13.42-45.72-45.71,2.28-14.52,23.55-32.05,37.88-33.8Z"/>
    </g>
  </g>
</svg>