<?xml version="1.0" encoding="UTF-8"?>
<svg id="Layer_2" data-name="Layer 2" xmlns="http://www.w3.org/2000/svg" viewBox="0 0 276.95 180.41">
  <defs>
    <style>
      .cls-1 {
        fill: #fff;
      }
    </style>
  </defs>
  <g id="Layer_4" data-name="Layer 4">
    <g>
      <path class="cls-1" d="M126.66,13.45c-3.69-3.3-6.81-5.87-11.26-8.15-29.32-14.98-64.68,3.29-68.86,35.85-.43,3.31,0,8.06-.8,11.02-.36,1.32-1.46,2.56-2,3.73-.77,1.68-1.09,3.66-2.46,4.99-.16.19-.31.19-.54.16-1.81-.2-7.11-6.66-9.08-8.15-4.11-3.1-11.63-6.83-16.76-4.91-.99.37-2.29,1.64-3.33,2.08-2.75,1.16-6.92.69-8.82,3.34-.41.58-1.31,2.65-1.44,3.31-.25,1.23.39,2.72.26,3.92-.36,3.18-2.46,3.73-.91,7.72,2.19,5.65,11.45,11.04,16.14,15.28,3.66,3.3,6.79,7.44,10.44,10.84,3.96,3.68,7.91,5.97,13.55,5,.71-.12,1.58-.96,2.33-.64,3.81,3.81,8.3,7.26,12.87,10.12,8.33,5.2,21.27,10.65,31.21,10.67,2.88,0,6.07-1.07,9.03-.25,5.21,1.46,12.14,10.1,15.95,14.1,3.61,3.8,10.27,9.49,12.08,14.27,1.74,4.6,1.52,10.67-5,8.38-2.22-.78-4.37-1.7-6.82-2.3-12.96-3.15-29.65-2.94-38.53,8.57-2.76,3.58-3.98,11.44-8.81,12.46-3.77.8-9.96-.09-13.98-.06-15.59.12-31.56-.21-47.04.85-.56.04-1.08-.33-1.64-.3-1.4.08-3.27,1.63-2.03,3.01.66.73,3.87.95,5.06,1.03,5.32.33,10.59-.09,15.89-.01,41.09.58,82.41,1.09,123.58,1.02,31.61-.06,63.29-.68,94.67-.91,10.24-.07,21,.5,31.31-.1,1.1-.06,4.61-.34,5.22-.85,3.39-2.84-4.8-3.28-6.02-3.33l-58.22-.28c-5.17-1.47-5.87-7.57-8.42-11.5-10.02-15.4-31.65-11.96-46.26-7.22-6.24,2.02-6.4-3.91-4.83-8.2,1.87-5.12,8.7-10.9,12.5-14.85,3.48-3.62,9.69-11.39,14.16-13.2,4.13-1.67,6.47-.37,10.48-.33,9.75.11,23.05-5.56,31.21-10.67,4.53-2.83,9.2-6.31,12.86-10.12.86-.47,1.94.57,2.86.74,9.88,1.83,17.12-10.2,23.46-15.93,4.05-3.66,9.06-6.73,12.86-10.45,1.43-1.4,3.97-5.1,4-7.09.02-1.71-1.42-3.73-1.63-5.11-.19-1.21.47-2.52.26-3.93-1.01-6.57-5.47-5.19-9.96-6.94-1.2-.47-2.91-2-3.79-2.29-5.25-1.71-12.62,2.09-16.74,5.26-1.84,1.41-7.29,7.79-8.83,8.02-1.51.23-2.53-3.97-3.1-5.21-.42-.93-1.78-2.56-2-3.4-.86-3.24-.3-8.15-.79-11.71-5.25-38.3-50.8-53.62-79.63-28.03-2.77,2.46-8.4,9.3-12.08,9.49-3.22.17-9.34-6.6-11.81-8.81Z"/>
      <path d="M126.66,13.45c2.47,2.21,8.59,8.98,11.81,8.81,3.68-.19,9.31-7.03,12.08-9.49,28.83-25.6,74.38-10.27,79.63,28.03.49,3.56-.07,8.46.79,11.71.22.84,1.58,2.47,2,3.4.57,1.25,1.58,5.44,3.1,5.21,1.54-.23,6.99-6.61,8.83-8.02,4.12-3.16,11.49-6.96,16.74-5.26.88.29,2.59,1.82,3.79,2.29,4.49,1.75,8.95.37,9.96,6.94.22,1.41-.44,2.73-.26,3.93.21,1.38,1.65,3.4,1.63,5.11-.02,1.99-2.57,5.69-4,7.09-3.8,3.73-8.81,6.79-12.86,10.45-6.34,5.73-13.58,17.76-23.46,15.93-.92-.17-2.01-1.21-2.86-.74-3.66,3.81-8.33,7.29-12.86,10.12-8.16,5.1-21.46,10.77-31.21,10.67-4-.04-6.34-1.34-10.48.33-4.48,1.81-10.68,9.58-14.16,13.2-3.8,3.95-10.63,9.73-12.5,14.85-1.57,4.29-1.41,10.23,4.83,8.2,14.61-4.74,36.25-8.18,46.26,7.22,2.55,3.93,3.25,10.03,8.42,11.5l58.22.28c1.22.06,9.42.49,6.02,3.33-.62.52-4.12.79-5.22.85-10.31.59-21.07.02-31.31.1-31.38.22-63.06.85-94.67.91-41.17.07-82.48-.44-123.58-1.02-5.3-.07-10.56.34-15.89.01-1.19-.07-4.4-.3-5.06-1.03-1.24-1.38.64-2.94,2.03-3.01.56-.03,1.07.33,1.64.3,15.47-1.07,31.45-.73,47.04-.85,4.01-.03,10.21.86,13.98.06,4.83-1.03,6.05-8.88,8.81-12.46,8.88-11.51,25.56-11.73,38.53-8.57,2.45.6,4.59,1.52,6.82,2.3,6.52,2.29,6.74-3.77,5-8.38-1.81-4.78-8.47-10.47-12.08-14.27-3.81-4.01-10.73-12.65-15.95-14.1-2.96-.83-6.15.25-9.03.25-9.94-.02-22.88-5.47-31.21-10.67-4.57-2.86-9.07-6.31-12.87-10.12-.75-.32-1.62.52-2.33.64-5.63.96-9.59-1.33-13.55-5-3.65-3.39-6.78-7.53-10.44-10.84-4.69-4.24-13.95-9.63-16.14-15.28-1.55-3.99.55-4.54.91-7.72.14-1.2-.5-2.69-.26-3.92.13-.66,1.03-2.74,1.44-3.31,1.9-2.65,6.07-2.18,8.82-3.34,1.03-.44,2.34-1.71,3.33-2.08,5.12-1.92,12.65,1.81,16.76,4.91,1.97,1.49,7.27,7.95,9.08,8.15.23.02.38.03.54-.16,1.38-1.33,1.69-3.31,2.46-4.99.54-1.18,1.65-2.41,2-3.73.8-2.97.37-7.71.8-11.02C50.72,8.59,86.08-9.68,115.39,5.3c4.46,2.28,7.58,4.85,11.26,8.15ZM209.83,13.37c-14.54-11.39-37.37-11.82-51.99-.4-6.13,4.79-10.95,12.18-16.48,17.29-2.21,2.05-3.54,2.29-5.84.17-7.07-6.52-11.92-15.03-20.7-20.16-26.73-15.63-62.02,2.54-64.59,33.22-.21,2.47,0,6.31,1.26,8.49.67,1.16,1.54,1.3,2.25,2.14,3.7,4.37,2.06,8.15,2.2,12.97.17,5.81,9.22,12.91,13.19,16.89,6.58,6.62,13.43,13.47,19.72,19.78,14.61,14.64,29.13,29.29,43.78,44.03,2.19,1.35,3.84,2.48,6.56,2.22,4.88-.46,13.52-11.16,17.22-14.85,17.19-17.15,34.19-34.14,51.33-51.36,3.97-3.99,13.13-11.08,13.04-17.04-.05-3.66-1.11-5.43.32-9.44.93-2.58,3.1-3.57,4.11-5.35,3.63-6.4-1.39-20.66-4.86-26.69-1.94-3.38-7.46-9.51-10.53-11.92ZM248.91,62.33c1.53-1.64,4.24-3.88,5.99-5.33,1.04-.86,4.07-2.1,4.03-3.76-.97-1.88-3.83-1.43-5.48-.74-5.24,2.18-13.04,9.69-15.8,14.59-1.81,3.21-2.36,6.5-2.65,10.11-1.56.87-2.56-.66-2.89-2.01-.7-2.9-.12-8.04-.55-11.44-.16-1.23-1.16-6.05-1.86-6.58-2.04-1.54-4.12-.58-5.11,1.57-1.23,2.66.09,4.76.55,7.38.93,5.33,1.19,10.45,1.93,15.6.47,3.28,2.72,4.81,3.12,6.73.62,3-1.53,2.09-3,2.27-2.38.29-5.89,4.32-7.96,5.87-6.21,4.65-15.58,9.51-23.33,10.37-2.06.23-3.36-.4-5.4.76-1.1.63-3.91,3.45-4.13,4.65-.32,1.75.02,1.97,1.59,2.42,10.78,3.1,32.57-8.68,40.61-15.95,1.76-1.59,2.04-2.82,3.21-4.22,2.02-2.41,4.32,1.56,7.09,1.5,5.86-.13,11.13-8.25,15.02-12.15,4.45-4.45,8.55-7.22,13.3-11.03,1.12-.9,8.44-7.29,4.43-8.05-3.04-.58-8.77,3.14-11.36,4.85-1.59,1.06-7.38,6.01-8.85,5.58-.58-.32-.95-1.1-.84-1.75.38-2.39,12.18-9.61,14.63-11.06,2.07-1.23,6.31-2.35,5.91-5.53-.21-1.64-2.13-2.21-3.55-2.24-4.97-.11-13.56,7.8-17.22,11.15-.97.89-4.06,5.2-5.42,3.05-.68-1.07,3.17-5.72,4.02-6.64ZM33.2,59.63c-2.78-2.69-9.69-8-13.57-7.55-5.05.58,1.12,4.07,2.18,4.94,2.07,1.71,10.2,9.01,10.15,11.45l-.47.87c-1.49,1.19-4.06-2.48-5.08-3.42-3.66-3.37-12.76-11.82-17.81-11.04-2.97.46-4.23,2.5-1.96,4.81,2.06,2.11,8.37,4.66,11.27,6.63,1.7,1.15,6.7,4.91,7.8,6.39,1.98,2.67-1,3.12-3.27,1.58-4.22-2.85-10.13-8.48-15.36-9.29-7.16-1.12.12,6.08,2.11,7.69,5.84,4.73,10.6,8.19,16.04,13.68,3.39,3.42,7.26,9.98,12.88,9.77,2.51-.09,4.71-3.49,6.83-1.86.33.26.37,1.16.74,1.7,6.37,9.14,32.37,21.78,43.4,18.78,3.83-1.04-.99-5.97-2.81-7.01-2.13-1.21-3.73-.59-5.93-.84-8.59-.98-18.16-6.67-24.88-11.92-1.28-1-3.57-3.81-5.08-4.04-1.08-.17-3.15.42-3.7-.69-1.07-2.18,1.43-3.86,2.21-5.56,1.42-3.12.7-8.03,1.47-11.44.25-3.62,2.25-8.56,2.47-11.92.23-3.67-3.57-6.75-6.4-3.42-.51,3.04-1.35,6.13-1.59,9.21-.19,2.33.48,8.14-1,9.81-.43.49-1.7.82-2.08.29-.6-1.49-.1-3.1-.38-4.62-.71-3.82-5.34-10.26-8.14-12.96ZM199.38,98.92c-.24.32-1.12.54-1.19,1.29.66.97,2,1.26,3.11,1.16,2.77-.25,11.42-5.19,14.02-6.95,1.42-.96,5.43-3.92,6.43-5.05,1.51-1.72,1.96-3.77,1.69-6.03-.19-1.61-.29-2.33-.39-3.99-.19-3.29-2.37-2.81-4.27-1.06-1.32,1.21-1.75,2.77-2.58,3.83-4.55,5.76-12.29,10.77-16.81,16.8ZM63.86,85.38c-1.67-1.75-2.8-3.39-4.19-5.1-1.48-1.81-5.71-5.86-6-.92-.09,1.53-.17,2.23-.34,3.71-.27,2.31-.11,4.32,1.47,6.14,3.03,3.46,15.56,11.12,20.02,11.98,1.01.19,2.71.24,3.44-.61.9-1.05-.55-1.16-.94-1.64-3.91-4.79-9.1-8.97-13.46-13.55ZM77.01,165.68c-2.64,3.73-3.55,7.73,1.12,10.28l52.58.03c2.47-.54,4.44-2.23,5.11-4.68.64-2.32.52-9.71-.13-12.06s-2.82-4.02-4.6-1.79c-1.35,1.7-.66,4.57-3.22,5.56-3.52,1.37-5.19-.66-8.12-1.69-12.63-4.46-33.56-8.66-42.76,4.34ZM199.29,165.42c-9.66-12.53-29.77-8.8-42.59-3.98-3.17,1.19-3.75,2.88-7.82,1.53-2.84-.94-1.82-3.68-3.28-5.5-1.78-2.24-3.98-.44-4.6,1.79-.53,1.9-.79,7.1-.65,9.17.27,3.93,1.54,6.68,5.63,7.57l52.58-.03c5.1-2.83,3.65-6.74.72-10.55Z"/>
      <path class="cls-1" d="M209.83,13.37c3.08,2.41,8.59,8.54,10.53,11.92,3.46,6.03,8.49,20.29,4.86,26.69-1.01,1.78-3.18,2.77-4.11,5.35-1.44,4.01-.38,5.79-.32,9.44.09,5.96-9.06,13.05-13.04,17.04-17.14,17.22-34.14,34.21-51.33,51.36-3.7,3.69-12.34,14.39-17.22,14.85-2.72.26-4.37-.87-6.56-2.22-14.66-14.74-29.17-29.39-43.78-44.03-6.3-6.31-13.14-13.17-19.72-19.78-3.97-3.98-13.02-11.08-13.19-16.89-.14-4.82,1.5-8.6-2.2-12.97-.71-.84-1.58-.98-2.25-2.14-1.27-2.18-1.47-6.02-1.26-8.49C52.8,12.81,88.09-5.36,114.82,10.27c8.78,5.14,13.63,13.64,20.7,20.16,2.3,2.12,3.63,1.88,5.84-.17,5.53-5.12,10.35-12.5,16.48-17.29,14.62-11.42,37.45-11,51.99.4ZM77.79,15.71c-2.2-2.96-6.88,2.43-2.34,3.55,1.71.42,3.45-2.05,2.34-3.55ZM70.95,71.2c-8.55-9.68-12.18-19.78-9.86-32.71.51-2.83,3.1-8.74,4.71-11.18,1.28-1.94,3.42-3.33,4.2-5.6-1.24-2.76-3.18-.97-4.75.32-14.56,11.96-10.67,39.06,1.5,51.5.68.7,3.18,2.88,4.06,3.05,1.96.39,3.18-1.08,2.48-2.89-.34-.87-1.72-1.79-2.34-2.5ZM118,39c-.43-.5-2-.54-2.63-.27-4.55,2.85-9.55,5.04-14.13,7.83-.68.41-3.35,1.91-3.67,2.24-1.35,1.38.29,4.6,2.29,3.83,3.5-1.98,6.89-4.17,10.34-6.22,1.7-1.01,10.33-4.47,7.8-7.4ZM175.38,46.47c-4.55-2.73-9.55-4.84-13.97-7.82-2.54-.76-4.22,1.73-2.24,3.59,1.73,1.62,5.31,2.97,7.33,4.15,3.47,2.03,6.87,4.19,10.34,6.22,1.83.6,3.24-1.66,2.66-3.35-.31-.89-2.98-1.8-3.75-2.26-.19-.11-.23-.46-.36-.54ZM166.25,56.27c-2.1-1.68-8.19-4.64-10.82-4.5-1.69.09-7.31,1.48-8.97,2.18-2.48,1.04-6.33,5-8.27,4.92-1.97-.08-2.64-1.68-3.91-2.54-3.65-2.45-5.36-2.91-9.51-3.66-3.81-.69-4.4-1.2-8.37.27-22.89,8.5-11.17,42.92,12.49,34.78,1.14-.39,2.45-.97,3.49-1.58,2-1.18,3.31-3.28,5.81-3.34,2.99-.07,4.73,2.69,7.26,3.91,1.65.8,4.87,1.82,6.68,2.12.33.05,3,.33,3.21.32,1.5-.03,6.55-1.7,7.97-2.48,10.93-6,12.79-22.49,2.94-30.39ZM205.43,79.99c1.07-1.3,3.04-3.04,1.14-4.46-.83-.43-3.35,1.8-4.05,2.38-8.18,6.79-16.46,16.11-24.09,23.7-1.12,1.12-5.13,3.73-4.85,5.3s2.58,2.64,3.79,1.23c6.44-6.96,13.61-13.21,20.25-19.95,2.47-2.51,5.51-5.39,7.82-8.21ZM86.21,87.67c-2.6-2.61-5.38-5.11-8.12-7.58-3.27-1-3.59,1.85-1.68,4.04,2.91,3.35,7.08,6.46,9.94,9.98,1.87,1.38,4.18.93,4.01-1.7-.05-.84-3.35-3.94-4.16-4.74ZM132.07,102.62c-1.68-2.43-1.68-4.32-2.66-6.63-1.34-3.14-3.82-.79-3.45,2.53,1.12,10.04,12.79,17.75,20.73,8.83,1.8-2.02,6.16-10.34,3.3-12.35s-2.93,2.8-3.38,3.99c-.8,2.16-4.1,6.8-6.23,7.63-3.55,1.38-6.41-1.25-8.31-4ZM168.28,117.47c.99-1.07,4.57-4.11,2.69-5.64-1.05-.85-2.82.66-3.74,1.39-1.39,1.11-5.47,4.63-6.49,5.84-1.1,1.3-1.25,3.04.57,3.72,2.46.91,5.01-4.29,6.96-5.3Z"/>
      <path class="cls-1" d="M248.91,62.33c-.85.91-4.7,5.57-4.02,6.64,1.36,2.15,4.45-2.16,5.42-3.05,3.66-3.35,12.24-11.26,17.22-11.15,1.42.03,3.34.6,3.55,2.24.4,3.18-3.84,4.3-5.91,5.53-2.45,1.45-14.25,8.67-14.63,11.06-.1.65.26,1.43.84,1.75,1.47.42,7.26-4.52,8.85-5.58,2.58-1.72,8.32-5.43,11.36-4.85,4.01.76-3.31,7.15-4.43,8.05-4.75,3.81-8.85,6.58-13.3,11.03-3.89,3.89-9.16,12.02-15.02,12.15-2.77.06-5.07-3.91-7.09-1.5-1.17,1.39-1.45,2.63-3.21,4.22-8.04,7.26-29.83,19.04-40.61,15.95-1.57-.45-1.91-.67-1.59-2.42.22-1.2,3.02-4.02,4.13-4.65,2.04-1.16,3.34-.53,5.4-.76,7.75-.86,17.12-5.72,23.33-10.37,2.08-1.55,5.58-5.59,7.96-5.87,1.47-.18,3.63.73,3-2.27-.4-1.92-2.65-3.45-3.12-6.73-.74-5.15-.99-10.28-1.93-15.6-.46-2.61-1.78-4.71-.55-7.38.99-2.16,3.08-3.12,5.11-1.57.7.53,1.71,5.35,1.86,6.58.44,3.4-.15,8.54.55,11.44.33,1.36,1.32,2.88,2.89,2.01.3-3.61.84-6.91,2.65-10.11,2.77-4.9,10.56-12.41,15.8-14.59,1.65-.69,4.52-1.14,5.48.74.04,1.66-2.98,2.9-4.03,3.76-1.75,1.44-4.45,3.68-5.99,5.33ZM246.35,81.2c-.95-1.67-6.72-.67-8.27-.14-2.05.7-6.08,3.39-4.74,5.91,1.58,2.98,4.07-1.39,5.23-2.05,2.27-1.29,5.91-.62,7.19-1.25.7-.34.94-1.86.6-2.47Z"/>
      <path class="cls-1" d="M33.2,59.63c2.8,2.71,7.44,9.14,8.14,12.96.28,1.52-.22,3.13.38,4.62.38.53,1.64.2,2.08-.29,1.48-1.66.81-7.47,1-9.81.25-3.08,1.08-6.17,1.59-9.21,2.83-3.33,6.64-.25,6.4,3.42-.21,3.36-2.22,8.3-2.47,11.92-.77,3.42-.04,8.33-1.47,11.44-.78,1.7-3.27,3.38-2.21,5.56.54,1.11,2.61.53,3.7.69,1.51.23,3.8,3.04,5.08,4.04,6.72,5.25,16.29,10.94,24.88,11.92,2.2.25,3.8-.37,5.93.84,1.82,1.04,6.64,5.97,2.81,7.01-11.03,3-37.02-9.64-43.4-18.78-.37-.53-.41-1.44-.74-1.7-2.12-1.62-4.32,1.77-6.83,1.86-5.62.21-9.49-6.34-12.88-9.77-5.44-5.49-10.2-8.95-16.04-13.68-1.98-1.6-9.26-8.81-2.11-7.69,5.22.82,11.13,6.44,15.36,9.29,2.27,1.54,5.26,1.08,3.27-1.58-1.1-1.47-6.09-5.24-7.8-6.39-2.91-1.96-9.21-4.52-11.27-6.63-2.26-2.32-1.01-4.35,1.96-4.81,5.06-.78,14.15,7.67,17.81,11.04,1.02.94,3.59,4.6,5.08,3.42l.47-.87c.05-2.45-8.08-9.74-10.15-11.45-1.06-.88-7.23-4.36-2.18-4.94,3.88-.45,10.78,4.86,13.57,7.55ZM42,82.92c-2.14-1.76-7.52-3.25-10.18-2.45-1.74.53-1.93,1.27-1.34,3.05,2.67.54,5.16,0,7.67,1.38,1,.55,3.16,4.59,4.99,2.48,1.25-1.44.1-3.46-1.13-4.47Z"/>
      <path class="cls-1" d="M199.29,165.42c2.93,3.81,4.38,7.71-.72,10.55l-52.58.03c-4.09-.89-5.36-3.65-5.63-7.57-.14-2.07.12-7.27.65-9.17.62-2.23,2.82-4.02,4.6-1.79,1.45,1.82.43,4.56,3.28,5.5,4.06,1.35,4.65-.34,7.82-1.53,12.82-4.83,32.93-8.55,42.59,3.98ZM182.51,158.89c-2.3-2.41-5.36,2.36-1.52,3.41,1.32.36,2.68-2.2,1.52-3.41ZM192.94,162.65c-.95-.65-4.13-2.52-5.12-2.52-1.35,0-1.88,1.22-1.34,2.38.6,1.3,5.08,4.52,6.42,6.08,1.23,1.44,2.81,4.9,4.71,5.1,2.92.3,2.38-2.96,1.32-4.73-.94-1.57-4.4-5.21-6-6.31Z"/>
      <path class="cls-1" d="M77.01,165.68c9.2-13,30.13-8.79,42.76-4.34,2.92,1.03,4.6,3.05,8.12,1.69,2.56-.99,1.86-3.87,3.22-5.56,1.78-2.24,3.99-.44,4.6,1.79.65,2.35.77,9.74.13,12.06-.67,2.45-2.64,4.15-5.11,4.68l-52.58-.03c-4.68-2.56-3.76-6.56-1.12-10.28ZM97.06,161.76c1.82-1.92-1.32-5.17-2.97-2.47-1.18,1.93,1.34,4.19,2.97,2.47ZM78.45,168.47c-.11.15-.52.23-.68.49-.7,1.19-1.45,3.75.03,4.66,2.54,1.56,5.07-4.24,6.38-5.66.84-.92,9.22-6.6,5.3-7.74-1.09-.32-3.57,1.07-4.6,1.69-2.68,1.63-4.68,4.05-6.44,6.57Z"/>
      <path class="cls-1" d="M199.38,98.92c4.52-6.02,12.25-11.04,16.81-16.8.84-1.06,1.26-2.62,2.58-3.83,1.9-1.74,4.08-2.22,4.27,1.06.1,1.67.2,2.38.39,3.99.27,2.26-.17,4.3-1.69,6.03-1,1.13-5.01,4.1-6.43,5.05-2.6,1.75-11.24,6.7-14.02,6.95-1.12.1-2.45-.19-3.11-1.16.07-.75.95-.97,1.19-1.29Z"/>
      <path class="cls-1" d="M63.86,85.38c4.36,4.58,9.56,8.76,13.46,13.55.39.47,1.84.58.94,1.64-.73.85-2.42.81-3.44.61-4.46-.85-17-8.51-20.02-11.98-1.59-1.81-1.74-3.82-1.47-6.14.17-1.48.25-2.18.34-3.71.29-4.94,4.53-.89,6,.92,1.39,1.71,2.52,3.35,4.19,5.1Z"/>
      <path d="M166.25,56.27c9.84,7.9,7.99,24.4-2.94,30.39-1.42.78-6.47,2.45-7.97,2.48-.22,0-2.89-.27-3.21-.32-1.81-.3-5.03-1.32-6.68-2.12-2.53-1.22-4.27-3.98-7.26-3.91-2.5.06-3.81,2.16-5.81,3.34-1.04.61-2.35,1.19-3.49,1.58-23.66,8.14-35.38-26.28-12.49-34.78,3.96-1.47,4.56-.96,8.37-.27,4.15.76,5.86,1.22,9.51,3.66,1.28.86,1.95,2.45,3.91,2.54,1.93.08,5.78-3.88,8.27-4.92,1.66-.7,7.28-2.09,8.97-2.18,2.63-.13,8.72,2.82,10.82,4.5ZM148.59,63.47c2.57,2.38,7.03-1,4.91-4.41-1.81-2.9-6.26-1.48-6.02,1.96.02.34.89,2.25,1.11,2.45ZM121.01,59.29c-1.69-1.73-5.71.45-5.61,2.72.29,6.99,10.63,2.43,5.61-2.72ZM112.45,74.27c-1.44-1.75-1.75-3.91-2.97-5.63-1.78,2.54.14,7.4,1.75,9.7,5.11,7.28,17.11,7.38,22.2.05,1.56-2.25,3.9-6.73,1.72-9.08-2.17,3.39-3.5,6.37-7.37,8.16-5.21,2.41-11.6,1.34-15.33-3.2ZM164.82,78.89c1.8-2.12,3.24-5.17,3.25-8.06,0-.93-.83-3.33-1.51-1.51-4.15,11.12-16.33,13.08-23.14,3.19-.57-.82-.9-2.24-1.52-2.87-.36-.36-.33-.41-.7,0-1.77,3.24,1.4,8.9,4.03,11.01,6.16,4.95,14.52,4.21,19.58-1.76Z"/>
      <path d="M70.95,71.2c.62.71,2,1.62,2.34,2.5.71,1.81-.51,3.28-2.48,2.89-.89-.17-3.38-2.35-4.06-3.05-12.17-12.44-16.06-39.54-1.5-51.5,1.57-1.29,3.51-3.09,4.75-.32-.77,2.27-2.92,3.66-4.2,5.6-1.6,2.44-4.2,8.34-4.71,11.18-2.33,12.93,1.31,23.03,9.86,32.71Z"/>
      <path d="M205.43,79.99c-2.32,2.82-5.35,5.7-7.82,8.21-6.64,6.74-13.81,12.99-20.25,19.95-1.21,1.41-3.52.3-3.79-1.23s3.73-4.18,4.85-5.3c7.63-7.59,15.91-16.91,24.09-23.7.71-.59,3.22-2.81,4.05-2.38,1.9,1.42-.07,3.15-1.14,4.46Z"/>
      <path d="M132.07,102.62c1.9,2.75,4.76,5.38,8.31,4,2.13-.83,5.43-5.47,6.23-7.63.44-1.19.49-6.01,3.38-3.99s-1.5,10.33-3.3,12.35c-7.94,8.91-19.61,1.21-20.73-8.83-.37-3.32,2.12-5.67,3.45-2.53.98,2.31.98,4.2,2.66,6.63Z"/>
      <path d="M175.38,46.47c.13.08.17.43.36.54.78.46,3.44,1.37,3.75,2.26.59,1.68-.82,3.95-2.66,3.35-3.47-2.03-6.88-4.19-10.34-6.22-2.02-1.18-5.6-2.53-7.33-4.15-1.98-1.86-.3-4.36,2.24-3.59,4.42,2.98,9.42,5.09,13.97,7.82Z"/>
      <path d="M118,39c2.53,2.93-6.1,6.38-7.8,7.4-3.45,2.05-6.84,4.24-10.34,6.22-2,.78-3.64-2.45-2.29-3.83.32-.32,2.99-1.82,3.67-2.24,4.58-2.78,9.58-4.97,14.13-7.83.63-.27,2.2-.22,2.63.27Z"/>
      <path d="M86.21,87.67c.8.81,4.1,3.91,4.16,4.74.17,2.63-2.15,3.08-4.01,1.7-2.86-3.52-7.03-6.63-9.94-9.98-1.91-2.2-1.59-5.05,1.68-4.04,2.74,2.47,5.52,4.98,8.12,7.58Z"/>
      <path d="M168.28,117.47c-1.95,1.01-4.51,6.21-6.96,5.3-1.82-.67-1.67-2.41-.57-3.72,1.02-1.21,5.09-4.73,6.49-5.84.92-.73,2.69-2.24,3.74-1.39,1.88,1.53-1.7,4.57-2.69,5.64Z"/>
      <path d="M77.79,15.71c1.11,1.5-.62,3.98-2.34,3.55-4.55-1.12.14-6.51,2.34-3.55Z"/>
      <path d="M246.35,81.2c.35.61.1,2.12-.6,2.47-1.28.63-4.92-.04-7.19,1.25-1.16.66-3.65,5.03-5.23,2.05-1.33-2.52,2.7-5.21,4.74-5.91,1.55-.53,7.33-1.52,8.27.14Z"/>
      <path d="M42,82.92c1.23,1.01,2.39,3.03,1.13,4.47-1.83,2.1-3.99-1.93-4.99-2.48-2.51-1.39-5-.84-7.67-1.38-.59-1.78-.4-2.52,1.34-3.05,2.66-.81,8.03.69,10.18,2.45Z"/>
      <path d="M192.94,162.65c1.6,1.1,5.06,4.74,6,6.31,1.05,1.77,1.59,5.03-1.32,4.73-1.9-.2-3.48-3.66-4.71-5.1-1.34-1.56-5.82-4.78-6.42-6.08-.54-1.16-.01-2.38,1.34-2.38.98,0,4.17,1.87,5.12,2.52Z"/>
      <path d="M182.51,158.89c1.16,1.22-.2,3.78-1.52,3.41-3.84-1.06-.78-5.83,1.52-3.41Z"/>
      <path d="M78.45,168.47c1.76-2.53,3.76-4.94,6.44-6.57,1.03-.63,3.5-2.01,4.6-1.69,3.92,1.14-4.45,6.82-5.3,7.74-1.31,1.43-3.84,7.22-6.38,5.66-1.48-.91-.73-3.47-.03-4.66.15-.26.57-.33.68-.49Z"/>
      <path d="M97.06,161.76c-1.64,1.72-4.15-.54-2.97-2.47,1.65-2.7,4.8.56,2.97,2.47Z"/>
      <path class="cls-1" d="M164.82,78.89c-5.07,5.97-13.42,6.71-19.58,1.76-2.63-2.11-5.79-7.78-4.03-11.01.36-.41.34-.36.7,0,.63.63.96,2.05,1.52,2.87,6.81,9.89,18.99,7.93,23.14-3.19.68-1.82,1.51.58,1.51,1.51,0,2.9-1.45,5.95-3.25,8.06Z"/>
      <path class="cls-1" d="M112.45,74.27c3.72,4.54,10.11,5.61,15.33,3.2,3.87-1.79,5.2-4.77,7.37-8.16,2.19,2.35-.16,6.83-1.72,9.08-5.08,7.33-17.09,7.22-22.2-.05-1.61-2.3-3.53-7.16-1.75-9.7,1.22,1.72,1.54,3.88,2.97,5.63Z"/>
      <path class="cls-1" d="M121.01,59.29c5.02,5.15-5.32,9.71-5.61,2.72-.09-2.27,3.93-4.45,5.61-2.72Z"/>
      <path class="cls-1" d="M148.59,63.47c-.22-.2-1.08-2.11-1.11-2.45-.24-3.43,4.21-4.86,6.02-1.96,2.12,3.41-2.34,6.79-4.91,4.41Z"/>
    </g>
  </g>
</svg>