<?xml version="1.0" encoding="UTF-8"?>
<svg id="Layer_2" data-name="Layer 2" xmlns="http://www.w3.org/2000/svg" viewBox="0 0 197.55 199.91">
  <defs>
    <style>
      .cls-1 {
        fill: #fff;
      }
    </style>
  </defs>
  <g id="Layer_4" data-name="Layer 4">
    <g id="QX4kNN">
      <g>
        <path d="M4.06,116.01l.82-9.28-.55-.09-.17-.79.53-.29v-.35s-2.98-1.8-2.98-1.8l.1-1.08,3.25,1.71h.55c.42-.95.71-1.99,1.2-2.93.54-1.03,2-3.05,2.76-4.1.58-.8,1.34-1.26,1.78-2.19l-1.69-1.34c-.22-.36-.67-1.04-.38-1.44.67-.95,2.22,1.84,3.26,1.74.19-.02,3.04-1.94,3.15-2.18-.81-.11-1.07-.94-1.54-1.35-.18-.15-.41-.07-.53-.18-.78-.71-3.24-3-.84-2.86.1.89,1.09,1.26,1.73,1.78.35.29.88,1.01,1.19,1.16.84.4,2.2.59,2.87-.19-.48-.59-.64-2.05-1.07-2.52-.32-.35-1.04-.18-.92-.98l-.35.18c-.08-.61-.35-1.09,0-1.68.07-.12.36-.11.36-.23.02-.55-.83-2.43-1-3.14-.43-1.82-.16-3.11-.25-4.78-.18-3.29-.66-6.19-.18-9.54.59-4.11.5-9.86.42-14.1-.02-.89-.09-1.46.31-2.32l-.57-.72c-.01-.11.57-1.71.66-1.88.21-.37.84-.67.94-1.04.14-.48-.08-1.03.11-1.51l2.42-.55.57-4.92c-1.72-.39-3.6-1.29-4.08-3.16-.07-.26.14-.54.07-.69-.02-.04-.28-.05-.38-.26-.35-.74-.59-1.46-.7-2.26-.85-.22-1.61-.66-2.35-1.12-.16-.1-.23-.37-.43-.51-.52-.37-1.64-.5-1.51-1.29l-.45.36c-.6-.71-1.54-1.03-2.25-1.54-.81-.57-2.47-1.84-3.17-2.6-.46-.5-.24-.86-.28-.89-.09-.07-.44-.02-.72-.28-.29-.28-.17-.63-.29-.82-.4-.66-.99-.77-.86-1.63h-.45c-.17-2.21-.8-4.11-.32-6.36.3-1.4.73-1.15,1.34-1.82s1.36-1.82,2.13-2.29c.42-.26,2.02-.53,2.53-.54,1.89-.03,3.06.62,4.74,1.03s3.54.6,5.05,1.08c.82.26,1.69.95,2.52,1.09,1.16.19,2.17,0,3.44.34,1.31.35,2.41,1.3,3.81,1.32l-1.53-1.44c-1.42-1.15-3.42-2.49-3.97-4.33-.4-1.35-.03-2.33.6-3.55.82-1.57,2.29-2.5,3.95-3.08,1.77-.62,5.29-.48,7.16-.21,2.39.34,4.8,1.14,7.16,1.82,3.64,1.05,7.69,2.44,11.51,3.64,3.84,1.21,7.72,2.52,11.14,4.57l2.38,1.14-.18.72.54-.18v.54c.62-.3,2.08.64,1.62,1.26l.45-.36c.49.75,1.21,1.19,1.01,2.15h.53c-.12.28-.21.51-.2.82.06,2.26.4,5.08.6,7.34.1,1.09.96,2.14-.59,2.94l.54.36c-.09.43-.69,1.32-.72,1.64-.04.41.3.7.35,1.08.11.86.1,1.91.19,2.79,1.09-.15,2.12.18,3.19.29.31.03.66-.2,1.02-.09.58.18.55,1.1.12,1.42l.9-.36s-.37.81-.4.85c-.12.13-.52.1-.74.26-1.28.9-2.53,2.21-4.14,2.44-.7.1-1.53-.04-2.19.07-.74.12-1.69.7-2.58.84-1.67.28-3.89.02-5.54-.12-3.9-.33-7.41-1.06-11.09-1.72l-2.83-.99c-.79.14-.96.59-.41,1.25,1.55-1.03.98,1.65,1.09,2.6.04.35.27.66.3.96.39,3.58.23,7.23.47,10.81.12,1.84.37,3.73.46,5.58.11,2.46-.27,5.09.21,7.54.53,2.65,3.16,3.59,5.02,4.89.85.6,1.6,1.53,2.55,2.14,1.91,1.22,3.93,2.25,5.82,3.56,1.34.93,1.47,2.22,3.31,1.09,2.98-1.83,6.01-4.51,9.25-5.89.34-.15.79-.06,1.16-.29.39-.24.47-.88.75-1.23.86-1.11,2.61-3.39,3.57-4.27.09-.08.92-.65,1.1-.78,1.09-.77,2.23-1.34,3.34-2.08-.26-.37-.72-.2-1.07-.37-.38-.18-1.39-.76-1.87-1.02-.67-.37-2.39-1.8-3.07-1.73-.07,0-1.28.33-1.34.37-2.09,1.29-4.52,3.08-6.66,4.47-.51.33-2.47,1.6-2.93,1.36-.64-.34-.57-.89.01-1.26,1.09-.69,2.44-1.28,3.58-2.01.61-.4,1.17-1.05,1.57-1.31.79-.51,4.52-2.27,4.71-2.86.39-1.25-.12-3-.14-4.28-.02-1.2-.02-2.44,0-3.61.01-.7-.14-2.28.37-2.53-.79-1.26-.45-3.08-.55-4.5-.06-.78-.03-.79-.03-1.42,0-.54-1.08-3.36-1.17-4.38-.03-.32.16-.77.15-1.12,1.25-.44.93.54,1.1,1.28.73,3.25,1.21,6.09,1.22,9.42,0,.58.37,1.15.37,1.79,0,.91-.66,1.82-.53,2.52.06.33.33.53.36.91.05.61-.41,1.01.16,1.53l-.52.28c0,.78.62,1.09.66,1.85.03.67-.23,1.34.07,2.08l6.01,3.55c.37.06.22-.05.29-.24.15-.41.14-.92.28-1.34.58-1.72,2.1-5.32,3.48-6.44.44-.36,4.09-2.59,4.51-2.71,2.48-.71,7.46-.9,9.73.38,1.73.98,3.04,2.37,4.01,4.1.3.54.74,1.99,1.09,2.15,1.13.3,2.33.04,3.47.13,4.47.37,10.25,1.84,14.1,4.11.63.37,1.49,1.31,2.13,1.48.34.09.2-.54.36-.9.59-1.34,1.23-2.26,1.97-3.45.21-.34.17-.83.57-1.23.79-.79,2.78-1.45,3.88-1.2.36.08,2.03,1.19,2.32,1.46,1.34,1.24.96,5.94,0,7.47.14.11,1.57-.74,1.97-.82,1.5-.31,2.55.91,3.2,2.1,1.18-.22,2.98-.46,4.01.27s1.29,3.54,1.12,4.66c1.77,1.06,2.6,2.65,3.12,4.61.47,1.77.33,3.25.27,5.05.78-.22.69.36,1.12.59,2.37,1.24,5.6.88,8.14,1.06,10,.74,20.41,4.3,28.36,10.49,2.52,3.48,5.77,6.97,8.14,10.52,1.5,2.25,1.67,3.47,1.76,6.13.17,4.63-.66,9.23-3.54,12.94-1.31,1.69-2.74,3.01-3.89,4.76-.94,1.44-5.86,4.73-7.52,5.64l-3.36,1.51-.19.44c.75,0,.24.58.53.81.18.14,1.13.5,1.23.67.03.06-.15.3-.05.5.59,1.16,1.55,1.15,2.6.62.41-.21,3.24-2.27,3.45-1.24.16.8-2.13,1.31-2.69,1.63-.14.08-.21.36-.42.51-.38.25-.87.02-.86.72,0,.1.28.11.35.26.29.6,1.32,2.21,1.74,2.73.19.24.64.36.82.63.15.23,0,.85.52,1.18l-.72-.09.99.45.27,1.26c1.04-.69,2.35-.76,3.47-1.31.42-.21,2.26-1.84,2.47-.56.13.83-2.82,2.02-3.51,2.24-.58.18-1.29.12-1.89.35-.09.65.67,1.65.68,2.1.01.31-.26.51-.28.72,0,.07.04,1.26.05,1.33.15,1.12,1.51,2.39.82,3.78,1.19-.42,2.75-.06,3.96-.26.58-.09,1.36-.16,1.36-.83,1.49,0,1.39,1.58.18,1.8-.52.1-1.79.24-2.35.28-.21.02-.47-.2-.71-.19-.71.04-1.45.36-2.08.09.04.37-.07.82,0,1.18.08.44.46.35.54.58.74,2.04-1.18,3.48-1.75,5.41-.19.66-.72,2.02.05,2.2.9.21,2.2.51,3.09.66s2.42-.34,2.77.7l-.47.64c-2.18.15-4.21-.91-6.39-.83-.43.83-.87,1.62-1.4,2.39-1.09,1.57-2.66,3-3.03,4.93,1.08.11,2.66,1.96,3.48,2.12.31.06.65-.17,1.02-.15,1.3.1,1.08,1.61-.7,1.45-.79-.07-1.64-.69-2.33-1.11-.26-.16-.83-.68-1.15-.87-.4-.23-.83-.44-1.22-.7-.15.01-1.67,1.86-1.98,2.13-.25.21-2.34,1.8-2.49,1.86-.39.16-.74-.18-1.03.22,1.37.17,2.85,1.93,3.98,2.34.3.11.59-.05.73,0,.68.27,1.53.7,1.24,1.53l-.33-.15c-.14.63-.75.63-1.29.41-.22-.09-3.81-2.35-3.98-2.52-.25-.24.01-.45-.05-.59-.01-.03-.48-.17-.3-.58-.28-.3-3.26,2.71-3.96,2.71,2,1.8,4.14,3.58,6.68,4.59l.15.33c-.82,1.52-2.8-.16-3.77-.86-.2-.15-.26-.48-.4-.58-.55-.4-1.95-.29-1.39-1.5-.64.09-1.27-.08-1.72-.55-.36-.38-.02-.9-.44-1.08-.24,1.22-1.47.92-2.22,1.3-.36.18-.75.99-1.15,1.19l-7.44,2.74,4.24,4.87c-.48,1.36-1.54.44-2.2-.25-.29-.3-1.3-1.52-1.51-1.83-.15-.23-.27-1.03-.4-1.13-.23-.18-1.38-.18-1.4-1.12h-.27c-.14.02-.05.26-.23.35-1.31.67-2.83.91-4.18,1.47l.17.34c-.78-.06-2.08.84-2.63.91-.33.04-.69-.2-.88-.16s-.24.42-.4.52c-.62.39-1.14-.07-1.69.06-.31.07-.31.38-.49.46-.35.17-1.48.62-1.31.02-.79.64-1.37-.21-2.07.71l-.18-.72c-.61.19-1.28.98-1.8,1.08-.5.09.13-.67-.36-.36-.2.13.01.38-.18.36l-.18-.36-.63.36-.09-.36-.21.37h-1.51c-.26.23,1.83,3.16,2.14,3.54.12.32-.07.21-.21.29-1.33.8-1.17-1.06-2.2-1.5l-.64-2.32h-1.44s.18-.37.18-.37c-.83.16-1.69-.15-2.44-.19-.85-.04-1.55-.07-2.39-.13-.64-.05-1.63.35-1.75-.23l-.72.37-.2-.38-.77.16-.03-.32h-.35s-.12.36-.12.36c-.7.21-.61-.34-.79-.46-.14-.09-1.91,0-1.98.1l.31.99-.67.72c.71.1.32,1.92,0,2.16-.08.06-.75-.24-.36.81l-1.16.36-.29-.53-.52-.1c1.78-.7,1.33-2.7,1.8-4.23l-.99-.54-.27.54c-.05.04-.88-.5-1.2-.5s-.48.35-.75.41c-.55.13-1.72-.17-1.92-.81-.52,1.33-1.63-.39-2.54.16l-.17-.35-.43.3c.38,1.74-.51,4.5-2.46,4.87-.38-.19-.7-.57-.63-1.02,1.53.31,2.12-3.21,1.78-4.21l-.87-.31c.24-.54-.34-.84-.45-.17-.74-.4-1.05-.12-1-1.08h-1.26c.54.74-1.09.2-.72-.36l-.33.09c.19.2.21.37-.12.27-.44-.14-.94-.62-1.54-.54l.18-.36c-.74.49-1.13-.36-1.2-.37-.31-.03-.77.29-1.15.19l.36-.36-.9-.18.18.36-2.53-.54.18-.36c-.94-.15-2.39-.06-3.29-.55-1.05-.57-.61-.31-1.67-.58-.11-.03-.08-.32-.2-.33-.22-.02-.5.21-.69.17s-.2-.39-.42-.51c-.57-.33-1.52-.12-1.9-.35-.22-.14-.42-.75-.76-.91-.37,0-1.98,4.12-3.15,3.96.1-1.56,1.16-2.77,1.62-4.15h-.54s.36-.36.36-.36c-.4.05-.71-.25-1.04-.33-.21-.05-.49.15-.56.11-.04-.02-.08-.31-.21-.41-.5-.41-1.17-.03-1.8-.29l.36-.36c-.81-.29-1.44.39-2.17.63-1.16.38-2.44.58-3.54,1.15-2.44,1.25-2.75,1.93-5.79,2.51-1,.19-1.4.21-2.53.53-3.08.87-4.8,1.14-8.04.76-5.55-.65-11.47-2.59-16.57-5.42-1.69-.94-3.89-2.16-5.39-3.4-.54-.45-3.01-2.78-3.29-3.24-.26-.44-.22-.97-.29-1.07-.02-.03-.2.22-.63-.17-.14-.13-1.42-1.87-1.46-1.99-.22-.67.79-.28.26-1.08-.3.17-1.19-.16-1.34-.37-.11-.16.1-.42.06-.51-.04-.08-.92-1.08-1.01-1.23-1.23-2.12-2.04-4.55-2.9-6.84l.53-.35c-.15-.3-.62-.15-.72-.4-.3-.72-.19-2.09-.52-2.86l.34-.16c-.46-.32-.48-1.47-.36-1.95.03-.14.35-.12.37-.23.05-.37-.32-.69-.31-.89s.41-.31.3-.63l-.36-.36-3.83,4.46c-1.16-.16-.6,1.16-1.3,1.69-.5.38-.58-.26-.71-.48-.04-.08-.25-.09-.28-.21-.18-.72.45-1.5.96-1.97.13-.12.49-.15.76-.41.53-.49.67-1.12,1.54-1.36l-.02-.64.54.18-.1-.55c.73-.06,1.17-.89,1.36-1.53.14-.49-.56-.13-.86-.31-.08-.05-.11-.32-.23-.4-.58-.4-.78-.36-1.07-1.18,1.89-.74.16-.42-.3-.97-.88-1.04-1.59-1.02-2.68-1.92-.27-.22-.21-.69-.81-.54l.18-.54c-1.27.13-1-.63-1.34-.91-.23-.19-1.15-.37-1.65-.89-.25-.26-.08-.49-.11-.51-.08-.07-1.58-1.18-1.7-1.26-.6-.38-1.16-.17-1.15-.85-1.49.21-2.05-1.3-2.98-2.07l-1.01,1.15c-.82.32-1.47.78-2.21,1.21-1.21.71-2.17,2.03-3.36.43.28-.71,1.54-.4,1.76-.5.24-.11,2.6-1.76,2.92-2.03.17-.14.13-.46.24-.57.17-.16.68-.02.65-.48-.05-.74-2.3-2.23-2.86-2.73l.36-.18c.06-.42-1.35-.84-1.43-.79-.03.02,0,.24-.06.26-.58.28-1.19.63-1.88.74-.61.1-.72-.34-1.27.61l-.77-.21c.03-.49-.01-1.09.53-1.32.46-.2,2.29-.37,2.53-.53.15-.1.36-1.06.36-1.28,0-.31-.93-1.01-1.01-1.16-.29-.56.1-.66-.9-1.08l-.27.36-.2-1.07-.53-.1.18-.63-.54.1-.73-1.37-4.98,2.14-.06-.52h-.54c-.02-.3-.06-.42.19-.63.1-.08,2.1-1.09,2.39-1.22,1.24-.55,2.88-.2,1.92-2.29l-.34.17.18-.72c-.22.07-.39.18-.54-.09-.25-.45.72.09.36-.36-.6-.74-1.6-1.04-.73-2.35l-1.06-.55.16-.62c-.81.36-2.27,1.11-3.14,1.08-.06,0-.38-.83-1-.36-.17-1.46,3.93-.89,3.75-2.08-1.05-.64-.8-1.18-1.05-2.25l-.35.18-.37-1,.36-.16c-.03-.54-.72-.86-.73-.93-.02-.19.26-.55.2-.86-.04-.17-.38-.17-.46-.3-.39-.6.26-2.35.08-2.53-1.08.06-2.29.29-3.37.3-.87,0-.41-.33-.46-.44l-.49-.58c.37.02,1.09-.36,1.35-.36h2.7ZM31.91,6.03h-4.24c-.82,0-1.89.79-2.56,1.23-.26.17-.67.19-.88.38-.55.49-2.07,3.58-1.01,4.07l-.16.45c.83-.13.98.98,1.1,1.07.03.02.24-.16.3-.12.61.43.45.38,1.25.81,1.18.64,2.99,1.89,4.16,2.33.84.31,2.17.31,2.91.7.35.18.58.69.91.86.25.13.8.05,1.22.26s.75.81,1.08.9c.96.27,2.22.34,3.17.8.42.2,1.1,1.1,1.35,1.21.32.13.79.08,1.16.25.41.19,1.65.94,1.89.99.39.09,1.05-.06,1.28.07.15.09.23.73.54.86.25.11.69.08,1.02.2,2.93,1.07,5.57,1.69,8.66,1.8,2.09.08,9.95-.74,11.63-1.58.26-.13,1.45-1.1,1.54-1.33.13-.31-.07-.53-.04-.78.02-.16.26-.31.26-.54,0-.14-.66-1.59-.78-1.74-.3-.4-.85-.45-.95-.6-.08-.12,0-.42-.05-.47-.13-.11-.61.08-.85-.06-.07-.04-.72-1.01-.98-1.16-2.92-1.73-7.11-3.32-10.38-4.51-.48-.18-2.48-.64-2.74-.86-.24-.21-.17-.54-.18-.82-.98,1.29-1.77-.17-1.89-.17-.04,0-.18.29-.46.27-.12,0-2.11-.62-2.21-.67-.29-.14-.27-.44-.33-.48-.05-.04-.49.2-.76.16-.11-.02-.12-.3-.34-.42-.6-.31-3.06-.67-4.03-1-.28-.09-.26-.39-.36-.39-.17,0-.69.3-.79.18-.1-.11.35-.64-.81-.68-.26-.01-.54.17-.81.14l.36-.36c-.62-.08-1.34-.44-1.94-.5-.66-.07-1.01.55-1.4-.4h-.26s-.11.37-.11.37l-1.16-.19c-.16-.19.74-.2.18-.45-.48-.22-.81.12-1.27.09l.18-.36c-.75-.06-1.16.02-1.26-.9v.64s-.32.17-.32.17l.14.27ZM12.37,14.58c-1.03-.52-4.17-.92-5.43-.79-.35.04-.86.12-1.16.28-.72.38-2.31,2.57-2.17,3.4.01.07.43,1.25.48,1.37.97,2.05,2.27,3.01,3.88,4.33.48.39.93,1.29,1.24,1.52.45.33,1.51.54,2.03.85.48.28.98.97,1.52,1.19.74.3,1.6.21,2.42.61.37.18,1.12.97,1.53,1.22,3.53,2.1,8.59,2.51,12.51,1.57.5-.12.7-.48,1.03-.59,2.84-.98,5.54-.91,8.1-2.18.67-.33,1.17-.96,2.03-.95.29-.91-.45-1.09-.79-1.62-.26-.4-.26-.78-.63-1.17-.54-.58-4.55-3.21-5.23-3.42-.73-.23-1.74-.17-2.53-.53-.68-.3-1.34-1.13-2.16-1.27-1.07-.18-2.65.5-3.84-.26-.34-.22-.15-.79-1.03-.37v-.54c-.72.46-1.75-.48-2.25-.46-.11,0-.26.2-.39.21-1.87.11-4.24-.86-6.06-1.56-.16-.06-.13-.36-.23-.36-.23,0-.35.28-.64.28-.8.02-1.6-.43-2.22-.74ZM4.84,21.56c-.04-.05-.39-.03-.59-.21-.47-.42-1.09-1.7-1.18-2.34-1.14.62-.17.93-.03,1.39.12.4-.02.91.08,1.36.55,2.41,2.77,4.86,4.68,6.31,2.39,1.81,5.43,3.15,7.9,4.91,1.31,1.81,1.34,5.05,3.87,5.86.54.17-.04-.45.26-.63l.83-.23c.42.04-.21,1.08,1.25,1.06,1.4-.01,3.38-1.09,5.02-1.22,1.41-.11,2.91.61,3.81.64.37.01,3.28-.11,3.61-.16.24-.04,2.99-1.41,3.4-1.65.53-.3,2.31-1.41,2.48-1.85.24-1.12,1.92-6.68.22-7.11-.23-.06-2.06.97-2.57,1.15-1.28.46-2.4.47-3.64.72-2.36.49-5.01,1.65-7.44,2.15-.59.12-2.19.5-2.27-.26l-.44.38c-1.23-.29-2.43-.02-3.45-.91l-.33.34c-2.06-.16-3.09-1.39-4.62-2.23s-3.16-.99-4.48-1.82c-.97-.61-2.05-1.22-2.91-1.81-.16-.11.02-.39-.16-.52-.17-.12-.51-.09-.64-.28s-.02-.55-.11-.69c-.07-.1-.86-.24-1.15-.39-.19-.1-1.26-1.05-1.3-1.13-.11-.29.03-.71-.08-.83ZM44.67,23.76c-.18-.08-.77.06-1.04-.15l-5.23-2.34c.32.8,1.09.85,1.62,1.45.38.43,1.89,2.96,1.93,3.45.02.27-.17.55-.13.86.05.39.59,1.17.54,1.73h.18c.18-.93,1.38.27,1.7.73.54.76.83,2.14,1.62,2.7.11.08,2.42.96,2.63,1.01.38.09.49-.23.63-.23s.29.3.67.27c.42-.03.98-.47,1.48-.49,1.06-.03,2.5.34,3.61.34,3.62,0,8.39-.18,11.89-.82.43-.08,1.11,0,1.43-.11.38-.13.22-1.07,1.01-.88-.6-.6.02-1.75,0-2.42,0-.1-.28-.1-.35-.25-.37-.8.3-1.37.17-2.21l-.36.18-.19-1.34.36-.1v-.36s-.36.09-.36.09l.36-1.35c-.65.58-1.52,1.28-2.38,1.51-.72.19-1.35-.24-2.22.11-.41.17-.43.51-.57.55-1.22.29-3.17.18-4.26.35-.14.02-.03.34-.38.38-1.07.14-2.31-.54-3.16.16-.15-.99-.36-.08-.4-.05-.24.17-1.28.18-1.31-.29l-.46.16.18-.36c-.7-.33-1.13.35-1.35.37-.3.02-1.22-.18-1.49-.32-.23-.11-.22-.41-.34-.42-.3-.04-.61.17-.87.15-.77-.05-1.34-.23-1.8-.86l-.18.36c-.97-.42-1.95-.81-2.93-1.21-.2-.08-.24-.34-.27-.35ZM44.95,33.2c-.06-.05-.97-1.11-1.04-1.22-.1-.17-1.12-2.99-1.55-2.51.34,1.88-.72,3.78-1.01,5.59-.13.82.24.93.25.99.08.56-.07,3.98-.2,4.48-.04.16-.37.43-.3.48,1.07-.22,1.96-.6,3.06-.18-.05-.69.04-2.3.54-2.79.45-.45,2.73-.23,3.52-.62.09-.96.55-2.6-.51-3.12-.25-.12-.77-.38-.91-.45-.4-.17-1.33-.24-1.87-.65ZM68.33,33.26c-.1-.1-1.16.41-1.43.46-.3.06-1.43.25-1.72.28-.76.07-1.92-.58-2.32-.51-.35.06-1.06.82-1.64.83-.89.03-2.28-.29-3.22-.27-1.69.03-2.43.28-4.2.13-.82-.07-1.82.07-2.51-.37-.41.4-.97,1.06-1.52,1.09.4.97-.12,1.74-.15,2.62-.02.65.28,1.35.06,2.07.2.56,2.45.9,3.11,1.02,4.31.79,9.75,1.52,13.92.51.62-.15,1.22-.39,1.86-.44.15-.08.26-1.13.23-1.36-.04-.39-.43-.7-.42-.9,0-.13.38-.44.43-.98.04-.35-.12-2.14-.17-2.59-.06-.51-.38-1.03-.32-1.58ZM40.2,36.5c-1.02.43-1.96.88-2.71,1.71-1.01-.18-2.23,1.3-2.9,1.43-.38.07-3.5.09-4,.05-.54-.04-1.39-.53-2.05-.62-2.36-.31-4.85.92-7.09,1.48-.36.25-.22,2.49-.36,3.04-.04.16-.37.05-.37.38,0,1.1.92,1.21.89,1.6-.05.59-1.42,1.04-1.04,2.09,1.33.19,2.76.76,4.07.89,3.43.34,7.13-.88,10.57-1.1,1.2-.59,3.16-.78,4.28-1.3.52-.25-.25-.3-.34-.56-.18-.52.31-1.18.41-1.73.2-1.17.5-2.72.63-3.86.09-.82-.43-2.38.56-2.6l-.09-.33-.36-.02-.09-.55ZM44.93,42.78l.14-1.23-.19.53-.68.04c-.25.44-.14.97-.29,1.42-.14.42-1.57,1.96-1.98,2.34-.31.28-.94.12-.83.9l-.32-.15c-.46,1.21-2.42.86-3.39,1.2-.32.11-.44.59-1.14.67-.37.04-.69-.15-.97-.11-.13.02-.09.31-.25.36-.71.21-1.74,0-2.48.11s-1.57.49-2.37.59c-4.3.56-7.04.02-11.13-.75-.35-.07-.74-.67-1.11-.67l-.81.64.54.09c.36,1.03-.2.88-.35,1.22-.54,1.22-.35,2.47-.36,3.74-.06,6.57-.76,12.94-.72,19.65,0,.38-.22.76-.19,1.07.03.32.53,1.12.52,1.65l-.33.33c.7.66.1,1.55.16,2.36.06.88.91,4.74,1.19,5.51.08.23,1.12,2.62,1.2,2.74.22.32.56.39.72.72.09.18.17,1.68.46,2.42.15.37,1.11,2.64,1.2,2.76.2.26.9.11,1.1.54.11.23-.1.52-.06.77.29,1.72,5.26,5.67,6.63,7.07,2.09,2.14,3.36,5.41,5.73,6.93,1.18.76,1.48,1,2.56,2.08,1.88,1.87,3.77,2.8,5.85,4.43,1.34,1.05,3.47,3.39,4.69,4.16.35.22.61-.07.81.06.14.09.19.41.38.53.8.53,1.77.91,2.42,1.73.5-.42.73-.6.45-1.26,1.04.06,1.04-1.3,1.98-1.45l-.36-.18c-.13-.15.9-.44.18-1.14-.16-.16-1.09-.47-1.25-.57-.7-.44-1.42-1.28-2.36-1.35l.18-.54c-.05-.05-.34.15-.54.08-.52-.18-3.04-3.05-3.69-3.69-.45-.44-1.16-.5-.82-1.26-1.17.34-1.96-1.33-3.07-1.72v-.8c-.56.59-1.59-.02-1.34-.73-.83-.06-.47-.5-.75-.89-.12-.16-2.75-2.38-2.93-2.48-.28-.17-.72-.14-.82-.21-.22-.16-.06-.5-.11-.57-.04-.06-.57.27-1.35-.36-.45-.36-1.22-1.6-1.35-1.7-.31-.23-.8-.24-1.1-.73-.22-.35.05-.61.02-.63-.04-.03-.47.03-.72-.1-.31-.16-1.48-1.17-1.44-1.44-1.01.33-1.32-1.03-1.63-1.25-.27-.2-.59-.08-1.09-.54-.09-.08-1.22-1.67-1.28-1.8-.12-.26-.03-.6-.07-.65-.2-.26-1.41-.4-.81-1.43l-.7-.02c.03-1.06-.83-.86-1.38-1.6-.28-.37-.33-.86-.54-1.1-.13-.15-.44,0-.54-.16-.21-.35-.18-1.11-.44-1.51-.15-.22-.53-.25-.65-.49-.13-.25.08-.64-.02-1.04-.18-.79-.8-1.58-.92-1.93-.16-.47.14-1.78.1-2.3-.12-1.26-.64-2.18-.48-3.63.21-1.95.27-2.86.17-4.72-.12-2.39.06-4.85-.04-7.2-.05-1.1-.8-2.46.22-3.43-.96-.42-.31-.61-.22-1.3.37-2.8-.18-5.73,1.03-8.34.57,0-.04,3.33-.03,3.77.02,1.45.39,2.45.11,4.06-.09.53-.75,1.81-.68,2.17.04.17.43.15.48.37.04.16-.27,1.23-.29,1.62-.03.6.29,1.06.3,1.44.11,3.09.32,7.05.05,9.95-.16,1.75.17,4.72.37,6.57.47,4.43,2.22,5.29,4.64,8.36,1.15,1.46,1.99,3.27,3.43,4.51,1.1.95,2.68,1.76,3.83,2.79.79.71,1.39,1.65,2.22,2.34,1.26,1.03,2.79,1.65,4.05,2.8.92.84,1.49,1.91,2.36,2.69.76.69,2.03,1.3,2.78,1.91,2.73,2.23,4.89,4.96,7.8,6.85.82.53,1.68,1.02,2.48,1.58,1.24-.96,1.69-2.4,3.15-3.11l-.36-.18c.57-.5,1.06-1.16,1.62-1.64,1.03-.9,2.99-2.15,4.24-2.95s3.73-1.86,5.23-2.24c.86-.22,4.02-.35,4.37-.52.03-.01.1-.32.36-.43,1.37-.61,2.91-.5,4.37-.6-.26-.51-.52-1.24-1.08-1.51-1.22-.59-2.91-2.25-3.76-3.48-.81-1.16-1.16-2.22-1.3-3.56-.01-.12-.3-.09-.35-.24-.09-.34.04-.84-.2-1.21l.37-.19c-.67-1-1.01.18-1.76.4-1.43.43-3.71.46-5.13.03-.12-.04-.92-.32-1.08-.39-2.02-.82-2.09-1.93-2.37-3.8-.04-.26-.26-.49-.29-.76-.17-1.82.1-4.02,1.65-5.17,1.81-1.34,4.07-1.79,6.23-1.09,1.14.37,1.59,1.07,2.56,1.67.12-.39.02-1.23.16-1.55.17-.38.56-.44.58-.55.03-.21-.2-.54-.18-.86.1-1.23,1.21-4.07,1.75-5.28.29-.63.87-.96.75-1.68-.3-.32-2.97,1.46-3.41,1.73-1.79,1.06-3.58,2.07-5.4,3.26-.57.37-1.26,1-1.96,1.28-.22.09-.62-.02-.73.07-.08.07,0,.44-.2.6s-1.22.3-1.52.27c-.18-.02-1.06-.28-.99-.6.21-.9,1.22-.9,1.96-.84-.9-.83-1.96-1.61-3.01-2.31-.89-.6-1.61-1.18-2.42-1.73-1.73-1.17-3.8-1.77-5.03-3.6-1.86-.31-2.91-2.02-4.25-3.17l.28-.54-.9.18c-.08-.83-.33-1.78-.37-2.61-.07-1.34.26-3.52.15-4.66-.02-.25-.32-.5-.33-.93,0-.47.39-.97.38-1.25,0-.1-.33-.08-.37-.22-.15-.57.15-1.04.16-1.42,0-.09-.29-.05-.33-.19-.09-.33.08-1.07.35-1.33l-.34-.08c.55-1.08-.27-2.01-.39-3.06l.38-.2v-.26s-.35-.01-.35-.01v-.36s.35.09.35.09c-.32-1.01-.75-2.55,0-3.43l-.36-.09v-.36s.36-.09.36-.09l-.36-.2c.28-.4-.06-1.11.01-1.4.01-.06.5-.21.34-.92-.06-.26-.38-.6-.35-.64.02-.03.29.04.34-.09.03-.08-.17-1.43-.2-1.58-.13-.51-.77-.6-.13-1.21-.7-.05-.65-.67-.37-1.19l-.31-.11ZM98.22,54.75c-.88-.38-4.49.47-5.31.86-3.83,1.8-5.29,3.37-6.64,7.39-.14.43-.21.98-.27,1.44.11.11,2.67-.73,3.01-.87,3.96-1.6,8.18-4.24,12.19-5.66.84-.3,1.76-.6,2.65-.51-1.66-1.26-2.92-2.7-5.21-2.28-.42-.08-.39-.37-.42-.39ZM135.89,62.52c-.22-.22-.87-.92-1.04-1.05-1.59-1.21-3.49-.45-4.4,1.19-1.16,2.1-1.94,4.53-2.92,6.64-.91,1.96-2.13,3.15-3.32,4.79-.36.5-.56,1.25-1.08,1.72.29.21,4.46-1.24,5.15-1.43,1.74-.48,3.58-.64,5.22-1.44.25-.77.4-1.78.78-2.48.18-.33.68-.69.71-.89.15-.88.24-2.37.71-3.27.12-.23.41-.23.42-.32l-.37-.89.72-.09-.72-.18c.05-.35-.08-.82,0-1.14.06-.22.77-.24.54-.85-.6.4-.22-.11-.41-.3ZM125.43,66.3c-.3-.2-1.37-.41-1.8-.64-.49-.26-1-.89-1.44-1.08-1.14-.5-2.57-.59-3.61-.89-.32-.09-.54-.62-1.21-.79-.46-.12-1.09.05-1.59-.02-1.11-.17-3.28-.9-4.26-.93-1.37-.04-3.31.46-4.52-.38-.22.7-1.54.17-2.12.22-1.84.16-4.78.96-6.63,1.49-.43.12-.73.52-1.18.63-1.17.27-2.53,0-3.73.24s-2.71,1.08-3.88,1.35c-.71.16-2.42.17-3.02.4-.45.17-.57.7-.98.79-.25.06-.52-.1-.77-.03-.67.18-1.2.62-1.94.51.2.97-.42.7-.96,1.11-1.77,1.34-2.86,2.92-4.2,4.64-.55.7-.65.6-1.17,1.53-1.16,2.08-1.78,4.74-3,6.64-.18.28-1.17,6.21-1.11,6.54.18,1.02.18,1.09.24,2.14.04.79.57,1.31-.1,2.07l-.33-.15c-.07,4.02.81,6.93,3.69,9.74,3.17,3.1,6.55,4.57,10.85,5.52.59.13,3.55-.05,4.3-.12,2.81-.26,5.13-.96,7.02-3.07l7.27-1.65c.08-.06.53-1.72.54-1.9.1-1.19.17-1.86.33-3.05.22-1.67-.07-3.67.26-5.37.1-.5,1.01-1.74,1.04-2.2.01-.2-.21-.33-.24-.51-.03-.16.12-.36.1-.51-.02-.18-.55,0-.37-.48l.72.18c-.29-.31-.44-.97-.33-1.36.18-.69.65-1.42.83-2.38.05-.25-.19-.53-.05-.77s1.02-.92,1.36-.72l-.37-.43c.05-.69.86-1.64,1.39-2.06,1.74-1.38,4.88-1.96,6.99-2.56.67-.19,1.46-.45.85-1.13.78-1.35.73-2.9,1.78-4.09l.36.8c-.41.4-.25,1.52-.64,2.45-.19.47-.73.67-.63,1.26.21.21,2.23-1.51,2.45-1.8.24-.31.23-1.36.4-1.93.11-.35.57-.13.21-.68l.37-.21c-.38-.81-.2-1.87.89-1.7-.03.22,0,1.45.45,1.26.82-.36,2.58-3.14,2.84-4.02.24-.82-.45-.63-.71-.9-.21-.22-.48-.87-.65-.98ZM139.96,70.16c-.19-.29-.36-.99-.59-1.12-.96-.57-2.89.86-3.7,1.35l-.63,2.17c2.12-.8,3.79-.4,5.94,0l.17-1.24-.63-.19c.2-.78-.38-.69-.56-.96ZM145.31,74.18c.09-.07-.16-1.78-.22-2.03-.47-1.94-1.3-1.19-2.84-1.39.26.95.06,1.44-.17,2.33l3.23,1.09ZM144.05,74.54c-.38.1-1.27.02-1.67-.07-1.19-.25-2.34-.98-3.52-1.15-1.27-.18-3.3.04-4.36.77-.41.29-.1.77-.86,1.12-1.21.55-1.11-.36-1.6-.46-.3-.06-.92.41-1.33.33.08.38.79.15,1.08.29,1.49.73-.87,1.52-1.42,1.81-.24.13-.49-.09-.39.42,1.42-.35,2.89-.88,4.32-1.18,2.52-.54,5.18-.97,7.67-1.2.6-.05,1.15-.36,1.78-.19l.29-.5ZM144.44,76.5c-.14-.17.1-.99-.57-.87l-.09.48c-1.92.04-3.74.58-5.61.94-5.84,1.12-11.09,1.96-16.68,4.05-1.54.58-3.64.75-4.83,1.3-.46.21-3.5,2.08-3.8,2.33-.1.08-1.19,2.08-1.22,2.21-.3,1.33-.21,3.81-.42,5.35-.07.55-.43,1.32-.52,2.03-.07.56.22,1.32-.11,1.86-.08.14-.37.15-.42.2-.04.05.2.83.14,1.31-.17,1.42-.87,3.18-1.05,4.72-.13,1.1-.06,2.38-.19,3.5,1.29-.62,2.44-1.47,3.66-2.19,1.59-.95,3-1.9,4.54-2.85,2.02-1.24,5.35-3.21,7.72-3.19,3.44.03,5.93,1.68,4.63,5.34l2.48-.88c1.28.33,2.25.32,3.18,1.43,1.78,2.12.74,4.39-.55,6.43l-2.59,2.84c.44.12.84-.22,1.35-.27,1.43-.15,3.4.68,3.53,2.25.1,1.25-.58,2.79-1.2,3.86-1.69,2.88-4.43,5.31-6.84,7.41-1.48,1.29-3.24,2.39-4.6,3.69-.9.87-4.39,4.52-4.64,5.47-.09.34.02,1.14-.09,1.7-.16.8-.65,1.41-.59,2.14.28.38,3.06.23,3.6.15,4.83-.75,8.43-3.42,12.79-5.24,2.1-.88,4.81-1.28,6.16-3.4.16-.26-.05-.79.46-.71l-.53-.44c.09-.28.36-.59.43-.84.4-1.43.56-2.8.84-4.2.3-1.47.75-2.93.88-4.44l.36.18c-.02-.38-.16-.65-.07-1.05.09-.42.38-.39.39-.42.05-.16-.34-.69.23-.96l-.35-.16.55-2.73-.38-.62h.52c-.01-.62.04-.99.56-1.36l-.34-.34c.68-1.72.49-3.26.72-5.03.09-.7.22-2.15.35-2.7.03-.14.34-.11.36-.24.07-.36-.25-.81-.19-1.22s.64-.66.66-1.09c.01-.31-.33-.75-.31-1.26.02-.35.26-.62.27-.79.1-1.2.22-2.08.32-3.13.04-.46.68-1.58.7-1.68.04-.27-.26-.59-.16-1.01.11-.45.57-1,1.05-.68-.22-.46-.77-.4-.9-.99-.11-.51.33-.05.36-.09l-.35-.72c.66.09.11-1.18.21-1.68.07-.33.36-.51.46-.8.2-.56-.23-.94.67-1.27.62.34.49,1.21.43,1.84-.15,1.61-.65,3.45-.86,5.09-.68,5.22-1.22,10.6-2.04,15.81-.12.77-1.18,4.52-.87,4.81.7-.38.74.11,1.08.24,2.12.82,4.68,1.77,6.64,2.81.85.45.89.08,1.31.1.88.05,2.05,1.13,2.83,1.49,3.21,1.49,8.62,3.3,12.08,3.97,1.78.34,3.6.4,5.38.76.14,1.8-.39,1.3-1.49,1.34-.84.03-1.36.21-2.26-.08-.15-.05-.14-.34-.26-.35-.23-.02-.51.18-.83.14-.96-.12-1.87-.49-2.84-.49.37,1.85-.37,3.71-.7,5.52-.08.44.03,1.33-.03,1.57-.05.21-.47.19-.53.4-.1.31.29.54.31.85.03.53-.4,1.19-.48,1.67-.16.87.28,1.43-.51,2.16,1.13,1.38.48,2.71,2.75,2.73,1.52.01,2.83-.86,4.24-1.29,2.52-.79,3.92-1.13,6.35-2.31,2.9-1.4,5.34-3.18,7.9-4.74,1.41-.85,6.44-7.57,7.35-9.22,1.04-1.86.9-3.04,1.49-4.79.07-.2.62-.25.53-.94-.03-.24-.3-.44-.3-.55,0-.13.45-.51.49-.91.03-.33-.33-.21-.37-.38-.64-2.8.76-4.62-1.45-7.67-1.93-2.66-4.2-5.39-6.24-7.95-2.14-2.69-3.76-3.95-6.68-5.7-.41-.25-1.11-.29-1.48-.64-.29-.27-.34-.77-.38-.8s-.39.2-.86.06c-.84-.24-1.29-1.01-1.71-1.2-.32-.15-.74.07-1.14-.1-4.52-1.95-10.04-3.31-14.9-4.05-1.05-.16-2.09-.2-3.11-.31-.76-.09-1.7.26-2.69.17-1.1-.1-3.11-.48-4.14-.76-.45-.12-.87-.71-1.56-.48.16.39.31,1.74-.03,1.95-.28.17-1.38.18-1.38-.23,0-.81.29-2.01.34-2.89s-.5-2.1.53-2.53c-.91-.56-.43-1.88-.73-2.65-.06-.15-.29-.17-.33-.29-.44-1.28-.65-3.1-2.35-3.09l-.2.71c-.23-.21-1.16-.31-1.23-.39ZM114.66,80.13c-2.89.1-4.55,2.21-5.59,4.68,1.83.14.74,1.39,1.35,2.34.56.08.05-.5.08-.78.01-.11.28-.12.35-.27.5-1.07.78-1.92,1.84-2.63.9-.6,2.68-.8,2.43-2.27l-.82-.36.36-.72ZM69.67,86.36c-.32-.31-.84-.84-1.29-.96-.2-.05-2.54-.39-2.67-.38-1.04.07-3.39,1.94-3.61,3.04-.07.35.12.65.11.99-.01.31-.2.62-.19.91.04.81.49,2.88,1.07,3.43,1.37,1.3,6.63,1.61,7.2-.4l-.06-.42c-.94-.86-2.14-1.35-3.16-2.08-.24-.17-.29-.45-.5-.62-.61-.49-1.53-.47-1.5-1.68.64-.67,1.71.47,2.28.96s.34.85,1.47.87l1.85,1.12c-.47-.79.09-.64.17-.85.56-1.48-.1-2.89-1.17-3.91ZM18.9,91.15l-.7.17c.57,1.37-.74,1.67-1.71.9-.27,1.13-1.8,1.35-2.36,1.97-.27.3-.39,1.03-.46,1.07-.2.13-.75-.09-1.02.06-.04.02-.23.43-.39.6-1.81,1.85-3.12,3.33-4.1,5.64-.45,1.06-1.15,2-1.32,3.18,0,.31.8-.3,1.18.09.42.44.14,1.08.06,1.59l-1.75.05c-.46,1.38-.14,2.99-1.28,4.04-.05.16.25.05.28.13.59,1.29-.28,6.46.13,8.47.87,4.32,4.2,11.53,6.7,15.12,3.04,4.37,6.17,8.11,10.54,11.27,2.92,2.12,5.61,4.51,8.5,6.64.71.52,3.05,1.51,3.24,2.36l-.31.12.13.33c-.35.01-.65-.14-.54.36,1.21.34,2.09,1.16,1.82-.82-.06-.42-.57-.05-.18-1.38.17-.56.23-.93.39-1.62.15-.65,1.05-3.33,1.04-3.65,0-.09-.34-.08-.37-.22-.12-.47,1.08-4.85,1.31-5.69s1.16-2.8,1.17-3.51c0-.25-.28-.44-.32-.7-.15-.97.59-3.09.87-4.11-.39-.56-.98-.96-1.42-1.47-1.11-1.28-1.54-1.95-2.43-3.51-.18-.32-.6-.26-.73-.71-.14-.5-.14-.99.1-1.46-1.26.48-.93-.22-1.37-.89-.22-.33-.59-.92-.79-1.2-.33-.46-1.19-.53-.55-1.7-1.23.23-1.04-1.27-1.35-1.99-1.17-2.74-2.47-4.87-2.55-8.05-.01-.43.29-1.42.19-1.69-.11-.29-.99-.83-1.18-1.16-.14-.24.03-.53-.06-.64-.2-.24-.91-.13-1.37-.81-.27-.4-.22-.94-.26-1-.17-.21-.45.1-.82-.25-.93-.88-1.79-3.23-2.7-4.34-.52-.64-1.73-1.9-2.36-2.51-.23-.23-.65-.22-.88-.58-.25-.38-.28-1.87-.4-2.28-.08-.27-.43-.33-.43-.67.02-1.25.84-2.55,1.91-3.16l-1.12-2.41ZM128.07,99.72c-.46-.34-.58-.77-1.44-.83-4.84-.3-8.86,3.38-12.71,5.65-.7.41-3.97,2.31-4.47,2.37-.35.04-.64-.33-.73-.28-.02,0,.03.22-.14.35-1.25.98-2.1,1.06-3.47,1.58-.41.16-.75.59-1.26.7-.39.08-.69-.08-.83-.06-.21.04-.17.44-.38.49s-1.34.04-1.56-.03l-.22-.14-.08-.55c.48-.29,1.06-.04,1.45-.12.12-.03,2.19-1.04,2.25-1.15l.26-2.79.55-.1-.36-.45c.19-.36.94-.07.27-.83-.74-.84-1.86.15-2.58.32-2.91.71-4.14.4-6.42,2.77-.69.72-1.4,1.67-1.67,2.63-.13.45-.17.91-.47,1.54-1.51,3.16-2.14,6.87-4.11,9.77-.2.29-.58.27-.8.46-2.08,1.83-3.17,4.55-5.23,6.5-1.94,1.83-4.21,3.9-6.29,5.96-1.83,1.81-3.69,3.04-5.52,4.75-1.97,1.84-3.4,3.72-5.58,5.41-.56.43-2.22,1.34-2.57,1.71-.25.27-.21.8-.34.89-.16.11-1.48.14-1.9.44-.56.41-1.76,1.34-2.33,1.82-1.05.88-1.9,2.06-2.78,2.89-.53.49-1.24.87-1.98.83l.13.42c-1.21,1.33-3.18,1.76-4.19,3.36l-2.01,1.43c-2.74-1.02,1.37-2.21,1.37-2.6-.86-.46-1.31-.53-1.62-1.53.12-.1,2.74-.11,3.15-.19.56-.1,1.12-.76,1.55-.98.23-.11.59.05.77-.08s.12-.45.3-.64c.55-.55,1.74-1.13,2.3-1.57.04-.03-.18-.67.67-.69l-.1-.55.55.1c.62-1.67,2.8-1.85,3.77-3.26-.53-.37-1.06-.3-1.68-.66-.38-.22-2.26-1.77-2.45-2.08-.14-.23-.02-.52-.19-.68-.31-.29-1.72-.83-1.81-.92-.26-.25-.3-.87-.8-1.17-.23-.14-.45.02-.72-.15-.55-.34-.73-1.12-.8-1.18-.08-.06-.32.03-.46-.1-.65-.55-1.06-.87-1.35-1.72l-.27.27c-.39-.56-1.1-.91-1.54-1.34-.35-.35-.4-.75-.63-1-.15-.17-1.08-.11-1.17-.71l.36-.09-1.8-1.53c.06.78-2,4.01-1.76,4.47.05.1.48-.13.27.8l-2.74,4.47c-.54,2.14-1.32,4.13-1.98,6.13-.24.74-.17,2.32-1.53,1.98l.18.54-.56.11c-.54,1.86-1.32,3.47-1.06,5.48,1.25-.29,2.1.04,1.62,1.44h-1.62c-.1.06-.2,2.02-.2,2.25.05,6.17,4.39,14.42,8.55,18.78,5.84,6.12,20.53,12.25,28.85,10.68,2.4-.45,6.95-1.61,9.07-2.65,1.61-.79,2.98-2.04,4.93-2.2-.39-.7-.19-1.51.72-1.44l.19.72c1.65-.46,2.47-2.27,3.78-3.34,1.52-1.25,2.62-1.36,3.87-3.16,1.51-2.19,3.69-5.14,4.9-7.36.1-.19.29-.32.43-.47-.16-.41-.43-.28-.33-.96.33-.2,1.04-.18,1.3-.37.34-.24,1.88-3.43,2.26-4.08.27-.46.91-1.02,1.01-1.52.14-.67-.65-1.28-.38-1.8.28-.56,1.2-.2,1.72-.64.35-.3,1.95-2.8,2.24-3.35.92-1.69,1.4-3.6,2.2-5.37.71-1.57,1.58-3.11,2.41-4.62-1.2-.18-.19-.62-.01-.95,1.16-2.22,2.3-5.38,2.98-7.8.3-1.06.96-3.71,1.71-4.57.15-.18.45-.07.52-.14.11-.11,0-.55.2-.8.19-.23.62-.19.7-.29s.03-.5.21-.78c.12-.2,2.44-2.34,2.72-2.48.18-.1.54,0,.68-.16.19-.2.15-.69.49-1.05.95-1.03,3.44-2.25,4.59-3.34,2.02-1.91,3.78-4.22,5.5-6.4.18-.22.55-.3.61-.39s-.11-.41-.03-.64c.29-.92.93-1.42.46-2.52-.27-.63-1.64-.81-2.21-.69-.22.05-3.36,1.37-3.55,1.5-1.21.81-2.5,1.73-3.74,2.57-2.48,1.69-4.67,3.83-7.01,5.61-.42.32-2.6,2.13-2.88,2.11-.75-.07-1.14-.57-.59-1.25.73-.9,2.77-2.05,3.75-2.88.84-.71,1.55-1.63,2.4-2.33,1.94-1.61,4.33-2.95,5.85-4.79,1.28-1.55,3.53-2.46,5.1-4.18.12-.13.5-.08.69-.31s.15-.69.3-.96c.43-.75,1.22-1.4,1.12-2.4l.36-.09c-.62-.17-.18-.37-.26-.82-.17-.99-.9-2.3-2.01-2.32-.38,0-.95.15-1.33.26-.68.18-3.58,1.2-4.1,1.49-.67.38-.97,1.15-1.59,1.65-.82.67-1.7,1.31-2.54,1.96-3.58,2.75-7.47,5.45-11.38,7.6-.34.19-.74.29-1.04.55-.28-.57-1.28-.43-.63-1.35,1.04-.4,1.78-1.27,2.65-1.86,4.18-2.86,8.53-5.65,12.42-8.68,1.02-.8,1.87-1.68,3.11-2.19-.09-.77.24-1.76.58-2.49-.39-.07-.7-.39-1.02-.61ZM93.93,107.9c-3.17,0-6.47.97-9.5-.31-1.29-.21-2.6-.64-3.84-1.04-.65-.21-.93-.82-1.8-.52-1.76.6-3.37.25-5.04.91s-2.26.65-3.98,1.03c-3.48.77-7.85,3.23-10.16,5.88-.46.52-1.38.85-1.66,1.31-.12.2-.07.52-.23.76-.42.63-.8,1.45-1.64,1.53,1,1.78-1.45,1.03-1.96,1.84-.06.1.13.35.05.5-.32.64-1.2,1.2-1.52,1.71-.23.36-.23.89-.53,1.23s-.84.3-1.1.62-.42,1.08-.64,1.48c-.96,1.73-2.2,3.21-3.09,5.02-.19.39-.67,1.26-.51,1.66,1.83,1.97,3.94,3.64,5.95,5.41,1.78,1.57,3.56,3.2,5.31,4.79.55.5,1.54,1.55,2.08,1.88.74.45,2.07.67,2.88,1.26.28-.83.72-.79,1.17-1.18,1.13-.97,1.99-1.42,2.93-2.37.14-.14.63-.1.88-.32.18-.16-.03-.45.07-.62.22-.37,1.01-.46,1.13-.6.08-.1,0-.38.07-.45.11-.11.53.03.8-.21.2-.18.1-.56.2-.73.33-.54,1.96-2.21,2.49-2.54.29-.18.53,0,.65-.06.15-.08,0-.37.16-.54.6-.64,2.13-.95,2.89-1.82.18-.2-.02-.43.16-.71.49-.79,1.52-1.17,2.01-1.6.83-.73,1.08-2.5,2.34-2.09v-.53c.66.26.6-.45.91-.82s.75-.28.99-.45c1.3-.95,1.42-1.5,2.03-2.84.37-.83.73-.7,1.13-1.08.3-.29.21-.91.43-1.12s.6-.21.83-.45c.18-.18,0-.61.2-.77.15-.13.49-.09.79-.4.23-.22,1.44-2.28,1.53-2.69.69.29.22-.9,1.25-.74-.53-.93.33-1.21.48-1.74.27-.93.3-2.67.64-3.71.26-.78.88-1.31,1.17-1.89.1-.2.65-1.79.58-1.85ZM35.63,117.16c-1.12-.96-3.05-2.09-3.92-3.22-.17-.22.11-.56-.15-.73-.18-.12-.52-.07-.72-.19-.38-.25-.77-.72-1.19-.98-.19.06-.08.43-.06.6.18,2.05.71,3.82,1.41,5.62.54,1.38,1.71,2.87,1.45,4.41.82-.41,1.26,1.22,1.65,1.86.25.41.77.76.95,1.22.12.31-.07.76.19,1.06.18.21.57.2.82.45.62.61.5,1.48.63,1.73.15.3,1.36,1,1.62,1.63.1.24-.12.51-.1.53.11.09,1.35.02,1.53.9.67-.46.25-1,.31-1.49.09-.77,1.15-2.67,1.59-3.43s.05-.45.25-1.21c.13-.51.74-1.83,1.19-2.07-1.81-1.94-3.95-3.5-5.95-5.23-.52-.45-.97-1-1.51-1.46ZM148.13,117.52c-.76-.45-1.3-.33-2.01-.79-.45.02-.59,2.4-.72,2.7-.25.57-1.1.65-1.17.82,1.59.08.46,1.2.27,2.07-.54,2.47-.78,4.76-1.57,7.26-.19.61-.83,2.75-1.26,2.98-.46.25-.46.07-1.18.58-1.86,1.32-3.76,1.57-5.79,2.45-1.1.48-2.16.93-3.22,1.39-.09.04-.53.72-.81.89-.76.44-1.88.73-2.89,1.26-.81.42-2.22.62-3.32,1.01-.94.33-4.54.77-5.28.29-.11-.07-.15-.27-.21-.4l-.52.04c-1.04,2.55-2.37,5.01-2.92,7.71-.17.3-.39.57-.6.84-.84,1.06-1.23,2.75-1.84,4.11-.54,1.22-1.29,2.46-1.79,3.62-.22.52-.3,1.16-.59,1.66,1.28-.2,2.56-.22,3.85-.39.65-.09,3.12-.73,3.44-.7.13.01.14.37.41.51,1.6.81,5.71-.45,7.55-.69,1.42-.18,3.24-.07,4.67-.18,4.6-.35,10.19-2.61,14.31-4.8.63-.33,1.77-1.25,2.2-1.42.25-.1.51.11.53.1.03-.03.03-.57.28-.89.3-.38.84-.4,1.1-.61.53-.43,1.04-1.73,1.68-2.2l-.36-.35c.12-.51.87-.73,1-1,.1-.19-.08-.48-.01-.72.23-.85.85-.86,1.18-1.35.3-.45-.66.09-.36-.36.19-.28.64-.41.68-.49.16-.28-.07-.88.06-1.03.04-.05.34.05.53-.13.1-.09.87-1.84.89-1.96,0-.04-.61-.13-.36-.62l.54-.09c-.67-.17-.16-.37-.2-.73s-.35-.6-.17-.97l-.54-.11c-.33-3.3-.29-6.59-.34-9.91-.01-.82-.2-1.88-.2-2.69,0-.66.42-1.03,1.04-1.16.04,0,.7.35.73.38.11.13.02.47.15.67,1.11,1.79,2.3,3.67,3.86,5.16.47.45,1.25.84,1.73,1.34.54.56,2.64,3.46,3.05,4.16.17.3.02.76.12.88.05.06.43.04.62.19.23.18.15.58.44.56.08-.66.36-1.31.5-1.94.25-1.16.32-2.81.59-3.89.04-.15.36-.12.36-.22.02-.67-.58-1.57.72-1.88-1.34-.7.41-2.27-.27-3.24-.25-.36-1.38-.33-1.75-.54-.21-.12-.23-.47-.43-.52-.52-.14-1.9-.07-2.81-.39-.95-.33-1.89-.53-2.79-.86-1.56-.56-3.02-1.84-4.32-2.52-.43-.23-1.03-.41-1.38-.62-.28-.17-.47-.68-.85-.77-.4-.09-1.1-.09-1.53-.19-1.26-.31-1.68-.67-2.68-1.27ZM180.04,141.14c-.4-.44-1.92-2.14-2.36-2.16-.8.2-1.42.7-2.22.96-1.04.34-2.18.49-3.17.61-.06,0-.7.67-.91.74-2.05.72-4.3.81-6.29,1.1-1.23.18-2.97.98-4.22,1.02-.6.02-1.22-.3-1.86-.17.03,1.09.38.7.63.89.58.45.86,1.19,1.22,1.58.1.11.41.07.58.23.4.37.46,1.35.5,1.41.12.15.69.32,1,.69.6.7.44,1.22.57,2.04l.36-.36c-.03,1.05.8,1.81,1.15,2.54.58,1.21,1.01,3.15,1.29,4.48.08.38.61,2.82.58,2.97-.05.26-.46.41-.57.65-.82,1.78-1.44,3.55-2.19,5.41-.31.77-.74,1.91-1.25,2.53-1.47,1.78-3.64,1.21-5.49,2.62-2.9,2.22-3.05,4.26-7.49,4.77-.97.11-.78-.32-.93-.37-.63-.18-.54.28-.85.39-1.7.57-3.65.71-5.26,1.6l-.44-.37c.01.66-1.2.61-1.71.53-.26-.04-.44-.3-.58-.32-.18-.03-.49.3-.86.34-.26.03-2.52-.21-2.63-.28-.17-.11-.12-.48-.26-.46-.24.66-1.76.33-2.53.36-.49.02-.92.22-1.43.2-.71-.04-1.27-.65-2-.01l-.17-.36c-.48,1.11-1.56-.37-2.25,0v-.54c-.44-.12-.82.36-1.17.35-.32,0-.71-.48-1.12-.49-.66-.02-1.92.09-2.69-.19-.38-.14-1.06-.77-1.79-.74l-.15.34c-1.49-.07-2.33-.72-3.63-1.25l-.16.35-1.37-.36.14-.32c-.83-1.04-1.11-.14-2.12-.4l.18-.36-2.35-.27v-.45c-1.2.52-1.49-.37-2.05-.58-.61-.23-2.15-.04-3.06-.67-.18-.12-.01-.45-.22-.56-.35-.2-.97.04-1.14-.08-.12-.09-.44-.49-.69-.62-.27-.14-.62.12-.85-.55-.11.52-.67.49-.76.58-.12.12-.09.52-.25.74-1.03,1.43-2.15,2.76-3.19,4.21-1.88,2.62-2.24,3.99-4.86,5.83-.54.38-1.86,1.21-2.26,1.61-.43.44-.56,1.42-1.57,1.72l3.6,1.46c1.35.13,2.47,1.03,3.97,1.61,4.3,1.65,9.54,2.48,14.1,3.92.71.22,2.19.9,2.83.95.29.02.5-.4.97-.26.35.1.36.55.63.7,1.96,1.1,7.72.9,10.01.98,5.05.18,10.24,1.37,15.29.89,7.54-.71,14.82-4.02,21.74-6.89,4.76-1.97,9.07-4.99,13.21-8.07,3.12-2.32,4.56-5.21,6.72-8.26.41-.58,1-1.11,1.36-1.87.47-.99.53-2.48,1.49-3.02l-.37-.37c.22-.73.38-1.66.72-2.34.74-1.5,1.67-1.31.92-3.43-.45-1.26-.45-.68-.58-2.33-.13-1.52-.86-2.85-1-4.37-.05-.53.22-1.24.13-1.74-.08-.47-.79-1.37-.96-1.94-.19-.62-.14-1.6-.4-2.12-.18-.35-.61-.42-.81-.69-1.52-2-2.62-4-4.39-5.93ZM158.63,144.35s-.27.1-.42-.02c-.25-.21-.83-1.07-.9-1.08-.06,0-.41.3-.74.33-.91.1-2.07-.36-2.96-.08-.5.28-2.25,4.31-2.81,5.12-1.58,2.34-3.62,3.54-5.97,4.84-.25.14-2.38,1.1-2.22,1.3.57-.17.3.71.06.92-.33.28-1.34.44-1.8.68-.8.41-1.96.99-2.71,1.44-.39.23-.75.75-.96.85-.32.14-1.34-.08-1.79,0-1.76.29-4.26,1.4-6.05,1.88-1.02.28-2.07.38-3.08.73l-.42-.36c-.15,1.05-1.68-.13-2.53.08-.68.16-1.32,1.08-1.81,1.27-.4.16-.79.03-1.12.14-1.77.57-3.28,1.68-4.83,2.56-.58.33-1.23.48-1.73.98h-.24s-.28-.52-.28-.52l-.09.71-8.29,3.16c1.33.54,2.54,1.29,3.92,1.67,7.24,1.95,15.39,5.07,23.03,5.02.48,0,1.23.22,1.63.17.32-.04.68-.44,1.27-.46,1.2-.04,2.92.48,4.14.55,3.66.2,5.54-1.06,8.88-1.75,1.56-.32,3.23-.17,4.71-.87,1.85-.87,3.02-3.22,4.91-4.29,1.3-.73,3.33-.68,4.31-1.64.86-.84,1.71-3.98,2.31-5.26.34-.73,1.53-2.31,1.62-2.9.07-.47-.52-1.29-.65-1.8-.05-.21.12-.48.08-.65-.75-3.38-2.45-7.01-4.56-10.01-.55-.78-1.37-2.03-1.9-2.69Z"/>
        <path d="M151.72,68.96c-.08-.02-1.35-.51-1.41-.55-.34-.22-.43-.62-.52-.67-.2-.12-.54.07-.7-.14-.63-.83-.05-2.39-.16-2.6-.01-.02-.4.24-.54-.09l.36-.09c.21-.46-.37-.31-.37-.45,0-.29.33-.38.29-.64-.05-.29-.37-.31-.45-.49-.99-2.47-.71-3.91-.56-6.44.02-.32-.22-.62-.15-1.04.26-1.67,2.93-3.54,4.44-4.05,1.8-.6,4.36-.85,6.21-1,.96-.08,1.62-.51,2.4-.66,4.12-.82,8.44-.86,12.6-1.47.79-.12,1.6-.68,2.45-.34.15-.5,0-1.06.17-1.53.66-1.9,3-5.01,5.06-5.41,1.78-.34,2.19.51,3.38.78.41.09.83-.02,1.22.05,1.43.26,1.82,2.28,2.88,3.07.87,3.1-.01,6.33-2.67,8.22-.13.09-.41.03-.45.07-.09.09.18,2.12.16,2.61-.03.94-.08,2.39-1,2.78l-.27-1.08-.36.9.18-4.51c-.33-.03-.5.3-.82.35-1.82.31-5.51-.86-6.58-2.43-.49-.72-.43-1.69-.82-2.45-.91-.13-1.75.35-2.6.46-.54.07-1.38-.06-1.83,0-.62.1-2.49.84-2.94.81-.1,0-.08-.34-.22-.37-1.12-.26-1.79.14-2.68.19-3.67.2-7.19,1.03-10.85,1.78-.26.05-.55-.11-.8-.06-.76.15-3.22,1.29-3.76,1.8-1.1,1.06-1.31,2.67-1.27,4.13.05,1.83.56,3.07.88,4.72.17.86.31,3.53.83,4.03.06.06,1.45.52,1.62.55.75.09,3.99-.62,4.26-.26.28.69-.34,1.47-.49,2.18-.21.98-.43,2.43-.53,3.43-.04.41-.26,2.2.19,2.21.11-.31.59-.19.61-.21.05-.07,0-.34.09-.43.2-.2.48-.36.65-.57.64-.71.83-1.57,1.72-2.4,1.03-.96,1.32-1.34,1.94-2.76.11-.25,0-.54.06-.67.53-1.05,2.59-.76,3.58-.91,1.33-.2,2.61-.37,3.96-.55,4.53-.6,9.08-1.19,13.5-2.35.85-.04.97-1.3,1.28-1.55.1-.08.39.03.49-.16.16-.3.14-1.04.36-1.41l-.35-.18.15-.9.54-.12-.17-.89,1.08-.18c.17,2.04-.68,4-1.3,5.91-.61.5-1.53.31-2.16.6-2.88,1.3-5.87,1.72-9.05,1.81-.63.02-1.49.5-2.16.54l-.29-.37-.12.55c-.71.35-1.56-.04-2.12,0-1.19.1-2.53.65-3.63.7-.8.04-1.19-.31-1.89-.26-.83.53-1.29,2.36-1.8,3.01-.31.4-1.02.45-1.08.51-.05.05.13.34.06.52-.3.83-1.46,1.77-1.99,2.41-.21.25-.34.82-.71,1.18-.63.6-1.25.51-1.97.93-.09.02-.86-.68-.89-.73-.15-.23-.16-2.1-.06-2.41.09-.26.64-.28.65-.77.01-.46-.44-.68-.47-.91-.03-.21.27-.39.28-.54.03-.48-.31-.7.12-1.27.07-.1.82-.14-.08-.52l.2-.97c-.78-.13-2.1.18-2.79,0Z"/>
        <path d="M154.63,2.3c4,4.25,4.55,12.54,4.74,18.07.15,4.27.13,9.52-.78,13.64-.44,2.02-.51,2.99-1.49,4.88-.09.18-.13.82-.28,1-.03.03-.28-.1-.42.02-1.07.92-2.04,1.6-3.25,2.36l-.36-.36-.93,1.03c-1.13-.25-2.39.14-3.43.16-.46.01-1.07-.1-1.6-.12-.99-.03-1.16.35-2.13-.5l-2.2,1.23-.09-.36-.63.5-.62-.31c-.21.94-.78.25-1.19.18-.72-.12-1.24.3-1.89-.1-1.5.84-3.23,1.24-4.94,1.73-.49.32-.28,1.03-.4,1.44-.64,2.17-.92,4.1-1.2,6.34-.28.83-1.3.5-1.76,1.13l.36.27c-1.31-.1-2.63-.93-1.8-2.34l-.9-.18.35-.26c-.31-.37-.2-1.1-.34-1.43-.09-.22-.44-.02-.55-.23-.03-.05-.32-1.03-.32-1.09,0-.33.41-.42.32-.78l-.36.09-.71-2.89c-.64.05-1.55-.48-2.11-.38-.48.09-1.04.58-1.46.63-.35.04-.66-.19-1.02-.14-1.49.21-4.5,1.18-5.94.35-.89-.51-.46-.16-1.32-.24-1.73-.16-2.9-.97-4.2-2.02-2.85-2.29-3.7-5.83-3.56-9.37.07-.3.66-.12.48-.62l-.55-.12c.17-1.6-.78-3.16-.37-4.68-.55-.14-.56-2.03.02-2.15-.24-.52-.62-2.38-.56-2.9.03-.22.71-.62.38-1.34l-.36.54c0-.57-.53-1.17.18-1.35-.94-.62-.48-1.56-.53-2.34-.04-.61-.29-1.18-.21-1.82.05-.38.52-.17.38-.71-.02-.08-.3-.08-.32-.18-.1-.38-.23-1.76.32-1.81l-.36-.81.36.18.18-1.63-.36.18v-.36s.33-.04.33-.04l-.12-.49.33-.11-.36-.81.36.36c.21-.97.61-2.37,1.63-2.71l-.35-.45c.33-.5.98-.58,1.42-.91.62-.46,1.17-1.16,1.92-1.5,1.68-.75,4.46-1.06,6.33-1.78.98-.38,2.23-1.35,3.01-1.69.83-.36,3.56-.09,4.68-.18,3.43-.29,5.72-1.35,9.41-1.25.93.03,2.01.39,2.99.26.82-.11,1.56-.6,2.26-.73,1.25-.23,4.45.36,5.92.31,2.08-.08,5.42-1.29,7.36-.17.41.24,2.33,1.55,2.59,1.83ZM151.86,2.19c-.15-.1-.17-.45-.58-.59s-1.25-.13-1.73-.15c-.73-.03-2.58-.03-3.23.07-.43.07-.5.5-1.09.56-.73.07-1.96-.05-2.88,0-3.92.18-7.66-.16-11.55-.18-1,0-2.11.67-3.1.85-.52.09-2.17,0-2.45.1s-.43.49-.75.49l-.54-.37c-.18.7-.5.18-.92.19-.66.03-2.33.05-2.86.18-2,.48-2.25,1.76-4.7,2-.51.05-2.81,1.17-3.82,1.38-.28.06-.55-.18-.83-.12-.18.04-2.73,2-2.99,2.24-.95.9-1.42,2.56-1.62,3.79-.34,2.18-.3,5.98-.03,8.28.09.77.5,1.59.55,2.51.04.57.2,1.69-.37,1.81,1.01.66.37,1.95.43,2.86.17,2.52.73,4.8.82,7.42.07,2.09.86,5.27,2.47,6.75.43.4,1.03.51,1.51.84.42.29.77.93,1.26,1.08.68.21,1.43-.03,2.08.09,1.24.23,1.55.89,3.35.63,1.01-.15,2.65-.46,3.65-.67.4-.08.7-.46,1.13-.49.5-.04,1.99.09,2.5.19.98.2,1.49.34,1.79,1.29.59,1.88.75,4.14,1.43,6.13.27.79.57,1.86,1.58,1.94.2-.4,0-.76.05-1.13.06-.6.29-1.24.48-1.72.06-.15.39-1.14.37-1.2-.04-.17-.9-.35-.54-1.18l.36.54c.07-.45.27-.95.32-1.4.03-.32-.18-.64-.15-.83.02-.16.36-.16.45-.3.27-.41.22-1.61.82-1.89.4-.19,1.37-.11,2.02-.32.98-.32,2.3-1.09,3.32-1.38,1.1-.31,2.47.3,3.56.09,1.18-.23,2.42-1.18,3.67-1.13.48.02.79.45,1.23.48.68.04,2.11-.28,2.88-.35,1.98-.18,3.53-.18,5.2-1.61.18-.15.06-.42.23-.56.19-.16.69-.2.96-.45.37-.34.83-1.88.91-2.42l.36.54v-2.78c.78-.1.54-.51.76-1.15l.5-.03-.36-.81.54-.09c.17-.55-.67-.44-.73-.65v-.97s.55.27.55.27c-.16-.56-.52-.2-.56-.89-.08-1.5.86-1.99.9-3.27,0-.08-.31-.06-.34-.2-.22-.98,0-2.69-.19-3.75l.55-.09c-.48-.96-.64-1.93-.54-3.06l.36.54c.5-1-.15-.85-.37-1.2-.57-.92.26-1.49.2-1.95l-.36-.1v-.36s.35-.18.35-.18c-.69.08-.22-.63-.27-1-.15-1.25-.58-2.83-.8-3.82-.71-3.16-.93-5.69-3.34-7.99-.7-.67-1.13-.86-1.84-1.31Z"/>
        <path d="M177.41,55.61c-.74.3-1.49.1-2.23.2-2.59.35-4.43.69-7,.75-.88.02-1.06.47-1.12.47-2.69-.18-5.84,1.04-8.68,1.08-.43,0-1.11-.12-1.13-.64-.02-.57,1.15-.65,1.56-.73,4.63-.89,9.64-1.28,14.35-1.88,1.34-.17,2.5-.69,3.91-.26l.35,1Z"/>
        <path d="M176.32,61.38c-.61,0-1.41.49-1.91.54-2.59.31-5.39.55-7.92.8-.72.07-2.21.59-2.33.57-.14-.01-.32-.27-.7-.28-1.49-.05-3.07.8-4.62.53l.13-.33-.3-.11c.14-.15.12-.48.22-.59.27-.32,5.36-.69,6.31-.82,1.79-.23,3.69-.62,5.48-.83s3.52-.42,5.31-.47l.35.99Z"/>
        <path d="M23.79,148.3c.05.24.02.49-.07.72-.18.47-2.43,1.75-3.05,2.18-.19.13-.25.39-.43.51-.15.11-1.41.83-1.48.72l-.18-1.26c1.05.14,4.38-4.05,5.22-2.87Z"/>
        <path d="M72.79,62.42c-.85.87-2.24.21-3.42.64-.08.03-1.09.62-1.14.66-.43.39.05.97-1.16.73-.02-2.83,3.58-2.21,5.32-3.19l.59.61c.03.16-.08.44-.19.56Z"/>
        <path class="cls-1" d="M128.07,99.72c.31.23.62.55,1.02.61-.34.73-.67,1.72-.58,2.49-1.24.52-2.09,1.4-3.11,2.19-3.89,3.03-8.24,5.83-12.42,8.68-.87.59-1.61,1.46-2.65,1.86-.65.92.35.78.63,1.35.31-.26.7-.36,1.04-.55,3.91-2.15,7.8-4.84,11.38-7.6.84-.65,1.72-1.29,2.54-1.96.62-.51.92-1.28,1.59-1.65.52-.29,3.42-1.31,4.1-1.49.38-.1.95-.26,1.33-.26,1.1.02,1.83,1.33,2.01,2.32.08.45-.36.65.26.82l-.36.09c.1,1-.69,1.65-1.12,2.4-.15.27-.1.72-.3.96s-.57.17-.69.31c-1.57,1.72-3.82,2.62-5.1,4.18-1.52,1.84-3.91,3.18-5.85,4.79-.85.7-1.56,1.61-2.4,2.33-.97.83-3.02,1.98-3.75,2.88-.55.68-.17,1.18.59,1.25.28.03,2.46-1.79,2.88-2.11,2.34-1.78,4.53-3.92,7.01-5.61,1.24-.84,2.53-1.77,3.74-2.57.19-.13,3.33-1.45,3.55-1.5.57-.12,1.94.06,2.21.69.46,1.1-.17,1.6-.46,2.52-.07.23.09.55.03.64s-.44.17-.61.39c-1.72,2.18-3.48,4.49-5.5,6.4-1.15,1.09-3.64,2.31-4.59,3.34-.34.37-.3.85-.49,1.05-.14.15-.5.06-.68.16-.27.15-2.59,2.28-2.72,2.48-.17.28-.12.68-.21.78s-.52.05-.7.29c-.2.25-.09.69-.2.8-.07.07-.36-.04-.52.14-.75.85-1.41,3.51-1.71,4.57-.68,2.41-1.83,5.57-2.98,7.8-.17.33-1.18.78.01.95-.83,1.51-1.7,3.04-2.41,4.62-.8,1.77-1.28,3.68-2.2,5.37-.29.54-1.89,3.05-2.24,3.35-.52.44-1.43.08-1.72.64s.52,1.13.38,1.8c-.11.5-.74,1.06-1.01,1.52-.38.65-1.93,3.85-2.26,4.08-.27.19-.97.17-1.3.37-.1.68.17.55.33.96-.14.16-.32.29-.43.47-1.21,2.22-3.39,5.17-4.9,7.36-1.25,1.8-2.35,1.92-3.87,3.16-1.31,1.07-2.13,2.87-3.78,3.34l-.19-.72c-.9-.07-1.11.74-.72,1.44-1.95.16-3.32,1.41-4.93,2.2-2.12,1.04-6.67,2.2-9.07,2.65-8.33,1.57-23.02-4.56-28.85-10.68-4.16-4.36-8.51-12.61-8.55-18.78,0-.23.1-2.19.2-2.26h1.62c.49-1.4-.37-1.74-1.62-1.44-.26-2.02.52-3.63,1.06-5.48l.56-.11-.18-.54c1.36.34,1.29-1.25,1.53-1.98.66-2,1.45-4,1.98-6.13l2.74-4.47c.22-.92-.22-.7-.27-.8-.23-.46,1.82-3.69,1.76-4.47l1.8,1.53-.36.09c.08.6,1.02.55,1.17.71.23.26.28.66.63,1,.44.43,1.15.78,1.54,1.34l.27-.27c.29.85.7,1.17,1.35,1.72.15.12.39.04.46.1.07.05.24.84.8,1.18.28.17.49.01.72.15.5.3.54.92.8,1.17.1.09,1.5.63,1.81.92.17.17.05.45.19.68.19.31,2.07,1.86,2.45,2.08.62.36,1.15.29,1.68.66-.97,1.41-3.15,1.59-3.77,3.26l-.55-.1.1.55c-.85.02-.63.66-.67.69-.57.44-1.75,1.02-2.3,1.57-.19.19-.14.52-.3.64-.17.12-.54-.03-.77.08-.44.21-.99.87-1.55.98-.41.08-3.03.09-3.15.19.31,1,.76,1.07,1.62,1.53,0,.39-4.11,1.58-1.37,2.6l2.01-1.43c1-1.6,2.97-2.03,4.19-3.36l-.13-.42c.74.04,1.45-.33,1.98-.83.88-.83,1.73-2.01,2.78-2.89.57-.48,1.76-1.41,2.33-1.82.42-.3,1.75-.33,1.9-.44.13-.09.08-.62.34-.89.36-.37,2.02-1.28,2.57-1.71,2.18-1.69,3.61-3.57,5.58-5.41,1.83-1.71,3.69-2.94,5.52-4.75,2.08-2.06,4.35-4.13,6.29-5.96,2.06-1.95,3.15-4.67,5.23-6.5.22-.19.6-.17.8-.46,1.97-2.91,2.6-6.61,4.11-9.77.3-.63.34-1.09.47-1.54.27-.96.98-1.91,1.67-2.63,2.28-2.37,3.51-2.06,6.42-2.77.72-.18,1.83-1.16,2.58-.32.67.75-.08.46-.27.83l.36.45-.55.1-.26,2.79c-.06.11-2.13,1.12-2.25,1.15-.39.08-.97-.18-1.45.12l.08.55.22.14c.22.07,1.34.09,1.56.03s.18-.46.38-.49c.15-.03.44.14.83.06.51-.11.84-.54,1.26-.7,1.37-.53,2.22-.6,3.47-1.58.17-.13.12-.34.14-.35.09-.05.39.32.73.28.5-.06,3.77-1.96,4.47-2.37,3.85-2.27,7.86-5.95,12.71-5.65.86.05.98.49,1.44.83Z"/>
        <path class="cls-1" d="M144.44,76.5c.07.08,1,.18,1.23.39l.2-.71c1.7-.01,1.91,1.81,2.35,3.09.04.12.27.14.33.29.3.77-.18,2.09.73,2.65-1.03.43-.48,1.67-.53,2.53s-.34,2.07-.34,2.89c0,.41,1.11.4,1.38.23.34-.21.2-1.56.03-1.95.69-.24,1.11.36,1.56.48,1.02.28,3.04.66,4.14.76.99.09,1.93-.26,2.69-.17,1.01.12,2.06.15,3.11.31,4.87.75,10.39,2.1,14.9,4.05.4.17.82-.05,1.14.1.42.2.87.96,1.71,1.2.47.13.82-.09.86-.06s.08.53.38.8c.38.35,1.07.4,1.48.64,2.93,1.75,4.55,3.01,6.68,5.7,2.04,2.56,4.31,5.29,6.24,7.95,2.21,3.06.82,4.87,1.45,7.67.04.16.4.05.37.38-.04.4-.5.78-.49.91,0,.11.27.31.3.55.09.69-.46.74-.53.94-.59,1.74-.45,2.92-1.49,4.79-.92,1.65-5.95,8.36-7.35,9.22-2.56,1.56-5,3.33-7.9,4.74-2.42,1.17-3.83,1.52-6.35,2.31-1.4.44-2.71,1.31-4.24,1.29-2.27-.02-1.62-1.35-2.75-2.73.78-.73.35-1.29.51-2.16.09-.49.51-1.15.48-1.67-.02-.31-.41-.54-.31-.85.07-.21.48-.19.53-.4.06-.24-.05-1.14.03-1.57.33-1.81,1.07-3.67.7-5.52.97,0,1.89.38,2.84.49.32.04.59-.16.83-.14.11.01.11.3.26.35.9.29,1.43.11,2.26.08,1.09-.04,1.63.46,1.49-1.34-1.77-.36-3.6-.41-5.38-.76-3.46-.67-8.87-2.47-12.08-3.97-.78-.36-1.95-1.43-2.83-1.49-.42-.03-.46.35-1.31-.1-1.96-1.04-4.52-1.99-6.64-2.81-.34-.13-.38-.62-1.08-.24-.31-.29.75-4.04.87-4.81.81-5.21,1.36-10.59,2.04-15.81.21-1.64.72-3.48.86-5.09.06-.63.19-1.5-.43-1.84-.91.33-.48.71-.67,1.27-.1.29-.39.47-.46.8-.11.5.45,1.77-.21,1.68l.35.72s-.47-.42-.36.09c.13.59.69.53.9.99-.48-.32-.94.23-1.05.68-.1.42.2.74.16,1.01-.01.1-.65,1.22-.7,1.68-.1,1.06-.22,1.94-.32,3.13-.01.18-.26.44-.27.79-.02.51.32.95.31,1.26-.01.43-.6.65-.66,1.09s.26.86.19,1.22c-.02.13-.33.1-.36.24-.13.55-.26,2-.35,2.7-.23,1.77-.04,3.32-.72,5.03l.34.34c-.52.37-.57.74-.56,1.34h-.52s.38.63.38.63l-.55,2.73.35.16c-.57.27-.17.8-.23.96,0,.03-.29,0-.39.42-.09.4.05.67.07,1.05l-.36-.18c-.13,1.51-.58,2.96-.88,4.44-.29,1.4-.44,2.77-.84,4.2-.07.25-.34.56-.43.84l.53.44c-.51-.08-.29.45-.46.71-1.35,2.12-4.06,2.53-6.16,3.4-4.35,1.82-7.95,4.49-12.79,5.24-.53.08-3.32.23-3.6-.15-.06-.73.43-1.33.59-2.14.11-.56,0-1.35.09-1.7.25-.95,3.74-4.6,4.64-5.47,1.36-1.3,3.11-2.4,4.6-3.69,2.41-2.1,5.15-4.53,6.84-7.41.63-1.06,1.3-2.6,1.2-3.86-.12-1.58-2.1-2.4-3.53-2.25-.51.05-.91.39-1.35.27l2.59-2.84c1.29-2.04,2.34-4.3.55-6.43-.93-1.11-1.9-1.1-3.18-1.43l-2.48.88c1.3-3.66-1.19-5.31-4.63-5.34-2.37-.02-5.69,1.94-7.72,3.19-1.54.95-2.95,1.9-4.54,2.85-1.22.72-2.38,1.57-3.66,2.19.13-1.12.06-2.4.19-3.5.19-1.54.88-3.29,1.05-4.72.06-.49-.18-1.26-.14-1.31.04-.06.33-.06.42-.2.33-.55.04-1.3.11-1.86.09-.7.44-1.48.52-2.03.2-1.54.12-4.02.42-5.35.03-.13,1.12-2.13,1.22-2.21.3-.25,3.35-2.11,3.8-2.33,1.19-.56,3.29-.73,4.83-1.3,5.6-2.1,10.84-2.93,16.68-4.05,1.87-.36,3.69-.9,5.61-.94l.09-.48c.67-.12.43.7.57.87ZM142.56,79.65c-2.48-.91-5.63.49-6.67,2.89-.07.16-.65,1.73-.67,1.83-.12.62.09,1.48-.01,2.14l.73.38-.18.45-.36-.18c-.05,2.04,1.94,3.61,3.87,3.69,1.16.05,2.79-.72,3.71-1.43.66-.51,1.83-1.9,2.14-2.58.89-1.93.97-4.83-.88-6.26-.51-.4-.94-.44-1.48-.64-.15-.06-.16-.27-.2-.28Z"/>
        <path class="cls-1" d="M44.93,42.78l.31.11c-.28.52-.33,1.14.37,1.19-.64.61,0,.71.13,1.21.04.15.23,1.51.2,1.58-.05.13-.32.06-.34.09-.03.04.29.37.35.64.16.7-.33.86-.34.92-.07.29.26,1-.01,1.4l.36.2-.36.09v.36s.36.09.36.09c-.75.88-.32,2.41,0,3.43l-.36-.09v.36s.35.01.35.01v.26s-.36.2-.36.2c.12,1.05.94,1.98.39,3.06l.34.08c-.26.26-.44,1-.35,1.33.04.14.33.1.33.19,0,.38-.3.86-.16,1.42.04.14.36.12.37.22.01.28-.39.79-.38,1.25,0,.43.31.68.33.93.11,1.14-.22,3.32-.15,4.66.04.82.29,1.77.37,2.61l.9-.18-.28.54c1.34,1.15,2.39,2.86,4.25,3.17,1.23,1.83,3.3,2.43,5.03,3.6.81.55,1.52,1.13,2.42,1.73,1.04.7,2.1,1.48,3.01,2.31-.74-.05-1.75-.06-1.96.84-.08.32.81.58.99.6.3.03,1.33-.11,1.52-.27s.12-.53.2-.6c.11-.1.52.01.73-.07.7-.28,1.39-.91,1.96-1.28,1.83-1.19,3.61-2.2,5.4-3.26.45-.26,3.11-2.04,3.41-1.73.11.72-.47,1.05-.75,1.68-.54,1.21-1.66,4.05-1.75,5.28-.02.31.21.64.18.86-.02.12-.41.17-.58.55-.14.32-.04,1.16-.16,1.55-.97-.61-1.42-1.3-2.56-1.67-2.16-.7-4.42-.25-6.23,1.09-1.56,1.15-1.82,3.35-1.65,5.17.03.27.25.5.29.76.28,1.87.35,2.98,2.37,3.8.17.07.97.36,1.08.39,1.42.43,3.7.4,5.13-.03.75-.23,1.09-1.4,1.76-.4l-.37.19c.24.37.1.88.2,1.21.04.15.34.11.35.24.13,1.33.49,2.39,1.3,3.56.85,1.23,2.54,2.89,3.76,3.48.56.27.81,1,1.08,1.51-1.46.1-3-.02-4.37.6-.26.11-.33.42-.36.43-.36.17-3.51.3-4.37.52-1.5.38-3.94,1.4-5.23,2.24s-3.21,2.05-4.24,2.95c-.56.49-1.06,1.15-1.62,1.64l.36.18c-1.46.71-1.92,2.15-3.15,3.11-.8-.56-1.66-1.04-2.48-1.58-2.91-1.89-5.07-4.63-7.8-6.85-.75-.61-2.02-1.22-2.78-1.91-.87-.78-1.44-1.85-2.36-2.69-1.26-1.15-2.79-1.77-4.05-2.8-.84-.68-1.43-1.62-2.22-2.34-1.14-1.03-2.73-1.84-3.83-2.79-1.44-1.24-2.27-3.05-3.43-4.51-2.42-3.06-4.18-3.93-4.64-8.36-.19-1.85-.53-4.82-.37-6.57.27-2.9.06-6.86-.05-9.95-.01-.38-.33-.84-.3-1.44.02-.39.33-1.46.29-1.62-.06-.22-.45-.2-.48-.37-.08-.36.58-1.64.68-2.17.28-1.61-.09-2.61-.11-4.06,0-.45.6-3.77.03-3.77-1.21,2.61-.66,5.54-1.03,8.34-.09.69-.74.89.22,1.3-1.02.96-.27,2.32-.22,3.43.11,2.35-.08,4.81.04,7.2.1,1.85.04,2.77-.17,4.72-.15,1.45.37,2.38.48,3.63.05.53-.25,1.84-.1,2.3.12.35.74,1.14.92,1.93.09.4-.12.79.02,1.04.12.24.5.27.65.49.27.39.23,1.16.44,1.51.1.16.41,0,.54.16.21.24.26.72.54,1.1.55.74,1.41.54,1.38,1.6l.7.02c-.6,1.03.61,1.17.81,1.43.04.05-.05.39.07.65.06.13,1.19,1.72,1.28,1.8.5.46.82.34,1.09.54.31.23.62,1.58,1.63,1.25-.03.27,1.13,1.29,1.44,1.44.25.12.68.07.72.1.03.02-.24.28-.02.63.3.49.8.5,1.1.73.13.1.9,1.34,1.35,1.7.78.63,1.31.3,1.35.36.05.07-.11.41.11.57.09.07.53.03.82.21.18.11,2.81,2.32,2.93,2.48.28.39-.09.83.75.89-.25.71.78,1.31,1.34.73v.8c1.11.39,1.9,2.06,3.07,1.72-.35.75.37.81.82,1.26.65.64,3.17,3.51,3.69,3.69.21.07.49-.13.54-.08l-.18.54c.94.07,1.66.91,2.36,1.35.16.1,1.09.42,1.25.57.71.71-.31.99-.18,1.14l.36.18c-.94.15-.94,1.51-1.98,1.45.28.65.05.84-.45,1.26-.64-.82-1.62-1.2-2.42-1.73-.19-.12-.24-.44-.38-.53-.2-.13-.46.16-.81-.06-1.22-.77-3.35-3.12-4.69-4.16-2.08-1.63-3.96-2.56-5.85-4.43-1.09-1.08-1.38-1.32-2.56-2.08-2.38-1.52-3.65-4.8-5.73-6.93-1.37-1.4-6.34-5.36-6.63-7.07-.04-.25.17-.54.06-.77-.2-.42-.9-.28-1.1-.54-.09-.12-1.05-2.39-1.2-2.76-.29-.74-.37-2.24-.46-2.42-.17-.33-.51-.4-.72-.72-.09-.13-1.12-2.51-1.2-2.74-.28-.77-1.13-4.63-1.19-5.51-.06-.81.54-1.7-.16-2.36l.33-.33c0-.53-.49-1.32-.52-1.65-.03-.3.19-.69.19-1.07-.04-6.71.66-13.08.72-19.65.01-1.27-.18-2.53.36-3.74.15-.35.72-.19.35-1.22l-.54-.09.81-.64c.37,0,.76.6,1.11.67,4.09.77,6.83,1.31,11.13.75.81-.1,1.67-.48,2.37-.59s1.77.09,2.48-.11c.16-.05.12-.34.25-.36.28-.05.6.15.97.11.7-.08.82-.56,1.14-.67.97-.35,2.92,0,3.39-1.2l.32.15c-.11-.78.52-.62.83-.9.41-.38,1.84-1.92,1.98-2.34.15-.45.04-.99.29-1.42l.68-.04.19-.53-.14,1.23ZM47.36,72.69c.3-.36.19-1.07-.24-1.19-.08-.02-1.45.17-1.73.2-2.37.3-5.37.68-7.7,1.49-.63.22-1.19.78-1.84.88-.5.08-.74-.31-1.23-.25l-.32,1.36c1.14.96,2.31-.25,3.44-.67,1.36-.51,3.47-1,4.92-1.21,1.25-.18,2.93-.02,4.08-.25.13-.03.53-.27.62-.37ZM40.52,76.83c-.33.15-1.92.15-1.93.51l.34.91c.64.4,1.5-.44,2.06-.67.2-.08.41-.03.6-.11,1.3-.55,2.5-1.3,3.85-1.74l.16-.88c-.15-.45-.72-.3-1.07-.21-1.28.35-2.88,1.7-4.01,2.2Z"/>
        <path class="cls-1" d="M180.04,141.14c1.77,1.92,2.87,3.93,4.39,5.93.2.26.63.33.81.69.26.52.21,1.5.4,2.12.17.57.88,1.47.96,1.94.09.5-.18,1.21-.13,1.74.13,1.53.87,2.86,1,4.37.14,1.65.14,1.07.58,2.33.75,2.11-.18,1.93-.92,3.43-.34.68-.5,1.61-.72,2.34l.37.37c-.95.54-1.02,2.04-1.49,3.02-.36.76-.95,1.29-1.36,1.87-2.16,3.05-3.6,5.94-6.72,8.26-4.13,3.08-8.44,6.1-13.21,8.07-6.92,2.86-14.2,6.18-21.74,6.89-5.05.47-10.24-.71-15.29-.89-2.29-.08-8.05.12-10.01-.98-.26-.15-.27-.6-.63-.7-.47-.14-.68.28-.97.26-.63-.05-2.12-.73-2.83-.95-4.55-1.44-9.8-2.27-14.1-3.92-1.51-.58-2.62-1.48-3.97-1.61l-3.6-1.46c1.01-.3,1.14-1.28,1.57-1.72.39-.4,1.72-1.23,2.26-1.61,2.61-1.84,2.98-3.21,4.86-5.83,1.04-1.44,2.16-2.78,3.19-4.21.16-.23.13-.62.25-.74.09-.09.65-.06.76-.58.23.68.58.41.85.55.24.13.56.53.69.62.17.12.79-.12,1.14.08.21.12.04.44.22.56.91.62,2.45.44,3.06.67.57.21.85,1.1,2.06.58v.45s2.34.27,2.34.27l-.18.36c1.02.26,1.3-.64,2.12.4l-.14.32,1.37.36.16-.35c1.3.53,2.14,1.18,3.63,1.25l.15-.34c.73-.03,1.41.61,1.79.74.77.28,2.03.17,2.69.19.41.01.8.48,1.12.49.35.01.73-.47,1.17-.35v.54c.7-.37,1.78,1.1,2.25,0l.17.36c.73-.64,1.28-.03,2,.01.51.03.94-.18,1.43-.2.77-.02,2.29.3,2.53-.36.15-.02.09.34.26.46.11.07,2.37.31,2.63.28.37-.04.68-.37.86-.34.15.02.33.28.58.32.51.08,1.72.13,1.71-.53l.44.37c1.61-.89,3.56-1.03,5.26-1.6.31-.1.22-.57.85-.39.16.05-.03.48.93.37,4.44-.51,4.59-2.55,7.49-4.77,1.85-1.41,4.02-.84,5.49-2.62.51-.62.94-1.77,1.25-2.53.75-1.86,1.37-3.63,2.19-5.41.11-.23.51-.38.57-.65.03-.15-.5-2.59-.58-2.97-.28-1.33-.71-3.26-1.29-4.48-.35-.74-1.18-1.49-1.15-2.54l-.36.36c-.13-.82.02-1.34-.57-2.04-.32-.37-.89-.54-1-.69-.05-.06-.1-1.04-.5-1.41-.18-.16-.48-.12-.58-.23-.35-.4-.63-1.14-1.22-1.58-.24-.19-.6.2-.63-.89.64-.13,1.26.19,1.86.17,1.25-.04,2.99-.85,4.22-1.02,1.98-.29,4.23-.38,6.29-1.1.2-.07.85-.73.91-.74.99-.12,2.13-.27,3.17-.61.8-.26,1.42-.76,2.22-.96.44.02,1.96,1.72,2.36,2.16Z"/>
        <path class="cls-1" d="M125.43,66.3c.17.11.44.76.65.98.26.27.96.08.71.9-.26.88-2.02,3.67-2.84,4.02-.44.19-.47-1.04-.45-1.26-1.09-.17-1.28.9-.89,1.7l-.37.21c.36.55-.1.33-.21.68-.17.57-.16,1.62-.4,1.93-.22.29-2.24,2.01-2.45,1.8-.09-.59.44-.78.63-1.26.38-.94.22-2.05.64-2.45l-.36-.8c-1.05,1.19-1,2.74-1.78,4.09.61.68-.18.94-.85,1.13-2.11.61-5.25,1.18-6.99,2.56-.53.42-1.33,1.37-1.39,2.06l.37.43c-.34-.2-1.22.5-1.36.72s.1.52.05.77c-.18.96-.65,1.69-.83,2.38-.1.4.05,1.06.33,1.36l-.72-.18c-.18.48.35.3.37.48.02.15-.13.35-.1.51.03.18.25.31.24.51-.03.46-.94,1.7-1.04,2.2-.33,1.7-.04,3.7-.26,5.37-.16,1.2-.23,1.87-.33,3.05-.01.17-.46,1.84-.54,1.9l-7.27,1.65c-1.89,2.11-4.21,2.81-7.02,3.07-.74.07-3.71.25-4.3.12-4.3-.95-7.68-2.42-10.85-5.52-2.88-2.81-3.76-5.72-3.69-9.74l.33.15c.66-.76.13-1.29.1-2.07-.05-1.05-.05-1.13-.24-2.14-.06-.33.93-6.26,1.11-6.54,1.22-1.9,1.84-4.56,3-6.64.51-.92.62-.83,1.17-1.53,1.35-1.72,2.43-3.3,4.2-4.64.54-.41,1.17-.14.96-1.11.74.11,1.27-.33,1.94-.51.25-.07.52.09.77.03.41-.09.54-.62.98-.79.6-.22,2.31-.24,3.02-.4,1.17-.27,2.63-1.09,3.88-1.35s2.55.03,3.73-.24c.45-.1.74-.5,1.18-.63,1.85-.53,4.79-1.33,6.63-1.49.58-.05,1.9.48,2.12-.22,1.21.85,3.15.34,4.52.38.98.03,3.15.76,4.26.93.5.08,1.13-.1,1.59.02.66.17.88.7,1.21.79,1.04.3,2.47.39,3.61.89.44.19.96.82,1.44,1.08.43.23,1.49.44,1.8.64ZM116.59,72.32c.16-.16.96-1.33,1.07-1.56.25-.53.06-.87.16-1.08.19-.41,1.18-1.19.8-1.69-.96-1.29-1.87,1.6-2.26,2.2-1.53,2.38-4,3.22-6.65,2.2-.56-.22-2.45-1.86-2.72-1-.39,1.27,1.5,1.66,2.33,2.06.18.09.16.42.39.48.18.05,3.23.26,3.4.22.21-.05.38-.38.62-.47.88-.34,2.16-.65,2.87-1.36ZM106.32,77.2c.14-.13.18-.45.33-.66.22-.3.63-.17.64-.82.02-1.56-2.09.71-2.59,1.03-2.46,1.59-3.09.63-5.46-.41l-.8.81,3.19,1.67c1.57.28,3.55-.55,4.68-1.64ZM94.47,75.63c-1.3.12-1.65,1.53-2.64,2.14-1.59.99-3.56.96-5.34.52-.62-.15-3.08-1.75-2.45.11.2.58,2.4,1.26,2.99,1.34,2.17.29,5.57-.48,7.02-2.18.42-.49.33-1.32.42-1.93ZM91.23,88.79c-.13-1.1.7-2.01.73-2.98.03-.89-.47-1.11-.87-.31-.27.55-.17,1.1-.3,1.59-.06.22-.39.36-.43.56-.08.37.79,1.23.87,1.15ZM84.17,90.02c.22-1.01.48-2.07.81-3.07.19-.59.88-.91.01-1.57-1.8.67-1.22,3.01-2.06,4.4.4.31.76.57,1.24.25ZM87.44,89.51c-.43-.65,1.64-3.66.63-3.96-.85-.25-1.21,1.62-1.29,2.13-.13.81-.41,1.66.67,1.84Z"/>
        <path class="cls-1" d="M18.9,91.15l1.12,2.41c-1.08.6-1.89,1.91-1.91,3.16,0,.35.35.41.43.67.12.42.15,1.9.4,2.28.23.36.65.35.88.58.62.61,1.84,1.87,2.36,2.51.91,1.12,1.77,3.46,2.7,4.34.37.35.65.04.82.25.05.06-.01.6.26,1,.46.68,1.17.57,1.37.81.09.11-.08.39.06.64.19.32,1.07.87,1.18,1.16s-.2,1.26-.19,1.69c.08,3.18,1.38,5.31,2.55,8.05.31.72.12,2.22,1.35,1.99-.64,1.16.22,1.24.55,1.7.2.28.57.87.79,1.2.44.67.1,1.37,1.37.89-.24.46-.25.96-.1,1.46.13.45.55.39.73.71.9,1.56,1.32,2.23,2.43,3.51.44.51,1.03.91,1.42,1.47-.28,1.02-1.02,3.14-.87,4.11.04.26.32.45.32.7-.01.71-.95,2.69-1.17,3.51s-1.43,5.22-1.31,5.69c.04.14.37.12.37.22,0,.32-.89,3-1.04,3.65-.16.69-.23,1.06-.39,1.62-.4,1.33.12.96.18,1.38.27,1.98-.6,1.17-1.82.82-.1-.5.19-.35.54-.36l-.13-.33.31-.12c-.19-.85-2.53-1.84-3.24-2.36-2.89-2.14-5.58-4.53-8.5-6.64-4.37-3.16-7.5-6.9-10.54-11.27-2.49-3.59-5.82-10.79-6.7-15.12-.41-2.01.46-7.18-.13-8.47-.04-.08-.34.03-.28-.13,1.14-1.04.82-2.66,1.28-4.04l1.75-.05c.09-.51.37-1.15-.06-1.59-.38-.39-1.18.22-1.18-.09.17-1.18.88-2.13,1.32-3.18.98-2.31,2.29-3.8,4.1-5.64.16-.16.34-.57.39-.6.28-.16.83.07,1.02-.06.06-.04.19-.77.46-1.07.56-.62,2.1-.84,2.36-1.97.96.77,2.28.47,1.71-.9l.7-.17Z"/>
        <path class="cls-1" d="M93.93,107.9c.07.06-.48,1.65-.58,1.85-.29.58-.92,1.11-1.17,1.89-.34,1.04-.37,2.78-.64,3.71-.15.52-1.02.81-.48,1.74-1.02-.16-.56,1.03-1.25.74-.09.41-1.3,2.47-1.53,2.69-.31.3-.64.27-.79.4-.2.16-.03.59-.2.77-.23.24-.61.24-.83.45s-.13.84-.43,1.12c-.4.38-.76.25-1.13,1.08-.6,1.35-.72,1.9-2.03,2.84-.23.17-.68.1-.99.45s-.25,1.07-.9.82v.53c-1.28-.41-1.52,1.36-2.35,2.09-.49.43-1.52.81-2.01,1.6-.18.29.02.51-.16.71-.76.87-2.29,1.18-2.89,1.82-.16.17-.02.45-.16.54-.11.06-.36-.11-.65.06-.54.33-2.17,2-2.49,2.54-.1.17,0,.54-.2.73-.27.24-.68.1-.8.21-.07.07.01.35-.07.45-.12.14-.91.24-1.13.6-.11.18.11.46-.07.62-.25.22-.74.18-.88.32-.94.96-1.8,1.4-2.93,2.37-.45.39-.89.35-1.17,1.18-.81-.59-2.14-.8-2.88-1.26-.54-.33-1.53-1.38-2.08-1.88-1.75-1.59-3.53-3.22-5.31-4.79-2.02-1.78-4.13-3.44-5.95-5.41-.17-.4.31-1.27.51-1.66.89-1.81,2.13-3.29,3.09-5.02.22-.4.39-1.17.64-1.48s.81-.29,1.1-.62.3-.87.53-1.23c.32-.5,1.2-1.07,1.52-1.71.08-.15-.11-.41-.05-.5.51-.81,2.96-.05,1.96-1.84.84-.08,1.22-.89,1.64-1.53.16-.24.1-.56.23-.76.28-.46,1.21-.79,1.66-1.31,2.32-2.65,6.69-5.11,10.16-5.88,1.72-.38,2.3-.37,3.98-1.03s3.28-.31,5.04-.91c.87-.3,1.15.31,1.8.52,1.24.4,2.55.83,3.84,1.04,3.03,1.28,6.33.31,9.5.31Z"/>
        <path class="cls-1" d="M158.63,144.35c.53.66,1.35,1.91,1.9,2.69,2.11,3,3.81,6.63,4.56,10.01.04.18-.13.44-.08.65.13.51.72,1.33.65,1.8-.09.59-1.28,2.17-1.62,2.9-.6,1.28-1.46,4.42-2.31,5.26-.98.96-3.01.91-4.31,1.64-1.88,1.06-3.06,3.42-4.91,4.29-1.48.7-3.16.55-4.71.87-3.33.69-5.22,1.96-8.88,1.75-1.22-.07-2.94-.58-4.14-.55-.58.02-.95.42-1.27.46-.4.05-1.14-.17-1.63-.17-7.64.05-15.79-3.06-23.03-5.02-1.39-.37-2.6-1.13-3.92-1.67l8.29-3.16.09-.71.28.53h.24c.5-.51,1.15-.67,1.73-.99,1.55-.88,3.06-1.99,4.83-2.56.34-.11.72.02,1.12-.14.48-.19,1.13-1.11,1.81-1.27.85-.2,2.38.98,2.53-.08l.42.36c1-.35,2.06-.46,3.08-.73,1.79-.49,4.29-1.59,6.05-1.88.46-.07,1.48.15,1.79,0,.22-.1.58-.62.96-.85.75-.45,1.9-1.03,2.71-1.44.47-.24,1.47-.4,1.8-.68.24-.2.52-1.09-.06-.92-.16-.19,1.97-1.16,2.22-1.3,2.36-1.3,4.39-2.51,5.97-4.84.55-.81,2.3-4.85,2.81-5.12.89-.28,2.05.17,2.96.08.32-.03.67-.34.74-.33.07,0,.65.87.9,1.08.15.12.4,0,.42.02Z"/>
        <path class="cls-1" d="M148.13,117.52c1,.6,1.42.96,2.68,1.27.43.11,1.13.1,1.53.19s.57.6.85.77c.35.21.95.39,1.38.62,1.3.68,2.76,1.96,4.32,2.52.9.32,1.84.53,2.79.86.92.32,2.3.25,2.81.39.2.06.22.41.43.52.38.21,1.5.18,1.75.54.68.97-1.07,2.54.27,3.24-1.29.32-.69,1.21-.72,1.88,0,.11-.33.08-.36.22-.27,1.08-.33,2.73-.59,3.89-.14.62-.42,1.28-.5,1.94-.29.02-.21-.38-.44-.56-.19-.15-.56-.13-.62-.19-.1-.12.05-.57-.12-.88-.4-.7-2.5-3.6-3.05-4.16-.48-.5-1.26-.89-1.73-1.34-1.56-1.49-2.75-3.37-3.86-5.16-.12-.2-.04-.53-.15-.67-.03-.03-.69-.39-.73-.38-.62.13-1.04.5-1.04,1.16,0,.81.19,1.87.2,2.69.05,3.32.01,6.61.34,9.91l.54.11c-.18.38.13.63.17.97s-.46.56.2.73l-.54.09c-.25.49.36.58.36.62-.01.13-.79,1.87-.89,1.96-.19.18-.48.08-.53.13-.14.15.09.75-.06,1.03-.04.08-.49.21-.68.49-.3.45.66-.09.36.36-.33.49-.95.5-1.18,1.35-.07.24.11.53.01.72-.14.27-.88.49-1,1l.36.35c-.64.46-1.15,1.77-1.68,2.2-.26.21-.8.23-1.1.61-.26.32-.25.86-.28.89-.02.02-.28-.2-.53-.1-.42.18-1.57,1.09-2.2,1.42-4.13,2.19-9.71,4.44-14.31,4.8-1.43.11-3.26,0-4.67.18-1.84.24-5.95,1.5-7.55.69-.27-.14-.28-.5-.41-.51-.32-.03-2.78.61-3.44.7-1.28.17-2.57.19-3.85.39.3-.5.37-1.14.59-1.66.5-1.16,1.25-2.4,1.79-3.62.6-1.36,1-3.05,1.84-4.11.21-.27.43-.54.6-.84.55-2.7,1.88-5.17,2.92-7.71l.52-.04c.06.13.1.33.21.4.74.48,4.33.04,5.28-.29,1.1-.38,2.51-.58,3.32-1.01,1.01-.53,2.13-.82,2.89-1.26.29-.17.72-.85.81-.89,1.06-.46,2.11-.91,3.22-1.39,2.03-.88,3.93-1.13,5.79-2.45.72-.51.72-.33,1.18-.58.43-.23,1.07-2.37,1.26-2.98.8-2.5,1.04-4.8,1.57-7.26.19-.87,1.32-1.99-.27-2.07.07-.17.92-.25,1.17-.82.13-.3.27-2.67.72-2.7.71.46,1.25.33,2.01.79Z"/>
        <path class="cls-1" d="M31.91,6.03l-.14-.27.3-.17v-.64c.11.93.53.84,1.28.9l-.18.36c.46.02.79-.31,1.27-.09.56.25-.34.26-.18.45l1.16.19.11-.36h.26c.39.95.74.32,1.4.39.6.07,1.31.42,1.94.5l-.36.36c.27.03.55-.15.81-.14,1.16.05.71.58.81.68.11.11.63-.18.79-.18.1,0,.08.3.36.39.98.34,3.43.69,4.03,1,.23.12.23.41.34.42.27.04.71-.2.76-.16.06.04.04.34.33.48.1.05,2.09.66,2.21.67.28.02.42-.28.46-.27.12,0,.91,1.46,1.89.17,0,.28-.06.61.18.82.26.22,2.26.69,2.74.86,3.28,1.2,7.46,2.78,10.38,4.51.26.15.91,1.13.98,1.16.25.14.73-.06.85.06.05.05-.03.35.05.47.1.14.65.2.95.6.12.15.78,1.61.78,1.74,0,.23-.24.37-.26.54-.04.25.17.46.04.78-.09.22-1.28,1.2-1.54,1.33-1.68.84-9.55,1.65-11.63,1.58-3.09-.11-5.73-.73-8.66-1.8-.33-.12-.77-.09-1.02-.2-.31-.13-.39-.77-.54-.86-.23-.13-.89.01-1.28-.07-.25-.05-1.48-.81-1.89-.99-.37-.17-.84-.12-1.16-.25-.25-.1-.93-1.01-1.35-1.21-.95-.46-2.21-.53-3.17-.8-.33-.09-.65-.69-1.08-.9s-.96-.13-1.22-.26c-.33-.17-.56-.68-.91-.86-.74-.39-2.07-.39-2.91-.7-1.18-.44-2.99-1.68-4.16-2.33-.8-.44-.63-.38-1.25-.81-.06-.04-.27.14-.3.12-.12-.09-.28-1.21-1.1-1.07l.16-.45c-1.07-.49.46-3.58,1.01-4.07.22-.19.62-.21.88-.38.66-.44,1.74-1.23,2.56-1.23h4.24ZM38.9,12.85l-.14-1.23c-.21-.15-4.3,1.85-4.73,2.17-.7.53-1.36,1.14-.22,1.62.53-.82,1.89-.39,2.16-1.62h.26s.09.36.09.36l2.58-1.3ZM51.77,15.62l.51-.31c-.06-.36-.23-.75-.63-.81-.69-.11-4.06,1.95-5.01,2.39-.91.42-4.98,1.8-5.35,2.22-.4.47-.01.92.48.96.3.02.56-.42.91-.48.21-.04.52.16.57.13.13-.08.1-.73.74-.52-.49.66.46.25.71.07.83-.62,1.89-.59,2.89-1.25.31-.2.41-.72.67-.79.21-.06.52.18.58.14s.05-.4.32-.5c.2-.07.48.18.85-.03.56-.31.43-.84.48-.89.05-.05,1.04.33,1.44,0l-.15-.33ZM58.75,17.23c-.3-.19-1.57.27-2,.39-2.98.82-5.95,2.12-8.93,2.97-.59.27-.65.69-.59,1.3l.27-.36.12.45c0,.37,1.03-.23.88-.63l.27.36c.42-1.12,1.05-.23,1.59-.53.23-.13,0-.65.47-.64l2.61-.64.28.37c-.18-.99,1.28-.53,1.94-.66.42-.08,1.28-.32,1.34-.76l.49.13c.02-.68.18-.07.5,0,.67.15,1.32-1.15.76-1.74Z"/>
        <path class="cls-1" d="M12.37,14.58c.62.32,1.42.77,2.22.74.29,0,.41-.28.64-.28.1,0,.07.3.23.36,1.82.7,4.19,1.67,6.06,1.56.13,0,.28-.21.39-.21.5-.02,1.53.92,2.25.46v.54c.88-.42.69.15,1.03.37,1.19.75,2.77.08,3.84.26.82.14,1.49.97,2.16,1.27.8.36,1.8.31,2.53.53.68.21,4.69,2.84,5.23,3.42.37.4.37.77.63,1.17.33.53,1.07.71.79,1.62-.86-.01-1.36.62-2.03.95-2.56,1.27-5.26,1.2-8.1,2.18-.33.12-.53.48-1.03.59-3.93.94-8.99.53-12.51-1.57-.41-.24-1.16-1.03-1.53-1.22-.82-.4-1.68-.31-2.42-.61-.54-.22-1.04-.9-1.52-1.19-.53-.31-1.59-.52-2.03-.85-.31-.23-.76-1.13-1.24-1.52-1.61-1.32-2.91-2.28-3.88-4.33-.05-.11-.47-1.3-.48-1.37-.14-.83,1.45-3.02,2.17-3.4.3-.16.82-.25,1.16-.28,1.26-.13,4.4.27,5.43.79ZM20.91,20.46c-.63-.08-.99.53-1.46.79-.85.48-3.85,1.79-4.28,2.39-.13.19-.25.36-.21.6.94-.17,1.61.3,2.17-.62.12-.21.16-.62.18-.64.04-.03.59.29.89-.18l.25.34c1.01-.23.76-.81.84-.89.05-.06.89.35,1.45-.27.38-.42-.1-.99.18-1.53ZM30.46,22.81c-2.32.28-4.27,1.61-6.32,2.58-1.25.59-2.61.75-3.68,1.74l.1.9.63-.36.18.36,2.8-1.27-.18-.36c.91.41.68-.13.94-.33.05-.04.73.1,1.17-.15.27-.15.28-.41.41-.49.25-.16.78.08,1-.65l.45.36-.18-.54c1.33.31,3.36-.01,2.69-1.79Z"/>
        <path class="cls-1" d="M4.84,21.56c.1.12-.04.55.08.83.03.08,1.1,1.03,1.3,1.13.29.15,1.08.29,1.15.39.09.14-.02.5.11.69s.48.16.64.28c.18.13,0,.41.16.52.86.59,1.94,1.19,2.91,1.81,1.32.84,2.98.99,4.48,1.82s2.56,2.07,4.62,2.23l.33-.34c1.02.89,2.22.62,3.45.91l.44-.38c.08.76,1.68.38,2.27.26,2.43-.49,5.09-1.65,7.44-2.15,1.24-.26,2.36-.26,3.64-.72.51-.19,2.34-1.22,2.57-1.15,1.7.44.02,6-.22,7.11-.17.43-1.95,1.55-2.48,1.85-.41.23-3.16,1.61-3.4,1.65-.33.05-3.23.17-3.61.16-.9-.03-2.4-.75-3.81-.64-1.63.13-3.62,1.2-5.02,1.22-1.47.02-.83-1.02-1.25-1.06l-.83.23c-.3.18.28.8-.26.63-2.54-.81-2.56-4.05-3.87-5.86-2.46-1.75-5.51-3.09-7.9-4.91-1.92-1.45-4.13-3.9-4.68-6.31-.1-.45.04-.96-.08-1.36-.14-.45-1.1-.76.03-1.39.1.64.72,1.92,1.18,2.34.2.18.55.16.59.21Z"/>
        <path class="cls-1" d="M44.67,23.76s.07.27.27.35c.98.4,1.96.79,2.93,1.21l.18-.36c.46.64,1.04.81,1.8.86.27.02.57-.19.87-.15.12.02.12.31.34.42.27.13,1.2.34,1.49.32.22-.02.65-.7,1.35-.37l-.18.36.46-.16c.03.47,1.07.46,1.31.29.04-.03.25-.94.4.05.86-.7,2.09-.02,3.16-.16.34-.04.24-.36.38-.38,1.09-.17,3.05-.06,4.26-.35.14-.03.16-.38.57-.55.87-.36,1.5.08,2.22-.11.86-.23,1.73-.93,2.38-1.51l-.36,1.35.36-.09v.36s-.37.1-.37.1l.19,1.34.36-.18c.14.84-.53,1.41-.17,2.21.07.14.34.14.35.25.02.66-.6,1.82,0,2.42-.79-.19-.63.75-1.01.88-.32.11-1,.04-1.43.11-3.5.64-8.27.82-11.89.82-1.11,0-2.55-.37-3.61-.34-.5.02-1.06.45-1.48.49-.38.03-.54-.27-.67-.27s-.25.32-.63.23c-.2-.05-2.51-.93-2.63-1.01-.79-.56-1.08-1.94-1.62-2.7-.33-.46-1.52-1.67-1.7-.73h-.18c.05-.55-.49-1.33-.54-1.73-.04-.31.15-.6.13-.86-.05-.48-1.55-3.02-1.93-3.45-.53-.59-1.3-.64-1.62-1.45l5.23,2.34c.27.22.85.08,1.04.15Z"/>
        <path class="cls-1" d="M40.2,36.5l.09.55.36.02.09.33c-.99.21-.47,1.78-.56,2.6-.13,1.15-.43,2.69-.63,3.86-.1.55-.59,1.21-.41,1.73.09.27.87.32.34.56-1.12.53-3.09.71-4.28,1.3-3.43.22-7.13,1.44-10.57,1.1-1.31-.13-2.74-.7-4.07-.89-.38-1.05.99-1.5,1.04-2.09.03-.4-.89-.51-.89-1.6,0-.33.33-.22.37-.38.14-.55,0-2.79.36-3.04,2.23-.55,4.72-1.78,7.09-1.48.67.09,1.51.58,2.05.62.5.03,3.62.02,4-.05.68-.13,1.89-1.61,2.9-1.43.76-.82,1.69-1.28,2.71-1.71Z"/>
        <path class="cls-1" d="M68.33,33.26c-.07.55.26,1.07.32,1.58.05.45.21,2.24.17,2.59-.06.53-.43.85-.43.98,0,.2.38.51.42.9.02.24-.09,1.28-.23,1.36-.64.05-1.25.29-1.86.44-4.18,1.01-9.61.28-13.92-.51-.65-.12-2.91-.46-3.11-1.02.22-.72-.08-1.42-.06-2.07.03-.88.55-1.65.15-2.62.55-.03,1.11-.69,1.52-1.09.69.45,1.69.31,2.51.37,1.76.15,2.51-.1,4.2-.13.95-.02,2.34.3,3.22.27.59-.02,1.29-.78,1.64-.83.4-.06,1.56.59,2.32.51.29-.03,1.42-.22,1.72-.28.27-.05,1.34-.56,1.43-.46Z"/>
        <path class="cls-1" d="M35.63,117.16c.54.46.99,1.01,1.51,1.46,2,1.72,4.14,3.28,5.95,5.23-.45.24-1.05,1.57-1.19,2.07-.2.77.2.43-.25,1.21s-1.49,2.65-1.59,3.43c-.06.49.36,1.03-.31,1.49-.18-.88-1.43-.81-1.53-.9-.02-.02.19-.29.1-.53-.25-.62-1.46-1.33-1.62-1.63-.13-.25,0-1.12-.63-1.73-.25-.24-.64-.24-.82-.45-.26-.3-.08-.75-.19-1.06-.18-.46-.7-.81-.95-1.22-.39-.64-.84-2.27-1.65-1.86.26-1.54-.9-3.03-1.45-4.41-.71-1.8-1.23-3.57-1.41-5.62-.02-.17-.13-.54.06-.6.42.26.8.73,1.19.98.19.13.54.08.72.19.26.16-.02.51.15.73.86,1.13,2.8,2.26,3.92,3.22Z"/>
        <path class="cls-1" d="M135.89,62.52c.18.19-.2.7.41.3.23.6-.49.63-.54.85-.08.32.05.79,0,1.14l.72.18-.72.09.37.89c0,.09-.3.09-.42.32-.47.9-.56,2.4-.71,3.27-.03.2-.54.56-.71.89-.37.7-.53,1.71-.78,2.48-1.64.8-3.47.96-5.22,1.44-.69.19-4.86,1.64-5.15,1.43.53-.47.72-1.22,1.08-1.72,1.2-1.64,2.41-2.83,3.32-4.79.98-2.11,1.76-4.54,2.92-6.64.91-1.64,2.8-2.4,4.4-1.19.17.13.82.82,1.04,1.05Z"/>
        <path class="cls-1" d="M98.22,54.75s0,.31.42.39c2.28-.42,3.55,1.02,5.21,2.28-.89-.09-1.81.21-2.65.51-4.01,1.42-8.23,4.06-12.19,5.66-.34.14-2.9.97-3.01.87.07-.46.13-1.01.27-1.44,1.34-4.02,2.81-5.59,6.64-7.39.83-.39,4.43-1.25,5.31-.86Z"/>
        <path class="cls-1" d="M69.67,86.36c1.07,1.03,1.74,2.44,1.17,3.91-.08.22-.63.06-.17.85l-1.85-1.12c-1.13-.01-.91-.38-1.47-.87s-1.64-1.63-2.28-.96c-.03,1.22.89,1.19,1.5,1.68.21.17.27.46.5.62,1.02.73,2.21,1.22,3.16,2.08l.06.42c-.57,2.02-5.83,1.71-7.2.4-.59-.56-1.04-2.62-1.07-3.43-.01-.29.17-.6.19-.91.02-.34-.18-.64-.11-.99.22-1.09,2.57-2.97,3.61-3.04.13,0,2.47.33,2.67.38.45.11.97.65,1.29.96Z"/>
        <path class="cls-1" d="M44.95,33.2c.53.41,1.47.48,1.87.65.14.06.66.32.91.45,1.05.52.6,2.16.51,3.12-.79.39-3.07.17-3.52.62-.51.5-.59,2.1-.54,2.79-1.11-.42-2-.04-3.06.18-.07-.05.26-.32.3-.48.13-.5.28-3.92.2-4.48,0-.06-.38-.16-.25-.99.29-1.8,1.35-3.71,1.01-5.59.43-.48,1.44,2.34,1.55,2.51.07.11.97,1.17,1.04,1.22Z"/>
        <path class="cls-1" d="M144.05,74.54l-.29.5c-.63-.18-1.18.13-1.78.19-2.5.23-5.15.66-7.67,1.2-1.42.3-2.9.83-4.32,1.18-.1-.51.15-.29.39-.42.55-.3,2.91-1.08,1.42-1.81-.29-.14-1,.08-1.08-.29.4.08,1.03-.39,1.33-.33.49.1.38,1.01,1.6.46.76-.34.44-.83.86-1.12,1.06-.73,3.09-.95,4.36-.77,1.18.16,2.33.89,3.52,1.15.4.09,1.3.17,1.67.07Z"/>
        <path class="cls-1" d="M114.66,80.13l-.36.72.82.36c.24,1.47-1.53,1.67-2.43,2.27-1.06.71-1.34,1.56-1.84,2.63-.07.14-.34.15-.35.27-.03.28.48.86-.08.78-.62-.95.48-2.2-1.35-2.34,1.03-2.47,2.7-4.58,5.59-4.68Z"/>
        <path class="cls-1" d="M139.96,70.16c.18.27.76.18.56.96l.63.19-.17,1.24c-2.15-.4-3.82-.79-5.94,0l.63-2.17c.81-.49,2.74-1.92,3.7-1.35.23.14.4.83.59,1.12Z"/>
        <path class="cls-1" d="M145.31,74.18l-3.23-1.09c.23-.89.43-1.38.17-2.33,1.54.2,2.37-.55,2.84,1.39.06.25.31,1.96.22,2.03Z"/>
        <path class="cls-1" d="M151.86,2.19c.72.45,1.14.64,1.84,1.31,2.41,2.3,2.63,4.83,3.34,7.99.22.99.65,2.57.8,3.82.05.37-.43,1.08.27,1l-.36.18v.36s.37.1.37.1c.06.45-.77,1.03-.2,1.95.22.36.87.21.37,1.2l-.36-.54c-.1,1.13.06,2.1.54,3.06l-.55.09c.2,1.07-.03,2.77.19,3.75.03.14.34.11.34.2-.04,1.28-.98,1.77-.9,3.27.04.69.4.33.56.89l-.54-.27v.97c.05.21.89.1.72.65l-.54.09.36.81-.5.03c-.22.65.02,1.05-.77,1.15v2.78s-.35-.54-.35-.54c-.08.54-.54,2.08-.91,2.42-.27.25-.77.29-.96.45-.17.15-.05.41-.23.56-1.68,1.44-3.22,1.43-5.2,1.61-.77.07-2.19.4-2.88.35-.45-.03-.75-.46-1.23-.48-1.26-.05-2.49.91-3.67,1.13-1.08.21-2.45-.41-3.56-.09-1.02.29-2.33,1.06-3.32,1.38-.65.21-1.62.13-2.02.32-.6.28-.55,1.48-.82,1.89-.09.14-.43.15-.45.3-.03.19.18.5.15.83-.05.45-.25.94-.32,1.4l-.36-.54c-.36.83.49,1.01.54,1.18.02.06-.32,1.05-.37,1.2-.18.48-.41,1.12-.48,1.72-.04.37.15.72-.05,1.13-1.01-.08-1.31-1.15-1.58-1.94-.68-1.99-.83-4.25-1.43-6.13-.3-.96-.81-1.09-1.79-1.29-.5-.1-2-.23-2.5-.19-.43.03-.73.41-1.13.49-1.01.21-2.64.53-3.65.67-1.8.26-2.1-.39-3.35-.63-.65-.12-1.39.12-2.08-.09-.5-.15-.84-.79-1.26-1.08-.48-.32-1.08-.44-1.51-.84-1.61-1.48-2.39-4.66-2.47-6.75-.09-2.63-.65-4.9-.82-7.42-.06-.9.58-2.19-.43-2.86.57-.12.4-1.24.37-1.81-.06-.92-.46-1.74-.55-2.51-.27-2.3-.31-6.09.03-8.28.19-1.23.66-2.89,1.62-3.79.26-.25,2.81-2.2,2.99-2.24.27-.06.55.17.83.12,1.01-.2,3.31-1.33,3.82-1.38,2.45-.24,2.7-1.52,4.7-2,.53-.13,2.19-.15,2.86-.18.42-.02.74.51.92-.19l.54.37c.32,0,.45-.4.75-.49s1.93,0,2.45-.1c.99-.18,2.1-.85,3.1-.85,3.89.01,7.63.36,11.55.18.92-.04,2.16.08,2.88,0,.59-.06.66-.49,1.09-.56.64-.1,2.5-.1,3.23-.07.48.02,1.32.01,1.73.15s.43.49.58.59ZM145.61,13.67c-2.03-2-4.5-2.4-7.16-1.57-2.07.64-3.64,2.24-4.83,3.96-.16.23-.58,1.33-.66,1.33-1.22-.56-1.35-2.06-2.44-2.79-.36-.24-3.71-1.26-4.17-1.25-2.17.04-4.76.7-6.29,2.32-.19.2-2.07,3.44-2.12,3.65-.14.65-.16,2.29-.12,3.03.02.37.37.52-.1,1.26.77.17-.19.32.19.99l.36-.36c.55.99.23,1.56.2,2.45,0,.09.28.05.31.16.06.29-.15.64.14,1.16.26.47,1.56.99,1.94,1.46.07.09.16.72.48.9l-.54.09c.46.46.77,1.39,1.35,1.73.23.13.43-.02.62.09.41.22.51.9.62.99.32.25,1.53.64,1.74.81s-.16.47.35.89c1.06.85,4.57,1.02,6.02,1.2,2.01.25,1.56.07,3.33-.1.52-.05,1.71.45,1.65-.28l.26.36c1.67-.33,2.02-1.93,3.7-1.8l-.18-.54c.95-.04,1.71-1.4,2.25-2.18.26-.38.25-.47.64-.97.71-.9.52-1.24.92-1.98.1-.19.82-.64.84-.69.07-.21-.19-.63.04-1.08.09-.17.76-.81.85-.99.6-1.18,1.17-3.3,1.32-4.66.07-.62.11-1.16.19-1.79.1-.89-.54-3.99-.96-4.83-.09-.18-.59-.81-.74-.97Z"/>
        <path d="M142.56,79.65s.05.22.2.28c.54.21.97.25,1.48.64,1.85,1.43,1.77,4.34.88,6.26-.31.68-1.49,2.07-2.14,2.58-.91.71-2.54,1.48-3.71,1.43-1.93-.08-3.91-1.65-3.87-3.69l.36.18.18-.45-.73-.38c.1-.66-.11-1.52.01-2.14.02-.1.6-1.67.67-1.83,1.04-2.4,4.19-3.79,6.67-2.89ZM143.48,81.25c-1.17.21-2.24-.74-3.28-.74s-1.94,1.17-2.83,1.53c-.59,1.55-1.04,2.77-.89,4.48.25,2.78,2.08,4.24,4.68,2.7,1.12-.66,1.5-1.41,2.28-2.24.17-.18.51-.14.63-.3.26-.35,0-.82.06-1.15.08-.37.34-.68.42-1.02s-.3-.71.22-1.13c-.59-.09-.72-1.81-1.3-2.13Z"/>
        <path d="M47.36,72.69c-.09.1-.49.34-.62.37-1.15.23-2.83.06-4.08.25-1.44.21-3.56.7-4.92,1.21-1.13.43-2.3,1.63-3.44.67l.32-1.36c.48-.06.72.33,1.23.25.65-.1,1.21-.66,1.84-.88,2.34-.82,5.33-1.19,7.7-1.49.28-.04,1.65-.23,1.73-.2.43.12.55.83.24,1.19Z"/>
        <path d="M40.52,76.83c1.14-.51,2.73-1.86,4.01-2.2.35-.09.92-.24,1.07.21l-.16.88c-1.34.44-2.55,1.19-3.85,1.74-.19.08-.4.03-.6.11-.56.23-1.42,1.08-2.06.67l-.34-.91c.01-.35,1.59-.36,1.93-.51Z"/>
        <path d="M116.59,72.32c-.72.71-1.99,1.02-2.87,1.36-.24.09-.41.42-.62.47-.17.04-3.21-.17-3.4-.22-.23-.06-.21-.39-.39-.48-.82-.41-2.71-.8-2.33-2.06.26-.86,2.15.78,2.72,1,2.66,1.02,5.13.19,6.65-2.2.39-.6,1.3-3.49,2.26-2.2.38.51-.61,1.29-.8,1.69-.1.22.09.55-.16,1.08-.11.22-.91,1.4-1.07,1.56Z"/>
        <path d="M94.47,75.63c-.09.61,0,1.44-.42,1.93-1.45,1.7-4.85,2.47-7.02,2.18-.59-.08-2.8-.76-2.99-1.34-.63-1.85,1.84-.26,2.45-.11,1.78.43,3.74.46,5.34-.52.99-.61,1.34-2.01,2.64-2.14Z"/>
        <path d="M106.32,77.2c-1.13,1.08-3.11,1.92-4.68,1.64l-3.19-1.67.8-.81c2.37,1.04,3,2,5.46.41.5-.32,2.61-2.59,2.59-1.03,0,.65-.42.52-.64.82-.15.21-.19.52-.33.66Z"/>
        <path d="M84.17,90.02c-.48.33-.84.06-1.24-.25.84-1.39.26-3.72,2.06-4.4.87.66.17.99-.01,1.57-.32,1-.59,2.06-.81,3.07Z"/>
        <path d="M87.44,89.51c-1.08-.18-.8-1.03-.67-1.84.08-.51.45-2.38,1.29-2.13,1.02.3-1.06,3.32-.63,3.96Z"/>
        <path d="M91.23,88.79c-.08.08-.95-.77-.87-1.15.04-.19.37-.34.43-.56.13-.49.03-1.04.3-1.59.39-.8.9-.58.87.31-.03.97-.86,1.88-.73,2.98Z"/>
        <path d="M51.77,15.62l.15.33c-.41.33-1.39-.05-1.44,0-.05.05.07.58-.48.89-.37.21-.65-.04-.85.03-.27.09-.25.45-.32.5s-.37-.2-.58-.14c-.25.07-.36.59-.67.79-1,.66-2.06.63-2.89,1.25-.25.19-1.2.59-.71-.07-.65-.21-.62.44-.74.52-.05.03-.36-.16-.57-.13-.35.06-.61.5-.91.48-.49-.04-.88-.49-.48-.96.36-.42,4.44-1.81,5.35-2.22.95-.44,4.32-2.49,5.01-2.39.4.06.57.45.63.81l-.51.31Z"/>
        <path d="M58.75,17.23c.56.59-.09,1.89-.76,1.74-.32-.07-.48-.68-.5,0l-.49-.13c-.05.44-.92.67-1.34.76-.66.13-2.11-.33-1.94.66l-.28-.37-2.61.64c-.47,0-.25.51-.47.64-.55.31-1.17-.58-1.59.53l-.27-.36c.16.41-.87,1-.88.63l-.12-.45-.27.36c-.07-.61,0-1.04.59-1.3,2.98-.85,5.95-2.15,8.93-2.97.43-.12,1.7-.58,2-.39Z"/>
        <path d="M38.9,12.85l-2.58,1.3-.09-.35h-.26c-.27,1.22-1.64.79-2.16,1.61-1.14-.48-.48-1.09.22-1.62.43-.32,4.52-2.32,4.73-2.17l.14,1.23Z"/>
        <path d="M30.46,22.81c.67,1.78-1.36,2.1-2.69,1.79l.18.54-.45-.36c-.22.73-.75.49-1,.65-.12.08-.13.34-.41.49-.44.25-1.13.12-1.17.15-.27.2-.03.74-.94.33l.18.36-2.8,1.27-.18-.36-.63.36-.1-.9c1.07-.99,2.43-1.15,3.68-1.74,2.05-.97,4-2.3,6.32-2.58Z"/>
        <path d="M20.91,20.46c-.28.54.2,1.11-.18,1.53-.55.62-1.39.21-1.45.27-.08.08.17.66-.84.89l-.25-.34c-.3.47-.85.14-.89.18-.02.02-.06.43-.18.64-.56.92-1.23.45-2.17.62-.04-.24.07-.42.21-.6.43-.6,3.43-1.92,4.28-2.39.47-.26.83-.87,1.46-.79Z"/>
        <path d="M145.61,13.67c.16.16.65.79.74.97.42.84,1.06,3.95.96,4.83-.07.63-.12,1.17-.19,1.79-.15,1.36-.72,3.48-1.32,4.66-.09.18-.76.82-.85.99-.23.45.03.86-.04,1.08-.02.05-.74.5-.84.69-.4.74-.21,1.08-.92,1.98-.39.5-.38.58-.64.97-.54.78-1.3,2.14-2.25,2.18l.18.54c-1.69-.12-2.03,1.47-3.7,1.8l-.26-.36c.06.72-1.13.23-1.65.28-1.77.17-1.32.35-3.33.1-1.45-.18-4.96-.35-6.02-1.2-.52-.42-.13-.71-.35-.89s-1.42-.57-1.74-.81c-.12-.09-.22-.77-.62-.99-.2-.11-.4.05-.62-.09-.58-.33-.89-1.27-1.35-1.73l.54-.09c-.32-.18-.41-.81-.48-.9-.38-.46-1.69-.99-1.94-1.46-.29-.52-.08-.88-.14-1.16-.02-.12-.31-.07-.31-.16.03-.89.35-1.46-.2-2.45l-.36.36c-.38-.67.58-.82-.19-.99.48-.74.12-.89.1-1.26-.03-.74-.02-2.37.12-3.03.05-.21,1.93-3.45,2.12-3.65,1.53-1.62,4.12-2.28,6.29-2.32.45,0,3.81,1.01,4.17,1.25,1.08.73,1.22,2.23,2.44,2.79.08,0,.5-1.1.66-1.33,1.18-1.72,2.75-3.32,4.83-3.96,2.66-.83,5.13-.43,7.16,1.57ZM143.1,13.3c-1.29-.77-4.27-.3-5.52.41-.1.05-1.66,1.25-1.72,1.34-.12.18-.06.51-.2.71-.1.14-.35.17-.44.32-.56.95-1.2,2.38-1.26,3.47-.68-.49-.47.33-.99.29-.43-.03-1.13-1.11-1.33-1.5-.17-.33-.07-.75-.1-.79-.18-.21-.6-.12-.82-.26-.29-.19-.32-.89-.71-1.27-1.64-1.59-4.59-1.2-6.62-1.05-.24.02-.59-.19-.75-.09-.07.04-.09.33-.21.43-1.12,1.01-1.54,1.56-2.38,3.03-.15.27-.46.43-.59.67-.34.63.01,1.84-.26,2.22-.19.26-.7-.12-.56.47l.55.1c-.13.62-.12,1.17-.02,1.8.74,4.6,3.55,7.39,6.96,10.18,1.08.88,1.11.2,1.77.22s2.45.9,2.91.97c1.48.22,4.27.16,5.77-.12.18-.03,2.87-1.61,3.08-1.79.58-.5.66-1.12,1.07-1.64,2.17-2.79,4.65-6.16,5.13-9.83.21-1.63-.05-3.33.03-4.83l-.38-.2.36-.09c-.18-1.39-1.33-2-2.41-2.74-.17-.12-.24-.4-.34-.46Z"/>
        <path class="cls-1" d="M143.48,81.25c.58.32.71,2.04,1.3,2.13-.51.42-.14.79-.22,1.13s-.35.65-.42,1.02c-.07.34.2.81-.06,1.15-.12.16-.46.12-.63.3-.78.83-1.16,1.57-2.28,2.24-2.6,1.54-4.43.08-4.68-2.7-.15-1.71.3-2.92.89-4.48.89-.36,1.79-1.53,2.83-1.53s2.11.95,3.28.74ZM142.9,86.38c2.06-4.48-3.45-6.47-5.38-1.86-.1.23.06.45.03.55-.04.14-.3.1-.34.24-.04.12.24,1.44.34,1.61.05.08,1.19,1.18,1.28,1.25.72.54,1.68.58,2.43.09.36-.23,1.46-1.49,1.64-1.87Z"/>
        <path class="cls-1" d="M143.1,13.3c.1.06.17.34.34.46,1.08.73,2.23,1.35,2.41,2.74l-.36.09.38.2c-.09,1.5.18,3.2-.03,4.83-.48,3.67-2.96,7.04-5.13,9.83-.4.52-.49,1.14-1.07,1.64-.21.18-2.9,1.76-3.08,1.79-1.5.28-4.29.34-5.77.12-.45-.07-2.28-.95-2.91-.97-.66-.02-.7.66-1.77-.22-3.41-2.79-6.22-5.58-6.96-10.18-.1-.63-.11-1.18.02-1.8l-.55-.1c-.14-.59.38-.21.56-.47.27-.38-.08-1.59.26-2.22.13-.25.44-.4.59-.67.84-1.48,1.26-2.02,2.38-3.03.12-.11.14-.39.21-.43.16-.1.51.11.75.09,2.03-.15,4.98-.55,6.62,1.05.4.38.42,1.08.71,1.27.22.14.64.05.82.26.03.03-.06.46.1.79.2.39.9,1.48,1.33,1.5.52.03.31-.79.99-.29.06-1.09.7-2.52,1.26-3.47.09-.15.34-.18.44-.32.14-.2.08-.53.2-.71.06-.09,1.63-1.29,1.72-1.34,1.25-.71,4.23-1.18,5.52-.41ZM139.65,23.82c.48-1.26,1.08-3.23-1-2.1l.36.63c-.93.38-.32.6-.4,1.06-.04.21-.49.48-.65.79-.19.39,0,.86-.2,1.17-.14.23-1.23,1.26-1.51,1.43-.78.49-1.13.48-2.02.5-1.76.03-4.67-1.33-5.75-2.71-.24-.3-1.43-2.92-1.9-1.7-.19.5.37.45.37.55-.01.38-.33.51-.06,1.12.26.57,1.27.02,1.13,1.13l-.36.18.74.08c-.08.72,1.09.79,1.55,1.06,1.31.76.85,1.01,2.62,1.24.75.1,1.83.34,2.57.42.45.05,1.07-.37,1.52-.47l-.16-.33c.57.04.91-.55,1.12-.69.18-.11.48,0,.63-.08.24-.14.7-1.94.86-2.3.09-.21.5-.86.54-.97Z"/>
        <path d="M142.9,86.38c-.17.38-1.28,1.64-1.64,1.87-.75.49-1.71.44-2.43-.09-.09-.07-1.23-1.17-1.28-1.25-.11-.17-.38-1.48-.34-1.61.04-.13.31-.1.34-.24.03-.1-.13-.32-.03-.55,1.93-4.61,7.44-2.62,5.38,1.86Z"/>
        <path d="M139.65,23.82c-.04.11-.45.76-.54.97-.16.36-.62,2.16-.86,2.3-.15.09-.45-.03-.63.08-.21.13-.55.73-1.12.69l.16.33c-.45.1-1.07.52-1.52.47-.74-.08-1.82-.33-2.57-.42-1.77-.23-1.31-.48-2.62-1.24-.46-.27-1.63-.34-1.55-1.06l-.74-.08.36-.18c.14-1.11-.87-.56-1.13-1.13-.27-.61.04-.74.06-1.12,0-.1-.56-.05-.37-.55.47-1.22,1.67,1.4,1.9,1.7,1.08,1.37,3.99,2.74,5.75,2.71.89-.02,1.24,0,2.02-.5.28-.17,1.37-1.2,1.51-1.43.2-.31,0-.79.2-1.17.16-.31.61-.58.65-.79.08-.46-.53-.68.4-1.06l-.36-.63c2.08-1.13,1.48.84,1,2.1Z"/>
      </g>
    </g>
  </g>
</svg>