<?xml version="1.0" encoding="UTF-8"?>
<svg id="Layer_2" data-name="Layer 2" xmlns="http://www.w3.org/2000/svg" viewBox="0 0 210.23 229.7">
  <defs>
    <style>
      .cls-1 {
        fill: #fff;
      }
    </style>
  </defs>
  <g id="Layer_4" data-name="Layer 4">
    <g>
      <path class="cls-1" d="M148.41,143.8c2.91.33,6.29-.24,9.25,0-.03-2.94-1.43-5.84-1.73-8.72-.06-.63-.45-1.57.52-1.41-.2,2.15,3.69,3.63,4.13,4.26.18.25-.6,2.07-.52,3.11.86,10.66,11.79,16.3,21.45,13.19,1.31-.42,2.91-1.8,4.03-1.95,1.57-.21,3.1.96,4.64.97,2.23.01,6.29-1.76,8.07-3.16,1.21-.95,3.08-3.9,3.57-4.18,2.9-1.69,5.27.96,7.34-5.19,3.52-10.47-1.94-20.83-13.31-21.36-.07-1.64.19-3.3-.14-4.93-.46-2.25-3.15-4.62-3.43-6.11-.31-1.62.2-3.64-.02-5.35-1.64-12.99-14.8-19.92-26.85-19.99-.18-.85.19-1.47.47-2.21.94-2.58,5.62-11.64,7.28-13.6,3.64-4.3,9.13-3.94,13.45-11.61,11.01-19.54-8.23-39.1-28.54-33.99-6.08-11.38-18.81-16.23-31.04-12.04-10.57-13.21-31.68-12.76-40.53,2.06-1.14,1.91-1.93,5.19-2.84,6.55-1.06,1.59-6.76,6.01-8.69,8.17-7.67,8.59-15.03,18.18-20.69,28.24-2.15,3.82-5.8,13.75-8.65,15.81-7.15,5.15-19.67,5.53-24.67-2.88,3.39.2,7.06-1.69,8.88-4.56.48-.76.59-2.42.73-2.54.32-.28,6.68-.4,8.43-.83,10.97-2.68,14.83-13.15,5.37-20.48,1.8-6.3-.2-16.45-7.88-17.29-2.59-.29-5.49,1.62-6.77,1.41-1.98-.33-3.06-2.65-7.2-2.21s-6.54,4.3-7.94,4.64c-.87.21-2.62-.6-4.04-.54C.81,25.51-1.2,38.75.58,46.36c.64,2.75,4.63,7.79,4.66,8.27.06,1.22-1.57,2.38-.7,5.68.75,2.86,3.3,3.49,3.89,4.61.79,1.5,1.15,5.78,1.94,8.05,4.92,13.97,18.77,16.57,31.48,11.78-3.48,15.1-4.22,30.73-.9,45.94l20.45,6.11c4.05,8.63,9.43,16.76,16.22,23.49l-9.21,16.32c-5.87-12.94-19.48-42-36.35-41.69-5.78.11-11.97,4.37-14.2,9.67-7.77,18.43,11.34,53.9,25.77,65.74,3.62,2.97,6.77,4.86,11.66,4.48,13.48-1.04,15.82-14.41,20.29-24.46,3.82-8.58,8.06-16.46,13.83-23.9l21.08-3.54c-.59,14.52,5.2,39.12,20.08,45.24,7.97,3.28,15.44.76,18.82-7.26,5.23-12.41.73-31.98-5.82-43.31-3.56-6.15-10.37-10.55-9.2-17.94,4.48.97,9.47,3.66,14.02,4.17Z"/>
      <path class="cls-1" d="M131.23,221.5c-.93-.96-7-2.64-8.66-2.97-10.18-2.07-43.03-3.05-51.3,2.69-.89.62-1.56,1.09-1.81,2.23.2,2.48,10.07,4.55,12.25,4.89,11.6,1.84,25.73,1.74,37.36.08,4.34-.62,8.99-1.61,12.65-4.09.49-.79.1-2.22-.5-2.83Z"/>
      <path d="M148.41,143.8c-4.56-.51-9.55-3.2-14.02-4.17-1.17,7.39,5.64,11.8,9.2,17.94,6.56,11.33,11.05,30.89,5.82,43.31-3.38,8.02-10.85,10.54-18.82,7.26-14.88-6.12-20.68-30.72-20.08-45.24l-21.08,3.54c-5.78,7.44-10.02,15.33-13.83,23.9-4.47,10.05-6.8,23.42-20.29,24.46-4.9.38-8.05-1.52-11.66-4.48-14.43-11.84-33.54-47.3-25.77-65.74,2.23-5.29,8.42-9.56,14.2-9.67,16.87-.31,30.49,28.75,36.35,41.69l9.21-16.32c-6.79-6.74-12.17-14.86-16.22-23.49l-20.45-6.11c-3.33-15.21-2.58-30.84.9-45.94-12.72,4.79-26.57,2.19-31.48-11.78-.8-2.27-1.16-6.55-1.94-8.05-.59-1.12-3.13-1.75-3.89-4.61-.87-3.3.76-4.47.7-5.68-.02-.48-4.01-5.52-4.66-8.27-1.78-7.61.22-20.85,9.96-21.3,1.41-.07,3.16.75,4.04.54,1.4-.34,3.75-4.19,7.94-4.64s5.21,1.88,7.2,2.21c1.28.21,4.19-1.69,6.77-1.41,7.68.85,9.68,10.99,7.88,17.29,9.46,7.33,5.6,17.8-5.37,20.48-1.75.43-8.11.54-8.43.83-.14.12-.25,1.78-.73,2.54-1.82,2.87-5.5,4.76-8.88,4.56,5,8.41,17.52,8.03,24.67,2.88,2.86-2.06,6.51-11.99,8.65-15.81,5.65-10.06,13.02-19.65,20.69-28.24,1.93-2.16,7.63-6.58,8.69-8.17.91-1.36,1.7-4.64,2.84-6.55,8.84-14.82,29.96-15.27,40.53-2.06,12.23-4.2,24.96.66,31.04,12.04,20.31-5.11,39.55,14.45,28.54,33.99-4.32,7.67-9.81,7.31-13.45,11.61-1.66,1.96-6.34,11.02-7.28,13.6-.27.75-.64,1.36-.47,2.21,12.05.07,25.21,7,26.85,19.99.22,1.71-.29,3.73.02,5.35.28,1.49,2.98,3.86,3.43,6.11.33,1.63.06,3.3.14,4.93,11.37.52,16.83,10.88,13.31,21.36-2.07,6.15-4.44,3.5-7.34,5.19-.49.29-2.37,3.23-3.57,4.18-1.79,1.41-5.84,3.17-8.07,3.16-1.54,0-3.08-1.18-4.64-.97-1.12.15-2.72,1.53-4.03,1.95-9.66,3.11-20.59-2.53-21.45-13.19-.08-1.04.7-2.86.52-3.11-.44-.62-4.33-2.1-4.13-4.26-.97-.16-.59.78-.52,1.41.3,2.89,1.7,5.78,1.73,8.72-2.97-.24-6.35.33-9.25,0ZM108.59,1.37c-.67-.38-1.75-.06-2.55-.17l-.32,1.82c-.98.26-.28-1.06-.97-1.22-2.18-.49-8.22,2.21-10.18,3.49-7.95,5.23-12.51,17.73-8.17,26.33.22.43,1.18.53,1.3.72.06.1-.86,2.28.43,2.28,1.54,0-.09-4.3-.34-4.91-.19-.46-1.16-.45-1.16-.8-.02-2.19-.14-6.97-.01-8.85.03-.47,5.39-5.72,3.61-8.07,1.85.07,2.34-.55,2.45-2.33l2.31-.09-.59-1.78c2.58,1.23,4.12-1.34,6.56-2.1,1.88-.59,5.79,0,6.01-2.04,1.49-.58.92.83,1.6,1.13,1.16.51,3.42.42,4.92.94,2.37.82,4.24,2.83,6.54,2.08l.35,1.8c2.42.32,1.23.83,2.38,2.35l2.1-1.49c-1.17-3.9-11.12-9.52-14.54-8.65-.61.15-.2,1.47-.68,1.21-.55-.3-.66-1.46-1.02-1.66ZM112.85,25.08c1.53-4.95,4.58-8.83,8.38-12.22-9.37-11.02-26.5-7.18-31.62,5.97l23.24,6.24ZM133.08,9.71c-5.71.87-11.54,4.26-15.13,8.81-1.49,1.89-3.28,4.18-2.07,6.57-2.25-.7-2.17,2-2.35,3.9-.15,1.59.31,11.03,1.16,11.61l1.18-.6-.59,2.38,2.41-.94c-.89-1.93-.89-3.83-3-4.72,2.9-.82.22-3.37.22-4.17,0-.5,1.27-1.4,1.01-2.93-.09-.54-1.95-.04-1.23-1.54.62,0,1.43.28,1.81-.39.45-.79,2.35-5.21,2.64-6.12.17-.56-.45-1.59-.24-1.78.17-.15,3.81-1.79,4-2.01.3-.35.01-1.25.25-1.5.87-.91,8.34-1.82,8.27-4.31h1.19s-.61,1.18-.61,1.18c3.09-.68,3.78-1.67,6.86.04l.36-1.15,1.13-.07c-.04,2.5,7.43,3.42,8.27,4.31.16.17,1.78,2.99,2.03,3.26.74.79,2.62.03,2.25,3.16h3.57c-3.09-7.06-9.97-11.78-17.58-13.17l-.63,1.25c-1.34.29-.7-.82-1.02-1.03-.87-.58-3.28-.51-2.88,1h-1.16s-.13-1.05-.13-1.05ZM130.2,14.96c1.16,4.77,1.83,9.74.77,14.65l11.96,3.76c2.9-3.41,5.46-6.74,9.33-9.16-4.27-8.1-13.26-11.39-22.06-9.25ZM129.6,29.87c-1.02-2.01.7-4.47.61-5.63-.05-.7-.88-1.31-.92-1.82-.13-1.79.65-4.28-.57-6.26l-2.7.59c-.23.22.79,5.59,1.09,6.35.43,1.13,1.21.58,1.31,1.11.24,1.31-.85.61-1.17,1.33-.39.89-.4,2.67-.62,3.73l1.78-1.19,1.19,1.79ZM124.82,18.54c-1.21-1.13-7.12,7.56-6.56,8.34l7.16,1.8-.6-10.14ZM112.28,26.31l-22.38-5.96c-1.44.12-.78,5.8-.86,7.11,5.47-.26,8.51,6.71,3.53,9.84-4.37,2.74-10.78.21-10.12-5.29.12-.96.93-1.76,1.01-2.51.22-2.12-1.02-6.07-.43-8.57-22,20.32-39.59,49.91-42.37,80.24-.62,6.72-.72,20.53,1.23,26.79.25.79.28,1.42,1.18,1.81l73.99,21.2c-2.22-13.35-.08-27.66,3.88-40.56,8.89-28.95,25.66-45.97,46.57-66.2.7-.67,1.66-1.29,1.47-2.4l-20.54-5.32-2.19,5.55c11.38,4.49-.68,15.89-6.93,9.13-3.79-4.09.56-6.59,1.46-9.2.69-2.02.44-5.21,1.93-7.31l-25.07-5.97c-2.68,7.52,2.26,5.8,4.1,9.32,4.82,9.25-14.35,11.53-11.73.64.28-1.18,1.41-1.88,1.64-3.13.49-2.64-.28-6.31.61-9.2ZM32.83,36.95c1.7-10.84-7.09-18.87-16.63-11.24,5.03,3.71,9.44,7.32,8.36,14.31l8.27-3.06ZM172.58,23.31c-3.47-.54-12.03-1.49-14.91.34-.45.29-.52,1.24-.73,1.36-.38.23-1.37-.5-2.29-.27-2.76.7-9.44,7.29-10.3,10.08-.38,1.25.26,2.4.09,2.68-.13.21-1.08.27-1.36.73-1.49,2.34-.68,8.04-.34,10.72l1.79-.61c.35-.38-1.03-2.58-1.06-3.37-.04-1.09,1.11-1.86.93-2.77-.09-.47-.9-.96-.92-1.31-.02-.38,4.16-4.52,2.25-6.85l1.78.59c-.74-3.25,1.18-1.96,2.07-2.94.22-.24-.26-1.17.27-1.51.56-.36,2.02.69,1.89-2.1,2.56-.54,9.15-2.01,11.46-3.02.66-.29.21-1.07.74-1.17,1.44-.29.1,1.25,2.38,1.25,2.35,0,.72-1.51,2.68-1.25-.95,2.25,4.64,3.34,5.96,1.79-.42,2.47,1.45,1.93,2.18,2.6,2.45,2.22,5.34,4.95,6.75,7.84,2.3-.7.59.56.76,2.24.17,1.76.99,3.28,1.09,5.5.16,3.77-1.5,6.47-.63,9.87-1.93-1.01-1.33.71-2.02,1.56-2.1,2.6-4.95,4.44-7.18,6.8-.43.45-1.65,1.1-.65,1.77,8.52-4.11,13.76-12.9,12.84-22.37-.07-.69-.27-1.82-.6-2.38-.08-.13-3.24.5,0-1.19-.12-.58-3.1-6.07-3.54-6.48-1.74-1.64-2.27-1.9-3.94-3.94-.46-.57-5.92-3.65-6.54-3.64-.43,0,.05,1.88-1.5,1.22l.6-1.78ZM43.01,38.17c3.09-6.12-3.55-19.31-11.3-13.97-1.05.72,1.02,2.13,1.51,3.28,1.26,3.01,1.62,6.26,1.55,9.49l8.25,1.2ZM11.42,34.64c2.77.08.86,4.71,1.25,7.4.84,5.88,6.8,5.84,9.35,1.11,6.13-11.35-12.13-23-18.38-11.81-5.59,10-1,22.99,10.17,26.27,4.85,1.42,12.75,1.64,12.5-5.32-.13-3.49-4.28-4.08-2.36-8.1-1.76.01-1.65,1.84-3.37,2.89-8.06,4.93-11.46-6.17-9.16-12.43ZM182.12,52.54c6.61-14.52-7.12-28.86-22.05-25.03.95,3.78.18,6.91.04,10.66l11.89,3.04-.04,2.08c1.05.78,10.9,2.57,9.58,4.47-.84,0-4.33,1.98-3.58,2.98l4.17,1.8ZM158.75,29.8l-.79-1.7-2.74,1.54c-.4,2.47,1.74,2.48,1.84,2.63.14.22-2.5,2.9-1.77,4.15,1.36-.2,1.57.11,2.08,1.22,1.21.36,2.34-2.62.29-2.7-.26-1.37.81-.69,1.04-1.02.58-.87.51-3.28-1.01-2.87l.02-1.15,1.06-.1ZM154.07,36.43l-.29-5.96c-1.71,1.4-3.77,2.49-4.48,4.76l4.77,1.2ZM26.64,58.5h10.15c3.97,0,9.83-3.99,11.18-7.91,3.73-10.8-16.76-15.14-21.65-9.7-2.97,3.31.09,7.47,3.9,7.47h12.83c.46,1.75-2.07,1.74-3.26,1.82-4.33.29-8.69-.07-12.86-1.22.71,2.84,1.4,6.12-.91,8.36l.61,1.18ZM133.18,147.98c-2.14-24.75,2.9-50.03,16.47-70.93,4.67-7.19,11.19-14.89,17.55-20.64,2.86-2.59,8.52-5.94,10.72-8.37.49-.55.99-.54.04-1.17-.77-.51-7.58-2.64-8.33-2.38-1.86.64-12.89,11.52-14.97,13.71-14.2,14.99-36.01,47.49-35.19,68.61.12,3.2,2.26,15.84,3.89,18.18,1.25,1.79,7.5,2.37,9.82,3ZM180.34,53.14c-1.37.12-3.31-1.91-4.39-1.7-1.72.34-14.29,12.62-16.21,14.81s-14.51,18.95-13.42,20.29l15.49-4.49c5.2-10.25,11.43-19.88,18.52-28.9ZM6.94,55.53c-3.37,5.72,2.72,8.72,7.44,9.85,5.97,1.43,11.74,1.15,14.93-4.8-3.22-2.52-7.38-.46-10.43-.42-3.95.05-9.07-1.89-11.94-4.63ZM27.32,74.85c-2.96-1.66-8-7.17-8.55-7.34-1.07-.34-2.17.37-2.88.24-.8-.16-5.48-2.33-5.66-2.09.85,6.48,3.39,13.13,9.13,16.82.64.41,3.13,1.71,3.69,1.71.43,0-.05-1.88,1.5-1.22l-.6,1.78c4.29.94,8.24.6,12.53,0l-1.19-1.78,2.38.6.07-2.35,1.66-.08c-.38-3.28.89-1.8,1.89-2.74.37-.35,3.84-5.29,3.55-5.57l-4.07,1.33-.1,1.65c-1.47.76-1.06-1.22-1.52-1.24-.73-.02-1.77.83-2.65.95-3.14.41-5.8-.5-8.62.3-.41,0-.34-.83-.56-.95ZM168.4,84.15h-9.25c-1.46,0-2.28,1.79-2.44,1.79-.73,0-1.63-.68-2.86-.59-1.31.1-2.6,1.12-3.96,1.19l.6,1.78c-1.92-1.9-2.62-.58-4.76.04-.22.29.92,3.24,1.25,3.79.68,1.14,2.24.38,1.4,2.74l.68.52c4.82-.66,9.47-3.52,14.31-1.15l.26-1.15.88-.02c.71,2.53,5.07,1.64,6.3,2.14.31.13,4.89,3.65,5.37,4.11,2.02,1.92,2.92,5.45,5.35,6.3-2.05,1.84-.32,2.73-.29,4.44.03,1.93-.22,4.31-.3,6.28,2.79-1.37,2.19.42,2.78.59,2.48.71,2.29-.75,3.06-1.13s2.31.1,2.51-1.25l-1.19-1.2,1.78.6c.56-4,1.74-10.3.08-14.1-.53-1.21-1.81-1.36-1.85-1.78-.06-.56.69-1.09.17-2.43-.82-2.1-6-7.23-8.53-5.55l.59-1.78c-2.31.68-2.16-.91-3.51-1.54s-4.98-1.74-6.39-2.03c-2.18-.44-.66,1.53-2.63,1.17l.6-1.78ZM155.86,95.49c-4.27.99-13.48,3.95-16.13,7.44-1.56,2.06-3.97,12.72-4.15,15.53-.29,4.67,2.23,17.37,5.45,20.78,2.82,3,10.9,3.16,14.84,3.36-7.46-14.92-4.6-31.81,0-47.12ZM179.13,110.38c.16-9.9-10.15-15.76-19.11-14.62-4.69,10.36-5.39,21.96-4.74,33.12l1.25-3.82c2.1-5.16,9.99-6.16,14.86-6.33-.5-4.7,3.16-8.3,7.75-8.36ZM153.48,127.7v-12.23c0-.97,1.26-3.48.59-5.07l-1.19,3.87v13.42h.6ZM192.87,111.59c-2.54-.08.4,1.61-1.76,3.89-3.77,3.98-12.35,4.59-13.75-1.51l1.78.6.6-2.39c-7.72-1.04-9.75,9.96-2.81,12.65,8.7,3.37,22.25-2.26,15.94-13.25ZM171.29,120.64c-1.54-.96-8.5.75-10.26,1.78-6.23,3.63-5.06,14.7,3.02,14.69,2.27,0,3.41-8.18,7.33-7.62-.24,1.89-2.13,2.69-3.11,4.35-2.98,5.03-1.19,5.89.75,10.24.49,1.1,1.01,1.09-.33,2.11-2-2.01-3.53-4.87-3.28-7.74h-3.58c-.95,11.31,10.45,18.18,20.61,13.73,6.87-3.01,5.23-7.91,3.39-13.55-.13-.39-1.26-2.08.18-1.95,1.49.13,3.07,6.19,3.13,7.6.1,2.45-1.26,4.43-1.35,6.72,3.83,1.85,10.56-1.38,12.1-5.24,2.01-5.07-.01-7.46-1.52-11.89-.21-.63-1.24-1.48.19-1.96,1.21-.41,1.95,3.31,2.52,4.03l1.36,8.49c6.4-.44,6.53-8.4,5.81-13.26-.73-4.95-4.16-8.18-8.8-9.69-5.05-1.65-3.94.71-7.2,2.94-4.49,3.07-14.54,4.29-18.78.35-1.1-1.02-1.96-3.96-2.17-4.09ZM37.79,138.95c-.2-.12-.3-1.08-.74-1.35-2.32-1.47-7.5-.98-9.97.07l-2.53,1.95c2.94-.07,5.96,2.1,8.29,2.67.65.16,1.63-.43,1.85-.27.05.04-.46.84-.25,1.19.37.62,5.14,3.83,6.52,5.36,1.47,1.62,3.08,3.92,3.93,5.96l1.73-.58c-1.07,2.32.75,5.21,2.11,7.15.6.86,1.8,1.04,1.99,1.32.21.31,1.11,4.81,2.33,6.88.63,1.06,1.78,1.32,1.83,1.43.12.23-.55,1.18-.38,1.86.74,2.92,3.41,7.65,4.49,11.06,1.15,3.62,2.21,7.27,2.53,11.08l1.82.39c-2.69,1.91.15,4.54-.01,4.75-.13.16-1.96-.54-1.05,2.56.49,1.68,2.03.74-.32,2.36l-1.91,7.62c2.99-1.33,7.11-5.55,8.22-8.54.47-1.25-.27-2.69-.16-2.79.17-.14,1.16.41,1.8-.42.47-.6,4.16-10.03,4.39-11.06.49-2.2-1.33-2.97,1.43-2.95-.14-2.04,2.77-5.01,2.97-6.25.09-.58-.62-1.91-.44-2,.26-.13,1.2.25,1.63-.12.29-.25.33-1.35.75-1.95,1.64-2.34,4.84-5.09,3.59-8.07l1.83.34c.47-.38.37-1.47.77-1.93,3.07-3.56,6.22-7.11,9.33-10.65-2.51-1.06-.9-1.23-1.78-3l-1.79.31,1.19-1.48-1.85-3.26c-1.92-1.33-12.07,11.61-13.67,13.39l1.19,1.49c-3.42-1.34-1.74,1.42-1.89,1.7-.08.15-1.22.39-1.69.96-1.37,1.68-2.06,3.82-3.57,5.4l1.18,2.08-1.82-.35c-1.29,2.9-1.87,7.23-5.94,6.31,1.78-1.67.67-3.4-.36-5.33-1.16-2.15-.77-1.76-1.72-4.19-.26-.65-1.85-4.22-2.04-4.43-.63-.7-1.71-.25-1.85-.37-.1-.09.66-1.17.5-1.94-.09-.43-4.03-7.17-4.4-7.6-.69-.79-1.88-.48-2.06-.63-.06-.05.49-.93.39-1.37-.61-2.94-11.17-14.03-14.16-15.02-.96-.32-1.84.46-2.25.23ZM31.71,143.21l-9.22-2.38-.33,2.37-1.78-.59c.77,2-.92,2.33-1.14,2.86-2.55,6.18-1.5,12.41-.69,18.84l1.82.37-1.08.67,3.48,11.85,1.78-.6-1.15,2.02c1.96,3.32,3.33,6.97,5.23,10.31,3.87,6.82,12.54,18.63,19.24,22.53,7.91,4.6,11.55,1.17,12.45-7.22l-.55-12.72c-2.96,1.24-1.86.04-.56-1.46-1.99-4.79-2.96-10.94-5.53-15.43-.47-.82-1.46-.94-1.57-1.13-.23-.39.48-1.36.25-2.28-.48-1.92-2.77-3.74-2.73-5.96l-1.78.6c.07-1.11.72-1.77.36-2.98-.09-.29-2.68-5.05-2.91-5.24-.43-.35-1.44,0-1.62-.14-.1-.08.47-1.3-.07-2.55-1.27-2.94-8-10.1-10.99-11.16l-1.48,1.19.6-1.78ZM72.06,144.06c-2.06-1.01-4.64-2.99-6.92-2.94,2.24.78,1.5,2.2,2.34,3.61,3.09,5.19,6.92,9.67,11.09,13.97l6.26-6.85-2.37-.3.02-2.1c-2.34.31-2.41-1.42-3.37-1.98-2.21-1.29-4.94-2.38-7.04-3.41ZM91.4,145.6l-11.93-3.59c-.57.59,5.17,7.99,6.35,8.24,1.1.25,5.81-4.36,5.58-4.66ZM124.83,149.17l.06-1.49-7.22-1.48,1.07,5.82-.81,1.31-3.59-1.13c-.45.97.01,1.43-1.45,1.17-.12-4.7-3.09,0-3.33.02-.55.03-1.46-.66-2.77-.51-2.57.28-2.55,1.97-2.96,2.2-.23.13-2.89-.77-5.1.5-.56.32-3.65,3.86-4.33,4.67-.53.63-3.39,3.99-2.99,4.46l3.57-.6-.59-1.78c1.6-.57.95,1.05,1.58,1.2,2.79.64,2.71-1.21,2.94-1.21,4.88-.12,7.98-.48,12.22-1.44,1.27-.29,2.5-.82,3.82-.93l.64-1.8.59,1.78,6.69-2.29,1.37,1.7-12.56,3.38.63,10.34,1.78-.59c.57,1.6-1.05.95-1.2,1.58-.64,2.78,1.19,2.69,1.2,2.95.07,1.47-.84,3.72.28,5.68l1.5-.06-1.14,2.01c1.32,1.34.97,5.15,2.93,4.24l.6.61-1.15,1.12,3.26,6.35,2.06-.02c-1.14,2.29.81,4.17,2.38,5.68,1.08,1.05,4.98,3.54,6.13,4.04,1.44.63,2.93.98,4.38,1.57l.26-1.15.97,1.22c14.52-.61,14.45-20.04,12.63-30.62-.18-1.05-1.27-1.72-1.39-2.5s.42-1.84.09-3.32c-.51-2.27-1.89-2.13-2.08-2.46-.14-.25.6-3.29-.65-5.47-.47-.81-1.62-.23-1.81-.4s.53-1.39.43-2c-.43-2.5-2.79-4.83-4.41-6.57-.47-.51.35-2.07-1.99-1.58l.32-1.78-2.42-.59.31-1.79c-2.41,1.78-7.43-1.33-9.22-1.24-.42.02-.05,1.92-1.52,1.23ZM108.11,150.37c-3.59-1.7-4.44-.62-6.56,2.37,1.77-.13,3.74-.82,5.37-1.49.57-.24,1.37-.06,1.19-.88Z"/>
      <path class="cls-1" d="M112.28,26.31c-.89,2.89-.11,6.56-.61,9.2-.23,1.24-1.36,1.95-1.64,3.13-2.61,10.89,16.56,8.61,11.73-.64-1.83-3.52-6.78-1.81-4.1-9.32l25.07,5.97c-1.49,2.1-1.24,5.29-1.93,7.31-.9,2.62-5.25,5.11-1.46,9.2,6.25,6.76,18.31-4.64,6.93-9.13l2.19-5.55,20.54,5.32c.19,1.11-.78,1.72-1.47,2.4-20.91,20.23-37.69,37.25-46.57,66.2-3.96,12.9-6.1,27.2-3.88,40.56l-73.99-21.2c-.9-.39-.93-1.02-1.18-1.81-1.96-6.26-1.85-20.07-1.23-26.79,2.78-30.33,20.37-59.91,42.37-80.24-.59,2.5.65,6.46.43,8.57-.08.75-.89,1.55-1.01,2.51-.67,5.5,5.75,8.03,10.12,5.29,4.98-3.13,1.94-10.1-3.53-9.84.08-1.32-.57-6.99.86-7.11l22.38,5.96ZM80.8,73.86c2.53,2.63,7.72-4.63,8.92-6.6,1.85-3.03,9.93-23.09.75-17.74-4.38,2.55-13.4,20.46-9.67,24.34ZM112.83,54.98c-1.8-.43-2.84.47-4.13,1.43-3.88,2.89-8.97,13.16-9.47,17.97-.97,9.29,3.55,7.07,7.69,1.73,3.99-5.15,8.02-14.69,5.91-21.12ZM74.69,75.81c-1.92-1.68-8.2.31-7.75,2.67.08.44,1.03,1.27,1.49.31l1.49-1.2c1.2,4.23-1.13,5.29-4.37,7.26l-6.36,2.58c3.23,2.9,7.21,2.8,11.27,2.76,2.4,10.32,10.95,14.14,20.83,11.43,1.8-.49,6.14-2.88,6.99-2.91,2.71-.1,8.15,4.37,11.64,2.14,0-1.87-1.93-1.54-3.15-3.1-.51-.65-2.47-4.82-2.21-5.24,2.11.53,4.56-2.87,6.26-4.17l1.49,2.38-.99-4.22-4.38-.55v1.78s1.79.3,1.79.3l-4.77,3.88c-.5-3.23-2.95-9-6.13-10.29-3.53-1.43-6.95.58-8.99.19-.23-.05-1.84-2.8-3.18-3.54-4.67-2.59-9.72-.77-13.94,1.71v-2.98s2.11.42,2.11.42l.87-1.61Z"/>
      <path class="cls-1" d="M124.83,149.17c1.47.69,1.1-1.21,1.52-1.23,1.79-.09,6.81,3.02,9.22,1.24l-.31,1.79,2.42.59-.32,1.78c2.33-.5,1.51,1.07,1.99,1.58,1.62,1.74,3.98,4.07,4.41,6.57.1.61-.62,1.83-.43,2s1.35-.41,1.81.4c1.26,2.18.51,5.22.65,5.47.18.33,1.56.19,2.08,2.46.34,1.48-.21,2.51-.09,3.32s1.21,1.45,1.39,2.5c1.83,10.59,1.9,30.02-12.63,30.62l-.97-1.22-.26,1.15c-1.44-.59-2.94-.95-4.38-1.57-1.15-.5-5.04-3-6.13-4.04-1.57-1.51-3.51-3.39-2.38-5.68l-2.06.02-3.26-6.35,1.15-1.12-.6-.61c-1.97.9-1.61-2.91-2.93-4.24l1.14-2.01-1.5.06c-1.13-1.96-.21-4.21-.28-5.68-.01-.26-1.84-.17-1.2-2.95.14-.62,1.77.03,1.2-1.58l-1.78.59-.63-10.34,12.56-3.38-1.37-1.7-6.69,2.29-.59-1.78-.64,1.8c-1.32.11-2.54.64-3.82.93-4.24.95-7.34,1.32-12.22,1.44-.23,0-.16,1.85-2.94,1.21-.62-.14.03-1.77-1.58-1.2l.59,1.78-3.57.6c-.4-.47,2.47-3.83,2.99-4.46.67-.81,3.77-4.35,4.33-4.67,2.21-1.26,4.87-.37,5.1-.5.41-.23.39-1.92,2.96-2.2,1.31-.14,2.22.54,2.77.51.25-.01,3.21-4.72,3.33-.02,1.46.26.99-.2,1.45-1.17l3.59,1.13.81-1.31-1.07-5.82,7.22,1.48-.06,1.49Z"/>
      <path class="cls-1" d="M31.71,143.21l-.6,1.78,1.48-1.19c2.99,1.06,9.72,8.22,10.99,11.16.54,1.25-.03,2.47.07,2.55.18.14,1.2-.21,1.62.14.23.19,2.83,4.96,2.91,5.24.36,1.21-.29,1.87-.36,2.98l1.78-.6c-.04,2.22,2.25,4.04,2.73,5.96.23.92-.48,1.89-.25,2.28.11.18,1.1.31,1.57,1.13,2.58,4.49,3.55,10.64,5.53,15.43-1.29,1.5-2.4,2.7.56,1.46l.55,12.72c-.9,8.39-4.54,11.82-12.45,7.22-6.7-3.9-15.37-15.71-19.24-22.53-1.9-3.34-3.27-7-5.23-10.31l1.15-2.02-1.78.6-3.48-11.85,1.08-.67-1.82-.37c-.81-6.43-1.86-12.66.69-18.84.22-.54,1.91-.86,1.14-2.86l1.78.59.33-2.37,9.22,2.38Z"/>
      <path class="cls-1" d="M133.18,147.98c-2.32-.63-8.57-1.22-9.82-3-1.63-2.33-3.77-14.97-3.89-18.18-.81-21.12,20.99-53.63,35.19-68.61,2.08-2.19,13.11-13.07,14.97-13.71.75-.26,7.57,1.87,8.33,2.38.95.63.45.63-.04,1.17-2.2,2.44-7.86,5.79-10.72,8.37-6.36,5.75-12.88,13.45-17.55,20.64-13.57,20.91-18.61,46.19-16.47,70.93Z"/>
      <path class="cls-1" d="M171.29,120.64c.21.13,1.07,3.07,2.17,4.09,4.24,3.94,14.29,2.72,18.78-.35,3.26-2.23,2.15-4.58,7.2-2.94,4.64,1.51,8.06,4.74,8.8,9.69.72,4.86.59,12.82-5.81,13.26l-1.36-8.49c-.57-.72-1.31-4.44-2.52-4.03-1.43.49-.41,1.34-.19,1.96,1.51,4.43,3.54,6.83,1.52,11.89-1.53,3.85-8.26,7.08-12.1,5.24.09-2.28,1.45-4.27,1.35-6.72-.06-1.41-1.64-7.47-3.13-7.6-1.44-.12-.31,1.57-.18,1.95,1.84,5.65,3.48,10.55-3.39,13.55-10.15,4.45-21.56-2.42-20.61-13.73h3.58c-.24,2.87,1.28,5.73,3.28,7.75,1.34-1.02.82-1,.33-2.11-1.94-4.34-3.73-5.21-.75-10.24.98-1.65,2.86-2.46,3.11-4.35-3.92-.55-5.06,7.62-7.33,7.62-8.08,0-9.25-11.06-3.02-14.69,1.76-1.03,8.72-2.74,10.26-1.78Z"/>
      <path class="cls-1" d="M37.79,138.95c.4.23,1.28-.55,2.25-.23,2.99.99,13.55,12.08,14.16,15.02.09.44-.46,1.31-.39,1.37.19.16,1.37-.16,2.06.63.37.42,4.31,7.17,4.4,7.6.16.77-.6,1.85-.5,1.94.14.12,1.22-.33,1.85.37.19.21,1.78,3.77,2.04,4.43.95,2.43.57,2.04,1.72,4.19,1.04,1.92,2.14,3.65.36,5.33,4.07.92,4.64-3.41,5.94-6.31l1.82.35-1.18-2.08c1.51-1.58,2.2-3.72,3.57-5.4.47-.57,1.61-.81,1.69-.96.16-.28-1.53-3.04,1.89-1.7l-1.19-1.49c1.6-1.78,11.76-14.71,13.67-13.39l1.85,3.26-1.19,1.48,1.79-.31c.88,1.77-.73,1.94,1.78,3-3.11,3.54-6.26,7.09-9.33,10.65-.4.46-.3,1.55-.77,1.93l-1.83-.34c1.25,2.98-1.95,5.73-3.59,8.07-.42.6-.46,1.7-.75,1.95-.43.37-1.37,0-1.63.12-.18.09.53,1.42.44,2-.2,1.24-3.11,4.21-2.97,6.25-2.76-.03-.94.75-1.43,2.95-.23,1.03-3.92,10.46-4.39,11.06-.64.83-1.64.27-1.8.42-.11.09.63,1.53.16,2.79-1.11,2.99-5.23,7.21-8.22,8.54l1.91-7.62c2.35-1.62.81-.68.32-2.36-.91-3.1.92-2.4,1.05-2.56.17-.21-2.68-2.84.01-4.75l-1.82-.39c-.32-3.81-1.38-7.45-2.53-11.08-1.08-3.41-3.76-8.14-4.49-11.06-.17-.68.51-1.63.38-1.86-.05-.1-1.2-.36-1.83-1.43-1.22-2.07-2.12-6.58-2.33-6.88-.19-.29-1.39-.46-1.99-1.32-1.35-1.95-3.17-4.83-2.11-7.15l-1.73.58c-.85-2.03-2.46-4.34-3.93-5.96-1.38-1.52-6.16-4.74-6.52-5.36-.21-.35.3-1.16.25-1.19-.23-.16-1.2.43-1.85.27-2.33-.57-5.35-2.74-8.29-2.67l2.53-1.95c2.47-1.05,7.64-1.54,9.97-.07.44.28.53,1.24.74,1.35Z"/>
      <path class="cls-1" d="M155.86,95.49c-4.6,15.31-7.46,32.2,0,47.12-3.94-.2-12.02-.36-14.84-3.36-3.21-3.42-5.74-16.12-5.45-20.78.18-2.82,2.59-13.48,4.15-15.53,2.65-3.48,11.86-6.45,16.13-7.44Z"/>
      <path class="cls-1" d="M168.4,84.15l-.6,1.78c1.98.36.45-1.61,2.63-1.17,1.42.28,5.11,1.43,6.39,2.03,1.35.63,1.19,2.22,3.51,1.54l-.59,1.78c2.53-1.67,7.71,3.45,8.53,5.55.52,1.34-.23,1.87-.17,2.43.05.43,1.32.57,1.85,1.78,1.67,3.8.48,10.1-.08,14.1l-1.78-.6,1.19,1.2c-.2,1.35-1.72.85-2.51,1.25s-.58,1.83-3.06,1.13c-.59-.17.01-1.97-2.78-.59.08-1.98.34-4.35.3-6.28-.03-1.71-1.76-2.6.29-4.44-2.43-.85-3.33-4.38-5.35-6.3-.49-.46-5.06-3.98-5.37-4.11-1.23-.5-5.58.39-6.3-2.14l-.88.02-.26,1.15c-4.83-2.37-9.49.49-14.31,1.15l-.68-.52c.84-2.36-.72-1.6-1.4-2.74-.33-.55-1.46-3.5-1.25-3.79,2.14-.61,2.83-1.94,4.76-.04l-.6-1.78c1.36-.07,2.65-1.09,3.96-1.19,1.23-.09,2.13.6,2.86.59.16,0,.98-1.79,2.44-1.79h9.25Z"/>
      <path class="cls-1" d="M11.42,34.64c-2.31,6.27,1.1,17.36,9.16,12.43,1.72-1.05,1.61-2.88,3.37-2.89-1.93,4.02,2.23,4.61,2.36,8.1.25,6.96-7.65,6.74-12.5,5.32C2.64,54.33-1.95,41.34,3.64,31.34c6.25-11.19,24.51.46,18.38,11.81-2.55,4.73-8.51,4.78-9.35-1.11-.38-2.7,1.52-7.32-1.25-7.4Z"/>
      <path class="cls-1" d="M179.13,110.38c-4.6.06-8.26,3.65-7.75,8.36-4.87.17-12.75,1.16-14.86,6.33l-1.25,3.82c-.65-11.16.05-22.77,4.74-33.12,8.96-1.14,19.28,4.72,19.11,14.62Z"/>
      <path class="cls-1" d="M112.85,25.08l-23.24-6.24c5.12-13.15,22.25-16.99,31.62-5.97-3.8,3.39-6.85,7.27-8.38,12.22Z"/>
      <path class="cls-1" d="M180.34,53.14c-7.09,9.02-13.33,18.65-18.52,28.9l-15.49,4.49c-1.09-1.34,11.59-18.21,13.42-20.29,1.92-2.18,14.49-14.47,16.21-14.81,1.07-.21,3.02,1.82,4.39,1.7Z"/>
      <path class="cls-1" d="M26.64,58.5l-.61-1.18c2.31-2.24,1.62-5.52.91-8.36,4.16,1.14,8.53,1.5,12.86,1.22,1.18-.08,3.72-.07,3.26-1.82h-12.83c-3.81,0-6.86-4.17-3.9-7.47,4.89-5.44,25.38-1.1,21.65,9.7-1.36,3.93-7.21,7.91-11.18,7.91h-10.15Z"/>
      <path class="cls-1" d="M182.12,52.54l-4.17-1.8c-.75-1.01,2.74-2.99,3.58-2.98,1.32-1.9-8.53-3.69-9.58-4.47l.04-2.08-11.89-3.04c.14-3.75.91-6.88-.04-10.66,14.93-3.83,28.66,10.51,22.05,25.03Z"/>
      <path class="cls-1" d="M27.32,74.85c.21.12.15.95.56.95,2.82-.8,5.48.11,8.62-.3.88-.11,1.92-.97,2.65-.95.46.01.04,2,1.52,1.24l.1-1.65,4.07-1.33c.29.28-3.17,5.22-3.55,5.57-1,.94-2.27-.54-1.89,2.74l-1.66.08-.07,2.35-2.38-.6,1.19,1.78c-4.29.6-8.24.94-12.53,0l.6-1.78c-1.55-.66-1.07,1.22-1.5,1.22-.56,0-3.05-1.3-3.69-1.71-5.74-3.69-8.28-10.33-9.13-16.82.18-.24,4.86,1.94,5.66,2.09.71.14,1.81-.57,2.88-.24.54.17,5.59,5.68,8.55,7.34Z"/>
      <path class="cls-1" d="M130.2,14.96c8.8-2.14,17.79,1.15,22.06,9.25-3.87,2.42-6.43,5.75-9.33,9.16l-11.96-3.76c1.06-4.91.39-9.88-.77-14.65Z"/>
      <path class="cls-1" d="M172.58,23.31l-.6,1.78c1.55.66,1.07-1.22,1.5-1.22.62,0,6.08,3.08,6.54,3.64,1.67,2.04,2.2,2.3,3.94,3.94.44.42,3.42,5.91,3.54,6.48-3.25,1.69-.09,1.05,0,1.19.33.56.54,1.69.6,2.38.92,9.47-4.33,18.26-12.84,22.37-1-.67.22-1.32.65-1.77,2.24-2.37,5.08-4.21,7.18-6.8.69-.85.09-2.57,2.02-1.56-.87-3.4.79-6.1.63-9.87-.09-2.22-.91-3.73-1.09-5.5-.17-1.68,1.54-2.93-.76-2.24-1.4-2.89-4.3-5.62-6.75-7.84-.73-.66-2.6-.13-2.18-2.6-1.32,1.55-6.91.46-5.96-1.79-1.97-.26-.34,1.25-2.68,1.25-2.29,0-.95-1.55-2.38-1.25-.53.11-.08.89-.74,1.17-2.31,1.01-8.9,2.47-11.46,3.02.13,2.79-1.33,1.74-1.89,2.1-.52.34-.05,1.27-.27,1.51-.89.98-2.81-.31-2.07,2.94l-1.78-.59c1.92,2.33-2.26,6.47-2.25,6.85.02.35.82.84.92,1.31.18.92-.97,1.68-.93,2.77.03.79,1.41,3,1.06,3.37l-1.79.61c-.34-2.68-1.15-8.38.34-10.72.29-.45,1.23-.51,1.36-.73.17-.28-.47-1.44-.09-2.68.86-2.79,7.54-9.38,10.3-10.08.92-.23,1.91.5,2.29.27.21-.13.27-1.08.73-1.36,2.87-1.83,11.44-.88,14.91-.34Z"/>
      <path class="cls-1" d="M192.87,111.59c6.31,10.99-7.24,16.62-15.94,13.25-6.94-2.69-4.91-13.69,2.81-12.65l-.6,2.39-1.78-.6c1.4,6.1,9.98,5.48,13.75,1.51,2.16-2.28-.79-3.97,1.76-3.89Z"/>
      <path class="cls-1" d="M133.08,9.71l.13,1.05h1.16c-.4-1.51,2.01-1.58,2.88-1,.31.21-.33,1.33,1.02,1.03l.63-1.25c7.6,1.39,14.49,6.11,17.58,13.17h-3.57c.37-3.13-1.51-2.37-2.25-3.16-.25-.27-1.88-3.1-2.03-3.26-.83-.89-8.3-1.81-8.27-4.31l-1.13.07-.36,1.15c-3.08-1.71-3.77-.72-6.86-.04l.61-1.18h-1.19c.07,2.49-7.39,3.4-8.27,4.31-.24.25.05,1.15-.25,1.5-.19.22-3.84,1.86-4,2.01-.21.19.42,1.22.24,1.78-.28.91-2.19,5.33-2.64,6.12-.38.67-1.19.39-1.81.39-.72,1.5,1.14,1,1.23,1.54.26,1.53-1.01,2.43-1.01,2.93,0,.8,2.68,3.35-.22,4.17,2.12.89,2.11,2.79,3,4.72l-2.41.94.59-2.38-1.18.6c-.85-.58-1.32-10.02-1.16-11.61.18-1.9.1-4.6,2.35-3.9-1.21-2.4.58-4.68,2.07-6.57,3.59-4.56,9.42-7.94,15.13-8.81Z"/>
      <path class="cls-1" d="M108.59,1.37c.36.2.46,1.36,1.02,1.66.48.26.07-1.06.68-1.21,3.42-.87,13.37,4.76,14.54,8.65l-2.1,1.49c-1.14-1.52.04-2.03-2.38-2.35l-.35-1.8c-2.3.75-4.17-1.26-6.54-2.08-1.5-.52-3.76-.43-4.92-.94-.68-.3-.11-1.71-1.6-1.13-.22,2.04-4.13,1.45-6.01,2.04-2.44.76-3.98,3.33-6.56,2.1l.59,1.78-2.31.09c-.12,1.78-.61,2.41-2.45,2.33,1.78,2.36-3.58,7.61-3.61,8.07-.12,1.88,0,6.66.01,8.85,0,.35.97.33,1.16.8.25.61,1.88,4.9.34,4.91-1.29,0-.37-2.18-.43-2.28-.11-.19-1.08-.3-1.3-.72-4.33-8.6.22-21.11,8.17-26.33,1.96-1.29,8-3.99,10.18-3.49.69.16-.01,1.48.97,1.22l.32-1.82c.79.11,1.87-.22,2.55.17Z"/>
      <path class="cls-1" d="M32.83,36.95l-8.27,3.06c1.07-6.99-3.33-10.6-8.36-14.31,9.54-7.62,18.34.41,16.63,11.24Z"/>
      <path class="cls-1" d="M6.94,55.53c2.88,2.75,7.99,4.69,11.94,4.63,3.05-.04,7.21-2.1,10.43.42-3.19,5.95-8.96,6.23-14.93,4.8-4.72-1.13-10.81-4.13-7.44-9.85Z"/>
      <path class="cls-1" d="M72.06,144.06c2.1,1.03,4.83,2.12,7.04,3.41.95.56,1.03,2.29,3.37,1.98l-.02,2.1,2.37.3-6.26,6.85c-4.17-4.3-8-8.79-11.09-13.97-.84-1.41-.1-2.83-2.34-3.61,2.29-.05,4.86,1.93,6.92,2.94Z"/>
      <path class="cls-1" d="M43.01,38.17l-8.25-1.2c.08-3.24-.28-6.49-1.55-9.49-.48-1.14-2.56-2.55-1.51-3.28,7.75-5.34,14.39,7.86,11.3,13.97Z"/>
      <path class="cls-1" d="M124.82,18.54l.6,10.14-7.16-1.8c-.56-.78,5.35-9.47,6.56-8.34Z"/>
      <path class="cls-1" d="M91.4,145.6c.23.29-4.48,4.91-5.58,4.66-1.18-.25-6.92-7.66-6.35-8.24l11.93,3.59Z"/>
      <path class="cls-1" d="M129.6,29.87l-1.19-1.79-1.78,1.19c.22-1.06.23-2.84.62-3.73.32-.72,1.41-.02,1.17-1.33-.1-.53-.87.02-1.31-1.11-.29-.76-1.32-6.13-1.09-6.35l2.7-.59c1.23,1.98.44,4.47.57,6.26.04.52.87,1.12.92,1.82.08,1.16-1.64,3.61-.61,5.63Z"/>
      <path class="cls-1" d="M158.75,29.8l-1.06.1-.02,1.15c1.52-.41,1.59,2.01,1.01,2.87-.22.33-1.3-.35-1.04,1.02,2.05.08.92,3.05-.29,2.7-.51-1.11-.71-1.41-2.08-1.22-.73-1.25,1.91-3.93,1.77-4.15-.1-.15-2.24-.16-1.84-2.63l2.74-1.54.79,1.7Z"/>
      <path class="cls-1" d="M154.07,36.43l-4.77-1.2c.71-2.27,2.77-3.36,4.48-4.76l.29,5.96Z"/>
      <path class="cls-1" d="M153.48,127.7h-.6v-13.42l1.19-3.87c.66,1.59-.59,4.09-.59,5.07v12.23Z"/>
      <path class="cls-1" d="M108.11,150.37c.18.82-.62.64-1.19.88-1.63.68-3.61,1.37-5.37,1.49,2.13-2.99,2.97-4.07,6.56-2.37Z"/>
      <path d="M74.69,75.81l-.87,1.61-2.11-.42v2.98c4.22-2.48,9.27-4.3,13.94-1.71,1.34.74,2.94,3.49,3.18,3.54,2.04.4,5.46-1.62,8.99-.19,3.18,1.29,5.63,7.05,6.13,10.29l4.77-3.88-1.79-.3v-1.78s4.38.55,4.38.55l.99,4.22-1.49-2.38c-1.71,1.3-4.15,4.71-6.26,4.17-.26.42,1.7,4.6,2.21,5.24,1.23,1.56,3.15,1.23,3.15,3.1-3.49,2.24-8.94-2.24-11.64-2.14-.85.03-5.19,2.41-6.99,2.91-9.88,2.71-18.43-1.11-20.83-11.43-4.05.04-8.04.13-11.27-2.76l6.36-2.58c3.24-1.96,5.57-3.03,4.37-7.26l-1.49,1.2c-.46.96-1.41.13-1.49-.31-.44-2.36,5.83-4.35,7.75-2.67ZM96.77,97.86c-3.49-2.87-6.24-6.1-7.72-10.46-1.67.81-2.86-.74-3.81-.74-2.61,0-9.42,3.96-12.94,3.46,1.85,12.24,15.37,12.73,24.47,7.74Z"/>
      <path d="M80.8,73.86c-3.74-3.88,5.29-21.79,9.67-24.34,9.19-5.34,1.11,14.72-.75,17.74-1.21,1.97-6.39,9.22-8.92,6.6Z"/>
      <path d="M112.83,54.98c2.11,6.43-1.92,15.98-5.91,21.12-4.14,5.34-8.66,7.56-7.69-1.73.5-4.81,5.59-15.08,9.47-17.97,1.29-.96,2.33-1.86,4.13-1.43Z"/>
      <path class="cls-1" d="M96.77,97.86c-9.1,4.99-22.63,4.5-24.47-7.74,3.53.5,10.33-3.47,12.94-3.46.95,0,2.14,1.55,3.81.74,1.47,4.37,4.23,7.59,7.72,10.46Z"/>
    </g>
  </g>
</svg>