<?xml version="1.0" encoding="UTF-8"?>
<svg id="Layer_2" data-name="Layer 2" xmlns="http://www.w3.org/2000/svg" viewBox="0 0 230.24 273.24">
  <defs>
    <style>
      .cls-1 {
        fill: #fff;
      }
    </style>
  </defs>
  <g id="Layer_4" data-name="Layer 4">
    <g>
      <path class="cls-1" d="M116.23,4.44c-8.93-8.95-20.78-3.05-26.75,6.03-1.05,1.6-4.57,7.12-2.71,8.51,2.03,1.52,11.74.43,14.46-.04.26,1.49-.36.82-1.18,1.07-4.53,1.41-9.28,1.62-14,1.46,1.88,3.04,4.95,13.99,7.33,15.69,4.3,3.08,21.39.6,24.56-3.79,2.13-2.95,2.03-15.8,3.02-20l-3.53,1.52c-.35-1.39.85-.93,1.46-1.81,1.97-2.86-.52-6.51-2.65-8.64Z"/>
      <path class="cls-1" d="M125.01,61.96c6.93-2.04,14.03-4.13,20.73-6.85,1.57-.64,11.23-4.93,11.68-5.52.37-.48.63-.88.46-1.52l-37.66-14.96-.77,1.26,32.74,13.81.65,1.12c-15.73,7.11-32.24,11.86-49.3,14.71l-.53-1.04c-1.95,2.04-5.69,1.35-8.3,1.94l-.55-.93-.33,1.02-3.94.52-1.3-1.03.26,1.01c-2.17-.79-3.66.52-5.56.55-2.24.04-8.99.25-10.64-.16-.27-.07-.31-1.75-2.49-.36l-.29-1.04-1.23,1.05-7.87-1.06c4.03-3.35,7.84-7.1,11.85-10.43.53-.44,1.74.21,1.31-1.72l1.51.51-.48-1.46c1.5-.04,2.6-2.49,3.5-2.82.57-.21,1.27.37,1.54.23.07-.04-.49-.55.19-1.52,1.8-2.53,8.62-6.57,9.67-8.61.27-.51.32-.95.25-1.51h-1.25s-31.89,26.83-31.89,26.83c-2.1,3.14,6.78,5.27,6.88,5.86-.32.73-1.94,5.01-2.16,5.18-.31.24-.99.04-1.42.09l1.06.8-.56,2.23-1.93-5.94c1.03-2.8-.94-.66-1.11-2.65-3.06,1.68-.16,5.5.48,7.87,4.09,15.2,7.68,30.54,12.08,45.65l-.35,12.2,55.75,7.2c1.04-.78,1.38-8.74,2.02-10.76,1.13-3.61,4.57-10.74,6.32-14.43,9.21-19.38,25.61-33.49,46.56-38.7l-.24-3.02c-1.76-1.03-12.47-3.78-13.33-2.45l-.02,1.48,9.11,2.02c-5.94.22-11.87-.47-17.7-1.51l.29,2.08c3.16.96,6.56,1.02,9.74,1.81.52.13,1.24-.07,1.09.66-8.96,3.74-16.78,9.53-23.77,16.2.06-1.08.62-2.24,1.07-3.23,2.15-4.67,7.06-12.52,8.3-17,1.03-3.75-2.19-4.52-5.14-6.02-8.5-4.31-15.16-4.61-23.87-7.01-.52-.14-1.25.09-1.1-.65Z"/>
      <path class="cls-1" d="M137.16,52.84c4.29-.18,3.33-6.14-.36-6.98-4.52-1.03-10.17,3.18-13.4,6-.96.83-5.57,5.28-4.45,6.55,2.21-.75,3.47-3.39,5.3-5.07,3.44-3.17,7.42-6.18,12.43-4.82l.48,4.33Z"/>
      <path class="cls-1" d="M117.93,53.35c3.06.64,3.75-2.93,2.05-4.84-2.26-2.55-8.12.87-10.31,2.4-1.65,1.15-9.41,8.07-7.92,10.04,2.89-1.53,4.34-4.91,6.84-7.07,1.26-1.09,7.97-5.43,9.35-4.06v3.55Z"/>
      <path class="cls-1" d="M53.17,65.5c-1.43.18-2.08-1.1-3.3-1.52-5.02-1.72-11.19-1.36-15.68,1.52-3.28-2.34-4.83-5.01-9.5-3.95-5.48,1.25-2.82,11.32-2.59,15.09l-4.09,5.54c-4.2-3.49-9.9-8.3-15.55-5.03-5.31,3.07-.91,10.08,2.69,12.83,1.53,1.17,7.45,3.78,7.57,5.11.11,1.16-4.48,10.72-5.23,13.01-3.74,11.39-7.09,34.06,9.65,36.19,8.97,1.14,17.25-2.94,15.66-13.14-.26-1.7-1.27-2.8-1.38-4.43,1.94.5,3.92-2.21,4.91-2.48,1.66-.45,2.63,2.29,3.67,3.25,8.68,8.04,24.28-5.13,19.86-16.32-.6-1.51-2.29-2.72-2.54-3.53-1.42-4.76,1.58-8.87-2.63-14.57-1.49-2.02-5.24-3.91-6.01-5.12-.2-.31-2.55-6.66-2.55-7.03,0-1.06,1.85-3.27,2.73-3.81.69-.42,6.34-1.68,5.32-3.02-.14-.19-4.64-.96-4.12.4l-1.94-.91c.39,1.75-.94,1.59-1.81,2.49-.54.56-1.04,1.64-1.39,1.9-2.59,1.93-5-2.72-7.94-1.86l.13-1.43.88-.09-1.51-1.26.03-.73.97-.03v-1.01s-1.42-.06-1.42-.06l-.6-3.99c1.4.47,1.5-.9,2.15-1.16,2.01-.81,10.56-1.99,11.92-.24.37.47-.34,1.56.6,1.4l.76-1.51,1.77,1.01.51-1.51Z"/>
      <path class="cls-1" d="M213.89,66.16c-2.99-2.77-9.23-.51-11.81,2.05s-10.05,18.17-11.58,18.55c-3.03-2.33-5.07-3.71-9.11-3.57-4.97.17-9.83,3.94-11.96,8.29-.87,1.77-1.31,5.75-1.89,6.6-.19.27-2.67,1.2-3.6,2.08-8.68,8.16,1.15,27.26,12.52,22.65,1.17-.47,2.46-1.92,3.04-2.06,1.03-.26,1.94.49,2.87.39,4.36-.45,10.92-2.05,13.28-6.07,3.87.87,10.22,1.46,12.83-2.24,2.98-4.22-1.89-7.53-.98-8.82,5.49-4.17,21.88-2.8,22.7-11.49.3-3.12-2.25-6.26-5.32-6.74-7.58-1.19-14.26,4.28-21.47,5.53,1.12-6.31,17.91-18.25,10.47-25.15Z"/>
      <path class="cls-1" d="M44.31,67.75c-.75-.76-.98-.79-2.37-.08-3.5,1.78-1.66,2.71-1.91,5.42l4.05,1.01-.42-.92c1.72-.47,2-2.37,2.45-3.88l-1.01.26c.21-1.05-.2-1.22-.77-1.8Z"/>
      <path class="cls-1" d="M62.78,136.36c7.86.09,2.59-3.06-1.7-2.47l-.76.77c.08,2.49.1,16.93,1.07,17.77.41.36,2.53.45,2.4.88l-21.25,32.89,1.53.53,16.14-23.73,1.56-.32c-1.05-1.54,1.42-2.75,2.42-4.18-.81-1.88,1.96-2.23,2.35-4.49,2.59-.77,4.8.18,7.14.79,1.64.43,2.58-.52,3.75,2.08l-1,.98c.94.61,1.24,4.6,1.02,5.49-.09.38-.89.26-.92.57-.1.84.97,3.27-1.09,3.31l.96,1.7c-.92,1.07-.93,3.36-2.48,3.36l.98,1.73c-1.49.84-.91,3.16-1,3.32-.04.07-1.17-.64-1.51.26l1.04.98c-.68,1.15-1.18,3.75-2.55,3.83l1,.75c-.29.81-1.79-.18-2.03,1.53-.03.22,1.45.03,1.01,1.5-.47,1.58-1.86-.47-2.01-.25-.29,1.24,1.56,1.61,1.44,2.7-.05.52-1.11,1.85-1.47,2.59-.33.68-.27,1.51-.48,2.04-.05.12-2.73-.43.02,1.02l-1.91,3.04.88,1.25-1.29-.45-.93.93-1.83-1.99c-1.19,1.09-1.77.95-3.27.5l.25-1-1.03,1c-1.25-1.54-2.31-.45-3.22-.62-.59-.11-.89-.95-1.31-1.11-.86-.32-3.95.49-4.07-1.8h-1.01s.52,1,.52,1c-1.59-.03-2.6-.62-3.3-2.02l-1.27,2.27c-.09,1.93,30.43,8.15,33.67,9.35l-.78,43.54c-8.86-3-16.31-8.77-26.07-5.58-7.28,2.37-10.88,8.85-13.08,15.76-5.75,1.13-21.19,4.78-7.39,9.32,15.38,5.06,39.52,4.95,55.93,5.29,22.52.46,51.19.88,73.09-4.28,1.93-.45,10.04-2.35,9.53-4.99-2.73-3.97-8.22-3.77-12.35-5.35.16-26.75-29.97-20.54-46-12.7l-7.84-37.94c15.25.31,31.43,3.29,46.06-2.36l-.42-3.07-21.86-41.39c1.19-.62,3.87,1.32,4.48-.57-.41-3.39,2.64-16.2,1.34-18.41-.8-1.36-5.76-1.4-5.81-.25.55,2.09,2.79,1.01,3.89,2.5l-1.34,13.62c-.32,1.48-7.98-.46-9.45-.62-12.11-1.39-24.23-2.67-36.34-4.14l-2.05-1.49-.55,1.01h-2.74s1.01-1.51,1.01-1.51l-1.77,1.01-.75-.03-.02-.99c-1.36,1.33-3.01-.16-5.05.5l.52-1c-1.16.18-1.35-.08-1.78-1.03l-.75.02c-1.02,3.32-5.17.16-7.56.97l-.58-5.26,1.56-.53-1.5-2.06.99-.23c.22-.83-.88-.25-1.02-.8-.32-1.21.02-1.61,1.03-1.97l-1.01-3.29Z"/>
      <circle class="cls-1" cx="124.12" cy="150.4" r="3.12"/>
      <path d="M62.78,136.36l1.01,3.29c-1.01.36-1.35.76-1.03,1.97.15.55,1.25-.03,1.02.8l-.99.23,1.5,2.06-1.56.53.58,5.26c2.39-.81,6.53,2.35,7.56-.97l.75-.02c.43.94.62,1.21,1.78,1.03l-.52,1c2.04-.65,3.69.83,5.05-.5l.02.99.75.03,1.77-1.01-1.01,1.51h2.74s.55-1.01.55-1.01l2.05,1.49c12.1,1.46,24.22,2.74,36.34,4.14,1.47.17,9.12,2.1,9.45.62l1.34-13.62c-1.1-1.49-3.34-.41-3.89-2.5.05-1.15,5.01-1.11,5.81.25,1.3,2.21-1.75,15.02-1.34,18.41-.61,1.89-3.29-.05-4.48.57l21.86,41.39.42,3.07c-14.63,5.65-30.81,2.67-46.06,2.36l7.84,37.94c16.04-7.84,46.17-14.05,46,12.7,4.13,1.58,9.62,1.38,12.35,5.35.51,2.64-7.6,4.54-9.53,4.99-21.9,5.16-50.57,4.74-73.09,4.28-16.41-.34-40.55-.23-55.93-5.29-13.8-4.54,1.64-8.19,7.39-9.32,2.21-6.91,5.8-13.38,13.08-15.76,9.76-3.18,17.21,2.58,26.07,5.58l.78-43.54c-3.24-1.2-33.77-7.42-33.67-9.35l1.27-2.27c.69,1.4,1.71,1.98,3.3,2.02l-.52-1h1.01c.12,2.29,3.22,1.49,4.07,1.81.41.15.72,1,1.31,1.11.91.17,1.96-.92,3.22.62l1.03-1-.25,1c1.5.45,2.08.59,3.27-.5l1.83,1.99.93-.93,1.29.45-.88-1.25,1.91-3.04c-2.75-1.45-.07-.89-.02-1.02.22-.54.15-1.36.48-2.04.36-.74,1.42-2.07,1.47-2.59.11-1.09-1.74-1.45-1.44-2.7.16-.22,1.54,1.83,2.01.25.44-1.48-1.04-1.29-1.01-1.5.24-1.71,1.74-.72,2.03-1.53l-1-.75c1.37-.08,1.87-2.68,2.55-3.83l-1.04-.98c.34-.9,1.48-.19,1.51-.26.09-.16-.49-2.48,1-3.32l-.98-1.73c1.55,0,1.56-2.29,2.48-3.36l-.96-1.7c2.06-.05,1-2.47,1.09-3.31.04-.31.83-.19.92-.57.22-.89-.08-4.88-1.02-5.49l1-.98c-1.17-2.6-2.11-1.65-3.75-2.08-2.35-.61-4.56-1.56-7.14-.79-.38,2.26-3.15,2.61-2.35,4.49-1,1.43-3.47,2.64-2.42,4.18l-1.56.32-16.14,23.73-1.53-.53,21.25-32.89c.14-.43-1.99-.52-2.4-.88-.96-.84-.98-15.28-1.07-17.77l.76-.77c4.29-.59,9.55,2.57,1.7,2.47ZM81.51,156.6c-.14-1.26-.73-1.75-2.03-1.51,1.04,1.36,1.03,3.61.49,5.27l1.03.54c.22.98-1.76.67-1.01,2.78,1.74-1.18,2.75-4.16,4.25-5.34.73-.58,2.41-1.28,3.33-1.75-.91-1.64-3.66-.28-5.25-1.04l-.81,1.05ZM103.09,159.8c-3.48-3.49-10.21-3.52-14.36-1.29-1.16.62-1.77,1.9-3.15,2.18l.47,1.47-1.51-.51c.32,1.95-.62,2.35-2.03,3.29.41.32,1.84.38,1.01,1.26-.15.16-3.09-1.31-2.02,2.54l-1-.51c-.18.24,1.38,2.38-1.01,1.52.9,1.94-1.22,2.88-1.79,4.54-.5,1.46-2.33,5.87-2.5,6.62-.14.63.67.9.51,1.49-.21.73-1.91,2.52-2.07,3.53-.13.83.98,1.19.8,1.53-.03.05-.63-.11-1,.37-.66.86-1.05,2.03-1.47,3.02l.91.7c.59.78-1.52,1.59-1.95,2.77l.99,1.75-1.51-.5c-.79,1.16,1.59,1.01,1,1.51-.04.03-.57-.12-.82.2-.34.45-.08,1.37-1.11,1.41l.41,1.2,3.77.78.78-1.04.26,1.54c.98.32,2.3-.57,2.99-.53.3.02.21.87.65,1,1.93.57,5.59.56,7.51.76.52.05.93,1.03,1.74.77l.5-1c-.2,1.94,1.72.63,2.81.73.44.04.73.75,1.49.8.36.03-.03-1.58,1.27-1.03-1.33,1.81,1.61,1.02,2.67,1.2,1.59.28,3.41,2.06,5.17-.2,1.06,2.66.71-.12,2.27,0l-.25,1.52h4.51s.8-1.01.8-1.01l.27,1.53,6.31-.02c-1.97-9.79-3.17-20.32-5.71-29.97-.99-3.75-4.06-13.38-6.6-15.92ZM113.88,159.13l-9.11-1.01c2.19,3.11,3.86,6.49,5.07,10.11l1.41-4.4,2.63-4.7ZM125.9,160.78c-4.02-.84-8.42-2.44-11.22,1.42-6.57,9.06,2.9,32.64,3.36,43.38.66.92,15.59.77,17.88.64,3.96-.23,7.92-1.19,11.87-1.54l-.28-1.99-21.6-41.91ZM92.12,206.2c-1.22-1.59-1.04,2.74-1,3.28.6,9.63,2.14,19.69,3.03,29.36.47,5.11.73,10.31,1.02,15.44h2.02s-5.06-48.08-5.06-48.08ZM93.64,261.36l-5.31-53.64-6.82,6.83-.5,31.89-.99,4.57c-1.63,1.19-6.79-2.31-8.65-3.06-5.3-2.14-12.22-4.88-17.91-3.28-7.34,2.07-10.74,9.79-11.92,16.67h52.11ZM155.36,261.87v-8.35c0-.74-1.17-4.08-1.58-5-5.75-12.8-26.06-5.83-35.96-2.7-1.66.52-6.23,2.93-7.49,2.15-1.81-1.11-6.84-33.81-8.33-38.24-.65-.83-.54-.26-1.03-.01-1.96.99-3.68,3.19-5.69,4.17,1.41,14.44,2.52,29.18,4.5,43.61.11.77.48,3.33.91,3.64l54.68.72Z"/>
      <path d="M125.01,61.96c-.15.75.58.51,1.1.65,8.71,2.39,15.36,2.69,23.87,7.01,2.95,1.5,6.18,2.27,5.14,6.02-1.24,4.48-6.15,12.33-8.3,17-.45.98-1.01,2.14-1.07,3.23,6.99-6.67,14.81-12.46,23.77-16.2.15-.73-.57-.53-1.09-.66-3.18-.79-6.58-.85-9.74-1.81l-.29-2.08c5.84,1.04,11.76,1.73,17.7,1.51l-9.11-2.02.02-1.48c.86-1.33,11.57,1.42,13.33,2.45l.24,3.02c-20.95,5.21-37.35,19.32-46.56,38.7-1.75,3.69-5.19,10.81-6.32,14.43-.64,2.02-.98,9.98-2.02,10.76l-55.75-7.2.35-12.2c-4.4-15.12-7.99-30.45-12.08-45.65-.64-2.38-3.54-6.2-.48-7.87.17,2,2.14-.15,1.11,2.65l1.93,5.94.56-2.23-1.06-.8c.43-.04,1.11.15,1.42-.09.22-.17,1.85-4.45,2.16-5.18-.1-.6-8.98-2.72-6.88-5.86l31.89-26.83h1.25c.07.56.01,1-.25,1.51-1.05,2.04-7.87,6.07-9.67,8.61-.68.96-.12,1.48-.19,1.52-.27.14-.97-.44-1.54-.23-.9.34-2,2.78-3.5,2.82l.48,1.46-1.51-.51c.43,1.93-.78,1.28-1.31,1.72-4,3.32-7.82,7.07-11.85,10.43l7.87,1.06,1.23-1.05.29,1.04c2.18-1.39,2.22.3,2.49.36,1.65.41,8.4.2,10.64.16,1.9-.04,3.39-1.34,5.56-.55l-.26-1.01,1.3,1.03,3.94-.52.33-1.02.55.93c2.61-.59,6.36.1,8.3-1.94l.53,1.04c17.06-2.85,33.57-7.6,49.3-14.71l-.65-1.12-32.74-13.81.77-1.26,37.66,14.96c.17.64-.09,1.04-.46,1.52-.45.59-10.11,4.89-11.68,5.52-6.7,2.72-13.8,4.81-20.73,6.85ZM130.07,68.02c-1.89-3.03-5.78-2.59-8.09-.24-3.84,3.9-2.04,8.26-2.01,13.18.02,3.23-1.46,4.73,1.98,7.59,3.36,2.79,5.83,1.41,8.11-1.78-10.42.33-8.77-17.84,0-18.74ZM114.38,70.05c-2.63-3.72-6.55-2.08-8.82,1.05-3.67,5.06-4.17,15.02.7,19.48,2.96,2.71,6.65,1.93,8.11-1.79-10.12.22-8.71-17.09,0-18.73ZM68.33,71.6c-1.39-.39-.71,1.47-2.52.99l.46,1.28-.92.95.97,1.81-2.01-1.01-1.54,3.79,1.04.51c.26,1.17-.87.5-1.03,1.08-1.13,4.11,2.09,10.3,2.54,14.35l1-.51c-.28,1.31-.33,4.07.08,5.26s.59-.42,1.07,2.44c.25,1.49.78,2.94.89,4.46l1-.51.51,6.08,1.51-.51-.97,1.73c1.4,1.11.31,2.77,1.08,4.27l1.41.08c-1.26,1.29-.12,4.22.26,6.05,1.43,1.69,4.75.46,6.52.53.32.01.42,1.39,1.56,1.33l1.77-.83c-1.75,4.65-7.45,1.41-11.12,2.03.97,1.99.7,1.76-.03,3.79,2.77,1.02-.35,1.1.03,2.02.2.5.92.91,1.51.77v-1.52c1.36-.51.9.89,1.51,1.3.56.37,5.82.67,6.85.72.7.04,1.34.35,1.99.54l.78-1.04c.13,1.77,2.47,1.67,3.54.5l1.27,1.53,34.66,4.04.45-6.53c-10.5-2.15-22.6-1.81-32.92-4.26-1.11-.26-3.09-.21-2.94-1.87l21.78,1.8,5.45-22.37,1.6-1.7-4.55,24.79,12.15.77,21.26-44.02c1.27-2.66.29-9.22-3.29-9.32-.82-.02-6.66.63-7.04.9-.97,5.22-3.39,13.51-9.74,14.18-4.11.43-5.03-2.13-8.02-4.01-9.05,14.38-19.36.78-17.47-11.14-4.3.19-7.67-2.06-10.54,2.36-5.47,8.43-.64,26.91-.09,36.87.15,2.72.11,5.65-.24,8.34l-1.76-1.79-1.75-18.46c-.15-1.11-.8-1.09-1.8-1l1.52-.79c-.49-1.63.56-4.78-2.02-4.27l1.49-.52c.12-1.22-.09-2.5-.52-3.65-.21-.58-1.49.05-.43-2.1l-1.07-.55.04-.73c2.65-.53-.06-1.66-.06-1.83,0-.53.66-1.29.58-1.95-2.15-.57.44-.88-.56-2.83l-1,.51c-.2-.29,2.32-4.04-1.02-3.55,1.49-2.13-1.36-3.42-1.44-3.63-.21-.54.42-1.12.43-1.63,0-.16-2.19-2.59-2.27-.3-.87-.36-.24-1.37-.33-1.45-.74-.56-2.57-.32-3.47-.07l.51-1h-3.55s.52-1.01.52-1.01c-1.02.27-1.62.5-2.29-.5l-.24,1-1-.02-.03-.96ZM85.55,83.21c1.76-1.97,1.68-5.16,4.03-6.83.01-.85-5.51-1.33-6.57-1.26l2.53,8.09ZM148.79,82.2c1.12-.54,3.96-6.5,3.53-7.09l-5.04,1.77,1.51,5.32Z"/>
      <path d="M53.17,65.5l-.51,1.51-1.77-1.01-.76,1.51c-.94.16-.24-.93-.6-1.4-1.36-1.75-9.91-.57-11.92.24-.65.26-.75,1.64-2.15,1.16l.6,3.99,1.43.06v1.01s-.98.03-.98.03l-.03.73,1.51,1.26-.88.09-.13,1.43c2.94-.85,5.35,3.79,7.94,1.86.35-.26.85-1.34,1.39-1.9.86-.9,2.19-.74,1.81-2.49l1.94.91c-.52-1.36,3.97-.59,4.12-.4,1.02,1.34-4.64,2.6-5.32,3.02-.88.54-2.74,2.75-2.73,3.81,0,.37,2.35,6.72,2.55,7.03.78,1.21,4.52,3.1,6.01,5.12,4.21,5.7,1.21,9.81,2.63,14.57.24.81,1.94,2.02,2.54,3.53,4.42,11.19-11.18,24.37-19.86,16.32-1.04-.97-2.02-3.7-3.67-3.25-.99.27-2.97,2.98-4.91,2.48.11,1.63,1.12,2.72,1.38,4.43,1.59,10.19-6.69,14.28-15.66,13.14-16.73-2.13-13.39-24.8-9.65-36.19.75-2.28,5.34-11.85,5.23-13.01-.12-1.33-6.05-3.94-7.57-5.11-3.6-2.76-8-9.76-2.69-12.83,5.65-3.27,11.35,1.53,15.55,5.03l4.09-5.54c-.23-3.77-2.89-13.84,2.59-15.09,4.67-1.07,6.22,1.61,9.5,3.95,4.49-2.88,10.66-3.24,15.68-1.52,1.22.42,1.87,1.7,3.3,1.52ZM36.83,90.65c.37-.43.6-.95.53-1.53-.2-1.64-1.86-5.04-2.27-7.3-.97-5.37-.14-12.11-4.41-16.34-1.68-1.66-5.16-3.24-6.47-.37-2.86,6.23,4.95,17.36,4.4,24.21l3.34.71.49,1.78c-1.97.03-4.72-.32-6.36,1-.81.65-.42,2.2-2.43,1.47-1.5-.54-.74-3.15.68-2.99v-.74c-4.25-2.26-12.82-12.31-17.35-12.24-5.1.08-5.68,4.62-2.57,7.89,4.15,4.37,12.82,6.42,15.71,13.15,2.47-1.77,9.02,1.63,10.3.84.37-.23,2.45-5.39,3.42-6.72,1.09-1.49,2.25-1.94,3-2.82ZM48.62,118.64c-.18-2.11,2.16-3.06,3.25-4.58,3.25-4.56,4.62-11.75,2.4-17.02-4.06-9.65-14.67-8.35-19.58-.17-1.19,1.99-4.92,8.68-4.03,10.62,1.82,4,6.8,1.75,8.78-.82,2.42-3.14,1.03-8.42,4.62-9.79.63,2.26-.32,4.43.04,6.8.17,1.12,2.5,5.35,1.99,5.85-2.06.34-2.14-1.22-2.92-2.38-1.29-1.92-1.57.82-1.66,2.1-.17,2.35.25,4.56.53,6.85-2.39-.28-2.96-3.62-3.04-5.56-3.46,1.59-7.41,1.7-10.94,2.99-.47.17-.96-.21-.67.78.94,3.28,8.16,7.85,11.51,8.28,1.77.22,4.33-1.17,4.66,1.62l-3.03.76c6.67,7.97,19.38-2.53,17.45-10.88-2.04,3.34-3.95,7.6-8.35,8.09,1.01-2.36,3.08-3.59,4.45-5.92.73-1.24,1.63-2.7,1.61-4.2-2.42,2.05-3.49,5.99-7.07,6.58ZM28.36,102.47c-3.66-1.94-14.52-1.68-12.41,4.56,1.15,3.4,10.72,5.34,13.94,4.01-.22-1.63-1.71-1.97-2-3.83-.27-1.74.31-3.1.46-4.75Z"/>
      <path d="M116.23,4.44c2.13,2.14,4.62,5.78,2.65,8.64-.6.87-1.8.42-1.46,1.81l3.53-1.52c-.99,4.2-.9,17.05-3.02,20-3.17,4.4-20.26,6.88-24.56,3.79-2.38-1.71-5.44-12.66-7.33-15.69,4.71.16,9.46-.05,14-1.46.82-.25,1.43.41,1.18-1.07-2.72.48-12.43,1.56-14.46.04-1.85-1.39,1.66-6.91,2.71-8.51,5.97-9.08,17.82-14.98,26.75-6.03Z"/>
      <path d="M213.89,66.16c7.44,6.89-9.35,18.84-10.47,25.15,7.21-1.25,13.88-6.72,21.47-5.53,3.07.48,5.61,3.62,5.32,6.74-.82,8.69-17.22,7.32-22.7,11.49-.91,1.28,3.96,4.59.98,8.82-2.61,3.69-8.95,3.11-12.83,2.24-2.36,4.01-8.93,5.62-13.28,6.07-.93.1-1.84-.65-2.87-.39-.58.15-1.87,1.59-3.04,2.06-11.37,4.61-21.2-14.48-12.52-22.65.93-.88,3.41-1.81,3.6-2.08.58-.84,1.02-4.83,1.89-6.6,2.14-4.34,6.99-8.11,11.96-8.29,4.03-.14,6.08,1.24,9.11,3.57,1.53-.37,9.08-16.07,11.58-18.55s8.81-4.82,11.81-2.05ZM200.82,90.72c.23-.15,1.77-4.02,2.39-4.95,2.49-3.71,9.64-10.3,9.85-14.47.25-4.81-3.19-4.95-6.76-3.18-6.6,3.27-8.49,15.56-14.41,20.4,3.29,3.69,2.48,8.44,3.45,12.91,2.76-2.19,8.43,1.93,9.86,1.85.31-.02,3.85-2.68,5.19-3.24,4.42-1.87,13.43-2.08,16.32-5.43,1.85-2.15,1.63-4.23-.84-5.75-5.84-3.61-15.5,4.5-21.93,4.48-.34.33,2.73,4.44-.75,4.07-1.63-.17-1.6-2.49-2.44-3.42-.93-1.02-3.9-1.43-4.39-2.44-.69-1.43,3.8-.42,4.47-.83ZM177.12,103.96c.78-2.17,2.8-3.27,3.95-5.41.68-1.27,1.66-5.97,2.87-5.72,1.99,2.3-.35,5.53-.14,8.2.29,3.58,3.83,9.21,7.95,6.68,1.53-.94,1.62-1.76,1.57-3.47-.07-2.51-1.31-10.24-2.29-12.43-1.48-3.32-6.19-6.84-9.88-6.37-8.65,1.11-12.56,10.29-11.49,18.14.19,1.38,2.32,6.64,2.16,6.97-.11.24-1.11,1.13-1.28,1-.66-1.96-1.7-3.48-2.31-5.54-.37-1.26.39-3.47-1.24-3.06-1.56,2.84,2.73,9.42,2.53,10.87-.27,1.95-2.4-1.05-2.63-1.41-1.57-2.5-2.18-5.54-2.44-8.45-1.95,1.38-1.72,5.13-1.39,7.22.89,5.6,7.34,12.91,13.29,8.98l-1.78-1.78.78-1.26c6.5,2.91,12.06,1.24,17.94-2.03.2-.92-.28-.99-.84-1.43-2.69-2.08-6.19-3.54-8.55-6.14-1.15-.26-2.56,4.46-4.77,4.03-.96-1.05,4.84-7.61,2.28-9.61-1.14,1.34-2.44,2.26-4.3,2.02ZM191.79,111.04c15.16,8.56,23.41-6.41,4.04-7.59.29,2.74-.81,5.89-3.73,6.55l-.31,1.04Z"/>
      <path d="M137.16,52.84l-.48-4.33c-5.02-1.35-8.99,1.65-12.43,4.82-1.83,1.69-3.09,4.32-5.3,5.07-1.12-1.27,3.5-5.71,4.45-6.55,3.23-2.82,8.88-7.02,13.4-6,3.7.84,4.65,6.8.36,6.98Z"/>
      <path d="M117.93,53.35v-3.55c-1.38-1.36-8.09,2.98-9.35,4.06-2.5,2.16-3.95,5.54-6.84,7.07-1.49-1.96,6.27-8.89,7.92-10.04,2.19-1.52,8.05-4.95,10.31-2.4,1.7,1.92,1.01,5.48-2.05,4.84Z"/>
      <circle cx="124.12" cy="150.4" r="3.12"/>
      <path d="M44.31,67.75c.57.58.98.76.77,1.8l1.01-.26c-.45,1.51-.74,3.41-2.45,3.88l.42.92-4.05-1.01c.25-2.71-1.59-3.64,1.91-5.42,1.39-.71,1.62-.68,2.37.08Z"/>
      <path class="cls-1" d="M103.09,159.8c2.54,2.54,5.62,12.17,6.6,15.92,2.54,9.65,3.74,20.18,5.71,29.97l-6.31.02-.27-1.53-.8,1.01h-4.51s.25-1.52.25-1.52c-1.56-.13-1.21,2.66-2.27,0-1.76,2.26-3.58.48-5.17.2-1.06-.19-4.01.61-2.67-1.2-1.3-.55-.91,1.05-1.27,1.03-.76-.05-1.05-.76-1.49-.8-1.09-.1-3.01,1.21-2.81-.73l-.5,1c-.82.26-1.23-.72-1.74-.77-1.92-.2-5.58-.19-7.51-.76-.44-.13-.35-.98-.65-1-.69-.04-2.01.86-2.99.53l-.26-1.54-.78,1.04-3.77-.78-.41-1.2c1.04-.04.77-.96,1.11-1.41.24-.32.78-.16.82-.2.58-.49-1.79-.34-1-1.51l1.51.5-.99-1.75c.43-1.18,2.55-1.99,1.95-2.77l-.91-.7c.43-1,.82-2.17,1.47-3.02.37-.49.98-.33,1-.37.19-.34-.92-.69-.8-1.53.16-1.02,1.86-2.8,2.07-3.53.17-.59-.65-.86-.51-1.49.17-.75,2-5.16,2.5-6.62.57-1.65,2.69-2.59,1.79-4.54,2.4.86.83-1.28,1.01-1.52l1,.51c-1.06-3.85,1.87-2.37,2.02-2.54.83-.88-.6-.94-1.01-1.26,1.4-.94,2.35-1.34,2.03-3.29l1.51.51-.47-1.47c1.37-.28,1.99-1.55,3.15-2.18,4.15-2.24,10.88-2.2,14.36,1.29Z"/>
      <path class="cls-1" d="M155.36,261.87l-54.68-.72c-.43-.31-.81-2.87-.91-3.64-1.98-14.43-3.09-29.17-4.5-43.61,2.02-.99,3.74-3.19,5.69-4.17.49-.25.38-.82,1.03.01,1.49,4.44,6.52,37.13,8.33,38.24,1.26.78,5.83-1.63,7.49-2.15,9.91-3.12,30.21-10.1,35.96,2.7.41.91,1.58,4.25,1.58,5v8.35Z"/>
      <path class="cls-1" d="M93.64,261.36h-52.11c1.18-6.88,4.58-14.6,11.92-16.67,5.7-1.61,12.61,1.14,17.91,3.28,1.86.75,7.03,4.25,8.65,3.06l.99-4.57.5-31.89,6.82-6.83,5.31,53.64Z"/>
      <path class="cls-1" d="M125.9,160.78l21.6,41.91.28,1.99c-3.95.35-7.91,1.32-11.87,1.54-2.28.13-17.22.28-17.88-.64-.46-10.74-9.93-34.32-3.36-43.38,2.8-3.86,7.21-2.27,11.22-1.42Z"/>
      <path class="cls-1" d="M92.12,206.2l5.06,48.08h-2.02c-.29-5.12-.55-10.32-1.02-15.43-.89-9.67-2.42-19.73-3.03-29.36-.03-.54-.22-4.87,1-3.28Z"/>
      <path class="cls-1" d="M113.88,159.13l-2.63,4.7-1.41,4.4c-1.2-3.62-2.88-7-5.07-10.11l9.11,1.01Z"/>
      <path class="cls-1" d="M81.51,156.6l.81-1.05c1.58.76,4.34-.6,5.25,1.04-.92.47-2.6,1.17-3.33,1.75-1.49,1.18-2.51,4.16-4.25,5.34-.75-2.11,1.23-1.8,1.01-2.78l-1.03-.54c.53-1.67.55-3.92-.49-5.27,1.31-.24,1.89.25,2.03,1.51Z"/>
      <path class="cls-1" d="M68.33,71.6l.03.96,1,.02.24-1c.67,1,1.27.77,2.29.5l-.52,1.01h3.55s-.51,1.01-.51,1.01c.9-.25,2.73-.49,3.47.07.1.07-.53,1.08.33,1.45.09-2.29,2.28.14,2.27.3-.01.51-.64,1.09-.43,1.63.08.21,2.93,1.5,1.44,3.63,3.34-.49.82,3.26,1.02,3.55l1-.51c1,1.95-1.59,2.26.56,2.83.08.66-.59,1.43-.58,1.95,0,.16,2.72,1.29.06,1.83l-.04.73,1.07.55c-1.07,2.15.21,1.52.43,2.1.42,1.15.64,2.43.52,3.65l-1.49.52c2.58-.51,1.53,2.64,2.02,4.27l-1.52.79c1.01-.08,1.65-.11,1.8,1l1.75,18.46,1.76,1.79c.35-2.7.39-5.62.24-8.34-.55-9.96-5.38-28.44.09-36.87,2.87-4.42,6.24-2.18,10.54-2.36-1.89,11.92,8.42,25.52,17.47,11.14,3,1.89,3.92,4.45,8.02,4.01,6.34-.67,8.76-8.96,9.74-14.18.38-.27,6.22-.92,7.04-.9,3.58.1,4.56,6.66,3.29,9.32l-21.26,44.02-12.15-.77,4.55-24.79-1.6,1.7-5.45,22.37-21.78-1.8c-.15,1.65,1.83,1.6,2.94,1.87,10.32,2.45,22.42,2.11,32.92,4.26l-.45,6.53-34.66-4.04-1.27-1.53c-1.07,1.17-3.41,1.27-3.54-.5l-.78,1.04c-.66-.19-1.29-.51-1.99-.54-1.03-.05-6.29-.35-6.85-.72-.61-.41-.15-1.8-1.5-1.3v1.52c-.59.14-1.31-.27-1.51-.77-.38-.92,2.74-1-.03-2.02.73-2.02,1-1.8.03-3.79,3.68-.61,9.37,2.62,11.12-2.03l-1.77.83c-1.14.07-1.24-1.31-1.56-1.33-1.76-.07-5.08,1.15-6.52-.53-.38-1.84-1.52-4.76-.26-6.05l-1.41-.08c-.77-1.49.32-3.15-1.08-4.27l.97-1.73-1.51.51-.51-6.08-1,.51c-.1-1.52-.64-2.97-.89-4.46-.48-2.86-.67-1.31-1.07-2.44s-.36-3.95-.08-5.26l-1,.51c-.45-4.06-3.67-10.24-2.54-14.35.16-.58,1.29.08,1.03-1.08l-1.04-.51,1.54-3.79,2.01,1.01-.97-1.81.92-.95-.46-1.28c1.8.48,1.13-1.38,2.52-.99Z"/>
      <path class="cls-1" d="M114.38,70.05c-8.71,1.64-10.12,18.95,0,18.73-1.47,3.72-5.15,4.5-8.11,1.79-4.87-4.45-4.38-14.42-.7-19.48,2.27-3.13,6.19-4.77,8.82-1.05Z"/>
      <path class="cls-1" d="M130.07,68.02c-8.76.89-10.42,19.07,0,18.74-2.28,3.19-4.75,4.58-8.11,1.78-3.44-2.86-1.96-4.36-1.98-7.59-.03-4.91-1.83-9.27,2.01-13.18,2.31-2.35,6.2-2.79,8.09.24Z"/>
      <path class="cls-1" d="M85.55,83.21l-2.53-8.09c1.05-.07,6.58.41,6.57,1.26-2.35,1.67-2.28,4.87-4.03,6.83Z"/>
      <path class="cls-1" d="M148.79,82.2l-1.51-5.32,5.04-1.77c.43.58-2.42,6.55-3.53,7.09Z"/>
      <path class="cls-1" d="M48.62,118.64c3.58-.58,4.65-4.53,7.07-6.58.02,1.5-.88,2.96-1.61,4.2-1.37,2.33-3.44,3.56-4.45,5.92,4.39-.49,6.3-4.75,8.35-8.09,1.92,8.35-10.78,18.85-17.45,10.88l3.03-.76c-.33-2.79-2.89-1.39-4.66-1.62-3.34-.42-10.56-5-11.51-8.28-.28-.99.2-.61.67-.78,3.53-1.29,7.47-1.4,10.94-2.99.08,1.95.65,5.28,3.04,5.56-.27-2.3-.69-4.51-.53-6.85.09-1.28.36-4.02,1.66-2.1.78,1.15.86,2.72,2.92,2.38.51-.49-1.82-4.73-1.99-5.85-.36-2.37.59-4.54-.04-6.8-3.59,1.38-2.21,6.65-4.62,9.79-1.97,2.57-6.95,4.82-8.78.82-.89-1.95,2.84-8.64,4.03-10.62,4.91-8.18,15.52-9.48,19.58.17,2.22,5.27.85,12.46-2.4,17.02-1.09,1.53-3.43,2.47-3.25,4.58Z"/>
      <path class="cls-1" d="M36.83,90.65c-.75.88-1.91,1.33-3,2.82-.97,1.32-3.04,6.48-3.42,6.72-1.28.8-7.83-2.61-10.3-.84-2.9-6.73-11.56-8.78-15.71-13.15-3.11-3.27-2.53-7.81,2.57-7.89,4.53-.07,13.1,9.99,17.36,12.24v.74c-1.42-.16-2.18,2.45-.69,2.99,2.01.72,1.62-.82,2.43-1.47,1.64-1.32,4.38-.97,6.36-1l-.49-1.78-3.34-.71c.56-6.85-7.26-17.98-4.4-24.21,1.32-2.87,4.8-1.3,6.47.37,4.27,4.23,3.44,10.97,4.41,16.34.41,2.26,2.07,5.67,2.27,7.3.07.58-.16,1.1-.53,1.53Z"/>
      <path class="cls-1" d="M28.36,102.47c-.15,1.65-.73,3-.46,4.75.28,1.85,1.78,2.19,2,3.83-3.22,1.33-12.79-.61-13.94-4.01-2.11-6.24,8.75-6.5,12.41-4.56Z"/>
      <path class="cls-1" d="M177.12,103.96c1.86.24,3.16-.68,4.3-2.02,2.57,2.01-3.24,8.56-2.28,9.61,2.21.43,3.62-4.29,4.77-4.03,2.36,2.61,5.86,4.06,8.55,6.14.56.44,1.05.51.84,1.43-5.87,3.27-11.44,4.95-17.94,2.03l-.78,1.26,1.78,1.78c-5.95,3.93-12.4-3.38-13.29-8.98-.33-2.09-.56-5.84,1.39-7.22.26,2.91.86,5.95,2.44,8.45.23.36,2.36,3.37,2.63,1.41.2-1.45-4.08-8.03-2.53-10.87,1.63-.41.87,1.79,1.24,3.06.61,2.06,1.64,3.58,2.31,5.54.17.13,1.17-.77,1.28-1,.15-.33-1.98-5.59-2.16-6.97-1.06-7.85,2.85-17.03,11.49-18.14,3.69-.47,8.4,3.05,9.88,6.37.98,2.19,2.22,9.92,2.29,12.43.05,1.71-.04,2.53-1.57,3.47-4.12,2.53-7.66-3.1-7.95-6.68-.21-2.67,2.13-5.91.14-8.2-1.21-.25-2.19,4.45-2.87,5.72-1.15,2.14-3.16,3.24-3.95,5.41Z"/>
      <path class="cls-1" d="M200.82,90.72c-.67.42-5.16-.59-4.47.83.49,1.01,3.47,1.41,4.39,2.44.84.93.81,3.25,2.44,3.42,3.48.37.41-3.74.75-4.07,6.43.02,16.09-8.09,21.93-4.48,2.47,1.52,2.7,3.6.84,5.75-2.89,3.35-11.9,3.56-16.32,5.43-1.34.57-4.88,3.23-5.19,3.24-1.42.08-7.09-4.04-9.86-1.85-.97-4.47-.16-9.23-3.45-12.91,5.93-4.84,7.81-17.13,14.41-20.4,3.57-1.77,7.01-1.63,6.76,3.18-.21,4.18-7.37,10.77-9.85,14.47-.62.92-2.16,4.8-2.39,4.95Z"/>
      <path class="cls-1" d="M191.79,111.04l.31-1.04c2.93-.66,4.03-3.81,3.73-6.55,19.36,1.17,11.12,16.15-4.04,7.59Z"/>
    </g>
  </g>
</svg>