<?xml version="1.0" encoding="UTF-8"?>
<svg id="Layer_2" data-name="Layer 2" xmlns="http://www.w3.org/2000/svg" viewBox="0 0 204.35 129.2">
  <defs>
    <style>
      .cls-1 {
        fill: #fff;
      }
    </style>
  </defs>
  <g id="Layer_4" data-name="Layer 4">
    <g id="_3GWMn6" data-name="3GWMn6">
      <g>
        <path d="M37.71,83.11c-1.24-4.2-2.27-8.53-2.88-12.87-.47-3.34-1.27-9.19-.71-12.35,1.03-5.87,6.28-9.31,11.99-9.43-4.88-4.44-13.96-8.47-15.98-15.1-2.28-7.5,2.11-13,9.91-12.43,9.94.72,17.14,13.65,24.13,19.55,1.05.89,5.82,4.78,6.96,3.17,1.15-1.63-2.52-4.61-3.36-5.93-7.33-11.5,8.14-18.69,13.52-5.12,1.19,2.99,2.31,10.88,4.51,12.71,1.48,1.22,7.56.03,9.64-.01,19.74-.39,40.5-.33,59.61,4.67,2.18-8.36,13.48-11.26,18.73-4.02,3.08,4.25,2.17,11.32,1.63,16.33-.58,5.37-2.03,10.58-3.31,15.8.38.4,8.33-4.24,9.97-4.52,8.04-1.38,14.19,6.49,10.99,13.93l-2.89,3.61c15.02-4.13,20.23,16.31,5.04,19.33-.11.58-.09.54.27.87.72.68,1.33.81,2.18,1.93,4.85,6.43,1.06,14.75-6.55,15.99-55.8-.45-111.72.12-167.46-.75-7.62-.12-15.35.29-22.91-.19-1.62-2.22-.44-2.98,1.88-3.17,8.11-.69,18.56-.07,26.92,0,25.69.22,54.34,2.04,79.8.45,32.86-2.04,55.75-26.6,61.83-57.86-1.3-2.19-3.34-3.35-4.6-5.71-.57-1.06-2.02-4.97-2.02-5.96v-10.71c-8.14,1.33-5.99,10.3-6.78,16.53-7.43,58.36-80.04,68.27-98,11.59-2.41-7.62-1.28-17.73-10.4-20.68-.69-.22-3.09-1.13-3.22-.11-.08.61,1.13,4.89,1.23,6.3.4,5.61-.49,11.31-3.01,16.34-1.05,2.11-2.86,3.74-3.69,5.92,1.92,6.6,4.86,13.48,9.4,18.7,1.51,1.73,6.35,4.72,5.63,6.87-1.08,3.2-7.82-4.29-8.76-5.41-3.51-4.19-6.43-9.7-7.99-14.9H1.38c-.21,0-1.1-1.05-1.07-1.49-.22-.54.76-1.87,1.07-1.87h36.33ZM167.91,45.73v9.87c0,1,2.59,7.33,3.57,7.34.6-.4.59-.8.65-1.44.28-2.69.71-7.53.36-10.06-.31-2.28-2.2-5.19-4.58-5.71ZM154.89,54.55c1.12-1.17-4.97-2.63-5.45-2.74-5.15-1.21-10.91-1.81-16.19-2.29-14.16-1.3-28.86-1.01-43.05-.42l5.32,3.7c5.15,2.54,10.86,3.45,16.33,5.09,1.1.33,1.66,1.13,2.9,1.3,4.74.66,15.05-.35,20.18-.86,6.73-.67,13.49-1.87,19.95-3.78ZM39.4,76.39c4.03-4.5,5.04-11.56,4.61-17.42-.07-.96-.92-6.41-1.47-6.52-6.06,2.83-5.34,7.61-4.82,13.23.33,3.58,1.09,7.17,1.68,10.71ZM154.89,57.91c-9.65,3.21-19.94,3.71-30.02,4.2-19.63.95-39.71.94-59.09-2.66l-6.23-1.75c1.46,3.41,1.46,7.12,2.31,10.71,4.57,19.25,21.31,38.14,41.98,39.5,29.09,1.91,48.61-23.03,51.05-50ZM173.69,96.44c1.21-9.13,7.08-13.69,15.02-17.11-.76-2.23-4.16-2.85-6.21-2.43-.86.18-11.81,5.7-12.26,6.22-3.16,8.09-7.62,15.64-13.24,22.24l16.69-8.92ZM190.59,82.69c-5.43,1.61-11.75,5.16-12.59,11.34,4.55-3.21,12.75-4.47,12.59-11.34ZM136,122.17l43.68-11.13c1.94-.84,3.19-4.69,4.82-6.52,1.8-2.01,4.88-3.9,7.44-4.74,2.09-.69,5.84-.88,7.6-1.64.42-.18.83-.42.72-.96-2.32-2.8-4.04-3.47-7.66-3.05-16.53,1.93-29.9,13.13-44.54,20.13l-12.05,7.89ZM185.56,109.57c4.87-2.23,14.75-1.3,15.11-8.4-5.68,1.5-12.76,2.08-15.11,8.4ZM194.65,114.76c-2.35-2.5-6.12-1.86-9.18-1.71l-48.21,12.48c12.23.19,24.45.66,36.73.4,2.26-.9,3.46-2.88,5.56-4.1,5.44-3.16,10.99-2.18,16.93-1.34.19-1.9-.52-4.34-1.83-5.73ZM180.1,125.95h10.71c.37,0,4.39-1.79,3.57-2.52-4.84-.05-10.67-1.66-14.28,2.52Z"/>
        <path d="M59.45.03c2.47-.29,5.97,1.86,6.37,4.36.73,4.55-2.26,7.19-1.63,11.29.31,2.01,3.21,6.26-1.11,6.93-5.52.86-9.78-6.93-10.21-11.58-.4-4.33,1.54-10.42,6.57-11Z"/>
        <path class="cls-1" d="M154.89,57.91c-2.44,26.97-21.96,51.91-51.05,50-20.68-1.36-37.41-20.25-41.98-39.5-.85-3.58-.85-7.3-2.31-10.71l6.23,1.75c19.39,3.6,39.46,3.61,59.09,2.66,10.09-.49,20.37-.99,30.02-4.2Z"/>
        <path class="cls-1" d="M136,122.17l12.05-7.89c14.64-7,28.02-18.2,44.54-20.13,3.62-.42,5.34.25,7.66,3.05.12.53-.29.77-.72.96-1.76.76-5.51.95-7.6,1.64-2.56.84-5.64,2.73-7.44,4.74-1.64,1.83-2.88,5.68-4.82,6.52l-43.68,11.13Z"/>
        <path class="cls-1" d="M154.89,54.55c-6.46,1.91-13.23,3.11-19.95,3.78-5.13.51-15.43,1.52-20.18.86-1.24-.17-1.79-.97-2.9-1.3-5.47-1.65-11.18-2.56-16.33-5.09l-5.32-3.7c14.18-.6,28.89-.88,43.05.42,5.28.48,11.04,1.08,16.19,2.29.47.11,6.56,1.57,5.45,2.74Z"/>
        <path class="cls-1" d="M194.65,114.76c1.31,1.39,2.02,3.83,1.83,5.73-5.93-.84-11.48-1.81-16.93,1.34-2.11,1.22-3.3,3.2-5.56,4.1-12.28.26-24.49-.22-36.73-.4l48.21-12.48c3.07-.15,6.84-.79,9.18,1.71Z"/>
        <path class="cls-1" d="M173.69,96.44l-16.69,8.92c5.63-6.6,10.08-14.15,13.24-22.24.45-.52,11.4-6.04,12.26-6.22,2.05-.42,5.45.19,6.21,2.43-7.94,3.42-13.82,7.99-15.02,17.11Z"/>
        <path class="cls-1" d="M39.4,76.39c-.59-3.54-1.35-7.13-1.68-10.71-.52-5.62-1.24-10.39,4.82-13.23.56.11,1.4,5.56,1.47,6.52.43,5.87-.58,12.92-4.61,17.42Z"/>
        <path class="cls-1" d="M167.91,45.73c2.38.52,4.27,3.43,4.58,5.71.35,2.53-.08,7.37-.36,10.06-.07.64-.05,1.04-.65,1.44-.98-.01-3.57-6.34-3.57-7.34v-9.87Z"/>
        <path class="cls-1" d="M185.56,109.57c2.35-6.32,9.43-6.9,15.11-8.4-.36,7.1-10.24,6.17-15.11,8.4Z"/>
        <path class="cls-1" d="M190.59,82.69c.16,6.86-8.04,8.13-12.59,11.34.84-6.18,7.16-9.73,12.59-11.34Z"/>
        <path class="cls-1" d="M180.1,125.95c3.6-4.18,9.44-2.57,14.28-2.52.82.73-3.2,2.52-3.57,2.52h-10.71Z"/>
      </g>
    </g>
  </g>
</svg>