<?xml version="1.0" encoding="UTF-8"?>
<svg id="Layer_2" data-name="Layer 2" xmlns="http://www.w3.org/2000/svg" viewBox="0 0 204.85 200.12">
  <defs>
    <style>
      .cls-1 {
        fill: #fff;
      }
    </style>
  </defs>
  <g id="Layer_4" data-name="Layer 4">
    <g id="hU7Tnt">
      <g>
        <path d="M124.07,5.57c4.43,2.02,10.49,2.97,15.4,4.58,2.59.85,5.26,2.07,7.94,3.05,1.14.42,1.99,1.17,2.5,1.37.11.04.66-.3,1.31-.11.25.07,2.02,1.05,2.49,1.29,8.54,4.4,19.64,8.65,24.72,17.61.48.85.81,1.45,1.18,2.09.54.92.48,1.42.35,2.43-.31,2.48-1.82,6.38-1.31,8.72.32,1.43,2.47,3.07,3.86,3.34.64.12,1.05-.25,1.53-.21,8.35.58,16.83,4.34,20.02,12.67.59,1.54,1.02,8.72.66,10.2-.31,1.28-1.83,5.84-2.39,6.95-.53,1.07-.36.14-.73,1.88-.02.1-1.14.85-1.52,1.49-1.33,2.23-2.2,3.9-3.94,5.85-.55.61-1.61,1.26-2.07,1.82-.21.26-.19.81-.3.9-.24.2-.46-.05-1.42.84-1.86,1.73-3.95,3.2-6.13,4.73-3.57,2.49-7.7,4.59-11.97,5.9-.61.19-.78.84-1.12.98-2.15.89-3.63.18-5.23,2.81-.99,1.63-.61,3.4-.9,5.01-.33,1.87-1.34,3.91-1,5.84.23,1.25,1.9,3.6,2.01,4.65s-.62,4.52-1.05,5.54c-.2.48-1.01.65-1.35,1.62-.09.26-.43,2.45-.45,2.76-.07,1.07,1.17,3.58,1.23,5.09.04,1.14-1.08,7.8-1.57,8.61-.09.15-.62.25-.87.59-.75,1.02-1.55,2.98-2.74,3.75-2.78,1.8-4.64,2.42-7.97,2.44-2.17.01-1.57.01-3.56.44-.99.21-4.51.21-5.52.06-.19-.03-.18-.41-.38-.5-1.87-.78-1.25-.81-2.49-1.75-1.76-1.33-3.25-.67-5.15-1.02-2.99-.54-6.76-4.42-7.37-7.37-.29-1.38.23-2.83.13-3.92-.06-.64-.79-1.94-.96-2.75-.78-3.77.65-9.7,2.81-12.94,1.47-2.19,6.36-4.9,8.95-5.55.52-.13.91.15,1.53-.03,1.76-.53,3-3.19,4.13-3.93,2.51-1.65,8.42-1.12,5.64-6.24-1.3-2.38-2.24-1.98-4.52-.94-3.7,1.69-6.9,3.88-10.83,5.03-3.15.93-5.09.91-7.49,3.46-.59.63-.6.68-1.32,1.34-2,1.85-4.38,3.63-6.97,4.29-2.53.64-4.58-.24-6.11,2.47-.95,1.69-1.32,3.88-1.13,5.81.91,9.44.87,19.28-1.14,28.61-.33,1.51-1.03,3.43-1.49,4.95.26,1.54,2.05,3.16,3.6,3.23.98.05,3.65-1.41,4.81-1.54.79-.08,1.04.45,1.52.47.93.05,2.58-.47,3.51-.44,5.53.16,11.06,3.85,14.63,7.61.33.35,2.59,2.83,2.69,3,.26.46.18,1.07.51,1.57.3.44,1,.6,1.22.94.17.27.45,2.61,1.2,3.34.33.31,1.04.34,1.48.66.41.3.57.94.84,1.1.42.25,1.23.16,1.39.31.11.1-.01.52.09.67.2.28.85.19.98.39s-.07.68.1.96c.1.16.53.15.68.49.33.77-.03,4.83-.46,5.55-.14.23-.78.49-1.1.84-2.52,2.85-5.33,4.1-9.15,5.32-10.12,3.22-21.11,3.54-31.69,3.13-.97-.04-2.5.24-3.23.15-1.01-.13-2.12-.8-3.76-.81-2.05,0-4.88-.51-7.16-1-3.37-.72-8.94-2.6-11.79-4.48-1.19-.79-3.18-3.23-3.54-4.71-.3-1.26,0-3.65.71-4.75.08-.12,1.63-2,1.73-2.09.68-.56,3.92-1.99,4.06-2.17.37-.47.76-1.88,1.78-2.66,2.24-1.7,2.84-3.6,4.73-5.45.16-.16.59-.07.79-.33.26-.34,1.61-3.62,1.95-4.39.64-1.44,1.55-3.42,2.17-5.07.15-.4-.31-1.1-.09-1.59l1-.34c.39-1.57.54-3.35.87-4.89.51-2.39,1.24-4.54,1.61-6.97.77-5.04,1.2-10.24,1.07-15.56-.12-4.93.01-7.97-3.42-11.75-.18-.2-.15-.68-.47-1-1.4-1.37-5.91-1.3-7.73-.73-2.83.89-4.04,3.3-5.05,5.89-2.29,5.92-4.57,12.15-6.87,18.37-3.18,8.59-6.83,17.46-9.58,26.33-.12.38-.56.69-.62,1-.37,1.87-1.11,2.89-1.86,4.83-.16.41.06,1.01-.12,1.35-.16.29-1.46.74-1,1.92,1.75-.17,2.21.88,3.22,1.47,2.18,1.26,3.73,1.88,5.17,4.09.12.19.53.18.61.47.09.32.13,2.51.1,2.96s-.37,2.36-.52,2.64-.61.09-.83.35c-2.04,2.44-3.9,3.82-6.96,5.04-4.93,1.96-12.77,3.26-18.06,3.77-6.69.64-14.34.67-20.71-.35-1.24-.2-3.28.21-3.64.15-.3-.05-.84-.57-1.45-.69-5.97-1.17-12.2-1.96-16.89-5.96-.78-.67-1.55-1.15-2.09-2.12-1.11-1.97-1.44-4.61-.12-6.6.39-.59,3.47-3.34,4.1-3.69.73-.41,2.28-.74,3.14-.99-.03-.92-1.21-1.25-1.54-2.08-.19-.47-.49-2.48-.47-2.99.08-1.78,3.34-7.02,4.58-8.56.5-.62,4.62-4.83,4.93-4.98,2.1-.99,3.81-1.98,5.93-2.91,9.82-4.29,18.77-1.78,27.36,4.1.26.18.32.57.62.78.75.5,1.82.71,2.52,1.64.13-1.9,1.11-3.37,1.74-5.1,1.77-4.86,3.45-9.51,5.32-14.21.47-1.19,1.09-2.61,1.64-4.03,2.44-6.29,4.62-12.78,7.03-18.69,1.24-3.03,2.15-5,2.08-8.49-.02-1.02-.86-3.95-1.54-4.61-1.39-1.35-3.87-2.7-5.19-3.92-.53-.49-.93-1.52-1.33-2.03-.3-.39-1.19-.91-1.37-1.29-1.21-2.46.08-8.46-1.52-10.01-.19-.19-1.62-1.08-1.96-1.26-4.92-2.65-12-2.08-17.67-3.77-2.75-.82-7.51-2.78-9.94-4.14-.3-.17-4.19-4.04-4.87-4.64-3.41-3.03-5.74-5.93-7.8-10.16-1.05-2.14-1.44-5.11-2.69-7.22-.45-.76-1.15-.7-1.59-1.11-.23-.21,0-.59-.25-.78-2.79-2-2.03-3.58-2.75-6.38-.21-.83-2.19-2.92-2.6-4.1-.83-2.39-.3-5.31-.97-7.75-1.06-3.81-1.36-3.49-1.17-7.78.03-.72-.28-1.41-.26-1.9,0-.15,1.18-2.37,1.35-2.62,1.41-2.15,2.95-2.03,4.49-3.29.44-.36,1.46-1.88,1.58-2.44.58-2.91-.46-3.7-.94-6.17-.61-3.17-1.34-8.59.24-11.41.22-.38,2.04-2.43,2.29-2.53.17-.07,3-.76,3.19-.77,2.19-.15,4.49,2.22,5.68,3.84.97,1.31,1.53,2.54,1.94,3.96.18.64,1.41,4.51,2.54,2.84.17-.25.48-2.13.74-2.75.2-.48.69-.9.97-1.44.23-.44.22-1.24.35-1.39.17-.2,3.27-2.07,3.78-2.25.28-.1,2.47-.66,2.61-.64.36.06,1.45.78,1.94,1,.65.3,1.39.2,1.92.76.41.44,1.12,1.86,1.49,2.47.11.18.48.18.52.38.17.76.37,3.84.39,4.77.16,6.44-2.25,12.05-3.74,18.08-.4,1.64-1.07,3.86-.9,5.47.28,2.76,1.7,5.07.88,8.23-.32,1.24-1.55,2.59-2.07,3.53-1.12,2.02-1.24,5.38-2.65,7.51-.5.74-1.95,1.77-2.55,2.79-.85,1.45-.39,2.63.35,4.08.77,1.51,2.82,4.09,4.05,5.35,1.66,1.7,3.14,2.36,5.25,3.31,2.51,1.12,4.91-.76,4.99-3.43.04-1.2-.76-2.98-.94-4.33-1.03-7.76-.02-14.32,1.96-21.78,2.18-8.19,4.59-16.62,7.18-24.66.96-2.98,1.41-6.11,2.48-9.05.09-.24-.15-.63-.05-.88.08-.21,2-2.25,2.36-2.57C61.77,1.68,70.35.43,75.5.15c10.92-.6,22.66.69,33.19,2.77,2.07.41,5.66,1.61,7.3,1.78.84.09,1.43-.49,2.08-.46.81.04,2.17,1,3.05,1.2.69.16,2.68,0,2.95.13ZM118.51,13.81c.29.27,1.18,1.03,1.48,1.01s.57-.91,1.29-.72c.49.13.55.81.91,1.06,1.27.9,3,.83,4.18,1.1.35.08.56.62.92.73.57.17,1.18-.37,1.76-.2s2.74,1.8,3.82,2.11,2.7.18,3.35.39c.61.19.66.74,1.14,1.03.53.33,3.92,1.67,4.42,1.75.92.15,1.28-.71,2.03-.47.7.47.52,1.2,1.15,1.82.94.92,3.38,1.36,4.57,2.14l.36.04c-.24-1.37,1.99-2.13,2.39-.89.36,1.09-2.09,2.26,1.92,2.08.26,1.73.59,1,1.66,1.55,1.13.59,2.37,1.32,3.35,1.87.23.13.58,1.53.86.33.14-.58.05-1.63,1.08-1.35l.77,1.04-.76,1.51c1.34,1.06,1.7-.85,3.17.05-.51,2.65,1.14,1.77,2.05,2.64.64.61-.09,1.42,1.98,1.11l.19.78c2.7.56,1.13-.38,1.28-1.1.37-1.76,3.03.19,1.54-2.58-1.62-3.03-5.06-4.69-7.92-6.29-.48-.27-.84-.84-1.43-1-.59-.14-.36,1.28-1.7.64-.84-.4-.21-1.06-.31-1.56-.2-.96-1.52-.56-2.11-.85-.35-.17-.38-.73-.6-.87-.34-.23-2.83-1.41-3.49-1.74-1.69-.84-1.95-.66-3.67-.22.08-1.89-1.09-1.25-2.14-1.75-.33-.16-.5-.64-.82-.78-.2-.09-1.9-.69-2.01-.69-.65,0-.83,1.42-1.75,1.23-1.28-.27-.34-1.71-1.23-2.25-.29-.18-1.88-.75-2.34-.9-.85-.28-1.54.2-2.45-.76l-.37.05c-.27,1.08-1.1,1.34-1.93.6l.29-1.43c-1.63-.26-2.78-.76-4.42-.95-.26-.03-.52-.4-.77-.36-.28.05-.51.61-.9.73-1.51.48-1.58-1.09-2.5-1.69-1.53-1-2.61-.75-4.16-.82-.17,0-.36-.27-.52-.28-.58-.01-.63.73-1.62-.11-.24-.21-.32-.65-.44-.74s-2.5-.27-2.9-.34c.71,1.12-1.2,2.19-1.9,1.15s.88-1.88.56-2.22c-.81-.5-1.62.18-2.01.18-.57,0-1.95-1.22-3.76-1.01-.66.08-.41.84-1.06.85-.79,0-1.07-1.32-1.67-1.57-.69-.29-1.85-.13-2.62-.33l.11,1.43c-.47.96-2.05.76-2.14-.23l.55-1.46c-1.4.06-2.92-.17-4.35-.34-1.02-.12-1.58-.12-2.48-.2-1.07-.09-2.45-.63-3.48-.56-.66.05-1.16.54-1.61.54-.75,0-1.75-.91-3.23-.81-.89.06-1.33.61-2.14.59-.4,0-.4-.6-1.18-.73-.22-.04-2.14-.14-2.25-.12-.3.04-.35,1.1-1.12,1.1s-.81-1.03-1.1-1.07c-.13-.02-2.47.05-2.6.09-.44.12-.79.63-1.16.67-.45.05-.82-.69-1.51-.69-1.19,0-2.6.98-3.38,1.15-.39.09-.83-.42-1.46-.41-.64.01-4.84,1.19-5.19,1.65-.06.08.2.84-.33,1.16l-1.61-.14c-1.38,4.65,2.09,4.03,5.21,3.2.96-.25,1.6-1.1,2.56-.52-.64-1.13.65-2.29,1.6-1.46.2.18.24.65.44.66.11,0,2.07-.15,2.21-.18,3.33-.77,6.31-.43,9.84-.61.56-.03.89-.48,1.27-.49,1.88-.02,4.69.83,6.5.99,1.7.15,2.53-.07,4.01-.82.57-.02.41.7,1.14,1.04.72.33,1.81.16,2.59.35.43-1.91,2.43-1.26,1.5.51,3.58-.11,6.93.91,10.37,1.82.8.08.69-1.41,1.55-1.01.53.24.18,1.15.85,1.58.45.29,1.03.01,1.48.11.85.18,1.05.61,2.36.46-.69-.64-1.67-1.4-.42-2.16,1.72-1.03,2.85,1.88.42,2.16ZM16.06,6.87c-.83.22-.48.96-.62,1.32-.66,1.63-.85,2.17-.6,4.12.27,2.1,1.09,5.29,1.59,7.52.35,1.55.77,4.02,1.26,5.41.59,1.66,1.92,4.9,4.11,3.2.22-.23.22-.52.25-.82.65-4.89-1.6-14.26-3.79-18.74-.31-.63-1.45-2.21-2.2-2.01ZM29.09,29.54c.44.61,1.51.95,2.24.67,1.67-.63,1.09-1.63,1.56-3,.19-.56.65-1.07.8-1.61.19-.7-.03-1.76.2-2.48.15-.49.83-.79.97-1.46.11-.55-.16-1.02-.08-1.44.43-2.41,1.51-3.95,1.44-7.04-.03-1.14-.36-3.63-1.76-3.85-.33-.05-1.73.58-1.89.79-.06.08.1.45-.01.66-2.35,4.44-2.67,8.82-3.46,13.7-.09.55-.54,1.03-.63,1.79-.1.88.11,2.56.63,3.27ZM78.39,23.67c2.22,1.13,9.74,3.12,12.51,3.69.57.12,2.92.47,3.36.4,1.18-.19.58-1.04-.2-1.41-4.34-2.07-10.34-2.99-14.64-5.46-.83-.48-.88-1.16-.41-1.98.95-1.63,4.7-.5,6.25-.44,2.72.11,6.05-.07,8.71.17,2.36.21,5.56,1.35,7.99,1.68.82.11,4.42.38,4.21-.98-.52-1.08-1.11-1.41-2.14-1.89-6.09-2.82-15.87-3.31-22.27-2.52-2.4.3-7.08,1.57-6.88,4.58.17,2.53,1.35,2.68,3.26,3.67.16.08.19.42.27.47ZM64.82,24.37c-3.21-2.19-5.89-3.24-8.68.36-1.68,5.33-3.14,10.64-4.6,16.03-.27.99-.18,2.11-.39,2.88-.4,1.46-1.89,4.37-2.04,5.45-.12.84.54,1.16.54,1.58,0,.62-.54,2.31-.53,3.75,0,2.45-.24,4.62.07,7.17,1.45,11.84,8.08,24.01,17.95,30.75,1.68,1.14,3.46,2.04,5.39,3.26,4.99,3.16,10.59,5.52,15.99,6.78.97.22,1.11,1,1.52,1.16,1.69.67,5,.74,6.12,1.25,2.98,1.35,5.04,1.29,8.32,2,1.58.34,3.54,1.09,5.23.94.24-.02.56-.4.89-.4.14,0,.14.43.35.53,1.01.48,1.44-.06,2.04,0,.18.02.14.49.35.55,1.97.49,11.7-.05,14.07-.35,5.21-.66,8.68-2.08,12.18-5.92,2.86-3.15,5.53-7.17,5.16-11.78-.26-3.2-1.63-3.05-2.51-5.26-.38-.96-.25-1.88-.46-2.76-.13-.55-.69-.89-.72-1.38-.11-1.86,1.74-4.61,3.51-5.32,3.22-1.3,7.78-.79,10.54,1.16.45.32.95,1.33,1.8,1.67,1.59.63,3.72-.08,5.11-.92,3.26-1.96,3.54-5.29,4.54-8.59,1.53-5.05,2.98-10.35,4.3-15.53.42-1.62,1.35-2.4.65-4.31-.44-1.2-1.09-.77-1.83-.89-1.75-.28-1.23.05-2.55.15-3.49.27-6.99.36-10.52.66-1.61.14-2.29-.02-3.65-.14-.7-.06-1.6.25-2.48.21-4.42-.18-8.91-.78-13.36-.7-.32,0-.48-.74-1.6-.7-2.02.07-3.89-.49-5.89-.79-3.37-.5-6.25-.84-9.41-1.67-2.79-.74-6.03-.97-8.67-1.78-5.57-1.73-10.96-2.91-16.61-4.87-2.14-.74-4.37-1.29-6.24-2.07-7.84-3.27-15.03-6.22-21.92-10.77-.69-.46-1.33-.96-1.96-1.39ZM137.8,29.61c.13-1.07-.35-1.85-1.33-2.27-1.78-.75-10.82-2.88-12.76-3.06-.56-.05-1.05-.17-1.44.38,0,.26,2.32,1.6,2.75,1.8,1.76.8,9.47,3.49,11.05,3.45.59-.01,1.15-.24,1.73-.3ZM117.38,30.37c.02-2.76-2.88-2.74-4.83-3.23-2.07-.52-6.21-2.24-5.97,1.4,2.69,1.81,6.14,2.53,9.34,2.9l1.47-1.08ZM13.38,30.51c-.53-.49-2.17-.82-2.87-.48-.3.15-1.72,2.89-1.75,3.2-.08.77.59,3.79.99,4.53.94,1.76,4.27,4.15,4.76.84l-.99-3.43c.8-1.18.96-3.64-.13-4.66ZM144.83,32.79c.9.46,2.77.46,3.12-.67.77-2.54-4.61-2.06-3.12.67ZM114.36,33.78c-1.22,0-1.97.57-1.75,1.86.27,1.54,4.63,2.6,5.64,1.36,1.86-2.28-2.27-3.21-3.89-3.22ZM28.39,36.41c-.61-.36-4.43-1.29-5.18-1.34-.3-.02-2.99.18-3.14.23-1.44.49-.29,1.97.46,2.54,2.05,1.55,3.51,1.12,5.59,1.49.25.04,2.44.75,2.55.83,1.6,1.14.61,3.52-1.2,3.88-.24.05-1.96.32-2.07.32-1.04-.03-4.54-1.63-5.7-1.82-.35-.06-1.44.09-1.73.23-.36.18-.35.64-.6.8-1.12.69-2.49,1.37-3.8,1.57-.56.09-1-.46-1.7.17-2.83,2.55,3.2,4.72,4.9,5.16,3.55-1.1,7.53-.26,10.92-1.44,1.07-.37,2.6-1.63,3.32-2.53.22-.27,1.71-3.11,1.72-3.33.05-1.43-.64-3.58-1.65-4.63-.12-.12-2.53-2.05-2.68-2.14ZM128.35,36.11c-.86.25-1.03,1.14-.11,1.61.84.44,3.19,1.13,4.2,1.42,4.81,1.37,9.89,2.1,14.87,1.99,1.47-.03,2.75.55,3.75-.81.8-1.09.23-2.74-1.07-2.93-.58-.09-1.11.24-1.56.19-5.63-.58-11.62-.99-17.26-1.46-.67-.06-2.31-.17-2.82-.01ZM26.32,55.61c-.05-1.46-2.5-1.15-3.63-1.08-.48.03-.78.38-1.06.41-1.1.12-3.07.07-4.1.32-.47.11-.82.4-1.12.76.37.42.89.81,1.41,1,1.47.53,4.37.84,5.84.36.59-.19,1.62-1.78,2.66-1.77ZM191.31,56.52c-1.53-.82-6.11-1.99-7.81-1.99-1.13,0-4.39.59-4.42,2.03-.03,1.63,2.89.48,3.79.55,3.94.31,10.64,3.44,11.89,7.49,1.16,3.76.76,9.61-.82,13.25-.45,1.04-3.33,4.8-4.13,5.78-2.68,3.28-6.57,5.62-10.26,7.64-1.78.97-.79.35-2.71.55-.89.09-1.8.74-2.59.94-.84.21-2.13.07-2.74.18-4.14.74-3.17,4.18.46,4.51.31-1.03.85-.18,1.76-.39.8-.18,1.78-1.31,2.72-1.62,2.03-.68,3.62-1.3,5.67-2.55,2.05-1.25,3.16-2.19,4.83-3.95.2-.21,1.9-1,2.39-1.42.37-.31,3.99-4.36,4.16-4.63.22-.35.06-1.14.4-1.48.51-.51,1.14.14,1.86-1.49.47-1.04.16-1.96.23-2.05.06-.08.78-.07,1.01-.34.4-.48.75-2.48,1.02-3.13.67-1.66,1.18-3.08,1.35-5.02.24-2.69-1.13-8.53-3.5-10.02-.43-.27-.97-.16-1.17-.3-.23-.16-.58-1.43-1.92-1.93-.82-.31-.52-.1-1.44-.6ZM26.76,66.7c-.11-.16-.57-.21-.67-.54-.21-.68.5-1.37-.28-1.85-.44-.64-1.04.01-1.62-.24s-.92-1.66-1.75-1.66c-1.08,0-1.6,2.25-1.47,3.12.41.11.24-.38.41-.52,1.15-.97,2.29.67,1.4,1.53-.36.35-1.53.13-1.27.73.29.34.67.58.92.96,1.43,2.27,3.09,4.83,5.1,6.69,1.05.97,7.12,5.33,8.17,5.49.41.06,1.06-.83,1.9-.29.52.33-.13,1.05-.02,1.21.27.37,4.72,1.27,5.5,1.34.42.04.89-.31,1.33-.27.41.04.73.51,1.35.56,1.35.1,3.14-.92,2.28-2.43l-.97,1.32-1.05-.53c-.36-.61.29-1.75.96-1.47.39.16.52,1.08,1.06.28-.75-.88-1.55-1.17-2.66-1.35-.42-.07-.9.2-1.18.11-.32-.1-.33-.58-.64-.77-.98-.56-2.46-.21-3.55-.54l-.04,1.57-1.3.04.41-2.15c-.69-.72-2.21-.3-2.82-.66-.5-.3-2.09-2.2-2.6-2.56-3.74-2.58-4.33-3.37-6.88-7.13ZM188.61,75.34c.8-1.6.22-1.5.42-2.39.09-.38.82-.81.97-1.73.51-3.04-1.37-7.01-4.3-8.17-1.06-.42-5.25-.59-6.42-.41-2.17.34-4.62,2.09-5.83,3.89-.21.31-2.21,4.36-2.29,4.61-.39,1.26-.46,2.98-.99,4.36-.82,2.13-3.37,6.36-2.45,8.5.22.5,1.72,2.27,2.18,2.38.61.14,2.37.03,3.12-.03.35-.03.66-.41,1.1-.42.48-.01.97.4,1.58.21.32-.1.56-.95,1.26-1.16,2.39-.72,3.63-.77,5.85-2.46,1.06-.81,1.07-1.75,1.43-2.18.21-.25.87-.17,1.2-.41,1.53-1.08,2.49-3.2,3.18-4.58ZM150.14,86.44c.31,2.03,1.33,1.93,2.06,3.03.21.31,1.99,3.59,2.1,3.93.16.51-.28.87.27,1.6.67.9.95.19,1.55.32,1.23.28.74,2.14-.61,1.56-.07.13.41,2.6.5,2.82.62,1.57.85,2.53,1,4.33.29,3.28-.25,6.36-.42,9.65-.04.79.39,2.88,0,3.42-.17.23-1.71.03-.45,1.52,1.4,1.65,1.54-1.7,3.24-.04,1.14-.69.3-1.86.44-2.47.07-.28,1.94-2.71,1.84-3.8,0-.83-.67.25-1.5-.39-1.16-.89.75-2.31,1.76-.82.55-4.75.67-9.59-.55-14.2-1.45.72-2.03-1.78-.26-1.62.21-.21-1.99-5.23-2.16-5.47-.45-.61-1.39-.29-1.57-.86-.17-.53.53-1.31-.15-1.98-.35-.5-.88-.01-1.3-.08-1.8-.27-.37-1.82-.85-2.85-.14-.31-3.01-2.61-3.26-2.65-.69-.09-1.72,1.7-2.13-1.39-2.38-1.05-4.21,1.47-2.38,3.23l1.07-.81,1.08.81c.09.84-.59.99-1.21,1.21.64,1.09.81,1.42,1.87,2.01-.17-1.09.06-1.42,1.34-1.34l-.12,1.62c-.38.61-.85-.07-1.21-.28ZM68.3,99.67c-.82-.47-1.39-1.12-2.32-.51-.85,1.21.34,2.3,1.22,3.08,1.35,1.2,7.3,4.68,8.96,5.25.34.12.78-.21,1.07-.03.27.17.36.8.88,1.03.42.18.9-.16,1.34-.04.36.1.74.68,1.27.9,6.44,2.74,15.83,4.15,22.55,5.38,3.81.69,9.28,1.48,13,.75.88-.18,1.62.33,1.16-1.44-1.28.15-2.76-.58-4.12-.52-1.92.08-1.12-.06-2.46-.21-16.03-1.82-28.41-5.47-42.54-13.63ZM152.9,122.27c-.25-.18-1.03-1.51-1.41-1.94-.33-.39-1.09-.7-1.23-.93-.4-.65.89-2.61-1.99-2.14-.19,1.5-.48,2.9.42,4.26.51.77,3.13,2.85,3.87,3.36,1.14.78,3.28,2,4.65,2.34,2.15.55,6.92-.05,4.82-2.98-1.85.86-3.58.92-5.46.1-.64-.28-3.08-1.65-3.68-2.08ZM13.73,174.87c.84,3.27,1.51,3.59,4.73,4.79l.36.03.03-.77c1.5-.3.81.25,1.19,1.02.53,1.09,4.48,1.45,5.68,2.12.59.02.43-1.22,1.78-.73.54.2.28,1.7,2.45,1.6,1.26-.06.75-1.13,1.46-1.5,1.62-.83,1.98.91,1.08,2.01,1.37.12,2.75.24,4.11.37,1.23.11,2.53.3,3.79.39,2.47.18,6.17-.1,8.66-.41.41-.05.82.19,1.2.13.72-.1,1.34-.64,2.07-.75-.14-.56-1.16-.07-1.49-.8-.27-.6.91-1.44,1.47-1.05.41.29-.11,1.78.43,1.85,1.23-.52,2.66-1.05,3.62-2.01.65-.65,2.14-3.95,2.35-4.91.16-.75-.29-1.37-.18-1.76.05-.17,1.31-1.06,1.64-2.12.22-.71.11-1.3.27-1.87.22-.77,1.19-1.34,1.01-2.46-.1-.65-.91-1.04-.25-2.01l1.31.25c.38-1.3.75-2.75,1.21-4.02.23-.63.81-1.24.92-2.03.12-.86-1.04.45-1.31-.55-.09-.34.19-.81.28-1.15l1.57.24c.7-1.35,1-2.84,1.52-4.25.22-.58.78-1.23.91-1.77.19-.84-.76.19-1.36-.25l-.22-1.32.59-.4c.59.38,1.15.48.98,1.3,1.33-.55.41-2.5.56-3.04.11-.39.87-.51,1.17-.99.39-.63,1.84-4.39,1.92-5.08s-.67-1.1-.42-1.86l1.34-.47c.1-1.25,2.34-4.96,2.14-5.8-.05-.23-1.25-.48-.82-1.52h1.6c0-2.4,1.92-3.92,2.15-6.16-.63.2-1.2.22-1.58-.43.11-1.08,1.28-1.88,1.59-.37,1.06-.4.1-.88.09-1.21,0-.17.37-.4.37-.75,0-.3-.4-1.61-.6-1.81-.55-.53-1.78.07-1.49-1.6-.69-.08-1.81.14-2.32.61-.26.24-1.69,3.28-1.69,3.54,0,.46,2.19,2.44-.8,2.27.38,2.03-1.69,3.61-2.12,5.52-.15.67.43.06.87.39.79.58.44,1.17-.28,1.56l-1.15-.23c-.54,2.8-2,5.27-2.94,7.93-.25.7,0,1.27-.14,1.72-.34,1.16-1.75,3.16-2.23,4.77-.13.45.17.92.03,1.33-.12.33-.57.34-.58.37-.06.15.39.84.2,1.4-.17.48-.94.32-1.28.88-.13.21-1.55,4.3-1.61,4.59-.17.9.65,1.09.39,1.94-.33,1.09-1.18.62-1.46.84-.15.12-1.11,3.03-1.34,3.6-.14.33-.46.34-.55.59-.49,1.26-.26,3.9-1.9,3.81l.27,1.6c-1.71-.09-2.83,0-4.4-.84-.28-.15-.91-.61-1.47-.92-.37-.2-.7-.72-1.08-.81s-2.74,1.52-1.89-1.45c-.77-.14-1.7-.6-2.39-.96-.82-.43-2.34-1.69-2.91-1.99-.31-.16-1.2-.13-1.73-.31-.4-.14-1.08-.72-1.15-.72-.22,0-.7,1.01-1.28.72-1.24-1.22-2.46-.86-3.94-1.57l-.25,1.22-1.09.11.27-1.34c-1.33.47-2.64-.44-3.98.31l-.04,1.03-1.32-.03-.15-.78c-.64.56-1.53.58-2.25.96s-1.01,1.03-1.29,1.19c-1.62.93-3.05,1.11-4.49,2.68-.27.29-.33.93-.46,1.01-.39.24-1.44-.23-1.93.84-.7,1.55-.45.86-1.47,2.05-1.45,1.71-1.06,2.52-.58,4.38-.37-.81,1.21-1.85,1.56-.62.42,1.49-1.26,1.28-1.56.62ZM158.79,145.47c.96-1.32,1.94-2.17,2.54-4.02.6-1.84-.06-6.43-1.41-7.85-.21-.22-1.28-.91-1.6-1.08-.96-.51-3.01-.79-3.9-1.18-2.22-.98-6.95-3.67-8.44-5.49-.65-.8-.81-1.65-1.59-2.43-4.46-4.45-12.96,3.12-11.54,8.33.27.99,1.21,1.81,2.29,1.6.39-1.3-.58-2.71.29-3.86.85-1.12,2.28-.42,2.88.55,1.61,2.58,1.53,9.05-.03,11.68-1.68,2.83-4.86.57-3.55-2.22-1.07-1.32-1.62.42-1.64,1.52-.07,3.2,4,4.79,6.71,4.4.2-1.36.69-.69,1.47-.98.57-.21.89-.88,1.01-.91.75-.15,2,.01,2.49.66,1.24,1.63-.44,2.79-.08,3.55.23.48,1.57,1.1,2.08,1.12,2.14.06,3.01-3.06,4.15-4.4,2.03-2.37,4.99.49,3.76,3.08,1,.51,3.18-.09,3.76-.98.19-.29.12-.78.33-1.07ZM107.53,151.29c-.32-.94.5-1.94.46-2.7-.02-.53-.36-.93-.36-1.19,0-.38.51-.86.61-1.38.12-.64-.34-1.61-.31-1.99.07-.96.69-2.64.64-3.62-.03-.54-.69-.91-.69-1.32,0-.32.62-.85.73-1.59.24-1.65-.44-2.28-.54-3.24-.07-.61.44-1.48.4-2.14-.06-.96-1.22-2.6-2.27-2.7-2.51,1.12-1.39,2.89-1.45,4.81-.03,1.03.08,4.32.02,4.83-.06.47-.57.76-.67,1.17-.33,1.33.46,3.09.45,3.96-.01.77-1.18,2.79-1.06,4,1.3.32,1.3.81.78,1.99l-1.3.04-.27,3.61c3.46-.82,1.2,3.12.27.41-1.28.51-.6,1.84-.81,2.8-.26,1.16-1.03,2.8-1.33,4.03,2.34.19,1.3,2.3-.53,1.48.07,2.1-1.65,3.65-1.88,5.76,1.68-.13,1.93,2.07.4,2.04-.88-.02-1.35-1.35-1.69.72-.07.4.17.88.07,1.14-.18.47-1.25.84-1.59,1.33-.31.44-.77,1.4-1.16,2.04-.93,1.51-2.29,3.39-1.79,5.2.46,1.7,3.52,4.14,5.1,4.81.74.32-.18-1.01.25-1.62.84-.69,1.63-.05,1.72.92l-1.3.97c.73.59,1.73.21,2.21.33,1.48.37,3.01,1.22,4.6,1.3,1.21-3.02,2.28.31,2.74.47.5.18,2.75.49,3.45.57,3.81.44,8.61.5,12.32.3.85-.05,1.67-.43,2.55-.29-2.4-1.56.22-3.25.68-1.36.19.78-.53.62-.68,1.09,1.26.56,2.5-.16,3.77-.4.38-3.56,1.79-.71,1.98-.7,1.02.01,1.95-.87,2.5-1,.47-.11.87.2,1.23.14.46-.07,1.3-.92,2.05-.73-.37-1.02-.39-1.58.78-1.91v-.31c-.57-2.27-2.01-4.01-3.32-5.84-.17-.24-.06-.72-.22-.98-.26-.42-1.75-1.02-2.06-1.29-.97-.86-1.83-2.43-3.25-3.45-.64-.46-4.64-2.58-5.05-2.28-.19.14-.16,1.18-1.23,1.08-.84-.08-.59-1.2-1.06-1.29-.81.43-1.92.01-2.64.19-.3.07-.21.75-.86.83-.74.09-1.7-.69-2.41-.71-1.39-.05-7.27,1.62-8.64,2.23-.55.24-.85.92-1.34,1.08-.21.07-2.61.09-2.87.05-.53-.1-1.11-.75-1.36-.74-.29.02-.95,1.43-1.76.37-1.15-1.52.73-1.24,1.04-1.55.12-.12.34-2.08.51-2.57.23-.66,1.3-2.34,1.32-2.87.01-.36-.64-.88-.41-1.56.21-.63,1.35-.4,1.59-.91.22-.47.12-1.48.29-2.01.08-.25.52-.26.71-1.21s0-3.01.1-3.39c.06-.23,1.09-.62,1.26-1.97.05-.42-.25-.84-.16-1.22s.63-.51.49-1l-1.16.24c-.79-.48-.79-1.32-.02-1.83l1.44.52Z"/>
        <path class="cls-1" d="M64.82,24.37c.63.43,1.27.93,1.96,1.39,6.89,4.55,14.08,7.5,21.92,10.77,1.87.78,4.1,1.33,6.24,2.07,5.65,1.96,11.04,3.14,16.61,4.87,2.64.82,5.88,1.04,8.67,1.78,3.16.84,6.04,1.18,9.41,1.67,2,.3,3.87.85,5.89.79,1.12-.04,1.29.7,1.6.7,4.45-.09,8.94.51,13.36.7.88.04,1.77-.28,2.48-.21,1.36.12,2.04.28,3.65.14,3.52-.3,7.03-.39,10.52-.66,1.33-.1.81-.43,2.55-.15.74.12,1.39-.31,1.83.89.7,1.91-.24,2.68-.65,4.31-1.32,5.18-2.78,10.48-4.3,15.53-1,3.3-1.27,6.63-4.54,8.59-1.39.83-3.52,1.55-5.11.92-.85-.34-1.35-1.35-1.8-1.67-2.76-1.95-7.33-2.46-10.54-1.16-1.77.72-3.62,3.46-3.51,5.32.03.49.59.84.72,1.38.21.88.07,1.79.46,2.76.88,2.21,2.25,2.06,2.51,5.26.37,4.61-2.29,8.63-5.16,11.78-3.49,3.84-6.97,5.27-12.18,5.92-2.38.3-12.1.84-14.07.35-.21-.05-.17-.53-.35-.55-.6-.07-1.03.47-2.04,0-.21-.1-.21-.53-.35-.53-.34,0-.65.38-.89.4-1.69.14-3.65-.6-5.23-.94-3.28-.71-5.34-.65-8.32-2-1.13-.51-4.44-.58-6.12-1.25-.41-.16-.55-.94-1.52-1.16-5.4-1.26-11-3.62-15.99-6.78-1.93-1.22-3.71-2.12-5.39-3.26-9.88-6.74-16.51-18.91-17.95-30.75-.31-2.55-.06-4.72-.07-7.17,0-1.44.53-3.13.53-3.75,0-.42-.65-.74-.54-1.58.15-1.07,1.64-3.99,2.04-5.45.21-.77.12-1.89.39-2.88,1.46-5.4,2.92-10.7,4.6-16.03,2.79-3.6,5.47-2.55,8.68-.36ZM61.34,33.3c.27-.95.99-5.25.59-5.9-.94-1.53-2.62-.3-3.23.97-2,4.11-3.28,11.28-4.69,15.94-.4,1.33-.76,1.55-.99,3.08-.12.84-.74.79.25,2.04,1.77,2.22,3.97.29,4.5-1.85,1.21-4.84,2.2-9.58,3.57-14.29ZM64.55,31.94c-.14.18-.49.18-.64.55-.14.34-1.15,4.41-1.15,4.77,0,2.3,2,3.18,3.3,1.4.95-1.3,2.44-6.62.85-7.67-1.16-.77-1.72.16-2.35.94ZM90.74,41.32c-1.37-1.69-1.82-.66-3.68-.75-1.82-.09-3.2-.27-4.85-.27-3.02,0-6.06.08-9.08.13-1.44.62-2.01,1.65-1.8,3.22.03.12,1.97,1.17,2.08,1.2.37.07.73-.19,1.01-.15,4.4.5,8.62.8,12.85.73.67-.01,1.27.52,1.85.48.09,0,1.59-.38,1.65-.45.73-.8.98-2.58.61-3.59-.13-.36-.51-.37-.65-.54ZM115.11,49.37c-.53-.29-1.78-1.42-2.42-1.73-1.67-.81-4.47-1.68-4.32,1.16.09,1.64,1.75,2.13,2.75,2.84,2.65,1.9,5.29,4.01,8.38,5.41.96.98,1.72,1.99,3.15,1.77,1.23-.19,2.3-.95,2.44-2.26.04-.4-.52-2.03-.81-2.28-.38-.33-.85-.17-1.12-.35-2.64-1.78-5.35-3.08-8.04-4.56ZM93.26,54.87c-.05-.07-1.4-.79-1.48-.82-1.95-.6-2.91,1.04-4.09,1.45-.7.24-2.51-.1-3.36-.1-.46,0-.76.39-1.22.36-1.49-.1-4.15-2.36-4.9-3.66-.36-.63-.57-1.88-1-2.48-1.84-2.56-4.58-.21-3.93,2.31.46,1.77,2.19,4.91,3.62,6.11,2.01,1.68,3.12,1.76,5.51,2.4.33.09.28.68.57.73.23.04,1.04-.27,1.64-.22.5.05.96.51,1.21.45.31-.08.61-.53.99-.63,1.48-.38,4.09-.53,5.41-1.3.08-.05,1.25-1.27,1.29-1.38.28-.68.15-2.74-.26-3.23ZM133.36,103.7c1.13-1.2.4-.93.71-2.11,3.88-14.85,9.01-30.46,11.9-45.18.23-1.16,1.13-2.93.13-3.86-.76-.71-1.91-.74-2.64.01-.2.21-1.65,3.57-1.82,4.08-.51,1.57-.64,3.27-1.13,4.55-1.32,3.5-1.85,7.49-2.82,11.04-2.44,8.94-5.16,17.63-7.77,26.51-.15.51.03,1.43-.22,1.99-.18.42-.75.39-.77.6-.01.15.88,2.72,1,2.81,1.18.9,2.53.49,3.42-.45ZM161.06,52.46c-.31-.32-1.76-.62-2.27-.4-1.4.59-1.09,1.43-1.44,2.28-1.4,3.39-2.37,7.45-3.26,10.72-.53,1.93-2.16,5.44-1.22,7.24.6,1.14,3.05,1.13,3.69-.01,1.01-1.81,1.34-5.55,1.95-7.63.11-.39.63-.62.68-.9.06-.33-.3-.78-.18-1.25.1-.36.65-.58.73-.91.1-.39-.27-.9-.19-1.49.19-1.3,1.51-3.81,1.75-5.64.06-.42,0-1.76-.25-2.01ZM150.31,52.75c-.21.02-1.56.59-1.65.72-.15,2.45-3.52,8.59-2.61,10.65s3.18,1.29,3.96-.46c.44-.99,2.06-8.01,2.02-8.97-.03-.57-.21-1.42-.73-1.71-.31-.11-.64-.27-.98-.24ZM101.82,57.57c-3.45-2.11-3.35,2.76-2.35,4.9,1.32,2.84,3.63,3.98,6.17,5.35.3.16.57.7.8.78.32.12.94-.21,1.47-.12,3.06.49,3.86.92,6.88-.41.87-.38,1.79-.2,3.14-1.13,3.55-2.44,2.54-7.02-1.83-5.3-1.38.54-3.11,1.81-4.73,2.23-2.59-.47-5.1-.53-7.23-2.45l-2.31-3.85ZM85.65,71.33c-.54-.61-.65-2.01-1.33-2.82-1.44-1.71-4.1-3.25-6.41-3.19-.34,0-4.19.67-4.38.79-.14.09-.16.75-.44,1.03-.24.24-.71.25-.9.44-2.66,2.65-3.76,5.12-4.05,8.82-.07.92-.28,3-.24,3.76.02.52,1.56,2.46,1.94,3.06.09.15-.1.51.05.79.42.79,3.17,1.95,4.07,2.09,1.53.24,2.48-.38,4.02.27.39.17.64.63.89.73.94.38.27-.52,1.6.81,1.2,1.19,1.29,1.11,1.95,2.6.1.23.73,1.43.79,1.48.11.09,2.6.84,2.74.84,1.4.04,2.02-1.23,1.93-2.48-.01-.13-.66-2.23-.73-2.37-.21-.43-1.09-.61-1.47-1.01-.48-.51-.71-1.49-1.29-2.06-.49-.48-1.35-.62-1.75-1.33-.46-.81-.19-1.52-.36-2.32-.25-1.17-1.07-1.38-1.93-2.08-1.6.36-4.01,1.98-5.59,1.83-3.98-.39-1.25-7.74.27-9.52.91-1.07,3.16-1.53,4.45-1.09,1.73.59,1.38,4.88,1.85,6.18,1.11,3.06,2.4.44,3.66.33.38-.03,2.41.85,3.06.99,2.35.52,3.98.26,6.27-.39l2.76-2.52c.07-.43-.62-2.53-.87-2.7-.08-.06-1.8-.54-1.9-.54-1.55.13-2.67,1.8-4.88,1.57-.54-.06-3.39-1.56-3.78-1.99ZM144.3,72.18c4.2,1.88,5.47-4.65,1.17-3.95-1.87.3-2.1,2.58-1.17,3.95ZM79.3,72.59c-1.1-.99-3.03-.65-3.95.37-1.66,1.84-1.92,6.74,1.63,5.87.61-.15,1.6-.75,1.99-1.25.16-.2,1.36-2.65,1.38-2.8.04-.38-.74-1.92-1.05-2.2ZM96.21,81.4c-.08-.13-1.61-.82-1.9-.91-3.57-1-2.48,4.07.19,3.8,1.25-.13,2.35-1.78,1.71-2.89ZM88.95,82.2c-2.11.65-.76,5.6,1.28,5.71,3.87.2,1.41-3.35.8-5.21-.35-.53-1.5-.68-2.08-.5Z"/>
        <path class="cls-1" d="M13.73,174.87c-.48-1.86-.87-2.67.58-4.38,1.02-1.2.77-.51,1.47-2.05.49-1.08,1.54-.6,1.93-.84.13-.08.19-.72.46-1.01,1.45-1.57,2.87-1.75,4.49-2.68.28-.16.57-.81,1.29-1.19s1.61-.4,2.25-.96l.15.78,1.32.03.04-1.03c1.34-.75,2.65.16,3.98-.31l-.27,1.34,1.09-.11.25-1.22c1.48.71,2.7.34,3.94,1.57.58.28,1.06-.72,1.28-.72.07,0,.74.58,1.15.72.52.18,1.42.14,1.73.31.57.3,2.09,1.56,2.91,1.99.7.36,1.62.82,2.39.96-.85,2.97,1.49,1.35,1.89,1.45s.72.61,1.08.81c.56.31,1.18.77,1.47.92,1.57.83,2.69.74,4.4.84l-.27-1.6c1.64.09,1.41-2.55,1.9-3.81.09-.24.42-.25.55-.59.23-.57,1.19-3.48,1.34-3.6.28-.23,1.13.24,1.46-.84.26-.85-.56-1.04-.39-1.94.06-.29,1.48-4.38,1.61-4.59.33-.56,1.11-.4,1.28-.88.19-.56-.26-1.25-.2-1.4.01-.03.46-.04.58-.37.14-.41-.16-.88-.03-1.33.48-1.61,1.89-3.61,2.23-4.77.13-.45-.11-1.02.14-1.72.94-2.67,2.39-5.14,2.94-7.93l1.15.23c.73-.38,1.08-.97.28-1.56-.44-.33-1.02.29-.87-.39.43-1.91,2.5-3.5,2.12-5.52,2.99.17.79-1.81.8-2.27,0-.26,1.44-3.3,1.69-3.54.51-.48,1.64-.7,2.32-.61-.3,1.66.94,1.06,1.49,1.6.2.19.6,1.51.6,1.81,0,.34-.37.58-.37.75,0,.33.96.81-.09,1.21-.31-1.51-1.49-.71-1.59.37.38.65.95.63,1.58.43-.24,2.24-2.15,3.77-2.15,6.15h-1.6c-.43,1.05.77,1.3.82,1.53.19.84-2.05,4.55-2.14,5.8l-1.34.47c-.25.76.5,1.17.42,1.86s-1.54,4.45-1.92,5.08c-.29.48-1.06.6-1.17.99-.15.54.77,2.49-.56,3.04.16-.82-.4-.92-.98-1.3l-.59.4.22,1.32c.61.44,1.55-.59,1.36.25-.13.55-.69,1.2-.91,1.77-.53,1.41-.82,2.9-1.52,4.25l-1.57-.24c-.08.34-.37.81-.28,1.15.27,1,1.43-.31,1.31.55-.11.79-.69,1.4-.92,2.03-.46,1.27-.83,2.72-1.21,4.02l-1.31-.25c-.67.97.14,1.36.25,2.01.18,1.11-.79,1.68-1.01,2.46-.17.57-.05,1.16-.27,1.87-.34,1.06-1.59,1.95-1.64,2.12-.11.38.35,1,.18,1.76-.21.96-1.69,4.25-2.35,4.91-.96.96-2.38,1.49-3.62,2.01-.54-.08-.02-1.57-.43-1.85-.56-.39-1.74.46-1.47,1.05.33.73,1.35.24,1.49.8-.73.1-1.35.65-2.07.75-.39.05-.79-.19-1.2-.13-2.49.32-6.19.6-8.66.41-1.26-.09-2.56-.28-3.79-.39-1.36-.12-2.74-.24-4.11-.37.91-1.1.54-2.84-1.08-2.01-.71.37-.2,1.44-1.46,1.5-2.17.1-1.91-1.4-2.45-1.6-1.34-.5-1.19.75-1.78.73-1.21-.66-5.16-1.03-5.68-2.12-.38-.77.31-1.32-1.19-1.02l-.03.77-.36-.03c-3.22-1.2-3.88-1.52-4.73-4.79.3.67,1.99.87,1.56-.62-.35-1.24-1.93-.19-1.56.62ZM73.26,124.72c1.98.89,2.32-2.09-.04-1.57l.04,1.57ZM74.81,129.83c.6-1-.79-2.29-1.47-1.33-.79,1.12,1.11,1.92,1.47,1.33ZM70.85,132.23c.46.72,2.1-.26,1.84-1.16-.3-1.05-2.72-.23-1.84,1.16ZM65.99,147.54l1.34-.41-.67-1.2-.66,1.61ZM64.62,150.19c.28-.17.65-1.65-.39-1.86-1.62-.33-1.08,2.77.39,1.86ZM64.88,155.01c.5-.3.16-2.14-.87-1.82s-.62,2.72.87,1.82ZM61.31,155.85c-.75.22-.43,2.03.26,2.08,1.63.12,1.06-2.48-.26-2.08ZM35.11,163.68l-3.76-.79-5.95,1.53-.15-.78c-1.72-.25-1.94.47-1.17,1.85-.92,1.18-1.91.32-2.56.65-.61.31-.38,1.03-.62,1.41-.46.71-2.91,2.05-3.34,2.82-.16.28-.03.7-.06,1.02l-1.07-.27-.55,4.12c1.95.74.78.71.41,1.51-.78,1.67,2.62,1.82,1.49-.81,1.45.87,2.28-1.2,3.03-1.79,1.27-1.02,2.99-1.67,3.8-3.3l4.16-2.14c-.69,1.05.31,1.78,1.35,1.49.33-.24.32-.68.22-1.04-.19-.65-.95-.47-1.03-.98.79-.57,2.23-.18,2.76-.31s.56-.8.79-.96c.37-.25,1.47-.13,1.74-.4.14-.14,1.13-2.53.53-2.82ZM40.23,164.38c0-.46-.37-.82-.82-.82s-.82.37-.82.82.37.82.82.82.82-.37.82-.82ZM60.01,164.42c0-.44-.36-.8-.8-.8s-.8.36-.8.8.36.8.8.8.8-.36.8-.8ZM37.56,167.61c.63-.37-.28-2.19-1.29-1.55-.81.51.07,2.28,1.29,1.55ZM41.51,166.07l-.96.89c.72,1.11,1.95,1.4,2.11-.23l-1.15-.66ZM35.4,169.4c0-.5-.41-.91-.91-.91s-.91.41-.91.91.41.91.91.91.91-.41.91-.91ZM39.09,168.46c-.95.29-.71,2.23.71,1.82,1.46-.42.1-2.06-.71-1.82ZM45.03,170.26c1.09-1.61-1.61-2.77-1.58-.88.01,1.02,1.23,1.41,1.58.88ZM59.81,168.46c-2.31-.37-1.7,3,.16,1.32l-.16-1.32ZM41.1,172.96c1.14.27,1.9-.14,1.52-1.38-.49-1.61-2.5.12-1.52,1.38ZM30.29,174.12c-.15-.26-1.56-.59-1.84-.97-.59-.77.1-2.49-2.09-2-.46.44.09,1.64-.05,1.82-.17.24-2.24.81-2.34.89-.12.1-1.22,2.3-1.54,2.61s-1.32.34-1.2.94c.13.66,1.01.11,1.06.15.1.08.1.86.34,1.01s.9-.05,1.17.3c.07.1-.32,1.56.51,1.87,1.91-.52-.26-2.79,1.92-3.12.37-.05.79.33,1.17.07v-1.48c.92.23,1.18-.6,1.54-.78.5-.25,2.08-.01,1.34-1.31ZM32.76,172.73l-.25-1.49h-1.11s-.14,1.24-.14,1.24l1.49.25ZM36.01,172.69c.57.35,2.04-.08,1.45-1.04-.74-1.21-2.45.42-1.45,1.04ZM47.93,172.06c0-.55-.44-.99-.99-.99s-.99.44-.99.99.44.99.99.99.99-.44.99-.99ZM52.31,172.99c1.27-2.93-2.31-1.86-1.47-.52l1.47.52ZM33.59,175.12c2.54,1.23,1.68-2.5.27-1.55-.12.08-.41,1.35-.27,1.55ZM39.98,173.55c-1.5-.27-2.01.5-1.57,1.83h1.56s0-1.83,0-1.83ZM45.08,175.41l-.25-1.76c-1.24-.28-1.69.35-1.24,1.51l1.49.25ZM50.16,174.47c0-.5-.41-.9-.9-.9s-.9.41-.9.9.41.9.9.9.9-.41.9-.9ZM55.3,174.59c0-.56-.45-1.01-1.01-1.01s-1.01.45-1.01,1.01.45,1.01,1.01,1.01,1.01-.45,1.01-1.01ZM42.76,176.95c0-.49-.4-.89-.89-.89s-.89.4-.89.89.4.89.89.89.89-.4.89-.89ZM52.32,176.22c-1.84-.17-4.21-.87-4.31,1.73-.05,1.21.18,2.97,1.71,2.5.1-.03,1.73-1.08,1.8-1.15.32-.35,1.1-2.79.8-3.08ZM55.87,177.75c.89.86,1.85.11,1.49-1.08-.49-1.6-2.46.14-1.49,1.08ZM32.87,177.15c0-.53-.43-.96-.96-.96s-.96.43-.96.96.43.96.96.96.96-.43.96-.96ZM37.55,176.25l-1.46.21c-1.81,1.4,2.37,3.26,1.46-.21ZM47.55,177.02c0-.47-.38-.86-.86-.86s-.86.38-.86.86.38.86.86.86.86-.38.86-.86ZM55.14,179.57c0-.54-.44-.98-.98-.98s-.98.44-.98.98.44.98.98.98.98-.44.98-.98ZM30.4,179.7c0-.47-.38-.86-.86-.86s-.86.38-.86.86.38.86.86.86.86-.38.86-.86ZM35.32,179.66c0-.47-.38-.86-.86-.86s-.86.38-.86.86.38.86.86.86.86-.38.86-.86ZM47.47,183.16c.3-.82.61-1.47-.32-1.92-1.52-.74-2.1,2.36.32,1.92ZM37.9,182.11c0-.47-.38-.86-.86-.86s-.86.38-.86.86.38.86.86.86.86-.38.86-.86ZM42.63,182.88c.14-.23.08-1.09-.08-1.32-1.12-1.63-2.79,2.56.08,1.32Z"/>
        <path class="cls-1" d="M107.53,151.29l-1.44-.52c-.77.51-.78,1.35.02,1.83l1.16-.24c.15.49-.4.64-.49,1s.22.8.16,1.22c-.17,1.35-1.2,1.74-1.26,1.97-.1.38.08,2.48-.1,3.39s-.63.96-.71,1.21c-.17.52-.08,1.54-.29,2.01-.24.51-1.38.28-1.59.91-.23.68.43,1.2.41,1.56-.02.54-1.09,2.21-1.32,2.87-.17.49-.39,2.45-.51,2.57-.31.31-2.19.04-1.04,1.55.81,1.07,1.47-.34,1.76-.37.25-.02.83.64,1.36.74.26.05,2.66.02,2.87-.05.49-.16.79-.83,1.34-1.08,1.37-.61,7.25-2.28,8.64-2.23.71.02,1.67.81,2.41.71.65-.08.56-.76.86-.83.72-.18,1.84.24,2.64-.19.47.09.22,1.21,1.06,1.29,1.07.1,1.04-.94,1.23-1.08.41-.3,4.41,1.81,5.05,2.28,1.42,1.03,2.28,2.59,3.25,3.45.31.27,1.8.88,2.06,1.29.16.25.05.73.22.98,1.31,1.84,2.75,3.57,3.3,5.84v.31c-1.16.33-1.14.89-.77,1.91-.76-.2-1.59.66-2.05.73-.36.05-.75-.26-1.23-.14-.55.13-1.48,1.01-2.5,1-.19,0-1.6-2.86-1.98.7-1.26.24-2.5.96-3.77.4.15-.47.86-.31.68-1.09-.45-1.89-3.07-.2-.68,1.36-.88-.14-1.69.25-2.55.29-3.72.2-8.51.15-12.32-.3-.69-.08-2.94-.39-3.45-.57-.46-.17-1.53-3.49-2.74-.47-1.6-.08-3.13-.93-4.6-1.3-.48-.12-1.49.26-2.21-.33l1.3-.97c-.08-.96-.88-1.6-1.72-.92-.43.61.49,1.93-.25,1.62-1.58-.68-4.64-3.11-5.1-4.81-.49-1.81.86-3.69,1.79-5.2.39-.64.86-1.6,1.16-2.04.34-.49,1.42-.86,1.59-1.33.1-.26-.13-.74-.07-1.14.33-2.07.8-.74,1.69-.72,1.52.03,1.28-2.17-.4-2.04.23-2.11,1.95-3.66,1.88-5.76,1.83.82,2.87-1.29.53-1.48.3-1.23,1.07-2.87,1.33-4.03.22-.96-.47-2.29.81-2.8.93,2.71,3.2-1.23-.27-.41l.27-3.61,1.3-.04c.52-1.17.52-1.67-.78-1.99-.12-1.21,1.05-3.23,1.06-4,.01-.86-.78-2.63-.45-3.96.1-.41.61-.7.67-1.17.07-.52-.04-3.8-.02-4.83.05-1.92-1.06-3.68,1.45-4.81,1.05.09,2.21,1.74,2.27,2.7.04.67-.47,1.53-.4,2.14.1.96.78,1.59.54,3.24-.11.74-.73,1.27-.73,1.59,0,.41.66.79.69,1.32.05.97-.57,2.66-.64,3.62-.03.38.43,1.35.31,1.99-.1.52-.61,1-.61,1.38,0,.26.34.66.36,1.19.03.76-.78,1.75-.46,2.7ZM105.72,132.19c.14.15.53.31.74.22,1.18-1.11.26-1.83-1.08-1.21-.09.14.19.84.34,1ZM107.37,136.47c0-.59-.48-1.07-1.07-1.07s-1.07.48-1.07,1.07.48,1.07,1.07,1.07,1.07-.48,1.07-1.07ZM105.82,140.86c-1.01.33-.16,1.78.5,2.11l.91-1.41c-.23-.53-.83-.89-1.41-.7ZM105.69,145.97c-.72.45.16,2.17,1.31,1.45,1.24-.78-.45-1.98-1.31-1.45ZM104.58,160.4l-.13-1.62c-.85-1.29-2.68,1.81.13,1.62ZM101.5,165.82c-1.26-.12-1.26,2.41,0,2.29.88-.08.88-2.21,0-2.29ZM122.21,172.68c.65-1.12-1.59-2.62-2.06-.83-.27,1.03,1.47,1.85,2.06.83ZM111.79,171.42l-1.06-.18-.22,1.45,1.03.31.25-1.58ZM115.59,172.97c.82.57,2.28-1.06,1.33-1.73-1.14-.8-2.13,1.17-1.33,1.73ZM126.82,171.12c-.68-.16-1.85.09-1.78.94.02.29.6.45.44.93-1.68-.44-3.58-.51-4.5,1.14.17,2.06,1.52,1.97,2.95,2.69.54.27,1.43,1,1.84,1.13.71.24,1.1-.53,1.71.96.2.48-.16,1.11.54,1.61.75.54,1.57-.51,2.18.51l-.09,1.81c.66.61,1.85-.17,2.88.75l.27.26c-.46.38-.73.91-.41,1.49.46.64,1.78.09,1.77-.68l-.55-.93c.69-.62,2.74-.81,2.92-1.53.25-1-.84-.93-1.21-1.25-1.45-1.28-1.84-2.98-3.6-4.31-.56-.42-1.95-.85-2.32-1.3-.35-.42-.29-1.39-.88-1.69-.52-.26-1.68.43-2.4-.13l.26-2.4ZM98.6,173.56c-1.23.31-.71,2.21.69,1.81,1.42-.4.19-2.03-.69-1.81ZM104.58,175.41c.09-.73.02-1.73-.9-1.86-.59.33-.84.91-.68,1.57l1.58.29ZM107.82,173.83c-.57.82,1.06,2.28,1.73,1.33.8-1.14-1.17-2.13-1.73-1.33ZM114.46,173.84c-1.98-.89-2.32,2.09.04,1.57l-.04-1.57ZM119.56,174.47c0-.51-.41-.92-.92-.92s-.92.41-.92.92.41.92.92.92.92-.41.92-.92ZM116,175.96c-1.27.5-.6,2.45.49,2.12.78-.23.48-2.15-.49-2.12ZM102.25,177.07c0-.49-.4-.89-.89-.89s-.89.4-.89.89.4.89.89.89.89-.4.89-.89ZM107.35,177.12c0-.53-.43-.96-.96-.96s-.96.43-.96.96.43.96.96.96.96-.43.96-.96ZM111.98,177c0-.44-.35-.79-.79-.79s-.79.35-.79.79.35.79.79.79.79-.35.79-.79ZM104.58,178.9c-1.54.38-2.54-1.02-4.02-.4-.9.38-.45.81-2.08.3-1.51,1.44.55,1.5,1.13,1.97.94.78.67,2.17,2.81,2.82,1.39.42,2.71-.46,2.41-1.87-.09-.41-.48-.71-.5-1.08-.03-.48.41-1.17.24-1.76ZM93.49,178.65c-.64.15-.78,1.35-.17,1.73.52.43,1.7-.17,1.6-.78-.21-.37-1.05-1.04-1.43-.95ZM109.37,178.93l-.87-.25c-.64.3-.96.83-.47,1.44.25.31.86.22.83.64-.85-.41-1.17.54-1.25.55-.5.09-1.05-.34-1.51-.24-.85.19-1.01,1.58-.18,1.98l1.32-.15c.46.73.48,2.91,1.49,2.84,1.19-.09.8-1.39,1.2-1.65.29-.19.88-.01,1.05-.17.11-.1-.02-.52.09-.68.21-.3.94-.15,1.03-.52.43-1.75-1.82-1.48-2.96-2.25l.24-1.56ZM119.53,179.57c0-.5-.41-.9-.9-.9s-.9.41-.9.9.41.9.9.9.9-.41.9-.9ZM124.6,179.63c0-.51-.41-.92-.92-.92s-.92.41-.92.92.41.92.92.92.92-.41.92-.92ZM123.1,185.57c.7.49,1.44-.73,1.93-.73s1.45.69,1.98.7c.34,0,.58-.38.75-.38.24,0,.63.63,1.31.42l.45-1.19-2.97-3.48-2.94-.14c-.04,1.14-.69,2,.27,2.95-1-.11-1.35,1.46-.78,1.85ZM97.38,182.09c0-.53-.43-.96-.96-.96s-.96.43-.96.96.43.96.96.96.96-.43.96-.96ZM117.12,182.08c0-.5-.41-.91-.91-.91s-.91.41-.91.91.41.91.91.91.91-.41.91-.91ZM122.14,182.11c0-.49-.4-.89-.89-.89s-.89.4-.89.89.4.89.89.89.89-.4.89-.89ZM114.5,184.6c0-.44-.35-.79-.79-.79s-.79.35-.79.79.35.79.79.79.79-.35.79-.79ZM119.28,185.29c.65-.41-.07-2.07-1.04-1.45-1.21.77.05,2.08,1.04,1.45ZM104.68,184.81c0-.42-.34-.77-.77-.77s-.77.34-.77.77.34.77.77.77.77-.34.77-.77ZM111.82,186.4h-1.34c-.08.79-.02,1.42.68,1.88.8.17.71-1.39.67-1.88ZM117.17,187.73l-.72-1.31c-2.07.3-.9,2.14.72,1.31Z"/>
        <path class="cls-1" d="M118.51,13.81c-1.31.15-1.51-.28-2.36-.46-.45-.09-1.03.18-1.48-.11-.67-.43-.32-1.33-.85-1.58-.86-.39-.75,1.09-1.55,1.01-3.44-.91-6.79-1.93-10.37-1.82.93-1.77-1.07-2.42-1.5-.51-.78-.19-1.87-.02-2.59-.35-.72-.34-.57-1.06-1.14-1.04-1.48.75-2.31.97-4.01.82-1.81-.16-4.62-1.01-6.5-.99-.39,0-.71.46-1.27.49-3.53.18-6.51-.16-9.84.61-.13.03-2.09.19-2.21.18-.2-.01-.24-.48-.44-.66-.95-.83-2.24.33-1.6,1.46-.96-.58-1.6.27-2.56.52-3.11.82-6.58,1.44-5.21-3.2l1.61.14c.53-.32.27-1.08.33-1.16.35-.46,4.55-1.64,5.19-1.65.63-.01,1.08.5,1.46.41.78-.18,2.19-1.15,3.38-1.15.69,0,1.06.74,1.51.69.38-.04.73-.55,1.16-.67.13-.03,2.47-.11,2.6-.09.29.04.34,1.07,1.1,1.07s.82-1.05,1.12-1.1c.11-.02,2.03.09,2.25.12.78.13.78.72,1.18.73.81.02,1.25-.53,2.14-.59,1.48-.1,2.48.82,3.23.81.45,0,.95-.49,1.61-.54,1.03-.08,2.41.46,3.48.56.9.08,1.47.08,2.48.2,1.43.17,2.94.4,4.35.34l-.55,1.46c.09.99,1.67,1.19,2.14.23l-.11-1.43c.76.2,1.93.04,2.62.33.6.25.88,1.57,1.67,1.57.65,0,.4-.77,1.06-.85,1.81-.22,3.19,1,3.76,1.01.39,0,1.2-.68,2.01-.18.32.34-1.23,1.22-.56,2.22s2.6-.03,1.9-1.15c.4.06,2.78.25,2.9.34s.2.53.44.74c.99.84,1.04.1,1.62.11.17,0,.36.27.52.28,1.55.07,2.63-.18,4.16.82.92.6.99,2.17,2.5,1.69.38-.12.62-.68.9-.73.26-.05.52.33.77.36,1.64.19,2.79.69,4.42.95l-.29,1.43c.83.74,1.66.48,1.93-.6l.37-.05c.91.96,1.59.48,2.45.76.46.15,2.05.72,2.34.9.89.54-.06,1.98,1.23,2.25.93.19,1.1-1.23,1.75-1.23.11,0,1.81.6,2.01.69.32.14.5.63.82.78,1.04.5,2.22-.14,2.14,1.75,1.72-.44,1.98-.62,3.67.22.66.33,3.15,1.51,3.49,1.74.22.14.25.7.6.87.59.29,1.91-.11,2.11.85.1.49-.53,1.15.31,1.56,1.33.64,1.11-.78,1.7-.64.59.16.95.73,1.43,1,2.86,1.6,6.29,3.26,7.92,6.29,1.48,2.77-1.17.82-1.54,2.58-.15.72,1.42,1.66-1.28,1.1l-.19-.78c-2.08.31-1.35-.51-1.98-1.11-.91-.86-2.56.02-2.05-2.64-1.47-.9-1.83,1.01-3.17-.05l.76-1.51-.77-1.04c-1.03-.29-.94.76-1.08,1.35-.28,1.19-.63-.2-.86-.33-.97-.56-2.22-1.29-3.35-1.87-1.07-.56-1.4.18-1.66-1.55-4.01.18-1.57-.99-1.92-2.08-.4-1.24-2.63-.47-2.39.89l-.36-.04c-1.18-.77-3.63-1.21-4.57-2.14-.63-.62-.45-1.35-1.15-1.82-.75-.24-1.11.62-2.03.47-.5-.08-3.89-1.43-4.42-1.75-.47-.29-.53-.84-1.14-1.03-.66-.21-2.29-.08-3.35-.39s-3.26-1.95-3.82-2.11c-.58-.17-1.18.37-1.76.2-.36-.11-.57-.64-.92-.73-1.17-.27-2.91-.2-4.18-1.1-.36-.25-.41-.93-.91-1.06-.72-.19-1,.7-1.29.72s-1.19-.74-1.48-1.01c2.43-.28,1.31-3.19-.42-2.16-1.26.76-.27,1.52.42,2.16ZM68.84,6.32c-1,.29-.9,2.54.71,2.09,1.49-.42.24-2.37-.71-2.09ZM73.94,6.34c-2.45,2.38,2.18,3.65.76.24l-.76-.24ZM94.92,7.37c0-.59-.48-1.07-1.07-1.07s-1.07.48-1.07,1.07.48,1.07,1.07,1.07,1.07-.48,1.07-1.07ZM99.83,7.38c0-.55-.45-.99-.99-.99s-.99.45-.99.99.45.99.99.99.99-.45.99-.99ZM85.09,7.55c0-.56-.45-1.01-1.01-1.01s-1.01.45-1.01,1.01.45,1.01,1.01,1.01,1.01-.45,1.01-1.01ZM89.96,7.53c0-.52-.42-.95-.95-.95s-.95.42-.95.95.42.95.95.95.95-.42.95-.95ZM66.44,9.02c-1.4.36-.52,2.36.9,1.45.56-.36-.09-1.66-.9-1.45ZM106.95,9.3c-.83-.52-1.58-.14-1.57.89l1.61.41-.04-1.3ZM111.79,9.02c-.69-.43-2.11.61-1.19,1.59,1.35,1.44,1.86-1.16,1.19-1.59ZM124.64,12.46c0-.51-.42-.93-.93-.93s-.93.42-.93.93.42.93.93.93.93-.42.93-.93ZM131.6,16.17l.56-1.36-1.15-.98-.91,1.42c.17.77.7,1.21,1.5.93ZM127.02,15.05c0-.51-.42-.93-.93-.93s-.93.42-.93.93.42.93.93.93.93-.42.93-.93ZM137.56,18.62l1.34.14c1-.81.54-1.94-.46-2.52-1.14.22-.94,1.52-.88,2.37ZM133.02,16.53c-.48.3-.79,2.26.57,2.07,1.99-.27.6-2.82-.57-2.07ZM141.76,20.98c1.05-1.05-.84-3.06-1.67-1.26-.57,1.24.85,2.09,1.67,1.26ZM146.03,18.95c-1.77.15-.85,3.35.63,1.98.81-.75.11-2.04-.63-1.98ZM153.27,21.62c-1.04.31-1.39,2.17.2,2.12,1.29-.11,1.43-2.59-.2-2.12ZM149.46,22.75c0-.56-.45-1.01-1.01-1.01s-1.01.45-1.01,1.01.45,1.01,1.01,1.01,1.01-.45,1.01-1.01ZM154.96,25.87c3.16.65,1.53-2.77.4-1.61l-.4,1.61ZM159.32,27.66c0-.5-.4-.9-.9-.9s-.9.4-.9.9.4.9.9.9.9-.4.9-.9ZM163.17,26.69c-1.02.56-.96,1.82.2,2.11,1.02-.56.96-1.82-.2-2.11ZM166.71,30.29c0-.54-.43-.97-.97-.97s-.97.43-.97.97.43.97.97.97.97-.43.97-.97ZM169.15,32.85c0-.59-.48-1.07-1.07-1.07s-1.07.48-1.07,1.07.48,1.07,1.07,1.07,1.07-.48,1.07-1.07Z"/>
        <path class="cls-1" d="M158.79,145.47c-.21.29-.14.78-.33,1.07-.58.89-2.76,1.49-3.76.98,1.23-2.58-1.73-5.44-3.76-3.08-1.14,1.33-2.02,4.45-4.15,4.4-.51-.01-1.86-.64-2.08-1.12-.36-.76,1.32-1.92.08-3.55-.49-.65-1.74-.81-2.49-.66-.13.02-.44.7-1.01.91-.78.29-1.27-.38-1.47.98-2.72.39-6.79-1.2-6.71-4.4.03-1.1.57-2.84,1.64-1.52-1.32,2.79,1.87,5.04,3.55,2.22,1.56-2.63,1.64-9.1.03-11.68-.61-.97-2.03-1.68-2.88-.55-.87,1.15.1,2.57-.29,3.86-1.08.21-2.02-.61-2.29-1.6-1.42-5.21,7.08-12.78,11.54-8.33.78.77.94,1.63,1.59,2.43,1.49,1.83,6.22,4.51,8.44,5.49.89.39,2.94.68,3.9,1.18.32.17,1.39.86,1.6,1.08,1.35,1.42,2.01,6.02,1.41,7.85-.6,1.85-1.58,2.7-2.54,4.02ZM146.85,132.58c-.57.12-1.25.72-1.42,1.28.05,1.42-1.7,6.07.56,6.45,2.12.36,3.25-3.33,3.31-4.98.06-1.52-.74-3.09-2.46-2.74ZM153.55,134.74c-.47.13-1.27.78-1.42,1.26-.27.82-.4,4,.14,4.72,2.72,3.65,5.82-7.18,1.29-5.98Z"/>
        <path class="cls-1" d="M188.61,75.34c-.69,1.38-1.65,3.5-3.18,4.58-.33.23-.99.16-1.2.41-.37.43-.37,1.38-1.43,2.18-2.22,1.69-3.46,1.75-5.85,2.46-.7.21-.94,1.05-1.26,1.16-.61.2-1.11-.22-1.58-.21-.44.01-.75.39-1.1.42-.75.05-2.51.17-3.12.03-.46-.11-1.96-1.87-2.18-2.38-.92-2.13,1.63-6.37,2.45-8.5.53-1.38.6-3.1.99-4.36.08-.25,2.08-4.3,2.29-4.61,1.21-1.8,3.67-3.55,5.83-3.89,1.17-.18,5.37,0,6.42.41,2.94,1.16,4.82,5.12,4.3,8.17-.15.91-.88,1.35-.97,1.73-.21.89.38.79-.42,2.39Z"/>
        <path class="cls-1" d="M191.31,56.52c.92.5.63.3,1.44.6,1.34.5,1.69,1.77,1.92,1.93.2.14.74.03,1.17.3,2.37,1.49,3.74,7.34,3.5,10.02-.18,1.94-.68,3.36-1.35,5.02-.26.65-.62,2.66-1.02,3.13-.23.27-.95.26-1.01.34-.06.09.24,1-.23,2.05-.72,1.62-1.35.98-1.86,1.49-.34.34-.18,1.13-.4,1.48-.17.26-3.79,4.32-4.16,4.63-.49.42-2.19,1.21-2.39,1.42-1.67,1.76-2.78,2.7-4.83,3.95-2.05,1.25-3.63,1.86-5.67,2.55-.93.31-1.92,1.44-2.72,1.62-.91.21-1.45-.64-1.76.39-3.62-.33-4.59-3.76-.46-4.51.61-.11,1.9.03,2.74-.18.78-.19,1.69-.84,2.59-.94,1.92-.2.93.42,2.71-.55,3.7-2.02,7.58-4.36,10.26-7.64.8-.98,3.68-4.75,4.13-5.78,1.58-3.64,1.99-9.48.82-13.25-1.25-4.05-7.95-7.18-11.89-7.49-.9-.07-3.82,1.09-3.79-.55.03-1.45,3.3-2.03,4.42-2.03,1.7,0,6.28,1.17,7.81,1.99Z"/>
        <path class="cls-1" d="M150.14,86.44c-1.07-.59-1.23-.92-1.87-2.01.62-.22,1.3-.37,1.21-1.21l-1.08-.81-1.07.81c-1.83-1.76,0-4.28,2.38-3.23.42,3.1,1.44,1.3,2.13,1.39.25.03,3.12,2.34,3.26,2.65.47,1.04-.95,2.58.85,2.85.42.06.95-.42,1.3.08.68.68-.02,1.45.15,1.98.18.57,1.12.25,1.57.86.18.24,2.37,5.26,2.16,5.47-1.77-.16-1.2,2.34.26,1.62,1.22,4.6,1.1,9.45.55,14.2-1.01-1.48-2.92-.07-1.76.82.83.64,1.51-.45,1.5.39.1,1.09-1.78,3.52-1.84,3.8-.14.61.7,1.79-.44,2.47-1.7-1.66-1.83,1.69-3.24.04-1.26-1.49.28-1.29.45-1.52.39-.54-.04-2.62,0-3.42.17-3.29.71-6.36.42-9.65-.16-1.79-.38-2.75-1-4.33-.09-.23-.57-2.7-.5-2.82,1.35.57,1.85-1.28.61-1.56-.6-.14-.87.58-1.55-.32-.55-.73-.1-1.09-.27-1.6-.11-.34-1.9-3.62-2.1-3.93-.73-1.1-1.75-1.01-2.06-3.03.37.2.84.89,1.21.28l.12-1.62c-1.28-.08-1.5.25-1.34,1.34ZM154.21,88.41c0-.51-.42-.93-.93-.93s-.93.42-.93.93.42.93.93.93.93-.42.93-.93ZM155.69,89.95c-1.7.44-.61,2.52.71,2.09s.37-2.37-.71-2.09ZM159.17,93.49c0-.53-.43-.96-.96-.96s-.96.43-.96.96.43.96.96.96.96-.43.96-.96ZM159.3,98.72c0-.52-.42-.95-.95-.95s-.95.42-.95.95.42.95.95.95.95-.42.95-.95ZM160.51,100.42c-.89.25-.89,1.26,0,1.52,1.59.46,1.6-1.97,0-1.52ZM158.35,102.54c-.66.12-1.47,1.48-.44,1.99,1.88.93,1.58-2.19.44-1.99ZM161.86,106.23c0-.57-.46-1.03-1.03-1.03s-1.03.46-1.03,1.03.46,1.03,1.03,1.03,1.03-.46,1.03-1.03ZM157.43,109.17c.47.81,1.99.55,1.78-.58-.22-1.22-2.56-.76-1.78.58ZM157.43,114.26c.41.7,1.94.71,1.7-.51-.29-1.47-2.41-.71-1.7.51Z"/>
        <path class="cls-1" d="M28.39,36.41c.15.09,2.56,2.01,2.68,2.14,1.01,1.05,1.7,3.2,1.65,4.63,0,.22-1.5,3.06-1.72,3.33-.72.89-2.25,2.15-3.32,2.53-3.39,1.19-7.37.34-10.92,1.44-1.7-.44-7.73-2.61-4.9-5.16.7-.63,1.14-.08,1.7-.17,1.3-.2,2.67-.88,3.8-1.57.25-.15.24-.62.6-.8.29-.14,1.38-.29,1.73-.23,1.15.18,4.66,1.79,5.7,1.82.11,0,1.83-.27,2.07-.32,1.81-.36,2.81-2.74,1.2-3.88-.11-.08-2.3-.78-2.55-.83-2.08-.38-3.54.06-5.59-1.49-.75-.57-1.89-2.05-.46-2.54.15-.05,2.84-.25,3.14-.23.74.05,4.57.98,5.18,1.34Z"/>
        <path class="cls-1" d="M78.39,23.67c-.08-.04-.11-.39-.27-.47-1.91-.99-3.1-1.14-3.26-3.67-.2-3.01,4.48-4.28,6.88-4.58,6.4-.8,16.18-.31,22.27,2.52,1.03.48,1.62.81,2.14,1.89.21,1.36-3.39,1.09-4.21.98-2.42-.34-5.63-1.47-7.99-1.68-2.67-.24-5.99-.06-8.71-.17-1.55-.06-5.29-1.19-6.25.44-.48.81-.42,1.5.41,1.98,4.3,2.46,10.3,3.38,14.64,5.46.78.37,1.38,1.22.2,1.41-.44.07-2.78-.28-3.36-.4-2.77-.58-10.29-2.56-12.51-3.69Z"/>
        <path class="cls-1" d="M68.3,99.67c14.13,8.16,26.52,11.81,42.54,13.63,1.34.15.55.29,2.46.21,1.36-.05,2.84.67,4.12.52.46,1.77-.28,1.26-1.16,1.44-3.72.74-9.19-.05-13-.75-6.72-1.22-16.11-2.64-22.55-5.38-.53-.23-.91-.8-1.27-.9-.44-.12-.92.22-1.34.04-.52-.22-.61-.86-.88-1.03-.29-.18-.73.15-1.07.03-1.67-.57-7.61-4.05-8.96-5.25-.87-.77-2.07-1.87-1.22-3.08.93-.61,1.49.03,2.32.51Z"/>
        <path class="cls-1" d="M26.76,66.7c2.55,3.76,3.14,4.54,6.88,7.13.52.36,2.11,2.26,2.6,2.56.61.37,2.13-.05,2.82.66l-.41,2.15,1.3-.04.04-1.57c1.09.33,2.57-.02,3.55.54.32.18.32.67.64.77.28.08.76-.18,1.18-.11,1.11.18,1.91.48,2.66,1.35-.55.81-.67-.11-1.06-.28-.66-.28-1.31.87-.96,1.47l1.05.53.97-1.32c.86,1.51-.93,2.54-2.28,2.43-.61-.05-.94-.52-1.35-.56-.44-.04-.91.3-1.33.27-.78-.07-5.23-.98-5.5-1.34-.12-.16.53-.88.02-1.21-.84-.53-1.49.35-1.9.29-1.05-.16-7.13-4.52-8.17-5.49-2.01-1.86-3.67-4.42-5.1-6.69-.24-.39-.62-.62-.92-.96-.26-.6.91-.38,1.27-.73.89-.85-.25-2.5-1.4-1.53-.17.14,0,.62-.41.52-.13-.87.39-3.13,1.47-3.12.83,0,1.16,1.41,1.75,1.66s1.18-.4,1.62.24c.78.48.07,1.17.28,1.85.1.33.57.38.67.54ZM25.51,69.27c.56-1.63-.59-2.56-2.01-1.61l-.09,1.32,2.09.29ZM27.9,71.39c.73-1.17-1.07-2.36-1.72-1.03-.71,1.45,1.34,1.64,1.72,1.03ZM29.18,72.27c-2.01.52,1.26,4.09.85.41l-.85-.41ZM31.15,76.52c3.35.31,1.16-3.08.13-1.34-.23.4-.12.91-.13,1.34ZM35.32,78.33c0-.5-.41-.91-.91-.91s-.91.41-.91.91.41.91.91.91.91-.41.91-.91ZM41.07,80.01c-.09.73-.02,1.73.9,1.86,1.4-1.05.7-2.16-.9-1.86Z"/>
        <path class="cls-1" d="M29.09,29.54c-.52-.71-.73-2.4-.63-3.27.09-.75.54-1.23.63-1.79.78-4.88,1.11-9.26,3.46-13.7.11-.21-.05-.59.01-.66.16-.21,1.56-.84,1.89-.79,1.39.22,1.73,2.71,1.76,3.85.08,3.09-1.01,4.63-1.44,7.04-.07.42.2.9.08,1.44-.14.68-.81.97-.97,1.46-.23.73,0,1.78-.2,2.48-.15.54-.61,1.05-.8,1.61-.47,1.37.11,2.37-1.56,3-.73.28-1.8-.06-2.24-.67Z"/>
        <path class="cls-1" d="M16.06,6.87c.75-.19,1.89,1.38,2.2,2.01,2.19,4.48,4.44,13.85,3.79,18.74-.04.29-.03.58-.25.82-2.19,1.7-3.52-1.54-4.11-3.2-.49-1.39-.91-3.87-1.26-5.41-.51-2.23-1.32-5.41-1.59-7.52-.25-1.95-.06-2.49.6-4.12.14-.35-.21-1.1.62-1.32Z"/>
        <path class="cls-1" d="M128.35,36.11c.52-.15,2.15-.04,2.82.01,5.63.46,11.63.88,17.26,1.46.45.05.98-.28,1.56-.19,1.29.19,1.86,1.84,1.07,2.93-.99,1.37-2.28.78-3.75.81-4.98.12-10.06-.61-14.87-1.99-1.01-.29-3.37-.99-4.2-1.42-.91-.47-.74-1.36.11-1.61Z"/>
        <path class="cls-1" d="M152.9,122.27c.6.43,3.04,1.81,3.68,2.08,1.87.81,3.6.75,5.46-.1,2.1,2.93-2.68,3.53-4.82,2.98-1.37-.35-3.51-1.56-4.65-2.34-.74-.51-3.36-2.59-3.87-3.36-.9-1.36-.61-2.76-.42-4.26,2.88-.47,1.6,1.49,1.99,2.14.14.23.9.54,1.23.93.38.43,1.15,1.76,1.41,1.94Z"/>
        <path class="cls-1" d="M13.38,30.51c1.09,1.02.94,3.48.13,4.66l.99,3.43c-.49,3.31-3.82.92-4.76-.84-.4-.74-1.07-3.76-.99-4.53.03-.31,1.45-3.05,1.75-3.2.7-.34,2.34,0,2.87.48Z"/>
        <path class="cls-1" d="M117.38,30.37l-1.47,1.08c-3.19-.37-6.64-1.09-9.34-2.9-.23-3.64,3.91-1.92,5.97-1.4,1.95.49,4.85.47,4.83,3.23Z"/>
        <path class="cls-1" d="M137.8,29.61c-.58.06-1.13.28-1.73.3-1.58.04-9.28-2.65-11.05-3.45-.43-.2-2.75-1.54-2.75-1.8.38-.55.87-.43,1.44-.38,1.94.18,10.98,2.31,12.76,3.06.97.41,1.45,1.2,1.33,2.27Z"/>
        <path class="cls-1" d="M26.32,55.61c-1.03-.01-2.07,1.57-2.66,1.77-1.48.49-4.37.18-5.84-.36-.52-.19-1.04-.59-1.41-1,.29-.36.65-.65,1.12-.76,1.03-.24,3-.2,4.1-.32.29-.03.58-.38,1.06-.41,1.13-.07,3.58-.38,3.63,1.08Z"/>
        <path class="cls-1" d="M114.36,33.78c1.62,0,5.75.94,3.89,3.22-1.01,1.24-5.37.18-5.64-1.36-.22-1.29.53-1.87,1.75-1.86Z"/>
        <path class="cls-1" d="M144.83,32.79c-1.49-2.73,3.89-3.21,3.12-.67-.34,1.13-2.22,1.13-3.12.67Z"/>
        <path d="M85.65,71.33c.39.44,3.25,1.94,3.78,1.99,2.21.23,3.33-1.45,4.88-1.57.1,0,1.82.48,1.9.54.26.17.94,2.27.87,2.7l-2.76,2.52c-2.29.65-3.92.91-6.27.39-.65-.14-2.69-1.03-3.06-.99-1.26.11-2.55,2.73-3.66-.33-.47-1.3-.12-5.59-1.85-6.18-1.29-.44-3.54.03-4.45,1.09-1.52,1.79-4.26,9.13-.27,9.52,1.58.16,3.99-1.46,5.59-1.83.86.71,1.68.91,1.93,2.08.17.8-.1,1.51.36,2.32.4.7,1.26.85,1.75,1.33.58.56.81,1.55,1.29,2.06.38.4,1.26.59,1.47,1.01.07.14.72,2.23.73,2.37.09,1.25-.53,2.52-1.93,2.48-.14,0-2.63-.75-2.74-.84-.07-.05-.69-1.26-.79-1.48-.65-1.48-.75-1.4-1.95-2.6-1.34-1.33-.66-.43-1.6-.81-.25-.1-.5-.56-.89-.73-1.53-.65-2.49-.04-4.02-.27-.9-.14-3.65-1.3-4.07-2.09-.15-.28.04-.64-.05-.79-.38-.6-1.92-2.54-1.94-3.06-.04-.76.17-2.84.24-3.76.29-3.7,1.39-6.16,4.05-8.82.19-.19.66-.19.9-.44.28-.28.3-.94.44-1.03.19-.12,4.04-.78,4.38-.79,2.3-.06,4.96,1.48,6.41,3.19.68.81.79,2.22,1.33,2.82Z"/>
        <path d="M133.36,103.7c-.89.94-2.24,1.35-3.42.45-.12-.09-1.01-2.67-1-2.81.02-.21.58-.18.77-.6.25-.56.07-1.48.22-1.99,2.6-8.87,5.32-17.57,7.77-26.51.97-3.55,1.49-7.54,2.82-11.04.48-1.28.62-2.98,1.13-4.55.16-.51,1.61-3.87,1.82-4.08.73-.75,1.88-.72,2.64-.01,1,.94.1,2.7-.13,3.86-2.89,14.72-8.03,30.33-11.9,45.18-.31,1.18.42.91-.71,2.11Z"/>
        <path d="M101.82,57.57l2.31,3.85c2.14,1.92,4.64,1.97,7.23,2.45,1.62-.42,3.35-1.69,4.73-2.23,4.36-1.72,5.38,2.86,1.83,5.3-1.35.93-2.27.75-3.14,1.13-3.01,1.32-3.82.9-6.88.41-.53-.08-1.14.24-1.47.12-.23-.08-.5-.62-.8-.78-2.54-1.37-4.85-2.51-6.17-5.35-.99-2.13-1.1-7.01,2.35-4.9Z"/>
        <path d="M93.26,54.87c.41.49.54,2.55.26,3.23-.04.1-1.21,1.33-1.29,1.38-1.32.77-3.93.91-5.41,1.3-.38.1-.68.55-.99.63-.25.07-.71-.4-1.21-.45-.6-.06-1.41.26-1.64.22-.29-.05-.24-.65-.57-.73-2.39-.64-3.5-.72-5.51-2.4-1.43-1.2-3.16-4.34-3.62-6.11-.66-2.52,2.08-4.87,3.93-2.31.43.6.64,1.85,1,2.48.75,1.3,3.41,3.56,4.9,3.66.46.03.76-.36,1.22-.36.85,0,2.66.34,3.36.1,1.18-.4,2.13-2.05,4.09-1.45.08.02,1.43.75,1.48.82Z"/>
        <path d="M90.74,41.32c.14.18.52.18.65.54.36,1.01.11,2.8-.61,3.59-.06.06-1.56.44-1.65.45-.58.04-1.18-.5-1.85-.48-4.23.07-8.45-.23-12.85-.73-.28-.03-.64.23-1.01.15-.12-.02-2.05-1.08-2.08-1.2-.21-1.57.36-2.6,1.8-3.22,3.01-.04,6.06-.14,9.08-.13,1.65,0,3.03.18,4.85.27,1.87.09,2.32-.94,3.68.75Z"/>
        <path d="M61.34,33.3c-1.36,4.7-2.36,9.45-3.57,14.29-.53,2.14-2.74,4.07-4.5,1.85-1-1.25-.38-1.21-.25-2.04.23-1.54.59-1.75.99-3.08,1.41-4.66,2.69-11.83,4.69-15.94.61-1.26,2.29-2.49,3.23-.97.4.65-.31,4.95-.59,5.9Z"/>
        <path d="M161.06,52.46c.25.25.31,1.59.25,2.01-.24,1.83-1.56,4.34-1.75,5.64-.08.59.28,1.1.19,1.49-.08.34-.64.56-.73.91-.13.47.24.92.18,1.25-.05.29-.56.51-.68.9-.6,2.08-.94,5.82-1.95,7.63-.64,1.14-3.08,1.16-3.69.01-.95-1.8.69-5.31,1.22-7.24.89-3.27,1.86-7.33,3.26-10.72.35-.85.04-1.69,1.44-2.28.51-.22,1.96.09,2.27.4Z"/>
        <path d="M115.11,49.37c2.69,1.48,5.41,2.77,8.04,4.56.27.18.74.02,1.12.35.29.25.85,1.89.81,2.28-.14,1.31-1.22,2.07-2.44,2.26-1.42.23-2.18-.79-3.15-1.77-3.09-1.4-5.73-3.51-8.38-5.41-.99-.71-2.66-1.2-2.75-2.84-.15-2.84,2.65-1.97,4.32-1.16.64.31,1.89,1.44,2.42,1.73Z"/>
        <path d="M150.31,52.75c.35-.03.67.12.98.24.52.29.7,1.14.73,1.71.05.95-1.58,7.98-2.02,8.97-.78,1.76-3.09,2.45-3.96.46s2.46-8.21,2.61-10.65c.09-.14,1.44-.7,1.65-.72Z"/>
        <path d="M79.3,72.59c.31.28,1.09,1.81,1.05,2.2-.02.16-1.22,2.6-1.38,2.8-.39.5-1.38,1.1-1.99,1.25-3.55.87-3.28-4.02-1.63-5.87.92-1.02,2.86-1.37,3.95-.37Z"/>
        <path d="M64.55,31.94c.63-.78,1.19-1.71,2.35-.94,1.6,1.05.1,6.36-.85,7.67-1.3,1.78-3.3.91-3.3-1.4,0-.36,1.01-4.43,1.15-4.77.15-.37.5-.37.64-.55Z"/>
        <path d="M88.95,82.2c.58-.18,1.73-.03,2.08.5.61,1.86,3.07,5.42-.8,5.21-2.04-.11-3.39-5.06-1.28-5.71Z"/>
        <path d="M144.3,72.18c-.93-1.36-.71-3.65,1.17-3.95,4.3-.7,3.03,5.83-1.17,3.95Z"/>
        <path d="M96.21,81.4c.64,1.11-.46,2.76-1.71,2.89-2.67.27-3.76-4.8-.19-3.8.29.08,1.83.77,1.9.91Z"/>
        <path d="M35.11,163.68c.6.3-.39,2.68-.53,2.82-.27.27-1.37.16-1.74.4-.24.16-.25.82-.79.96s-1.97-.25-2.76.31c.08.51.84.34,1.03.98.1.35.11.8-.22,1.04-1.04.29-2.04-.44-1.35-1.49l-4.16,2.14c-.81,1.64-2.53,2.28-3.8,3.3-.75.6-1.57,2.66-3.03,1.79,1.13,2.62-2.26,2.47-1.49.81.37-.8,1.54-.77-.41-1.51l.55-4.12,1.07.27c.02-.32-.1-.74.06-1.02.44-.76,2.88-2.11,3.34-2.82.24-.37,0-1.1.62-1.41.65-.33,1.64.52,2.56-.65-.77-1.38-.54-2.1,1.17-1.85l.15.78,5.95-1.53,3.76.79Z"/>
        <path d="M30.29,174.12c.74,1.3-.84,1.05-1.34,1.31-.36.18-.62,1.01-1.55.78v1.48c-.37.27-.8-.12-1.16-.07-2.18.33-.01,2.6-1.92,3.12-.84-.31-.44-1.77-.51-1.87-.26-.36-.93-.14-1.17-.3s-.24-.94-.34-1.01c-.04-.03-.93.52-1.06-.15-.12-.6.87-.62,1.2-.94s1.42-2.52,1.54-2.61c.1-.08,2.17-.65,2.34-.89.13-.19-.41-1.38.05-1.82,2.19-.49,1.5,1.24,2.09,2,.29.38,1.69.7,1.84.97Z"/>
        <path d="M52.32,176.22c.3.29-.48,2.73-.8,3.08-.07.08-1.7,1.12-1.8,1.15-1.53.47-1.76-1.29-1.71-2.5.11-2.6,2.48-1.91,4.31-1.73Z"/>
        <path d="M37.55,176.25c.9,3.47-3.28,1.61-1.46.21l1.46-.21Z"/>
        <path d="M47.47,183.16c-2.42.43-1.84-2.66-.32-1.92.93.45.62,1.1.32,1.92Z"/>
        <path d="M41.1,172.96c-.98-1.25,1.03-2.99,1.52-1.38.38,1.24-.38,1.65-1.52,1.38Z"/>
        <circle cx="54.29" cy="174.59" r="1.01"/>
        <circle cx="46.94" cy="172.06" r=".99"/>
        <path d="M39.98,173.55v1.84s-1.57,0-1.57,0c-.44-1.33.06-2.11,1.57-1.83Z"/>
        <circle cx="54.16" cy="179.57" r=".98"/>
        <path d="M45.03,170.26c-.36.53-1.57.13-1.58-.88-.02-1.89,2.67-.73,1.58.88Z"/>
        <path d="M55.87,177.75c-.97-.94,1-2.68,1.49-1.08.36,1.19-.6,1.94-1.49,1.08Z"/>
        <circle cx="31.91" cy="177.15" r=".96"/>
        <path d="M39.09,168.46c.81-.24,2.17,1.4.71,1.82-1.43.41-1.66-1.53-.71-1.82Z"/>
        <path d="M52.31,172.99l-1.47-.52c-.84-1.34,2.75-2.41,1.47.52Z"/>
        <path d="M70.85,132.23c-.88-1.39,1.54-2.21,1.84-1.16.26.9-1.38,1.88-1.84,1.16Z"/>
        <path d="M45.08,175.41l-1.49-.25c-.45-1.16,0-1.79,1.24-1.51l.25,1.76Z"/>
        <path d="M61.31,155.85c1.32-.39,1.88,2.2.26,2.08-.69-.05-1-1.86-.26-2.08Z"/>
        <path d="M41.51,166.07l1.15.66c-.16,1.64-1.4,1.34-2.11.23l.96-.89Z"/>
        <path d="M64.62,150.19c-1.46.91-2-2.19-.39-1.86,1.04.21.66,1.69.39,1.86Z"/>
        <path d="M59.81,168.46l.16,1.32c-1.87,1.68-2.47-1.69-.16-1.32Z"/>
        <path d="M73.26,124.72l-.04-1.57c2.36-.52,2.02,2.46.04,1.57Z"/>
        <circle cx="49.26" cy="174.47" r=".9"/>
        <path d="M33.59,175.12c-.14-.2.14-1.47.27-1.55,1.41-.95,2.27,2.78-.27,1.55Z"/>
        <path d="M64.88,155.01c-1.49.9-1.91-1.5-.87-1.82s1.37,1.52.87,1.82Z"/>
        <circle cx="34.49" cy="169.4" r=".91"/>
        <path d="M42.63,182.88c-2.87,1.25-1.2-2.95-.08-1.32.16.23.22,1.09.08,1.32Z"/>
        <circle cx="41.87" cy="176.95" r=".89"/>
        <path d="M74.81,129.83c-.35.59-2.26-.21-1.47-1.33.67-.96,2.06.33,1.47,1.33Z"/>
        <polygon points="32.76 172.73 31.26 172.48 31.4 171.24 32.51 171.24 32.76 172.73"/>
        <path d="M37.56,167.61c-1.22.73-2.1-1.04-1.29-1.55,1-.63,1.91,1.18,1.29,1.55Z"/>
        <circle cx="29.54" cy="179.7" r=".86"/>
        <circle cx="34.46" cy="179.66" r=".86"/>
        <circle cx="37.04" cy="182.11" r=".86"/>
        <circle cx="46.69" cy="177.02" r=".86"/>
        <path d="M36.01,172.69c-1.01-.62.7-2.25,1.45-1.04.59.96-.88,1.39-1.45,1.04Z"/>
        <circle cx="39.4" cy="164.38" r=".82"/>
        <circle cx="59.21" cy="164.42" r=".8"/>
        <polygon points="65.99 147.54 66.65 145.93 67.33 147.13 65.99 147.54"/>
        <path d="M126.82,171.12l-.26,2.4c.72.56,1.88-.13,2.4.13.59.3.53,1.27.88,1.69.37.44,1.76.88,2.32,1.3,1.76,1.33,2.15,3.03,3.6,4.31.37.33,1.46.26,1.21,1.25-.18.71-2.23.9-2.92,1.53l.55.93c.01.77-1.31,1.33-1.77.68-.32-.58-.05-1.11.41-1.49l-.27-.26c-1.04-.91-2.22-.14-2.88-.75l.09-1.81c-.61-1.02-1.43.03-2.18-.51-.7-.5-.34-1.13-.54-1.61-.6-1.48-.99-.72-1.71-.96-.41-.14-1.3-.86-1.84-1.13-1.43-.72-2.78-.63-2.95-2.69.92-1.65,2.82-1.58,4.5-1.14.16-.48-.42-.64-.44-.93-.07-.86,1.1-1.1,1.78-.94Z"/>
        <path d="M104.58,178.9c.17.59-.27,1.28-.24,1.76.02.37.41.66.5,1.08.3,1.41-1.02,2.29-2.41,1.87-2.13-.65-1.86-2.04-2.81-2.82-.58-.48-2.64-.53-1.13-1.97,1.63.51,1.18.08,2.08-.3,1.47-.63,2.48.77,4.02.4Z"/>
        <path d="M123.1,185.57c-.57-.4-.22-1.96.78-1.85-.95-.95-.3-1.8-.27-2.95l2.94.14,2.97,3.48-.45,1.19c-.68.21-1.07-.42-1.31-.42-.17,0-.41.38-.75.38-.53,0-1.47-.69-1.98-.7s-1.23,1.22-1.93.73Z"/>
        <path d="M109.37,178.93l-.24,1.56c1.14.77,3.39.5,2.96,2.25-.09.37-.82.21-1.03.52-.11.16.01.58-.09.68-.17.16-.76-.02-1.05.17-.4.26-.01,1.57-1.2,1.65-1.01.07-1.03-2.11-1.49-2.84l-1.32.15c-.83-.41-.67-1.79.18-1.98.46-.11,1.02.33,1.51.24.08-.01.4-.96,1.25-.55.04-.43-.58-.34-.83-.64-.5-.61-.17-1.14.47-1.44l.87.25Z"/>
        <circle cx="106.3" cy="136.47" r="1.07"/>
        <path d="M122.21,172.68c-.6,1.02-2.34.2-2.06-.83.47-1.79,2.72-.29,2.06.83Z"/>
        <path d="M98.6,173.56c.88-.22,2.11,1.41.69,1.81-1.41.4-1.92-1.5-.69-1.81Z"/>
        <path d="M101.5,165.82c.88.08.88,2.21,0,2.29-1.26.12-1.26-2.41,0-2.29Z"/>
        <path d="M107.82,173.83c.56-.8,2.54.19,1.73,1.33-.67.95-2.31-.51-1.73-1.33Z"/>
        <circle cx="106.39" cy="177.12" r=".96"/>
        <path d="M105.82,140.86c.59-.19,1.18.17,1.41.7l-.91,1.41c-.66-.33-1.51-1.78-.5-2.11Z"/>
        <path d="M115.59,172.97c-.8-.56.19-2.54,1.33-1.73.95.67-.51,2.31-1.33,1.73Z"/>
        <circle cx="96.41" cy="182.09" r=".96"/>
        <path d="M93.49,178.65c.38-.09,1.22.58,1.43.95.11.61-1.08,1.21-1.6.78-.61-.38-.47-1.58.17-1.73Z"/>
        <path d="M116,175.96c.97-.02,1.27,1.89.49,2.12-1.09.33-1.76-1.62-.49-2.12Z"/>
        <circle cx="123.68" cy="179.63" r=".92"/>
        <circle cx="118.65" cy="174.47" r=".92"/>
        <path d="M114.46,173.84l.04,1.57c-2.36.52-2.02-2.46-.04-1.57Z"/>
        <path d="M105.69,145.97c.85-.53,2.55.67,1.31,1.45-1.14.72-2.03-1-1.31-1.45Z"/>
        <circle cx="118.63" cy="179.57" r=".9"/>
        <circle cx="116.21" cy="182.08" r=".91"/>
        <circle cx="101.36" cy="177.07" r=".89"/>
        <circle cx="121.25" cy="182.11" r=".89"/>
        <path d="M104.58,175.41l-1.58-.29c-.17-.66.08-1.24.68-1.57.92.13,1,1.13.9,1.86Z"/>
        <path d="M104.58,160.4c-2.8.19-.98-2.91-.13-1.62l.13,1.62Z"/>
        <path d="M119.28,185.29c-.99.63-2.25-.68-1.04-1.45.97-.62,1.69,1.04,1.04,1.45Z"/>
        <path d="M117.17,187.73c-1.62.83-2.79-1-.72-1.31l.72,1.31Z"/>
        <path d="M111.82,186.4c.05.48.14,2.05-.67,1.88-.69-.46-.75-1.09-.68-1.87h1.34Z"/>
        <polygon points="111.79 171.42 111.54 173 110.52 172.69 110.73 171.24 111.79 171.42"/>
        <circle cx="113.71" cy="184.6" r=".79"/>
        <circle cx="111.19" cy="177" r=".79"/>
        <circle cx="103.91" cy="184.81" r=".77"/>
        <path d="M105.72,132.19c-.15-.16-.43-.86-.34-1,1.34-.61,2.26.1,1.08,1.21-.21.1-.6-.07-.74-.22Z"/>
        <path d="M137.56,18.62c-.06-.85-.26-2.16.88-2.37,1,.58,1.45,1.71.46,2.52l-1.34-.14Z"/>
        <path d="M141.76,20.98c-.82.82-2.25-.03-1.67-1.26.83-1.79,2.73.21,1.67,1.26Z"/>
        <path d="M146.03,18.95c.74-.06,1.44,1.23.63,1.98-1.49,1.38-2.41-1.82-.63-1.98Z"/>
        <path d="M153.27,21.62c1.63-.48,1.5,2.01.2,2.12-1.6.06-1.25-1.81-.2-2.12Z"/>
        <path d="M131.6,16.17c-.8.28-1.33-.16-1.5-.93l.91-1.42,1.15.98-.56,1.36Z"/>
        <circle cx="93.85" cy="7.37" r="1.07"/>
        <circle cx="168.08" cy="32.85" r="1.07"/>
        <path d="M73.94,6.34l.76.24c1.42,3.41-3.21,2.14-.76-.24Z"/>
        <path d="M68.84,6.32c.95-.28,2.2,1.67.71,2.09-1.61.45-1.71-1.8-.71-2.09Z"/>
        <path d="M133.02,16.53c1.18-.75,2.56,1.8.57,2.07-1.36.19-1.05-1.77-.57-2.07Z"/>
        <circle cx="148.45" cy="22.75" r="1.01"/>
        <circle cx="84.09" cy="7.55" r="1.01"/>
        <circle cx="98.83" cy="7.38" r=".99"/>
        <circle cx="165.74" cy="30.29" r=".97"/>
        <path d="M154.96,25.87l.4-1.61c1.13-1.16,2.76,2.26-.4,1.61Z"/>
        <path d="M111.79,9.02c.67.42.16,3.03-1.19,1.59-.92-.98.5-2.02,1.19-1.59Z"/>
        <circle cx="89.01" cy="7.53" r=".95"/>
        <circle cx="123.71" cy="12.46" r=".93"/>
        <circle cx="126.09" cy="15.05" r=".93"/>
        <path d="M163.17,26.69c1.16.29,1.22,1.55.2,2.11-1.16-.29-1.22-1.55-.2-2.11Z"/>
        <circle cx="158.42" cy="27.66" r=".9"/>
        <path d="M66.44,9.02c.81-.2,1.46,1.09.9,1.45-1.42.91-2.3-1.1-.9-1.45Z"/>
        <path d="M106.95,9.3l.04,1.3-1.61-.41c-.01-1.03.73-1.41,1.57-.89Z"/>
        <path d="M146.85,132.58c1.72-.35,2.52,1.23,2.46,2.74-.07,1.66-1.2,5.34-3.31,4.98-2.26-.38-.51-5.03-.56-6.45.17-.56.84-1.16,1.42-1.28Z"/>
        <path d="M153.55,134.74c4.53-1.2,1.43,9.63-1.29,5.98-.54-.72-.41-3.91-.14-4.72.16-.48.95-1.13,1.42-1.26Z"/>
        <path d="M155.69,89.95c1.08-.28,1.96,1.67.71,2.09s-2.4-1.65-.71-2.09Z"/>
        <circle cx="160.83" cy="106.23" r="1.03"/>
        <path d="M158.35,102.54c1.14-.2,1.44,2.92-.44,1.99-1.03-.51-.22-1.87.44-1.99Z"/>
        <circle cx="158.21" cy="93.49" r=".96"/>
        <circle cx="158.35" cy="98.72" r=".95"/>
        <circle cx="153.28" cy="88.41" r=".93"/>
        <path d="M157.43,109.17c-.78-1.34,1.56-1.8,1.78-.58.21,1.14-1.31,1.39-1.78.58Z"/>
        <path d="M157.43,114.26c-.71-1.22,1.41-1.98,1.7-.51.24,1.22-1.29,1.21-1.7.51Z"/>
        <path d="M160.51,100.42c1.6-.45,1.59,1.98,0,1.52-.89-.26-.89-1.27,0-1.52Z"/>
        <path d="M25.51,69.27l-2.09-.29.09-1.32c1.42-.96,2.57-.02,2.01,1.61Z"/>
        <path d="M27.9,71.39c-.38.61-2.43.42-1.72-1.03.65-1.33,2.45-.14,1.72,1.03Z"/>
        <path d="M31.15,76.52c0-.43-.1-.95.13-1.34,1.03-1.74,3.22,1.65-.13,1.34Z"/>
        <path d="M29.18,72.27l.85.41c.4,3.68-2.86.11-.85-.41Z"/>
        <path d="M41.07,80.01c1.6-.3,2.3.81.9,1.86-.92-.13-.99-1.13-.9-1.86Z"/>
        <circle cx="34.42" cy="78.33" r=".91"/>
      </g>
    </g>
  </g>
</svg>